<svg width="59" height="77" viewBox="0 0 59 77" fill="none" xmlns="http://www.w3.org/2000/svg">
<path d="M12.7318 23.2966C12.3795 29.1188 13.8582 34.6004 17.127 39.5898C19.3684 43.0111 22.4118 46.1719 26.4312 49.2531C27.0095 49.6965 28.7648 50.8101 28.8392 50.8573L29.1668 51.0649L29.4944 50.8573C29.5688 50.8101 31.3239 49.6964 31.9019 49.2531C35.9216 46.1715 38.9653 43.0104 41.2067 39.5891C44.476 34.5996 45.9546 29.118 45.6017 23.2968C45.4195 20.2896 45.6888 17.1272 46.4018 13.8979L46.5571 13.1948L45.8381 13.1552C38.0159 12.7243 32.2969 8.42381 29.584 5.89882L29.1672 5.51074L28.7503 5.89882C26.0378 8.42423 20.3191 12.7252 12.4955 13.1553L11.7764 13.1948L11.9317 13.898C12.6447 17.127 12.914 20.2891 12.7318 23.2966ZM29.1673 7.17458C32.0561 9.76085 37.5951 13.697 45.0603 14.3272C44.4333 17.4273 44.2046 20.4663 44.3804 23.3708C44.9564 32.8705 40.6312 41.0192 31.1577 48.2823C30.7644 48.5837 29.7072 49.2683 29.1668 49.6148C28.6264 49.2683 27.5689 48.5837 27.1756 48.2823C17.7031 41.0206 13.3781 32.8719 13.953 23.3706C14.1291 20.4659 13.9003 17.4271 13.273 14.3272C20.7398 13.6977 26.2787 9.7612 29.1673 7.17458Z" fill="#C8B18A"/>
<path d="M34.2442 59.0129C34.2389 58.9508 34.2299 58.89 34.2184 58.8301C33.9563 59.7392 31.7944 60.4483 29.1662 60.4483C26.538 60.4483 24.3762 59.7392 24.1142 58.8301C24.1026 58.89 24.0937 58.9508 24.0883 59.0129C23.7821 62.5441 22.5444 65.1528 21.7238 66.5359C21.3164 67.2228 21.4133 68.0946 21.9653 68.6719C23.4881 70.2644 26.3925 73.453 28.0085 76.2029C28.1676 76.474 28.581 76.3626 28.581 76.0484V66.7434C28.12 66.5241 27.8005 66.0554 27.8005 65.5108C27.8005 64.7565 28.412 64.1451 29.1662 64.1451C29.9205 64.1451 30.532 64.7565 30.532 65.5108C30.532 66.0553 30.2125 66.524 29.7515 66.7434V76.0484C29.7515 76.3626 30.1649 76.474 30.324 76.2029C31.9401 73.453 34.8444 70.2644 36.3673 68.6719C36.9191 68.0946 37.016 67.2228 36.6087 66.5359C35.788 65.1528 34.5502 62.5441 34.2442 59.0129Z" fill="#C8B18A"/>
<path d="M9.12851 23.0788C8.77145 28.9802 10.4119 34.9036 14.0044 40.6841C15.2724 42.7247 16.8635 44.4989 18.2526 46.4261C19.4745 48.1212 20.6332 49.8603 21.8019 51.592C22.3296 52.3737 22.7576 53.1048 23.1518 53.9501C23.4675 54.6274 24.5509 55.8996 24.5509 56.6285H24.5508C24.254 56.8577 24.0873 57.1127 24.0873 57.3815C24.0873 58.3781 26.3612 59.1859 29.1662 59.1859C31.971 59.1859 34.245 58.3781 34.245 57.3815C34.245 57.1127 34.0782 56.8577 33.7814 56.6285C33.7656 56.2551 34.408 55.4565 34.5779 55.1408C35.9613 52.5699 37.4124 50.0281 39.0994 47.6421C40.7777 45.2683 42.789 43.1607 44.3282 40.6841C47.921 34.9035 49.5614 28.9802 49.2036 23.0788C48.8127 16.6253 50.9606 11.0452 50.9819 10.9905L51.7006 9.16141L49.7514 9.41279C44.7573 10.0566 39.9442 8.88365 35.4446 5.92604C32.0408 3.68895 30.1052 1.21462 30.0859 1.18985L29.1677 0L28.2462 1.18992C28.2269 1.21469 26.2916 3.68895 22.888 5.92597C18.3886 8.88358 13.5748 10.0567 8.58065 9.41272L6.63574 9.16289L7.34985 10.9896C7.37166 11.045 9.51954 16.6252 9.12851 23.0788ZM24.2377 7.82051C26.5449 6.29337 28.2146 4.68948 29.1662 3.67031C30.1178 4.68933 31.7873 6.29323 34.0949 7.82051C38.4825 10.7243 43.3395 12.1114 48.241 11.8776C47.5701 14.1546 46.5927 18.4187 46.8832 23.2193C47.7215 37.0451 36.253 47.4006 32.718 50.2452C32.0809 50.7579 30.2837 51.9168 29.166 52.6231C28.0483 51.917 26.2513 50.7582 25.6138 50.2452C22.0793 47.401 10.612 37.047 11.4488 23.2191C11.7397 18.4186 10.7621 14.1545 10.091 11.8775C14.9949 12.1114 19.8505 10.7244 24.2377 7.82051Z" fill="#C8B18A"/>
<path d="M53.6418 35.6531C53.8513 35.8785 54.2133 35.9691 54.5765 35.9855C54.9403 36.0023 55.3045 35.944 55.5301 35.8852C55.922 35.7826 56.2997 35.6001 56.6328 35.3637C56.9627 35.1267 57.2645 34.8394 57.5421 34.5373C57.591 34.486 57.7673 34.2448 57.9388 34.0311C58.1117 33.818 58.2695 33.6312 58.3357 33.7074C58.0383 33.3578 57.6466 33.0957 57.289 33.055C56.8753 33.0083 56.4753 33.0712 56.0821 33.2075C55.9103 33.2667 55.7396 33.34 55.5703 33.4244C55.3994 33.5084 55.2251 33.6029 55.054 33.7059C54.7109 33.9118 54.3698 34.1505 54.0394 34.4031C53.9958 34.436 53.9497 34.473 53.9028 34.5129L54.0991 33.5293C54.1587 33.2513 54.2023 32.9702 54.2464 32.6893C54.4449 32.8952 54.7741 32.9539 55.0986 32.939C55.4236 32.9244 55.7434 32.8352 55.9374 32.7574C56.3134 32.6073 56.6497 32.3607 56.9488 32.06L56.9448 32.0593L55.8138 31.8844C55.7649 31.9121 55.7154 31.9384 55.6658 31.9639C55.3788 32.1116 55.0781 32.2329 54.7676 32.3351C54.6123 32.3866 54.4545 32.4315 54.294 32.4717C54.2897 32.4728 54.2849 32.4737 54.2804 32.4753L54.3546 32.0077C54.4804 31.9998 54.6063 31.9881 54.7316 31.9725C54.9708 31.9425 55.2067 31.893 55.4375 31.8263L55.4274 31.8247L52.9516 31.442L52.9416 31.4405C53.1393 31.568 53.3469 31.6841 53.5638 31.7855C53.6774 31.8386 53.7929 31.8886 53.9093 31.9355L53.8254 32.3967C53.8217 32.3938 53.8176 32.3913 53.8138 32.3889C53.6756 32.2978 53.5412 32.2044 53.4113 32.1073C53.1517 31.9138 52.9054 31.7116 52.6803 31.496C52.6414 31.4587 52.6027 31.4209 52.5655 31.3824C52.3872 31.2012 52.2151 31.0067 52.0666 30.8029C51.8887 30.5535 51.7424 30.2835 51.6463 29.9909C51.6968 30.1346 51.7676 30.2677 51.8438 30.3957C51.9239 30.5209 52.0147 30.6378 52.1119 30.7497C52.2097 30.861 52.3182 30.963 52.4298 31.0616C52.5431 31.1581 52.6639 31.2492 52.7837 31.3357C52.8354 31.3713 52.8878 31.4067 52.9416 31.4406L55.4373 31.8266C55.4996 31.8091 55.5615 31.7896 55.6227 31.7693C55.768 31.719 55.9074 31.6616 56.042 31.5951C56.1757 31.5258 56.3075 31.4508 56.4316 31.3611C56.5555 31.2708 56.6747 31.1716 56.7862 31.059C56.8946 30.9422 56.9993 30.8168 57.0877 30.6731C56.9145 30.9677 56.6994 31.2183 56.4608 31.4309C56.2619 31.6038 56.05 31.7553 55.8137 31.8847L56.9487 32.0603C57.072 31.9398 57.1813 31.8096 57.2817 31.6732C57.3835 31.5371 57.4792 31.3953 57.5698 31.2512C57.6038 31.1961 57.7316 30.9429 57.8511 30.7172C57.9713 30.4919 58.0903 30.2949 58.1514 30.3642C58.0118 30.2042 57.8501 30.067 57.6868 29.9687C57.5241 29.8705 57.3612 29.8113 57.211 29.8061C56.8625 29.7934 56.5427 29.8892 56.2191 30.0556C55.655 30.3478 55.0937 30.8561 54.5438 31.4145C54.507 31.4532 54.4684 31.494 54.4292 31.5352L54.6197 29.9414C54.7945 30.1305 55.0813 30.1634 55.3595 30.1235C55.6374 30.084 55.9095 29.9715 56.0664 29.8793C56.6207 29.559 57.0187 28.9322 57.2824 28.2651C57.3058 28.2082 57.3721 27.9485 57.4374 27.7172C57.5008 27.486 57.5635 27.2838 57.6214 27.3481C57.3523 27.0519 57.0555 26.8519 56.8235 26.8615C56.5545 26.8729 56.3125 26.9894 56.0755 27.1777C55.8681 27.342 55.6661 27.5611 55.4583 27.8135C55.256 28.0661 55.0313 28.3508 54.81 28.6489C54.7807 28.6879 54.7497 28.7313 54.7182 28.7775L54.7574 28.2784L54.7764 28.0291L54.7866 27.7789L54.8203 26.9282C54.9643 27.1032 55.1897 27.1139 55.4006 27.0535C55.6122 26.9932 55.808 26.8612 55.9208 26.7583C56.1402 26.5596 56.3126 26.2733 56.4193 25.9419L56.4169 25.9419L55.7165 25.9212C55.692 25.9549 55.6667 25.9872 55.6408 26.0189C55.5661 26.1105 55.4865 26.1964 55.4027 26.2773C55.317 26.3583 55.2252 26.4341 55.1313 26.506C55.0368 26.5782 54.939 26.6443 54.8374 26.7066C54.8346 26.7081 54.8316 26.7098 54.8288 26.7119L54.8457 26.2397C54.9231 26.2146 54.9995 26.1859 55.0747 26.1534C55.2181 26.0913 55.3555 26.0107 55.4833 25.9143H55.4851C55.5188 25.889 55.5523 25.8629 55.5848 25.8353C55.6621 25.7666 55.7358 25.6922 55.8041 25.6096C55.8713 25.524 55.9348 25.4344 55.9897 25.3312C56.0447 25.2274 56.0915 25.1155 56.1296 24.9929C56.1653 24.8663 56.194 24.732 56.2093 24.5827C56.1821 24.8879 56.1187 25.1579 56.0179 25.3948C55.9348 25.5886 55.8338 25.7637 55.7174 25.9212L56.4193 25.9419H56.4204C56.5068 25.6752 56.5662 25.3804 56.5949 25.0808C56.6008 25.0234 56.6064 24.7639 56.61 24.5335C56.6096 24.3032 56.6025 24.1021 56.6536 24.1611C56.4183 23.8888 56.1944 23.7102 56.0559 23.7326C55.8955 23.7589 55.7701 23.8868 55.6441 24.0867C55.558 24.223 55.4763 24.3928 55.3824 24.5862C55.2884 24.7796 55.1904 24.9968 55.0859 25.2279C55.1082 24.9823 55.1234 24.6946 55.1163 24.3684C55.1075 24.0422 55.0811 23.6778 55.0375 23.2796C54.9858 22.8172 54.9117 22.388 54.8417 22.0046C54.7717 21.6212 54.7059 21.2835 54.6587 21.0025C54.5766 20.5312 54.545 20.2205 54.5368 20.1328C54.5398 20.1684 54.5454 20.2398 54.551 20.345C54.5585 20.4996 54.5643 20.7258 54.556 21.0101C54.5494 21.2943 54.5274 21.6367 54.4959 22.0226C54.4647 22.4086 54.4239 22.8376 54.3939 23.2959C54.37 23.6776 54.3509 24.0261 54.3425 24.3392C54.3328 24.6522 54.3274 24.9298 54.3401 25.1694C54.157 24.728 53.9959 24.352 53.8257 24.1016C53.697 23.9111 53.5667 23.7932 53.4061 23.7731C53.2668 23.7561 53.0493 23.9322 52.8177 24.1861C52.8676 24.1308 52.8653 24.3168 52.8616 24.5298C52.8569 24.7427 52.8533 24.9826 52.8571 25.0359C52.8752 25.3134 52.9238 25.5882 53.0006 25.8411H53.0016L53.346 25.8513L53.0041 25.8412L53.0017 25.8412C53.0495 25.9982 53.1165 26.1469 53.1859 26.282C53.256 26.4171 53.3396 26.539 53.4376 26.6425C53.5386 26.7497 53.7189 26.8943 53.9228 26.9748C54.1257 27.055 54.3507 27.0707 54.5135 26.9124L54.4522 27.7558L54.4344 28.0036L54.4078 28.2506L54.3539 28.7446C54.3314 28.6938 54.3089 28.6461 54.2873 28.6031C54.1228 28.2745 53.9642 27.9677 53.7817 27.6978C53.6031 27.4281 53.4265 27.1974 53.2381 27.0215C53.0228 26.82 52.7947 26.6911 52.5283 26.6562C52.2985 26.6265 51.9816 26.7806 51.683 27.0109C51.7475 26.9607 51.7887 27.1446 51.8271 27.3559C51.8686 27.5788 51.9098 27.8019 51.9205 27.8596C52.0637 28.4815 52.3442 29.1078 52.8299 29.5192C52.9689 29.6366 53.1979 29.7983 53.4595 29.899C53.7192 29.9992 54.0053 30.0373 54.2237 29.8954L53.9947 31.4692C53.9709 31.4166 53.9427 31.3664 53.9178 31.3215C53.5323 30.632 53.1172 30.0291 52.6421 29.6457C52.3679 29.4259 52.0616 29.2758 51.7203 29.2175C51.4216 29.1664 51.0436 29.2935 50.6889 29.4956C50.7649 29.4518 50.8334 29.6385 50.8957 29.8527C50.9573 30.0665 51.0199 30.3086 51.0395 30.3632C51.1432 30.6481 51.2762 30.9368 51.4303 31.2069C51.6212 31.5428 51.8625 31.8547 52.17 32.1056C52.3289 32.2352 52.6023 32.4192 52.9035 32.5437C53.2044 32.6676 53.5328 32.7312 53.7873 32.608C53.7381 32.8849 53.6893 33.162 53.6245 33.4359L53.412 34.4047C53.3851 34.3491 53.3578 34.2966 53.3309 34.2489C53.1297 33.8856 52.9105 33.542 52.6744 33.2365C52.5559 33.0834 52.4349 32.9403 52.3043 32.8075C52.1719 32.6745 52.0347 32.5527 51.8912 32.4441C51.5637 32.1953 51.2046 32.0161 50.799 31.9236C50.448 31.8441 49.9968 31.9316 49.6108 32.1018C49.6926 32.0643 49.7972 32.2611 49.8794 32.4817C49.9602 32.7018 50.034 32.9494 50.0602 33.0065C50.2052 33.3379 50.3761 33.6754 50.5894 33.9948C50.8024 34.3137 51.0468 34.6119 51.3537 34.8667C51.5283 35.012 51.8255 35.2227 52.1551 35.3766C52.4843 35.5301 52.8448 35.6258 53.1351 35.5272L52.937 36.2961L52.7114 37.0571C52.6854 36.9991 52.6585 36.9442 52.6322 36.8943C52.4317 36.5128 52.2179 36.1523 51.9565 35.8214C51.699 35.4914 51.4209 35.1985 51.1111 34.9559C50.7573 34.6786 50.364 34.4675 49.9174 34.3389C49.5315 34.2277 49.0347 34.2749 48.6154 34.4108C48.7062 34.3811 48.8161 34.5854 48.9146 34.8161C49.0152 35.0469 49.1092 35.3058 49.1336 35.3642C49.2722 35.6718 49.4287 35.9858 49.6214 36.2907C49.8599 36.6693 50.1506 37.0342 50.5033 37.3463C50.6841 37.5068 50.9918 37.7433 51.3351 37.9257C51.6781 38.1075 52.0563 38.2346 52.3714 38.1612L52.1007 38.9592L51.9415 39.428L51.7644 39.8904C51.7403 39.83 51.7154 39.7724 51.6903 39.7199C51.595 39.5193 51.4991 39.325 51.3849 39.133C51.2715 38.9411 51.151 38.7556 51.0228 38.5784C50.7662 38.2241 50.4783 37.9031 50.1556 37.6304C49.7877 37.3184 49.3721 37.0697 48.8982 36.8985C48.4885 36.7513 47.9582 36.7511 47.517 36.8486C47.6118 36.8269 47.7322 37.0433 47.8378 37.2854C47.9434 37.527 48.0344 37.7942 48.0634 37.8568C48.1504 38.0405 48.2333 38.2226 48.326 38.4054C48.4204 38.5888 48.5225 38.7722 48.6347 38.9529C48.859 39.3139 49.1231 39.6641 49.4458 39.9776C49.6323 40.1578 49.9408 40.4231 50.2867 40.6373C50.6332 40.8511 51.0171 41.0125 51.3496 40.968L51.038 41.697C50.9326 41.9393 50.8336 42.1845 50.7232 42.4245C50.7024 42.3621 50.6813 42.303 50.6571 42.2476C50.3018 41.4064 49.8217 40.6237 49.178 40.0246C48.8044 39.6791 48.3787 39.3927 47.894 39.1811C47.6844 39.0893 47.4449 39.0335 47.2024 39.0086C46.9585 38.9831 46.7168 38.9911 46.489 39.0211C46.5864 39.0074 46.706 39.2346 46.8086 39.4862C46.911 39.7372 46.9965 40.0131 47.0242 40.0783C47.1666 40.4169 47.3334 40.7701 47.5141 41.1089C47.7406 41.5315 48.0111 41.9464 48.354 42.3225C48.5317 42.5169 48.8334 42.8093 49.1736 43.0525C49.5138 43.2951 49.8928 43.4873 50.2282 43.4669C50.1123 43.7227 49.9776 43.9688 49.8478 44.2173L49.3876 45.093C49.3707 45.0285 49.351 44.966 49.3315 44.909C49.1842 44.4739 49.0024 44.0497 48.7796 43.6526C48.5553 43.2543 48.2974 42.8878 47.9795 42.5543C47.6204 42.1746 47.2035 41.8502 46.7235 41.5956C46.3084 41.3762 45.7671 41.2881 45.3239 41.3178C45.4213 41.3119 45.5377 41.5526 45.6305 41.8136C45.7246 42.0749 45.7991 42.3596 45.8241 42.4276C45.8972 42.6256 45.9743 42.827 46.0578 43.0295C46.0994 43.1306 46.1433 43.2325 46.1888 43.3338C46.2324 43.434 46.2781 43.5341 46.3259 43.6339C46.5171 44.0327 46.7441 44.4264 47.0297 44.7921C47.1934 45.0013 47.4727 45.3188 47.7925 45.5898C48.1124 45.8604 48.4736 46.0834 48.8098 46.0911C48.7428 46.2047 48.6797 46.3209 48.6093 46.4326L48.3967 46.7666L47.9717 47.4346C47.9597 47.3688 47.9461 47.3057 47.9314 47.2477C47.8223 46.8048 47.6755 46.3691 47.4839 45.9568C47.2953 45.5466 47.0474 45.15 46.7577 44.7955C46.4252 44.3894 46.0297 44.0332 45.5682 43.7421C45.1686 43.4904 44.64 43.3623 44.2035 43.3594C44.2982 43.3597 44.4036 43.6118 44.487 43.8845C44.5675 44.1535 44.6259 44.4444 44.6468 44.5141C44.7561 44.8783 44.8756 45.254 45.0202 45.6279C45.1956 46.0888 45.4003 46.5404 45.6795 46.9667C45.824 47.1866 46.0723 47.5222 46.3631 47.8139C46.6543 48.1055 46.9891 48.3523 47.32 48.3849C47.159 48.6144 47.0024 48.847 46.8276 49.066L46.2261 49.8501C46.2212 49.7842 46.2143 49.7208 46.2059 49.6623C46.1446 49.2164 46.0436 48.7736 45.8945 48.3501C45.7482 47.9286 45.5427 47.517 45.2876 47.1404C44.9967 46.7096 44.6379 46.3236 44.2104 45.9978C43.8398 45.7165 43.3375 45.5496 42.9201 45.5169C43.0102 45.5229 43.0992 45.786 43.1597 46.0635C43.2202 46.3393 43.2561 46.6349 43.2712 46.7064C43.3594 47.1226 43.4588 47.5567 43.5821 47.9819C43.7021 48.4034 43.851 48.8224 44.0555 49.2204C44.1731 49.4482 44.378 49.7972 44.6273 50.1053C44.8772 50.4131 45.1727 50.6794 45.4889 50.7353L45.234 51.038L44.9658 51.3287L44.4278 51.9088C44.4307 51.8444 44.4314 51.7823 44.43 51.7247C44.4215 51.2861 44.3725 50.8466 44.2725 50.4212C44.2242 50.2101 44.1579 49.9973 44.0782 49.7895C43.9993 49.5825 43.9072 49.381 43.8017 49.1869C43.5609 48.7428 43.2487 48.3373 42.8652 47.9873C42.5332 47.6845 42.0661 47.4882 41.6733 47.4331C41.7589 47.4451 41.8221 47.7105 41.8611 47.9947C41.8996 48.2763 41.9065 48.5694 41.9154 48.6421C41.9591 49.0166 42.0053 49.4016 42.072 49.7866C42.152 50.2612 42.2487 50.7213 42.4168 51.1659C42.5037 51.395 42.6596 51.7467 42.8617 52.06C43.0646 52.3734 43.315 52.6485 43.6126 52.7223L43.3125 53.0163C43.2103 53.1118 43.1034 53.2025 42.9992 53.2958L42.2591 53.95C42.2716 53.8894 42.2807 53.8293 42.2875 53.7742C42.3408 53.3531 42.3542 52.9274 42.3153 52.5103C42.296 52.3015 42.2636 52.0953 42.2173 51.8929C42.1684 51.6871 42.1041 51.4835 42.0274 51.2878C41.8525 50.8396 41.603 50.4236 41.2806 50.0588C41.0011 49.7437 40.5837 49.5262 40.2262 49.4576C40.2648 49.4647 40.2932 49.5358 40.3128 49.6408C40.3334 49.7471 40.3431 49.8844 40.3433 50.021C40.3462 50.2975 40.3208 50.5892 40.3201 50.6601C40.3188 50.8675 40.3167 51.077 40.3199 51.2907C40.3234 51.4949 40.3269 51.7039 40.3305 51.9187C40.3429 52.3308 40.3751 52.7376 40.4612 53.1296C40.5108 53.3536 40.6065 53.6967 40.7499 54.0035C40.8942 54.3106 41.0878 54.5818 41.3578 54.6669L41.2026 54.7895L41.0414 54.904L40.7188 55.133C40.5031 55.2843 40.2913 55.4422 40.0721 55.5886C40.0948 55.5354 40.1138 55.4816 40.1284 55.4299C40.2451 55.0425 40.3209 54.6428 40.3455 54.2484C40.3577 54.051 40.3568 53.8546 40.3418 53.6608C40.3258 53.4656 40.292 53.2668 40.246 53.0766C40.14 52.6397 39.9572 52.2274 39.7009 51.864C39.4778 51.5484 39.1164 51.3276 38.7961 51.2587C38.8648 51.2717 38.87 51.5448 38.8339 51.8083C38.8009 52.0759 38.738 52.356 38.729 52.4261C38.7043 52.6035 38.6792 52.7844 38.6534 52.9694C38.6414 53.059 38.6293 53.1498 38.617 53.2415C38.6044 53.3275 38.5916 53.4146 38.5786 53.5027L39.1962 54.4662C39.1966 54.1961 39.1996 53.9089 39.2102 53.6172C39.2267 53.2651 39.2606 52.9063 39.3252 52.5565C39.2972 52.7325 39.2818 52.9088 39.2709 53.0843C39.2642 53.2605 39.2652 53.4345 39.2698 53.6056C39.2751 53.7768 39.2892 53.945 39.3049 54.1101C39.3236 54.2761 39.3442 54.4349 39.3668 54.5897C39.378 54.6547 39.3893 54.7197 39.4007 54.7854L40.0793 55.8445L39.4062 54.794L39.4007 54.7854C39.4444 55.0261 39.4971 55.2609 39.5626 55.4884C39.5972 55.6074 39.634 55.7246 39.6729 55.8398L39.278 56.0888C39.278 56.0844 39.2772 56.0798 39.2768 56.0756C39.2618 55.9206 39.2488 55.7645 39.2386 55.6063C39.2182 55.2905 39.2024 54.9671 39.1975 54.6378C39.197 54.5804 39.1966 54.5228 39.1962 54.4662L38.5808 53.506L38.5786 53.5027C38.5187 53.9344 38.4803 54.3633 38.4999 54.7653C38.5109 54.9741 38.5458 55.2923 38.631 55.5771C38.7141 55.8565 38.8557 56.1156 39.0973 56.2028C38.8574 56.3476 38.6084 56.4762 38.3641 56.6138L37.9315 56.853C37.7863 56.9309 37.635 56.9967 37.4871 57.069C37.5189 57.0233 37.5478 56.9785 37.5727 56.9364C37.7679 56.6248 37.9083 56.2612 38.0044 55.9094C38.0993 55.555 38.142 55.1974 38.1243 54.8511C38.1048 54.4548 38.0004 54.0624 37.8233 53.7222C37.7461 53.5744 37.6323 53.4488 37.5033 53.3532C37.4387 53.3053 37.3702 53.265 37.3003 53.2333C37.2295 53.1998 37.1565 53.1726 37.085 53.1564C37.1476 53.171 37.1032 53.4154 37.0277 53.6694C36.9533 53.9237 36.8473 54.1874 36.8261 54.2511C36.7958 54.3444 36.7653 54.4387 36.7344 54.5343C36.7029 54.6272 36.6692 54.7148 36.6369 54.805C36.5752 54.9776 36.5121 55.1543 36.4473 55.3361C36.3277 55.686 36.2273 56.0311 36.1699 56.338C36.1371 56.5127 36.1036 56.7774 36.1248 57.0145C36.1468 57.2521 36.2249 57.4623 36.439 57.5499L36.2706 57.618C36.3183 57.7077 36.3667 57.7974 36.3917 57.8967C36.3934 57.9035 36.3934 57.9099 36.3948 57.9166L36.5628 57.8551C36.4652 58.0626 36.5484 58.271 36.702 58.4577C36.8553 58.6441 37.0805 58.8091 37.2439 58.9083C37.5272 59.0778 37.8749 59.2036 38.2734 59.3201C38.4715 59.3761 38.6813 59.4279 38.8993 59.4769C39.008 59.5007 39.1202 59.5266 39.2311 59.547C39.3437 59.5659 39.4552 59.5843 39.5651 59.6027C39.6415 59.6142 39.9759 59.6423 40.2924 59.6876C40.6077 59.7326 40.9046 59.7947 40.8659 59.8633C40.9567 59.7085 40.9996 59.5263 40.9976 59.3521C40.9961 59.1784 40.9495 59.0115 40.8556 58.874C40.6367 58.5541 40.3299 58.3025 39.9676 58.0932C39.6494 57.9075 39.2948 57.7625 38.9287 57.6545C38.5612 57.5443 38.1879 57.4827 37.8039 57.4187C37.754 57.411 37.6995 57.4044 37.6427 57.3992C37.7954 57.3298 37.9514 57.2672 38.1014 57.1922L38.5482 56.9613C38.8004 56.8279 39.0581 56.7038 39.3059 56.5626C39.2642 56.8263 39.4024 57.0693 39.6119 57.2864C39.8173 57.4975 40.0883 57.6709 40.2788 57.7696C40.6452 57.9591 41.0899 58.0918 41.5803 58.1861C41.6789 58.2052 41.7796 58.2228 41.8817 58.2391C41.9819 58.2527 42.0829 58.2645 42.1855 58.2756C42.3906 58.2975 42.6008 58.315 42.8135 58.3301C42.8954 58.3371 43.2426 58.3321 43.5738 58.347C43.9076 58.3653 44.2069 58.3853 44.1886 58.4725C44.284 58.0794 44.2024 57.6405 43.9473 57.3497C43.6545 57.0149 43.2779 56.7536 42.8646 56.5564C42.6832 56.4692 42.4971 56.3973 42.302 56.3305C42.1058 56.2624 41.905 56.2048 41.7025 56.1566C41.2978 56.0606 40.8851 56 40.4848 55.9716C40.4302 55.9682 40.3725 55.9645 40.314 55.961C40.541 55.8169 40.7602 55.6612 40.9838 55.5119L41.3174 55.2851L41.4842 55.1717L41.6449 55.0501C41.6517 55.3405 41.8495 55.6083 42.105 55.8285C42.3598 56.0485 42.6742 56.2211 42.8897 56.3158C43.2656 56.4819 43.6909 56.5821 44.1515 56.6449C44.2664 56.6605 44.3835 56.6734 44.5023 56.6845C44.6193 56.6938 44.736 56.699 44.8551 56.7035C45.0935 56.7128 45.334 56.7113 45.5768 56.7063C45.6598 56.7047 46.0113 56.6686 46.3488 56.6542C46.5186 56.6483 46.6804 56.6445 46.798 56.6529C46.9167 56.6623 46.9941 56.6862 46.9915 56.7331C47.0136 56.2986 46.8514 55.8348 46.5436 55.5471C46.1879 55.2144 45.7615 54.9691 45.3053 54.7921C45.1056 54.7142 44.9003 54.6492 44.6908 54.5946C44.4781 54.537 44.262 54.4902 44.0455 54.4531C43.612 54.3789 43.1766 54.3434 42.7551 54.3353C42.6995 54.3338 42.6402 54.3349 42.578 54.3366L43.3439 53.6829C43.4519 53.5895 43.5623 53.4986 43.6682 53.403L43.9787 53.1081C44.0359 53.4137 44.2902 53.6853 44.5944 53.9009C44.898 54.1164 45.2533 54.2757 45.4916 54.3588C45.9494 54.518 46.4641 54.5947 46.9949 54.6072C47.417 54.6137 47.8539 54.582 48.2936 54.5347C48.3766 54.5253 48.7303 54.4585 49.0652 54.4107C49.3915 54.3574 49.7057 54.3279 49.7173 54.4269C49.6663 53.9702 49.4291 53.5038 49.0708 53.232C48.6574 52.9172 48.1858 52.6988 47.6925 52.5513C47.4767 52.4869 47.2565 52.4361 47.0344 52.3969C46.8135 52.3586 46.5883 52.3299 46.3578 52.3065C45.9002 52.2624 45.4441 52.2567 45.0049 52.2771C44.9473 52.2795 44.8853 52.284 44.8215 52.2906L45.3769 51.7058L45.654 51.4125L45.9168 51.1069C46.0167 51.417 46.3156 51.6794 46.6571 51.8796C46.9979 52.0801 47.3826 52.218 47.6365 52.2856C48.079 52.4038 48.551 52.4435 49.0394 52.4321C49.5214 52.4165 50.0035 52.3392 50.4902 52.2455C50.573 52.2294 50.9146 52.1299 51.2459 52.0552C51.5722 51.978 51.8758 51.9189 51.9023 52.0207C51.7882 51.5565 51.4899 51.0995 51.0968 50.8505C50.6426 50.5625 50.1425 50.3775 49.6269 50.2662C49.1764 50.1688 48.7158 50.1288 48.2428 50.1156C47.7738 50.1054 47.3091 50.1333 46.8627 50.1852C46.8039 50.1917 46.7411 50.2008 46.6765 50.212L47.2955 49.4182C47.4755 49.1963 47.636 48.9604 47.8012 48.7277C47.9401 49.0333 48.2776 49.2761 48.6499 49.4522C49.0217 49.6289 49.4294 49.7377 49.6949 49.7855C50.2047 49.8768 50.7462 49.8721 51.2778 49.7948L51.2734 49.7918L49.9909 48.9378C49.9192 48.9331 49.8478 48.9267 49.7767 48.9198C49.359 48.8754 48.9482 48.8022 48.5444 48.7102C48.3424 48.6645 48.1425 48.6121 47.9438 48.5548C47.9383 48.5533 47.9324 48.5515 47.9268 48.55L48.2013 48.1619C48.3517 48.2304 48.5044 48.2956 48.6592 48.3574C48.9545 48.4749 49.2594 48.5749 49.5641 48.6536C49.6465 48.6756 49.7296 48.6958 49.8127 48.7148C50.0096 48.757 50.2093 48.7932 50.4114 48.8196C50.6134 48.843 50.8186 48.8609 51.0256 48.8625C51.2323 48.8631 51.4413 48.8543 51.6515 48.83C51.8609 48.8005 52.0721 48.7609 52.2802 48.6985C51.8664 48.8333 51.4431 48.9096 51.0235 48.9415C50.6769 48.9648 50.3316 48.9623 49.9909 48.9378L51.2779 49.7948C51.702 49.731 52.129 49.6254 52.5498 49.502C52.6302 49.4787 52.9575 49.3484 53.2767 49.2439C53.5867 49.1357 53.8831 49.0509 53.9215 49.1506C53.7495 48.6915 53.3986 48.2565 52.9787 48.0398C52.4938 47.7888 51.9751 47.6453 51.4474 47.576C50.9846 47.515 50.5216 47.5148 50.044 47.5404C49.5709 47.5687 49.1042 47.6344 48.656 47.722C48.5971 47.7331 48.5342 47.7472 48.4698 47.7635L48.9047 47.085L49.1222 46.7458C49.1941 46.6324 49.2582 46.5143 49.3266 46.3988C49.4954 46.6953 49.8593 46.9137 50.2502 47.0621C50.6408 47.2109 51.059 47.2885 51.3282 47.3156C51.7979 47.3635 52.2747 47.3259 52.751 47.2331C53.235 47.144 53.6812 46.9827 54.1313 46.8071C54.2078 46.777 54.514 46.6193 54.8141 46.4882C55.1152 46.358 55.4054 46.2531 55.4498 46.3492C55.2319 45.902 54.8425 45.4933 54.4105 45.3095C53.9107 45.0969 53.3887 44.9946 52.8627 44.968C52.4043 44.945 51.9244 44.9711 51.4611 45.038C50.9957 45.1038 50.5376 45.2061 50.0981 45.3285C50.04 45.3442 49.979 45.3634 49.9153 45.3844L50.3822 44.4938C50.5137 44.2409 50.6508 43.9907 50.7677 43.7306C50.9604 44.0119 51.3415 44.1998 51.742 44.3149C52.1423 44.4306 52.5624 44.4726 52.8301 44.4767C53.347 44.4851 53.8596 44.3877 54.362 44.2265L54.3572 44.2243L52.9537 43.5854C52.8818 43.5917 52.8101 43.5967 52.7385 43.6008C52.3254 43.625 51.9114 43.6195 51.4979 43.5934C51.2912 43.5807 51.0847 43.5609 50.8779 43.5359C50.8723 43.5354 50.8659 43.5345 50.8602 43.534L51.0624 43.1043C51.2222 43.1479 51.3838 43.1881 51.5463 43.2243C51.8565 43.2929 52.1703 43.342 52.4866 43.3729L52.4741 43.3671L49.4021 41.9686L49.3895 41.9629C49.6216 42.172 49.8635 42.3728 50.1168 42.5621C50.2496 42.6611 50.3844 42.7577 50.5204 42.8517L50.3199 43.2739L50.3072 43.2614C50.1574 43.116 50.0108 42.9694 49.8684 42.8204C49.5838 42.5233 49.3095 42.221 49.0539 41.9119C49.01 41.8578 48.9661 41.8037 48.923 41.7505C48.7181 41.4942 48.5224 41.2286 48.3426 40.9582C48.1298 40.6302 47.9486 40.2928 47.8178 39.9501C47.8876 40.1204 47.9775 40.2862 48.0736 40.4494C48.1746 40.6113 48.2867 40.7687 48.4047 40.9229C48.5235 41.0769 48.654 41.2253 48.7866 41.3711C48.9232 41.5163 49.0615 41.6556 49.2039 41.7924C49.2654 41.8488 49.3273 41.9056 49.3896 41.9627L52.4867 43.3727C52.572 43.3815 52.6575 43.3883 52.7427 43.3942C52.944 43.405 53.1491 43.4104 53.3474 43.403C53.5461 43.3931 53.7464 43.3771 53.9443 43.3444C54.142 43.311 54.3391 43.2677 54.5337 43.2087C54.7262 43.1446 54.9179 43.0703 55.1009 42.9738C54.7388 43.1764 54.3527 43.3225 53.9581 43.4235C53.7946 43.4636 53.63 43.4973 53.464 43.5247C53.2958 43.5513 53.1241 43.5708 52.9538 43.5852L54.3623 44.2263C54.7747 44.1002 55.1473 43.9197 55.5203 43.728C55.5913 43.6913 55.8718 43.5071 56.1473 43.3501C56.4228 43.1935 56.6937 43.0643 56.7465 43.1557C56.6243 42.9442 56.4515 42.7422 56.2632 42.5778C56.0735 42.413 55.8619 42.284 55.645 42.2112C55.1438 42.0429 54.6317 41.9866 54.12 42.0049C53.2101 42.0333 52.2926 42.2825 51.446 42.6C51.3909 42.621 51.3291 42.6438 51.267 42.6697C51.3784 42.4255 51.4772 42.176 51.5829 41.9294L51.895 41.1875C52.0972 41.4503 52.4831 41.6069 52.8847 41.6907C53.2874 41.7754 53.7029 41.7849 53.9602 41.7669C54.4126 41.7367 54.8528 41.6205 55.278 41.45C55.7007 41.2792 56.1204 41.0569 56.4899 40.8065C56.554 40.764 56.803 40.5576 57.0486 40.3787C57.2944 40.2002 57.5371 40.0497 57.5956 40.1369C57.3213 39.7339 56.903 39.3975 56.4809 39.2875C55.9923 39.1603 55.499 39.1446 55.0076 39.2032C54.577 39.2537 54.1466 39.3603 53.7249 39.5018C53.3038 39.6437 52.8917 39.8207 52.4772 40.0077C52.4231 40.0322 52.3658 40.0604 52.3075 40.091L52.4827 39.6205L52.6395 39.1434L52.9055 38.3317C53.1151 38.575 53.4948 38.6973 53.8824 38.7454C54.2702 38.7941 54.6656 38.7678 54.9131 38.7288C55.3885 38.653 55.8307 38.4717 56.2513 38.2311C56.5891 38.0372 56.9049 37.8026 57.2051 37.5549C57.2649 37.5082 57.4735 37.2808 57.6834 37.082C57.8892 36.8825 58.0928 36.7111 58.156 36.7924C57.8644 36.4165 57.4535 36.1196 57.0577 36.0479C56.6 35.9642 56.1473 35.9917 55.699 36.0921C55.3069 36.18 54.9197 36.3244 54.5357 36.5016C54.1576 36.6804 53.7637 36.8873 53.3909 37.1109C53.3415 37.1401 53.2893 37.1731 53.236 37.2087L53.4534 36.4348L53.6418 35.6531ZM54.995 29.1901C55.2468 29.1297 55.4908 29.0382 55.7229 28.9211C55.8384 28.8601 55.9511 28.7929 56.0593 28.7172C56.1666 28.6382 56.2705 28.5548 56.366 28.4569C56.4603 28.3583 56.5526 28.251 56.6308 28.1318C56.7054 28.0084 56.7735 27.8765 56.8279 27.7281C56.776 27.88 56.7141 28.022 56.6435 28.1545C56.5701 28.2868 56.4848 28.4095 56.3945 28.5232C56.2113 28.7486 56.0004 28.9439 55.774 29.1112C55.5473 29.2802 55.304 29.423 55.0479 29.5485C54.9198 29.6121 54.7884 29.6689 54.6544 29.7212L54.6429 29.7253L54.6806 29.2542C54.7859 29.2363 54.891 29.2157 54.995 29.1901ZM54.6292 25.4574L54.6864 24.4633C54.697 24.1315 54.7024 23.7995 54.7032 23.4677L54.7006 22.9699L54.6895 22.4716L54.7138 22.9695L54.7358 23.4669L54.7715 24.4632L54.7897 25.4606L54.7999 25.8795L54.8004 25.8939L54.99 25.8996L54.6015 25.8882L54.6056 25.8275L54.6292 25.4574ZM54.1511 25.875L53.9436 25.8689L53.9389 25.8687L54.1511 25.875ZM54.2508 26.4687C54.1648 26.3907 54.0835 26.31 54.0048 26.2253C53.924 26.1408 53.8476 26.0525 53.7763 25.9599C53.7515 25.9279 53.7274 25.8953 53.7045 25.8617L53.7032 25.8617C53.5926 25.7041 53.4982 25.5328 53.4222 25.3464C53.3299 25.1186 53.2764 24.8637 53.2603 24.5767C53.2703 24.717 53.294 24.8436 53.3251 24.9637C53.3588 25.08 53.4014 25.1869 53.4527 25.2873C53.5038 25.3869 53.5639 25.4745 53.6279 25.5593C53.6932 25.6413 53.7642 25.7162 53.8388 25.7866C53.8703 25.815 53.9027 25.8421 53.9355 25.8686L53.9372 25.8687C54.0613 25.9693 54.1957 26.0567 54.3364 26.1278C54.4104 26.1648 54.4858 26.1987 54.5621 26.2293L54.5287 26.6979C54.526 26.6954 54.5232 26.6935 54.5207 26.6918C54.4269 26.6208 54.3368 26.5471 54.2508 26.4687ZM53.888 29.4249C53.6603 29.2515 53.447 29.0688 53.2548 28.8698C53.0624 28.6724 52.8903 28.4569 52.75 28.2231C52.6804 28.1053 52.621 27.9817 52.5683 27.8515C52.5125 27.7211 52.4663 27.5843 52.431 27.4406C52.4691 27.5814 52.5227 27.71 52.5833 27.8328C52.6461 27.9521 52.7131 28.0625 52.79 28.1671C52.8664 28.2711 52.9537 28.3643 53.0453 28.455C53.1381 28.5429 53.2371 28.6247 53.3394 28.7021C53.5463 28.8526 53.7694 28.9851 54.0056 29.092C54.1031 29.1369 54.2024 29.1775 54.3025 29.2161L54.2523 29.682L54.242 29.6756C54.12 29.5952 54.0019 29.5123 53.888 29.4249ZM53.8035 34.9817C53.9461 34.9855 54.0889 34.9868 54.232 34.9829C54.5776 34.9749 54.9143 34.9333 55.2473 34.8646C55.4129 34.8276 55.5771 34.7839 55.7383 34.7307C55.8985 34.6743 56.0575 34.613 56.2102 34.5356C56.3627 34.4575 56.5117 34.3697 56.6538 34.2687C56.7944 34.1632 56.9266 34.0472 57.0479 33.9124C56.813 34.1906 56.5344 34.4196 56.2367 34.6076C55.9374 34.7935 55.6189 34.9448 55.2879 35.0649C54.9585 35.187 54.6024 35.2767 54.2485 35.3492C54.0701 35.3861 53.8902 35.4156 53.7082 35.4403L53.6928 35.4418L53.8035 34.9817ZM36.638 57.4691L36.6393 57.4585C36.6591 57.3254 36.6789 57.1936 36.6987 57.0631C36.7419 56.7931 36.79 56.5135 36.8492 56.224C36.907 55.936 36.9775 55.6375 37.0595 55.3308C37.1395 55.0154 37.2342 54.6843 37.3541 54.3585C37.2979 54.5224 37.2532 54.686 37.2118 54.8467C37.1742 55.0066 37.1443 55.167 37.1177 55.3222C37.09 55.4738 37.0703 55.6187 37.052 55.7627C37.0362 55.9058 37.0251 56.0458 37.0169 56.1829C37.0045 56.456 37.0048 56.7179 37.0271 56.9677C37.0357 57.0711 37.0477 57.1723 37.0611 57.272C36.9198 57.3371 36.7819 57.4104 36.638 57.4691ZM38.0207 58.3266C38.1388 58.4057 38.2637 58.4833 38.3974 58.5578C38.5337 58.6299 38.6764 58.7036 38.8313 58.7669C38.9844 58.8258 39.1478 58.883 39.3207 58.9304C39.497 58.9746 39.6824 59.0153 39.8816 59.0426C39.4781 58.9938 39.1132 58.9174 38.7786 58.8114C38.4415 58.6974 38.1368 58.5706 37.8618 58.4354C37.585 58.2999 37.3362 58.157 37.1064 58.0118C36.9905 57.9391 36.8826 57.867 36.776 57.786L36.7675 57.7791C36.9157 57.7239 37.0579 57.6542 37.2034 57.5924C37.2684 57.6683 37.3363 57.7439 37.4091 57.8178C37.584 57.9976 37.7887 58.1658 38.0207 58.3266ZM40.9324 57.0125C41.0745 57.0959 41.2219 57.1756 41.3741 57.2453C41.5286 57.3138 41.6895 57.3801 41.8613 57.4357C42.0334 57.4906 42.2134 57.54 42.4037 57.5793C42.5956 57.6142 42.7945 57.6416 43.0043 57.6523C42.5825 57.6404 42.1852 57.581 41.8191 57.4948C41.5188 57.4222 41.2358 57.3335 40.9629 57.2223C40.9071 57.1992 40.8508 57.176 40.7945 57.1527C40.4753 57.0161 40.1803 56.8644 39.9036 56.7053C39.7649 56.6257 39.6325 56.5431 39.5036 56.4577C39.5002 56.4554 39.4966 56.4526 39.4927 56.4505L39.9012 56.207C39.9875 56.2932 40.0776 56.3777 40.1715 56.4603C40.3507 56.6181 40.5465 56.765 40.7582 56.9028C40.815 56.9403 40.8735 56.9767 40.9324 57.0125ZM41.5256 54.5325L41.5214 54.5185C41.4763 54.3505 41.433 54.1814 41.3937 54.0104C41.3138 53.6697 41.2391 53.3237 41.1767 52.9723C41.1441 52.7959 41.118 52.6222 41.0898 52.4397C41.0617 52.257 41.037 52.0729 41.0161 51.8878C40.9781 51.5199 40.9611 51.1474 40.9764 50.7812C40.9726 50.9646 40.9837 51.149 40.9988 51.332C41.0183 51.5144 41.0456 51.6957 41.0774 51.8746C41.1098 52.0535 41.1534 52.2305 41.1966 52.4045C41.2424 52.5772 41.2955 52.7508 41.3457 52.9141C41.4526 53.2428 41.5718 53.5622 41.7112 53.8682C41.7685 53.9951 41.8288 54.1195 41.8901 54.2423L41.5256 54.5325ZM43.4113 55.4336C43.5735 55.5145 43.7353 55.5848 43.9064 55.651C44.0783 55.7133 44.2558 55.774 44.4412 55.8197C44.6269 55.8647 44.8195 55.9023 45.0193 55.9282C45.2205 55.9491 45.4286 55.9624 45.6434 55.9556C45.2117 55.9781 44.7985 55.9502 44.41 55.8871C44.215 55.8535 44.0254 55.8127 43.8414 55.7656C43.6574 55.7185 43.4725 55.6582 43.2971 55.5964C42.9431 55.4722 42.611 55.3278 42.2941 55.1713C42.1349 55.0936 41.9812 55.0108 41.8309 54.9246L41.8185 54.9171L42.1959 54.6285C42.3023 54.7164 42.4109 54.803 42.5239 54.8865C42.7959 55.0892 43.0923 55.2703 43.4113 55.4336ZM43.7656 52.5721C43.764 52.5671 43.7614 52.5619 43.7593 52.5573C43.684 52.3839 43.6109 52.21 43.5414 52.0343C43.4021 51.6835 43.2692 51.3283 43.1493 50.9687C43.1277 50.9046 43.1063 50.8408 43.085 50.7776C42.9841 50.4737 42.8952 50.1663 42.8175 49.8575C42.7271 49.4835 42.6599 49.1059 42.6301 48.7342C42.6492 48.9203 42.6846 49.1068 42.7247 49.2918C42.7693 49.4768 42.823 49.6597 42.8811 49.8408C42.9401 50.0217 43.0093 50.1996 43.0799 50.3752C43.1531 50.5501 43.2317 50.7226 43.3126 50.8924C43.3483 50.9632 43.3843 51.0346 43.4206 51.1061C43.5573 51.3707 43.6972 51.6223 43.851 51.8674C43.9317 51.9956 44.0144 52.1219 44.0991 52.246L43.7656 52.5721ZM45.8673 53.38C46.0435 53.4483 46.2242 53.5117 46.41 53.5667C46.5964 53.6187 46.7878 53.6666 46.9855 53.6997C47.1833 53.7318 47.386 53.7559 47.5947 53.7659C47.8037 53.771 48.0177 53.7674 48.235 53.7419C47.8001 53.8023 47.3736 53.8075 46.9643 53.7732C46.6269 53.7419 46.2994 53.6883 45.9826 53.615C45.9167 53.5989 45.8504 53.5826 45.7841 53.5664C45.3988 53.4628 45.0302 53.3354 44.6745 53.1927C44.4964 53.1215 44.3226 53.0449 44.1513 52.9642C44.1466 52.962 44.1416 52.9593 44.1366 52.9573L44.4814 52.6295C44.606 52.715 44.7338 52.7978 44.8645 52.8778C45.1139 53.0297 45.3779 53.168 45.6469 53.2862C45.7195 53.319 45.7932 53.35 45.8673 53.38ZM45.6271 50.5709L45.6183 50.5566C45.5181 50.3841 45.4207 50.2109 45.3272 50.0354C45.1393 49.6862 44.9586 49.3331 44.7928 48.9749C44.6249 48.617 44.4658 48.2454 44.3309 47.875C44.198 47.5039 44.0911 47.128 44.026 46.7569C44.0629 46.9423 44.1176 47.1275 44.1774 47.3113C44.242 47.4943 44.3159 47.6757 44.3951 47.8545C44.4751 48.0334 44.566 48.2083 44.658 48.3818C44.753 48.5541 44.8533 48.7238 44.9565 48.8909C45.1688 49.2244 45.3846 49.5397 45.6251 49.8442C45.7236 49.97 45.825 50.0931 45.9274 50.2146L45.6271 50.5709ZM46.7935 50.8071C47.14 50.9813 47.5115 51.1332 47.8841 51.2507C48.0723 51.3078 48.2641 51.3591 48.4598 51.4013C48.656 51.44 48.8555 51.4747 49.0595 51.4931C49.2633 51.5107 49.4714 51.5188 49.6821 51.5129C49.8929 51.5013 50.1071 51.4804 50.3212 51.4365C49.8939 51.5338 49.4658 51.5734 49.0484 51.5699C48.6293 51.5627 48.2258 51.5239 47.8219 51.446C47.4166 51.3693 47.0243 51.2655 46.6415 51.1444C46.4495 51.0847 46.2612 51.0183 46.0747 50.9472L46.0591 50.9409L46.3688 50.5807C46.508 50.6587 46.6491 50.7351 46.7935 50.8071ZM46.7456 46.7761L46.7342 46.7686C46.9355 47.0152 47.141 47.2508 47.36 47.4775C47.4748 47.5961 47.5914 47.7127 47.71 47.8266L47.4424 48.2092L47.4322 48.195C47.3101 48.0286 47.1908 47.8616 47.0755 47.6926C46.8448 47.3553 46.6224 47.0138 46.4161 46.6673C46.3799 46.6061 46.3436 46.5448 46.308 46.4845C46.1368 46.1936 45.9795 45.898 45.8371 45.6006C45.6682 45.2398 45.5277 44.8738 45.4327 44.5094C45.4846 44.691 45.5555 44.8714 45.6319 45.0499C45.713 45.2276 45.8048 45.4025 45.9018 45.5751C45.9995 45.7474 46.1086 45.9158 46.2194 46.0819C46.3329 46.247 46.4523 46.4092 46.5743 46.5687C46.6274 46.6348 46.6806 46.7015 46.7343 46.7684L48.1492 47.7107L46.7456 46.7761ZM48.9174 45.905L48.9055 45.892C48.7674 45.7343 48.6324 45.5758 48.5018 45.4147C48.24 45.0942 47.9873 44.7694 47.7526 44.4383C47.5189 44.1098 47.2953 43.7677 47.0971 43.4213C46.902 43.0747 46.7373 42.7207 46.6211 42.3652C46.6837 42.5422 46.766 42.7163 46.8542 42.8883C46.9473 43.0589 47.051 43.2268 47.1605 43.3916C47.2709 43.5561 47.3931 43.7155 47.5167 43.8732C47.6424 44.0291 47.7777 44.1838 47.9097 44.3318C48.1805 44.627 48.4657 44.9114 48.7695 45.1776C48.8946 45.2882 49.0224 45.3957 49.1512 45.5013L48.9174 45.905ZM50.1508 45.9594C50.5388 46.0804 50.9366 46.1701 51.3423 46.2325C51.5467 46.2618 51.747 46.2816 51.9503 46.2924C52.1531 46.2994 52.3577 46.3016 52.5623 46.2866C52.7665 46.2707 52.9719 46.2445 53.176 46.2037C53.3788 46.157 53.582 46.1004 53.7794 46.0207C53.388 46.1896 52.9796 46.3006 52.5688 46.3656C52.3627 46.3968 52.1564 46.4185 51.9496 46.431C51.7422 46.4431 51.5283 46.4433 51.3194 46.4371C50.8994 46.4257 50.4831 46.3841 50.0704 46.3231C49.8637 46.2933 49.6584 46.2561 49.4534 46.2138L49.4362 46.2097L49.6744 45.7993C49.8315 45.8559 49.99 45.91 50.1508 45.9594ZM51.4289 40.7682L51.4155 40.7573C51.2593 40.6244 51.1067 40.49 50.9584 40.3525C50.6619 40.0792 50.3761 39.8005 50.1102 39.5126C49.8439 39.2264 49.5958 38.9287 49.3798 38.6243C49.1664 38.3189 48.971 37.9955 48.8345 37.6658C48.908 37.8295 49.0012 37.9873 49.1011 38.1419C49.2048 38.294 49.3232 38.4433 49.4408 38.5857C49.5597 38.7279 49.6902 38.8631 49.8246 38.9972C49.9612 39.1294 50.104 39.2575 50.2499 39.3823C50.5457 39.6288 50.8566 39.8624 51.1842 40.0752C51.3197 40.1638 51.4572 40.2487 51.5957 40.332L51.4289 40.7682ZM52.6174 40.6202C53.0047 40.6759 53.3949 40.6991 53.7856 40.6939C53.9809 40.6886 54.1765 40.6768 54.3711 40.655C54.5657 40.6299 54.7588 40.5992 54.9495 40.5517C55.14 40.5036 55.3216 40.4428 55.5026 40.3691C55.6805 40.2896 55.8562 40.2 56.0215 40.0887C55.6937 40.3195 55.3451 40.4986 54.967 40.6281C54.5886 40.7553 54.1942 40.8435 53.7985 40.8997C53.402 40.9578 53.0014 40.9851 52.5981 40.9925C52.3962 40.997 52.194 40.9938 51.9909 40.9854L51.9736 40.9843L52.1394 40.5403C52.298 40.5702 52.4572 40.5978 52.6174 40.6202ZM51.4492 36.8254L51.437 36.8218C51.6718 36.9893 51.9163 37.1472 52.171 37.2918C52.3046 37.3673 52.4398 37.4403 52.5763 37.5103C52.5308 37.6594 52.4898 37.8101 52.4404 37.9581C52.4364 37.9544 52.4316 37.9511 52.4273 37.948C52.2743 37.8307 52.1191 37.71 51.9707 37.587C51.6733 37.3415 51.3874 37.0891 51.1216 36.8271C51.076 36.781 51.0304 36.735 50.9854 36.6896C50.7706 36.4704 50.5746 36.2431 50.3965 36.009C50.2904 35.8664 50.1931 35.7202 50.106 35.5706C50.0142 35.4193 49.933 35.2646 49.8642 35.1063C49.937 35.2626 50.0289 35.4113 50.1277 35.5564C50.2279 35.6985 50.3367 35.8332 50.4534 35.9647C50.5706 36.0957 50.6995 36.2192 50.8312 36.34C50.9651 36.459 51.1056 36.5736 51.2492 36.6847C51.3108 36.7309 51.3735 36.777 51.4369 36.8218L52.9363 37.2605L51.4492 36.8254ZM54.6692 37.6784C54.8518 37.656 55.0339 37.6269 55.2138 37.588C55.3928 37.5463 55.5715 37.4985 55.7452 37.4346C55.9182 37.3699 56.0904 37.2963 56.254 37.207C56.4124 37.1124 56.5675 37.0082 56.7104 36.8834C56.57 37.0124 56.421 37.1286 56.2656 37.2331C56.1055 37.3365 55.9385 37.4282 55.7675 37.5094C55.4839 37.6404 55.1901 37.7474 54.8877 37.8316C54.8241 37.8497 54.7601 37.8663 54.6963 37.8822C54.3276 37.9739 53.9506 38.0366 53.5687 38.0792C53.3771 38.1006 53.1869 38.1158 52.9894 38.1242C52.984 38.1245 52.9781 38.1248 52.9727 38.1251C53.0209 37.9746 53.0605 37.8214 53.1048 37.6697C53.2568 37.6862 53.4095 37.699 53.5624 37.7079C53.8542 37.7245 54.1457 37.721 54.4356 37.6993C54.5137 37.694 54.5918 37.6867 54.6692 37.6784ZM53.1887 35.3188L53.1759 35.3103C53.0261 35.2056 52.88 35.0991 52.7386 34.9886C52.454 34.7692 52.1885 34.5443 51.9319 34.304C51.6761 34.0656 51.4425 33.8131 51.2373 33.5475C51.0348 33.2807 50.8639 32.996 50.7503 32.6943C50.8122 32.8431 50.8911 32.9825 50.9808 33.1183C51.0742 33.2512 51.1782 33.3777 51.2889 33.4993C51.4 33.6205 51.5227 33.7327 51.6479 33.8429C51.7754 33.9508 51.9092 34.0536 52.0462 34.1526C52.3229 34.3467 52.6175 34.5263 52.9229 34.6815C53.0489 34.7461 53.1768 34.807 53.3056 34.866L53.1887 35.3188Z" fill="#C8B18A"/>
<path d="M54.5376 20.135C54.5361 20.117 54.5352 20.1069 54.5352 20.1069C54.5352 20.1069 54.5361 20.1171 54.5376 20.135Z" fill="#C8B18A"/>
<path d="M53.935 25.8692L53.9131 25.8687L53.935 25.8692Z" fill="#C8B18A"/>
<path d="M21.6335 58.4577C21.7873 58.271 21.8702 58.0626 21.7729 57.855L21.9408 57.9166C21.9421 57.9099 21.9421 57.9034 21.9437 57.8967C21.9687 57.7974 22.0172 57.7077 22.0648 57.6179L21.8965 57.5498C22.1106 57.4622 22.1887 57.2521 22.2106 57.0145C22.2319 56.7774 22.1984 56.5127 22.1655 56.338C22.1082 56.0311 22.0078 55.6859 21.8883 55.336C21.8234 55.1543 21.7602 54.9776 21.6984 54.805C21.6661 54.7149 21.6325 54.6273 21.6011 54.5343C21.5702 54.4387 21.5396 54.3444 21.5094 54.2511C21.4881 54.1874 21.382 53.9237 21.3077 53.6694C21.2322 53.4154 21.1878 53.171 21.2503 53.1564C21.1788 53.1725 21.1058 53.1998 21.035 53.2333C20.965 53.265 20.8967 53.3053 20.8321 53.3531C20.703 53.4487 20.5893 53.5744 20.5122 53.7222C20.3349 54.0624 20.2306 54.4548 20.2111 54.8511C20.1934 55.1974 20.2361 55.555 20.331 55.9094C20.427 56.2611 20.5675 56.6247 20.7628 56.9364C20.7877 56.9785 20.8165 57.0232 20.8482 57.069C20.7004 56.9967 20.5491 56.9309 20.4039 56.853L19.9713 56.6138C19.7272 56.4761 19.478 56.3475 19.2382 56.2027C19.4797 56.1156 19.6215 55.8565 19.7044 55.5771C19.7895 55.2923 19.8245 54.974 19.8356 54.7653C19.8551 54.3633 19.8166 53.9343 19.7567 53.5026L19.7545 53.506L19.1392 54.4662C19.1389 54.5229 19.1385 54.5803 19.138 54.6378C19.133 54.9671 19.1173 55.2904 19.097 55.6063C19.0868 55.7645 19.0736 55.9205 19.0586 56.0755C19.0581 56.0798 19.0574 56.0843 19.0574 56.0888L18.6626 55.8398C18.7016 55.7246 18.7383 55.6074 18.7728 55.4884C18.8383 55.2609 18.891 55.0261 18.9347 54.7854L18.9292 54.7939L18.2561 55.8445L18.9347 54.7854C18.9462 54.7196 18.9574 54.6546 18.9687 54.5897C18.9911 54.4348 19.0118 54.2761 19.0305 54.1101C19.0461 53.945 19.0602 53.7768 19.0655 53.6056C19.0701 53.4344 19.0711 53.2605 19.0644 53.0842C19.0536 52.9088 19.0382 52.7325 19.0102 52.5565C19.0747 52.9064 19.1088 53.265 19.1252 53.6172C19.1358 53.9089 19.1389 54.1961 19.1392 54.4662L19.7567 53.5027C19.7439 53.4146 19.7311 53.3275 19.7184 53.2415C19.7062 53.1497 19.6941 53.059 19.6821 52.9693C19.6563 52.7844 19.6311 52.6035 19.6063 52.4261C19.5974 52.356 19.5343 52.0758 19.5015 51.8083C19.4654 51.5449 19.4707 51.2717 19.5392 51.2587C19.2189 51.3275 18.8576 51.5483 18.6344 51.864C18.3782 52.2274 18.1953 52.6397 18.0892 53.0766C18.0434 53.2668 18.0095 53.4656 17.9936 53.6608C17.9786 53.8546 17.9777 54.051 17.9899 54.2483C18.0145 54.6427 18.0902 55.0424 18.207 55.4299C18.2216 55.4815 18.2404 55.5353 18.2633 55.5886C18.0441 55.4422 17.8323 55.2844 17.6164 55.133L17.294 54.904L17.1327 54.7895L16.9774 54.6669C17.2474 54.5818 17.4411 54.3107 17.5853 54.0035C17.7287 53.6967 17.8244 53.3536 17.874 53.1295C17.9601 52.7376 17.9924 52.3308 18.0048 51.9187C18.0084 51.7039 18.0119 51.495 18.0154 51.2907C18.0185 51.077 18.0166 50.8675 18.0152 50.6601C18.0145 50.5891 17.989 50.2975 17.992 50.021C17.9922 49.8844 18.0019 49.747 18.0224 49.6408C18.0421 49.5358 18.0704 49.4647 18.1089 49.4575C17.7515 49.5261 17.3342 49.7437 17.0546 50.0588C16.7322 50.4236 16.4827 50.8396 16.3078 51.2878C16.2311 51.4834 16.1669 51.6871 16.118 51.8929C16.0717 52.0953 16.0392 52.3016 16.0199 52.5103C15.9809 52.9274 15.9944 53.3531 16.0477 53.7741C16.0547 53.8293 16.0636 53.8894 16.0762 53.95L15.3361 53.2958C15.2318 53.2026 15.1251 53.1118 15.0227 53.0163L14.7227 52.7223C15.0202 52.6485 15.2707 52.3734 15.4736 52.06C15.6758 51.7466 15.8317 51.395 15.9186 51.1659C16.0867 50.7213 16.1832 50.2612 16.2633 49.7866C16.33 49.4015 16.3762 49.0166 16.4199 48.6421C16.4286 48.5694 16.4355 48.2763 16.4741 47.9947C16.5131 47.7104 16.5764 47.4451 16.6618 47.4331C16.269 47.4882 15.802 47.6845 15.4698 47.9873C15.0865 48.3374 14.7743 48.7428 14.5333 49.1869C14.4279 49.381 14.3359 49.5825 14.2571 49.7895C14.1774 49.9972 14.1111 50.2101 14.0627 50.4211C13.9629 50.8466 13.9138 51.2861 13.9053 51.7247C13.9039 51.7823 13.9046 51.8444 13.9074 51.9088L13.3696 51.3287L13.1013 51.038L12.8465 50.7353C13.1627 50.6794 13.4582 50.413 13.7081 50.1052C13.9573 49.7972 14.1623 49.4482 14.2797 49.2204C14.4843 48.8225 14.6332 48.4034 14.7533 47.9819C14.8764 47.5568 14.9759 47.1226 15.0641 46.7064C15.0793 46.6349 15.1152 46.3393 15.1755 46.0635C15.236 45.786 15.325 45.5229 15.4152 45.5169C14.9976 45.5496 14.4954 45.7165 14.1249 45.9978C13.6974 46.3236 13.3386 46.7097 13.0477 47.1404C12.7926 47.517 12.5872 47.9286 12.4408 48.3501C12.2917 48.7737 12.1908 49.2164 12.1295 49.6623C12.1211 49.7208 12.1143 49.7842 12.1094 49.8501L11.5078 49.066C11.333 48.847 11.1765 48.6143 11.0155 48.3849C11.3462 48.3523 11.681 48.1055 11.9723 47.8139C12.2632 47.5222 12.5113 47.1866 12.6558 46.9667C12.935 46.5404 13.1397 46.0887 13.3151 45.6279C13.4597 45.254 13.5791 44.8783 13.6886 44.5141C13.7095 44.4443 13.7679 44.1535 13.8484 43.8845C13.9319 43.6118 14.0373 43.3597 14.1318 43.3594C13.6954 43.3623 13.1668 43.4904 12.7672 43.7421C12.3057 44.0332 11.9101 44.3894 11.5778 44.7955C11.288 45.15 11.04 45.5466 10.8514 45.9568C10.6598 46.3691 10.513 46.8048 10.4039 47.2477C10.3892 47.3057 10.3755 47.3688 10.3637 47.4346L9.93856 46.7666L9.72595 46.4325C9.65559 46.321 9.59249 46.2047 9.52537 46.0911C9.86167 46.0834 10.2229 45.8603 10.5428 45.5898C10.8627 45.3188 11.1419 45.0013 11.3056 44.7921C11.5911 44.4264 11.8181 44.0327 12.0094 43.6339C12.0572 43.5341 12.1028 43.434 12.1463 43.3338C12.1919 43.2326 12.2359 43.1307 12.2775 43.0294C12.361 42.827 12.4381 42.6256 12.5111 42.4276C12.5362 42.3597 12.6107 42.0749 12.7047 41.8136C12.7975 41.5525 12.914 41.3119 13.0114 41.3178C12.5681 41.2881 12.0271 41.3762 11.6119 41.5956C11.1319 41.8502 10.7148 42.1746 10.3558 42.5543C10.0379 42.8879 9.78012 43.2543 9.55555 43.6526C9.3328 44.0497 9.151 44.4739 9.00382 44.909C8.98433 44.966 8.96456 45.0285 8.94768 45.093L8.48755 44.2173C8.35753 43.9688 8.22301 43.7227 8.107 43.4669C8.44266 43.4873 8.82139 43.2951 9.1617 43.0525C9.5018 42.8094 9.80348 42.517 9.98127 42.3225C10.3243 41.9464 10.5947 41.5314 10.8212 41.1089C11.0018 40.7701 11.1686 40.4169 11.311 40.0783C11.3389 40.0131 11.4242 39.7373 11.5268 39.4862C11.6293 39.2345 11.749 39.0074 11.8463 39.0211C11.6185 38.991 11.3768 38.9831 11.133 39.0086C10.8904 39.0335 10.6509 39.0893 10.4412 39.1811C9.95657 39.3927 9.53078 39.679 9.15727 40.0246C8.51351 40.6238 8.03355 41.4063 7.67825 42.2476C7.65377 42.303 7.63273 42.3621 7.61205 42.4245C7.50166 42.1845 7.40253 41.9393 7.29735 41.697L6.98567 40.968C7.31824 41.0125 7.7021 40.8511 8.04853 40.6373C8.39447 40.4231 8.70291 40.1577 8.88949 39.9776C9.21221 39.6641 9.47647 39.3139 9.70069 38.9529C9.8127 38.7722 9.91485 38.5888 10.0093 38.4054C10.1019 38.2226 10.1849 38.0405 10.2718 37.8568C10.3009 37.7942 10.3919 37.5269 10.4974 37.2854C10.6031 37.0433 10.7233 36.8269 10.8182 36.8486C10.377 36.7512 9.84675 36.7513 9.43707 36.8985C8.96315 37.0697 8.54763 37.3185 8.17968 37.6304C7.85674 37.9031 7.56892 38.2241 7.31261 38.5784C7.18428 38.7556 7.06369 38.9411 6.95035 39.133C6.83616 39.325 6.74034 39.5193 6.64494 39.7199C6.61989 39.7724 6.59499 39.83 6.57092 39.8904L6.39391 39.428L6.23455 38.9592L5.96383 38.1612C6.27909 38.2345 6.65725 38.1075 7.00031 37.9256C7.34357 37.7433 7.65117 37.5068 7.83226 37.3463C8.18502 37.0342 8.47552 36.6693 8.7141 36.2907C8.90673 35.9858 9.06313 35.6718 9.2018 35.3642C9.22636 35.3058 9.32021 35.0468 9.42089 34.8161C9.51938 34.5854 9.62928 34.3811 9.72004 34.4108C9.30072 34.2749 8.80401 34.2277 8.41804 34.3389C7.97156 34.4675 7.57814 34.6786 7.22439 34.9559C6.91461 35.1985 6.63657 35.4913 6.37914 35.8214C6.11763 36.1523 5.90389 36.5128 5.70344 36.8943C5.67699 36.9442 5.65025 36.9991 5.62422 37.0571L5.39852 36.2961L5.20047 35.5272C5.49061 35.6257 5.85126 35.53 6.18045 35.3766C6.50993 35.2227 6.80711 35.012 6.98173 34.8667C7.28869 34.612 7.53304 34.3138 7.74607 33.9947C7.95946 33.6754 8.13028 33.338 8.27536 33.0065C8.3016 32.9494 8.37541 32.7018 8.4561 32.4817C8.53842 32.261 8.64304 32.0642 8.72479 32.1018C8.33882 31.9316 7.8877 31.844 7.53662 31.9236C7.13088 32.0161 6.77193 32.1953 6.44422 32.4441C6.30097 32.5527 6.16364 32.6745 6.0313 32.8075C5.90072 32.9403 5.77964 33.0834 5.66116 33.2365C5.42512 33.542 5.20596 33.8857 5.00453 34.2489C4.97787 34.2966 4.95043 34.3491 4.92355 34.4047L4.71101 33.4359C4.64635 33.1619 4.59738 32.8849 4.54813 32.608C4.80275 32.7312 5.13124 32.6676 5.43208 32.5437C5.73313 32.4192 6.00667 32.2352 6.16546 32.1056C6.47313 31.8547 6.71445 31.5428 6.90504 31.2069C7.05926 30.9368 7.1923 30.6481 7.29594 30.3632C7.31564 30.3087 7.37818 30.0665 7.43974 29.8527C7.50215 29.6385 7.57068 29.4518 7.64659 29.4956C7.29186 29.2935 6.91377 29.1664 6.61518 29.2175C6.27388 29.2758 5.96756 29.4259 5.69345 29.6457C5.21834 30.0291 4.80331 30.632 4.41776 31.3214C4.39286 31.3664 4.36479 31.4166 4.34094 31.4692L4.11193 29.8954C4.33031 30.0372 4.61631 29.9992 4.87613 29.899C5.13764 29.7982 5.36665 29.6366 5.5056 29.5191C5.99141 29.1078 6.27205 28.4815 6.41502 27.8596C6.42578 27.802 6.46708 27.5788 6.50845 27.3559C6.547 27.1446 6.58802 26.9607 6.65254 27.0109C6.35388 26.7806 6.037 26.6265 5.80728 26.6562C5.54092 26.6911 5.31269 26.82 5.09754 27.0215C4.90906 27.1974 4.73246 27.4282 4.55383 27.6978C4.37133 27.9677 4.21282 28.2744 4.04812 28.6031C4.02652 28.6461 4.00407 28.6938 3.98163 28.7446L3.92781 28.2506L3.90115 28.0036L3.88335 27.7558L3.822 26.9124C3.9848 27.0707 4.20979 27.055 4.41277 26.9748C4.61666 26.8943 4.79684 26.7497 4.89794 26.6425C4.99595 26.539 5.07967 26.4171 5.14975 26.282C5.21919 26.1469 5.28616 25.9983 5.33394 25.8412L5.3314 25.8412L4.98962 25.8513L5.33394 25.8411H5.33492C5.41161 25.5882 5.46043 25.3134 5.47837 25.0359C5.48224 24.9826 5.47845 24.7427 5.47387 24.5298C5.47028 24.3168 5.46803 24.1308 5.51785 24.1861C5.28624 23.9322 5.0689 23.7562 4.92946 23.7731C4.76863 23.7932 4.63854 23.911 4.50986 24.1016C4.3396 24.3521 4.17863 24.728 3.99542 25.1694C4.00801 24.9297 4.00274 24.6521 3.9931 24.3392C3.98466 24.0261 3.96559 23.6776 3.94153 23.2959C3.91163 22.8377 3.87075 22.4086 3.83944 22.0226C3.80799 21.6367 3.78604 21.2943 3.7795 21.0101C3.77106 20.7258 3.77704 20.4997 3.78449 20.345C3.79005 20.2398 3.79561 20.1684 3.79857 20.1328C3.79055 20.2205 3.75875 20.5312 3.67671 21.0025C3.62943 21.2835 3.56372 21.6212 3.49365 22.0046C3.42378 22.388 3.34956 22.8172 3.29791 23.2796C3.25436 23.6777 3.22784 24.0421 3.21912 24.3684C3.21194 24.6947 3.22707 24.9824 3.24944 25.2279C3.14496 24.9968 3.04696 24.7796 2.95297 24.5862C2.85897 24.3928 2.77736 24.223 2.69124 24.0867C2.56516 23.8868 2.44 23.7589 2.27966 23.7326C2.14099 23.7103 1.91698 23.8889 1.68185 24.1611C1.73307 24.1021 1.72589 24.3032 1.72547 24.5335C1.72906 24.7639 1.73461 25.0234 1.74059 25.0808C1.7693 25.3804 1.82875 25.6752 1.91501 25.9419H1.91599L2.618 25.9212C2.50163 25.7637 2.40067 25.5885 2.31765 25.3948C2.21676 25.158 2.15323 24.888 2.12607 24.5827C2.14148 24.732 2.17005 24.8663 2.20593 24.9929C2.24399 25.1155 2.29071 25.2274 2.34572 25.3312C2.40046 25.4343 2.46413 25.5239 2.53132 25.6096C2.59971 25.6922 2.67337 25.7666 2.75069 25.8353C2.7832 25.8629 2.81662 25.8889 2.85039 25.9143H2.85214C2.97984 26.0107 3.11724 26.0913 3.26063 26.1534C3.33577 26.1859 3.41231 26.2146 3.48971 26.2397L3.50659 26.7119C3.50378 26.7098 3.50075 26.7081 3.49794 26.7065C3.39655 26.6443 3.29862 26.5781 3.20427 26.506C3.11014 26.4341 3.01839 26.3583 2.93277 26.2773C2.84912 26.1964 2.76933 26.1105 2.69462 26.0189C2.66865 25.9872 2.64333 25.9549 2.61906 25.9212L1.91845 25.9419L1.91592 25.9419C2.02279 26.2733 2.19509 26.5596 2.41446 26.7583C2.52738 26.8611 2.72311 26.9931 2.93481 27.0535C3.14566 27.1139 3.37095 27.1032 3.51511 26.9282L3.54887 27.7789L3.55894 28.0291L3.57793 28.2784L3.61712 28.7775C3.5856 28.7313 3.55464 28.6879 3.52523 28.6489C3.30397 28.3508 3.07925 28.0661 2.87705 27.8135C2.66922 27.5612 2.46737 27.3421 2.25982 27.1777C2.02272 26.9894 1.78084 26.8729 1.51187 26.8615C1.27991 26.8518 0.982939 27.0519 0.7139 27.3481C0.771873 27.2838 0.834628 27.4859 0.897948 27.7172C0.963167 27.9484 1.02965 28.2082 1.05294 28.2651C1.3167 28.9322 1.71464 29.559 2.26911 29.8793C2.42586 29.9715 2.69799 30.084 2.97583 30.1235C3.25401 30.1634 3.54078 30.1305 3.71562 29.9414L3.90614 31.5352C3.86688 31.494 3.82826 31.4532 3.79167 31.4145C3.24177 30.856 2.68026 30.3478 2.11636 30.0556C1.79273 29.8892 1.47289 29.7934 1.12442 29.8061C0.974142 29.8113 0.8112 29.8706 0.648749 29.9687C0.485243 30.067 0.323635 30.2042 0.183979 30.3642C0.244977 30.2949 0.36409 30.4919 0.484257 30.7172C0.603861 30.9429 0.731556 31.1961 0.765679 31.2512C0.856226 31.3953 0.95205 31.5371 1.05371 31.6732C1.15432 31.8096 1.26338 31.9398 1.38685 32.0603L2.52169 31.8847C2.28536 31.7553 2.07352 31.6037 1.87469 31.4309C1.63591 31.2183 1.42104 30.9677 1.24769 30.673C1.33605 30.8168 1.44074 30.9422 1.54923 31.059C1.66067 31.1717 1.77993 31.2708 1.90375 31.3611C2.028 31.4508 2.15957 31.5258 2.29338 31.5951C2.42804 31.6616 2.56741 31.719 2.7127 31.7693C2.77398 31.7896 2.83582 31.8091 2.89809 31.8266L5.39388 31.4406C5.44749 31.4066 5.49983 31.3713 5.55161 31.3357C5.67136 31.2492 5.79223 31.1581 5.90564 31.0616C6.01723 30.963 6.12564 30.861 6.22337 30.7497C6.3206 30.6379 6.41143 30.5209 6.49142 30.3957C6.56762 30.2677 6.6384 30.1346 6.68884 29.9909C6.59302 30.2835 6.44661 30.5534 6.26875 30.8029C6.12023 31.0067 5.94807 31.2012 5.76979 31.3824C5.7325 31.4209 5.69394 31.4587 5.65497 31.496C5.42997 31.7116 5.18366 31.9138 4.92404 32.1073C4.79403 32.2044 4.65979 32.2978 4.52175 32.3889C4.51795 32.3913 4.51366 32.3938 4.51 32.3967L4.426 31.9355C4.54236 31.8886 4.65789 31.8386 4.77151 31.7855C4.98849 31.6841 5.19625 31.568 5.39388 31.4405L5.38396 31.4427L2.90829 31.8255L2.89823 31.8271C3.12892 31.8938 3.36489 31.9432 3.6041 31.9733C3.72955 31.9889 3.85541 32.0005 3.98121 32.0085L4.05529 32.4761C4.05093 32.4745 4.04615 32.4736 4.04178 32.4725C3.88123 32.4322 3.72343 32.3874 3.56815 32.3359C3.25774 32.2336 2.9569 32.1124 2.66992 31.9647C2.62032 31.9392 2.57086 31.9128 2.52182 31.8852L1.39086 32.0601L1.38699 32.0607C1.68586 32.3614 2.0223 32.608 2.39821 32.7582C2.59232 32.836 2.9123 32.9252 3.23706 32.9398C3.56154 32.9547 3.8908 32.8959 4.08941 32.6901C4.13346 32.971 4.17708 33.2521 4.2366 33.53L4.43289 34.5136C4.38596 34.4738 4.33988 34.4368 4.29626 34.4039C3.96601 34.1512 3.62486 33.9126 3.28167 33.7066C3.11063 33.6036 2.93629 33.5092 2.76532 33.4252C2.59605 33.3408 2.42537 33.2675 2.25356 33.2082C1.86034 33.072 1.46023 33.0091 1.04668 33.0558C0.689063 33.0964 0.297393 33.3585 0 33.7082C0.0660638 33.632 0.223941 33.8188 0.396875 34.0319C0.568331 34.2456 0.744502 34.4868 0.793539 34.5381C1.07116 34.8401 1.37292 35.1275 1.70281 35.3644C2.03595 35.6009 2.41355 35.7833 2.80557 35.886C3.0312 35.9448 3.39536 36.0032 3.75909 35.9862C4.12248 35.9698 4.48446 35.8793 4.69377 35.6539L4.88239 36.4352L5.09979 37.2091C5.04653 37.1735 4.99433 37.1406 4.94494 37.1114C4.57227 36.8878 4.17828 36.6808 3.80019 36.5021C3.41619 36.3248 3.02902 36.1804 2.63671 36.0926C2.18869 35.9921 1.73581 35.9647 1.27815 36.0484C0.882398 36.1201 0.471453 36.417 0.1799 36.7929C0.242938 36.7117 0.446688 36.883 0.652407 37.0824C0.862208 37.2813 1.0711 37.5087 1.13069 37.5554C1.43089 37.8031 1.74672 38.0377 2.08442 38.2316C2.50515 38.4722 2.94733 38.6535 3.42272 38.7293C3.67024 38.7683 4.0655 38.7946 4.45337 38.7459C4.84088 38.6978 5.22066 38.5755 5.43039 38.3322L5.69626 39.1439L5.85309 39.6209L6.02834 40.0915C5.97002 40.0609 5.91261 40.0327 5.85857 40.0082C5.44404 39.8212 5.0319 39.6442 4.61082 39.5022C4.18918 39.3608 3.75874 39.2542 3.32817 39.2037C2.83666 39.1451 2.3434 39.1608 1.85479 39.2879C1.43258 39.398 1.01453 39.7344 0.740141 40.1373C0.798677 40.0502 1.04126 40.2007 1.28708 40.3792C1.53277 40.5581 1.7819 40.7645 1.84599 40.807C2.2155 41.0574 2.63496 41.2796 3.05786 41.4505C3.48288 41.621 3.92317 41.7372 4.37555 41.7673C4.63298 41.7854 5.04829 41.7758 5.45115 41.6911C5.85274 41.6074 6.2385 41.4507 6.44077 41.188L6.75286 41.9299C6.85847 42.1765 6.95739 42.426 7.06869 42.6701C7.00671 42.6442 6.94472 42.6215 6.88971 42.6005C6.04305 42.2829 5.12561 42.0338 4.21584 42.0054C3.70401 41.9871 3.19189 42.0433 2.69068 42.2116C2.47391 42.2845 2.26221 42.4135 2.07246 42.5783C1.88419 42.7427 1.7114 42.9447 1.58926 43.1562C1.64203 43.0648 1.91276 43.194 2.18841 43.3505C2.46399 43.5076 2.74436 43.6918 2.81535 43.7284C3.18837 43.9202 3.56111 44.1007 3.97347 44.2268L5.38184 43.5857C5.21173 43.5713 5.03985 43.5518 4.87177 43.5252C4.70566 43.4977 4.54096 43.464 4.37766 43.4239C3.9829 43.3229 3.59686 43.1768 3.23481 42.9743C3.4178 43.0708 3.60931 43.1452 3.80202 43.2091C3.99641 43.2682 4.19361 43.3114 4.39124 43.3449C4.58922 43.3776 4.78938 43.3936 4.98828 43.4035C5.1864 43.4108 5.3917 43.4055 5.59284 43.3947C5.67811 43.3888 5.7636 43.3819 5.84901 43.3731L8.94592 41.9632C9.00825 41.9061 9.07016 41.8492 9.13172 41.7929C9.27412 41.656 9.41231 41.5168 9.54879 41.3716C9.68156 41.2258 9.81206 41.0774 9.93096 40.9234C10.0489 40.7691 10.1611 40.6117 10.2618 40.4499C10.358 40.2867 10.4479 40.1209 10.5178 39.9506C10.3869 40.2933 10.2058 40.6307 9.99302 40.9587C9.81326 41.229 9.61753 41.4947 9.41265 41.7509C9.36938 41.8042 9.32549 41.8582 9.28172 41.9123C9.02612 42.2215 8.75167 42.5238 8.46715 42.8209C8.32475 42.9699 8.1782 43.1164 8.02834 43.2618L8.0156 43.2744L7.81509 42.8522C7.95116 42.7582 8.08596 42.6616 8.21872 42.5626C8.472 42.3733 8.71402 42.1724 8.94592 41.9634L8.93353 41.9691L5.86139 43.3676L5.84901 43.3733C6.16526 43.3425 6.47904 43.2934 6.78924 43.2248C6.95176 43.1886 7.11322 43.1484 7.27321 43.1048L7.47535 43.5345C7.46965 43.5351 7.46346 43.5359 7.45776 43.5364C7.25084 43.5613 7.04442 43.5812 6.83764 43.5939C6.4243 43.6199 6.01026 43.6255 5.59706 43.6013C5.52551 43.5971 5.45375 43.5923 5.38192 43.5859L3.97839 44.2248L3.97354 44.227C4.47595 44.3882 4.9887 44.4856 5.50546 44.4772C5.77309 44.4731 6.19326 44.4311 6.59372 44.3153C6.99411 44.2002 7.37509 44.0124 7.56808 43.7311C7.68479 43.9911 7.82178 44.2414 7.95334 44.4943L8.42036 45.3849C8.35655 45.3639 8.29555 45.3447 8.23744 45.329C7.79792 45.2066 7.33998 45.1042 6.87437 45.0385C6.41115 44.9716 5.93111 44.9455 5.47289 44.9684C4.94691 44.995 4.42487 45.0973 3.92506 45.31C3.49308 45.4938 3.10352 45.9025 2.88563 46.3497C2.93024 46.2536 3.22024 46.3585 3.52158 46.4887C3.82143 46.6198 4.12783 46.7775 4.20438 46.8076C4.65437 46.9833 5.10057 47.1445 5.58454 47.2336C6.06085 47.3264 6.53772 47.3641 7.00741 47.3161C7.27666 47.2891 7.69485 47.2114 8.08554 47.0626C8.47636 46.9142 8.84003 46.6957 9.00896 46.3993C9.07734 46.5148 9.14143 46.6328 9.21341 46.7463L9.43088 47.0855L9.86582 47.7639C9.80137 47.7477 9.73861 47.7335 9.67958 47.7224C9.23163 47.6348 8.76468 47.5693 8.29154 47.5409C7.81396 47.5154 7.35103 47.5156 6.88816 47.5765C6.36049 47.6458 5.84176 47.7893 5.35694 48.0402C4.93699 48.2569 4.58612 48.6919 4.4141 49.1511C4.45259 49.0514 4.74886 49.1362 5.05898 49.2444C5.37812 49.3489 5.70541 49.4791 5.7859 49.5025C6.20663 49.6258 6.63361 49.7315 7.05771 49.7953L8.34466 48.9383C8.00414 48.9628 7.65876 48.9653 7.31219 48.942C6.89259 48.91 6.46933 48.8337 6.05557 48.699C6.26354 48.7614 6.47468 48.801 6.68406 48.8305C6.89435 48.8548 7.10338 48.8635 7.31008 48.863C7.517 48.8614 7.72215 48.8435 7.92414 48.8201C8.1262 48.7937 8.32609 48.7574 8.52301 48.7152C8.60603 48.6962 8.68905 48.6762 8.77157 48.6541C9.07621 48.5754 9.38127 48.4754 9.67649 48.3579C9.83113 48.296 9.98401 48.2308 10.1343 48.1624L10.4088 48.5505C10.4033 48.552 10.3973 48.5537 10.3918 48.5553C10.1931 48.6127 9.99323 48.6651 9.79103 48.7107C9.3874 48.8027 8.97652 48.8759 8.55889 48.9203C8.48783 48.9272 8.41635 48.9335 8.34459 48.9383L7.06215 49.7923L7.05771 49.7953C7.58946 49.8726 8.13071 49.8773 8.64065 49.786C8.9061 49.7381 9.31373 49.6293 9.68563 49.4527C10.058 49.2766 10.3956 49.0338 10.5343 48.7282C10.6996 48.9608 10.8601 49.1968 11.0401 49.4186L11.659 50.2125C11.5946 50.2013 11.5317 50.1921 11.4729 50.1857C11.0265 50.1337 10.5617 50.1059 10.0928 50.1161C9.61978 50.1292 9.15917 50.1693 8.70875 50.2667C8.19311 50.378 7.69296 50.563 7.23881 50.8509C6.84574 51.1 6.54735 51.557 6.43317 52.0212C6.45969 51.9194 6.76335 51.9785 7.08966 52.0557C7.4211 52.1304 7.76261 52.23 7.84549 52.2459C8.33214 52.3397 8.81407 52.417 9.29601 52.4326C9.78448 52.4439 10.2564 52.4043 10.6991 52.2861C10.9529 52.2184 11.3377 52.0805 11.6785 51.8801C12.0199 51.6798 12.3188 51.4174 12.4187 51.1074L12.6816 51.413L12.9586 51.7062L13.514 52.291C13.4503 52.2844 13.3883 52.2799 13.3305 52.2775C12.8915 52.2571 12.4353 52.2629 11.9777 52.3069C11.7473 52.3304 11.5219 52.3591 11.3011 52.3974C11.079 52.4367 10.8589 52.4874 10.643 52.5518C10.1497 52.6993 9.67803 52.9176 9.26477 53.2325C8.90638 53.5043 8.66921 53.9706 8.61813 54.4274C8.62967 54.3284 8.94395 54.3579 9.27025 54.4111C9.60508 54.459 9.95883 54.5257 10.0418 54.5352C10.4814 54.5825 10.9185 54.6142 11.3405 54.6077C11.8712 54.5951 12.3859 54.5184 12.8438 54.3593C13.0821 54.2762 13.4373 54.117 13.7409 53.9014C14.0451 53.6858 14.2993 53.4141 14.3567 53.1086L14.6673 53.4034C14.7731 53.4991 14.8836 53.59 14.9916 53.6834L15.7574 54.3371C15.6952 54.3354 15.636 54.3343 15.5805 54.3358C15.1589 54.3439 14.7234 54.3794 14.29 54.4536C14.0733 54.4906 13.8574 54.5374 13.6447 54.5951C13.4352 54.6496 13.2299 54.7146 13.0301 54.7925C12.574 54.9696 12.1475 55.215 11.7919 55.5476C11.484 55.8353 11.3218 56.2991 11.344 56.7336C11.3413 56.6866 11.4186 56.6628 11.5375 56.6534C11.6551 56.645 11.8168 56.6488 11.9867 56.6547C12.3242 56.6691 12.6757 56.7052 12.7586 56.7068C13.0013 56.7118 13.2419 56.7132 13.4802 56.704C13.5992 56.6995 13.716 56.6943 13.833 56.685C13.9518 56.6739 14.0689 56.6609 14.1839 56.6453C14.6444 56.5826 15.0697 56.4825 15.4457 56.3163C15.6611 56.2216 15.9754 56.049 16.2303 55.829C16.4858 55.6087 16.6836 55.3409 16.6904 55.0506L16.8512 55.1722L17.018 55.2856L17.3517 55.5124C17.5752 55.6617 17.7946 55.8174 18.0214 55.9615C17.963 55.9651 17.9053 55.9687 17.8506 55.9721C17.4506 56.0005 17.0378 56.0611 16.633 56.1571C16.4305 56.2053 16.2298 56.2629 16.0336 56.331C15.8384 56.3978 15.6524 56.4697 15.4708 56.5568C15.0577 56.7541 14.681 57.0154 14.3883 57.3502C14.1332 57.641 14.0514 58.0799 14.147 58.473C14.1287 58.3858 14.428 58.3657 14.7616 58.3475C15.0929 58.3326 15.4402 58.3375 15.5221 58.3306C15.7347 58.3154 15.9448 58.2979 16.15 58.276C16.2526 58.265 16.3538 58.2533 16.4538 58.2396C16.5561 58.2234 16.6567 58.2057 16.7552 58.1866C17.2456 58.0923 17.6904 57.9596 18.0567 57.7701C18.2472 57.6713 18.5183 57.498 18.7236 57.2869C18.9331 57.0698 19.0713 56.8268 19.0297 56.563C19.2774 56.7043 19.5351 56.8283 19.7871 56.9617L20.234 57.1927C20.384 57.2676 20.5399 57.3303 20.6926 57.3996C20.6358 57.4049 20.5814 57.4114 20.5315 57.4192C20.1476 57.4831 19.7741 57.5447 19.4067 57.6549C19.0405 57.763 18.686 57.908 18.3678 58.0937C18.0055 58.303 17.6988 58.5546 17.4798 58.8744C17.3859 59.012 17.3394 59.1789 17.3379 59.3526C17.336 59.5268 17.3787 59.7089 17.4697 59.8638C17.431 59.7952 17.7277 59.7331 18.0431 59.6881C18.3595 59.6428 18.694 59.6147 18.7703 59.6032C18.8803 59.5848 18.9918 59.5664 19.1043 59.5475C19.2154 59.527 19.3275 59.5012 19.4361 59.4774C19.6541 59.4285 19.864 59.3766 20.062 59.3206C20.4606 59.204 20.8082 59.0783 21.0915 58.9088C21.2551 58.8091 21.4803 58.6441 21.6335 58.4577ZM4.39673 25.8694L4.39194 25.8696L4.18461 25.8757L4.39673 25.8694ZM3.68135 29.7219C3.54726 29.6696 3.41597 29.6128 3.28793 29.5492C3.03169 29.4237 2.7884 29.2809 2.56172 29.1119C2.33517 28.9446 2.12432 28.7493 1.94111 28.5239C1.85091 28.4102 1.76557 28.2876 1.69205 28.1552C1.62162 28.0228 1.55964 27.8807 1.50786 27.7288C1.5621 27.8772 1.63028 28.0091 1.70472 28.1325C1.78295 28.2517 1.87526 28.3589 1.96974 28.4576C2.06515 28.5555 2.16892 28.6389 2.27636 28.7179C2.38463 28.7936 2.49741 28.8608 2.61279 28.9218C2.84497 29.0389 3.08889 29.1304 3.34055 29.1908C3.44468 29.2164 3.54979 29.237 3.65525 29.2549L3.69282 29.726L3.68135 29.7219ZM3.34555 25.9004L3.53544 25.8947L3.53579 25.8803L3.54592 25.4613L3.56421 24.464L3.5996 23.4677L3.62183 22.9703L3.64611 22.4724L3.63506 22.9707L3.63239 23.4684C3.6333 23.8003 3.63865 24.1322 3.6492 24.464L3.70654 25.4582L3.73004 25.8284L3.73426 25.889L3.34555 25.9004ZM3.80687 26.6986L3.77345 26.23C3.84965 26.1994 3.92513 26.1654 3.99908 26.1285C4.13993 26.0574 4.27424 25.97 4.39821 25.8694L4.39996 25.8693C4.43289 25.8428 4.46518 25.8158 4.4967 25.7873C4.57135 25.7169 4.64227 25.642 4.70763 25.56C4.77151 25.4752 4.83181 25.3875 4.88295 25.288C4.93417 25.1876 4.97674 25.0807 5.01037 24.9644C5.04154 24.8443 5.06546 24.7177 5.07524 24.5774C5.05913 24.8644 5.00544 25.1194 4.91335 25.3471C4.83743 25.5335 4.74288 25.7048 4.63249 25.8624L4.63108 25.8624C4.60822 25.8959 4.58409 25.9285 4.55932 25.9606C4.48805 26.0532 4.41164 26.1415 4.33081 26.226C4.25208 26.3107 4.17082 26.3914 4.0847 26.4694C3.99894 26.5478 3.90874 26.6214 3.81475 26.6924C3.81221 26.6942 3.8094 26.6961 3.80687 26.6986ZM4.08344 29.6826L4.03327 29.2168C4.13332 29.1782 4.23273 29.1375 4.33017 29.0927C4.56621 28.9857 4.78924 28.8532 4.99637 28.7027C5.09873 28.6252 5.19751 28.5435 5.29038 28.4556C5.38192 28.3648 5.4693 28.2717 5.54571 28.1678C5.62267 28.0631 5.68965 27.9527 5.75227 27.8334C5.81298 27.7106 5.8666 27.5821 5.90466 27.4412C5.86948 27.5849 5.82326 27.7218 5.7674 27.8521C5.71463 27.9824 5.65532 28.1059 5.58581 28.2237C5.44545 28.4576 5.27322 28.6731 5.08087 28.8704C4.88866 29.0695 4.67548 29.2521 4.44774 29.4255C4.33376 29.513 4.2157 29.5958 4.09378 29.6762L4.08344 29.6826ZM4.62749 35.4408C4.44555 35.4161 4.26559 35.3867 4.08731 35.3498C3.73342 35.2773 3.37714 35.1876 3.0478 35.0654C2.71692 34.9453 2.39821 34.7941 2.09913 34.6081C1.80124 34.42 1.52263 34.191 1.28765 33.913C1.40901 34.0478 1.54121 34.1637 1.68164 34.2693C1.82397 34.3702 1.97284 34.458 2.12537 34.5361C2.27819 34.6136 2.43704 34.6749 2.59731 34.7313C2.7585 34.7845 2.92278 34.8281 3.0884 34.8652C3.42146 34.9339 3.75797 34.9755 4.1037 34.9835C4.24673 34.9873 4.38955 34.9861 4.53209 34.9823L4.6429 35.4423L4.62749 35.4408ZM5.02986 34.8666C5.15875 34.8076 5.2868 34.7467 5.41266 34.6821C5.71794 34.5268 6.01272 34.3474 6.28929 34.1533C6.42641 34.0542 6.56002 33.9515 6.68743 33.8436C6.81274 33.7333 6.9353 33.6211 7.0466 33.4999C7.15713 33.3783 7.26125 33.2519 7.35462 33.119C7.44446 32.9831 7.52326 32.8437 7.58517 32.6949C7.47148 32.9966 7.30065 33.2813 7.09803 33.5481C6.89287 33.8138 6.65936 34.0662 6.40348 34.3047C6.14696 34.545 5.88137 34.7698 5.59685 34.9892C5.45537 35.0997 5.30938 35.2062 5.15973 35.311L5.14693 35.3194L5.02986 34.8666ZM5.34625 38.1249C5.14862 38.1165 4.95845 38.1013 4.7668 38.0799C4.38505 38.0374 4.00816 37.9746 3.63935 37.8829C3.57547 37.867 3.51165 37.8504 3.44798 37.8323C3.14552 37.7481 2.85186 37.6411 2.56812 37.5101C2.39708 37.4289 2.2302 37.3372 2.07007 37.2338C1.91452 37.1293 1.76564 37.0131 1.62528 36.8841C1.76818 37.0088 1.92317 37.1131 2.08168 37.2077C2.2454 37.297 2.41749 37.3706 2.59056 37.4353C2.76427 37.4992 2.9429 37.5469 3.12182 37.5887C3.30193 37.6276 3.48401 37.6567 3.66651 37.6791C3.74397 37.6874 3.82206 37.6947 3.9003 37.7C4.19002 37.7217 4.48151 37.7251 4.77334 37.7086C4.92629 37.6997 5.07896 37.6869 5.23107 37.6704C5.27526 37.8221 5.31494 37.9753 5.36313 38.1258C5.35757 38.1255 5.35159 38.1252 5.34625 38.1249ZM5.89523 37.9589C5.84591 37.8108 5.80489 37.6601 5.75937 37.5111C5.89579 37.441 6.03109 37.3681 6.16469 37.2925C6.41938 37.148 6.66387 36.9901 6.89864 36.8226L6.88654 36.8261L5.39943 37.2614L6.89864 36.8226C6.96217 36.7778 7.02486 36.7317 7.08635 36.6855C7.23009 36.5743 7.37044 36.4599 7.5044 36.3408C7.63611 36.2199 7.765 36.0965 7.88207 35.9655C7.999 35.8341 8.1077 35.6992 8.20789 35.5573C8.30667 35.4122 8.39848 35.2635 8.47137 35.1071C8.40256 35.2654 8.32137 35.4201 8.22963 35.5714C8.14253 35.7211 8.04515 35.8673 7.93913 36.0098C7.76099 36.2439 7.56505 36.4713 7.35032 36.6904C7.30529 36.7359 7.2597 36.7819 7.21404 36.8279C6.94817 37.09 6.66232 37.3423 6.36486 37.5878C6.21641 37.7109 6.06134 37.8315 5.90824 37.9489C5.90402 37.9519 5.89931 37.9551 5.89523 37.9589ZM6.34487 40.986C6.14162 40.9943 5.93948 40.9975 5.73749 40.993C5.33435 40.9857 4.93361 40.9583 4.53702 40.9003C4.14134 40.8441 3.74706 40.7558 3.36848 40.6286C2.9906 40.4991 2.64171 40.3201 2.3142 40.0893C2.47933 40.2005 2.65494 40.2902 2.83293 40.3697C3.01396 40.4433 3.19562 40.5042 3.38607 40.5522C3.57666 40.5997 3.76993 40.6305 3.96439 40.6556C4.15921 40.6774 4.3548 40.6892 4.54982 40.6944C4.94065 40.6996 5.33084 40.6765 5.718 40.6208C5.87835 40.5983 6.03756 40.5708 6.196 40.5408L6.3619 40.9848L6.34487 40.986ZM6.90673 40.7689L6.73999 40.3326C6.87852 40.2493 7.01599 40.1644 7.15129 40.0758C7.47915 39.863 7.78997 39.6294 8.08575 39.3829C8.23167 39.2581 8.37435 39.1301 8.51112 38.9979C8.64543 38.8638 8.77594 38.7286 8.89477 38.5863C9.01247 38.444 9.13088 38.2947 9.23451 38.1426C9.33442 37.9879 9.42764 37.8301 9.50123 37.6664C9.36474 37.9961 9.16937 38.3196 8.95598 38.6249C8.73992 38.9293 8.49191 39.227 8.22554 39.5132C7.95967 39.801 7.67382 40.0798 7.37734 40.3531C7.22903 40.4907 7.07636 40.625 6.92024 40.758L6.90673 40.7689ZM8.88224 46.2144C8.6773 46.2567 8.47207 46.2939 8.2653 46.3237C7.85252 46.3847 7.43637 46.4264 7.01628 46.4377C6.80732 46.4439 6.59365 46.4437 6.3861 46.4316C6.17926 46.4191 5.97283 46.3974 5.7669 46.3662C5.35603 46.3013 4.94761 46.1903 4.55622 46.0213C4.75364 46.101 4.95683 46.1577 5.15973 46.2043C5.36377 46.2452 5.5692 46.2713 5.77352 46.2872C5.97797 46.3023 6.18256 46.3 6.38533 46.293C6.58872 46.2823 6.78896 46.2624 6.99334 46.2332C7.39901 46.1707 7.79694 46.081 8.18488 45.96C8.34557 45.9105 8.50423 45.8565 8.66133 45.7998L8.89948 46.2103L8.88224 46.2144ZM9.4301 45.8927L9.41821 45.9057L9.18456 45.5019C9.31317 45.3963 9.44108 45.2888 9.56624 45.1782C9.86997 44.912 10.1551 44.6276 10.426 44.3324C10.558 44.1844 10.6933 44.0297 10.819 43.8739C10.9427 43.7161 11.0648 43.5567 11.1752 43.3922C11.2847 43.2274 11.3884 43.0595 11.4815 42.8889C11.5698 42.7169 11.652 42.5428 11.7147 42.3658C11.5984 42.7213 11.4337 43.0753 11.2386 43.4219C11.0404 43.7683 10.8167 44.1104 10.5831 44.439C10.3485 44.77 10.0957 45.0948 9.83387 45.4153C9.70322 45.5766 9.56814 45.7351 9.4301 45.8927ZM10.8932 48.2099L10.6257 47.8273C10.744 47.7134 10.8609 47.5968 10.9756 47.4782C11.1945 47.2515 11.4001 47.0159 11.6014 46.7693L11.5901 46.7768L10.1865 47.7115L11.6014 46.7692C11.6552 46.7022 11.7084 46.6355 11.7614 46.5695C11.8835 46.41 12.0027 46.2477 12.1163 46.0827C12.2272 45.9166 12.3362 45.7482 12.4339 45.5759C12.531 45.4032 12.6227 45.2284 12.7037 45.0506C12.7802 44.8721 12.8509 44.6917 12.9031 44.5101C12.8082 44.8745 12.6675 45.2406 12.4987 45.6014C12.3562 45.8988 12.1989 46.1945 12.0278 46.4853C11.992 46.5456 11.9558 46.6069 11.9195 46.6681C11.7133 47.0145 11.491 47.356 11.2603 47.6933C11.1449 47.8623 11.0257 48.0293 10.9036 48.1958L10.8932 48.2099ZM12.2609 50.9478C12.0745 51.019 11.8861 51.0853 11.694 51.145C11.3113 51.2661 10.919 51.37 10.5136 51.4466C10.11 51.5245 9.70639 51.5633 9.28714 51.5705C8.86979 51.5741 8.44182 51.5344 8.01434 51.4371C8.2285 51.481 8.44273 51.5019 8.65352 51.5135C8.86423 51.5195 9.07221 51.5113 9.27624 51.4937C9.4802 51.4753 9.67966 51.4407 9.87588 51.402C10.0715 51.3597 10.2634 51.3085 10.4515 51.2513C10.8241 51.1338 11.1955 50.9819 11.542 50.8077C11.6863 50.7357 11.8276 50.6594 11.9668 50.5812L12.2765 50.9414L12.2609 50.9478ZM12.7085 50.5716L12.4081 50.2152C12.5105 50.0937 12.6119 49.9707 12.7104 49.8449C12.951 49.5404 13.1668 49.225 13.3792 48.8915C13.4822 48.7244 13.5825 48.5547 13.6775 48.3824C13.7696 48.209 13.8605 48.0339 13.9405 47.8551C14.0197 47.6763 14.0936 47.4949 14.1582 47.3119C14.2179 47.1281 14.2727 46.9429 14.3095 46.7575C14.2445 47.1286 14.1375 47.5044 14.0046 47.8756C13.8697 48.246 13.7106 48.6176 13.5427 48.9755C13.377 49.3337 13.1962 49.6868 13.0084 50.036C12.9147 50.2115 12.8174 50.3847 12.7172 50.5572L12.7085 50.5716ZM14.1845 52.965C14.0133 53.0457 13.8392 53.1223 13.6612 53.1935C13.3056 53.3361 12.9368 53.4635 12.5517 53.5672C12.4854 53.5834 12.4189 53.5997 12.3532 53.6158C12.0363 53.6891 11.7088 53.7426 11.3714 53.7739C10.962 53.8082 10.5357 53.8031 10.1007 53.7426C10.318 53.7682 10.5319 53.7717 10.7409 53.7667C10.9495 53.7566 11.1524 53.7326 11.3502 53.7005C11.5479 53.6673 11.7392 53.6196 11.9257 53.5674C12.1116 53.5124 12.2922 53.449 12.4683 53.3807C12.5423 53.3507 12.6162 53.3197 12.6889 53.287C12.9579 53.1688 13.2217 53.0306 13.4711 52.8786C13.6018 52.7985 13.7297 52.7158 13.8543 52.6303L14.1992 52.9582C14.194 52.9601 14.1891 52.9627 14.1845 52.965ZM14.5763 52.558C14.5741 52.5626 14.5717 52.5678 14.57 52.5728L14.2366 52.2466C14.3213 52.1225 14.404 51.9962 14.4847 51.868C14.6386 51.623 14.7782 51.3712 14.9152 51.1067C14.9514 51.0351 14.9873 50.9639 15.0231 50.893C15.1041 50.7232 15.1825 50.5508 15.2557 50.3758C15.3263 50.2002 15.3956 50.0224 15.4546 49.8414C15.5128 49.6604 15.5664 49.4774 15.6109 49.2924C15.6509 49.1074 15.6865 48.9208 15.7057 48.7349C15.6758 49.1065 15.6087 49.4841 15.5181 49.8582C15.4404 50.167 15.3517 50.4743 15.2506 50.7782C15.2294 50.8413 15.208 50.9053 15.1865 50.9693C15.0664 51.3289 14.9337 51.6842 14.7944 52.0349C14.7246 52.2108 14.6517 52.3846 14.5763 52.558ZM16.5048 54.9253C16.3545 55.0115 16.2006 55.0943 16.0416 55.172C15.7246 55.3285 15.3926 55.4729 15.0387 55.597C14.8632 55.6589 14.6783 55.7192 14.4944 55.7663C14.3102 55.8134 14.1206 55.8542 13.9258 55.8878C13.5371 55.9508 13.1239 55.9787 12.6922 55.9563C12.9072 55.9631 13.115 55.9497 13.3165 55.9289C13.5162 55.903 13.7088 55.8654 13.8945 55.8204C14.08 55.7747 14.2575 55.7139 14.4294 55.6516C14.6005 55.5855 14.7621 55.5152 14.9244 55.4343C15.2434 55.271 15.5399 55.0899 15.8119 54.8873C15.9249 54.8037 16.0336 54.7172 16.1399 54.6292L16.5173 54.9178L16.5048 54.9253ZM16.8143 54.5192L16.8101 54.5332L16.4453 54.2431C16.5067 54.1202 16.567 53.9958 16.6243 53.869C16.7638 53.5629 16.8829 53.2436 16.9899 52.9149C17.04 52.7515 17.0932 52.578 17.1388 52.4052C17.1822 52.2312 17.2258 52.0542 17.2581 51.8753C17.2899 51.6965 17.3172 51.5152 17.3368 51.3327C17.3519 51.1497 17.363 50.9653 17.3592 50.782C17.3744 51.1481 17.3576 51.5206 17.3196 51.8885C17.2985 52.0737 17.2738 52.2578 17.2458 52.4405C17.2176 52.6231 17.1914 52.7967 17.1587 52.9731C17.0965 53.3245 17.0218 53.6704 16.9417 54.0112C16.9025 54.1821 16.8594 54.3512 16.8143 54.5192ZM18.8318 56.4583C18.7032 56.5438 18.5704 56.6264 18.4318 56.706C18.1552 56.8651 17.8602 57.0168 17.541 57.1534C17.4848 57.1767 17.4285 57.1999 17.3725 57.223C17.0997 57.3342 16.8166 57.4229 16.5165 57.4955C16.1503 57.5818 15.753 57.6411 15.3312 57.653C15.541 57.6423 15.7399 57.6148 15.9319 57.58C16.1222 57.5407 16.3021 57.4913 16.4742 57.4364C16.6462 57.3808 16.8069 57.3145 16.9615 57.246C17.1136 57.1763 17.2611 57.0966 17.4031 57.0132C17.4622 56.9774 17.5206 56.941 17.5774 56.9034C17.789 56.7657 17.9849 56.6187 18.1641 56.4609C18.2579 56.3783 18.3479 56.2938 18.4345 56.2076L18.8429 56.4511C18.8389 56.4532 18.8353 56.456 18.8318 56.4583ZM21.2761 55.3314C21.3582 55.6381 21.4286 55.9367 21.4864 56.2246C21.5456 56.5141 21.5938 56.7937 21.637 57.0637C21.6566 57.1943 21.6764 57.326 21.6964 57.4592L21.6976 57.4697C21.5536 57.411 21.4158 57.3377 21.2745 57.2725C21.288 57.1728 21.3 57.0716 21.3086 56.9682C21.3307 56.7184 21.331 56.4565 21.3188 56.1835C21.3105 56.0464 21.2995 55.9064 21.2837 55.7632C21.2654 55.6193 21.2456 55.4744 21.2181 55.3227C21.1912 55.1675 21.1615 55.0072 21.1239 54.8472C21.0825 54.6865 21.0378 54.5229 20.9817 54.359C21.1014 54.6849 21.196 55.016 21.2761 55.3314ZM20.4737 58.436C20.1987 58.5713 19.894 58.698 19.5569 58.8121C19.2225 58.9181 18.8576 58.9945 18.4539 59.0433C18.6532 59.016 18.8385 58.9753 19.015 58.9311C19.1877 58.8836 19.3511 58.8265 19.5043 58.7676C19.6592 58.7043 19.8018 58.6306 19.9381 58.5585C20.0719 58.484 20.1967 58.4064 20.3148 58.3273C20.5469 58.1664 20.7516 57.9983 20.9265 57.8185C20.9993 57.7447 21.0672 57.669 21.1323 57.5931C21.2778 57.6549 21.4198 57.7247 21.5681 57.7798L21.5595 57.7867C21.4527 57.8677 21.3449 57.9399 21.2291 58.0126C20.9994 58.1577 20.7507 58.3006 20.4737 58.436Z" fill="#C8B18A"/>
<path d="M3.79883 20.135C3.80056 20.117 3.80131 20.1069 3.80131 20.1069C3.80131 20.1069 3.80033 20.1171 3.79883 20.135Z" fill="#C8B18A"/>
<path d="M4.42323 25.8687L4.40039 25.8692L4.42323 25.8687Z" fill="#C8B18A"/>
<path d="M38.4563 34.3417C38.4134 34.316 38.3748 34.3031 38.3404 34.3031C38.2718 34.3031 38.2376 34.3205 38.2376 34.3545C37.9116 35.5726 37.2599 36.5374 36.282 37.249C35.3044 37.961 34.1468 38.3168 32.8089 38.3168H31.9342C31.4878 38.3168 31.1663 38.2825 30.9692 38.2139C30.7717 38.1455 30.6388 38.0124 30.5703 37.8152C30.5017 37.6184 30.4673 37.2964 30.4673 36.8504V34.8405C30.8563 34.727 31.2328 34.5878 31.5941 34.4176C32.6768 33.9075 33.5205 33.2098 34.1246 32.3243C34.7283 31.4393 35.0304 30.4551 35.0304 29.3721C35.0304 27.6439 34.3279 26.3211 32.9217 25.4048C32.2012 24.9352 31.3821 24.5877 30.4673 24.3588V23.389C30.4673 22.8743 30.51 22.4926 30.5961 22.2437C30.6818 21.9954 30.8534 21.8238 31.1108 21.7293C31.3681 21.6354 31.7623 21.5879 32.2942 21.5879C32.3455 21.5879 32.3713 21.5366 32.3713 21.4336C32.3713 21.3306 32.3456 21.2792 32.2942 21.2792L30.982 21.3048C30.1928 21.3394 27.8601 21.3394 27.0711 21.3048L25.759 21.2792C25.7246 21.2792 25.7077 21.3306 25.7077 21.4336C25.7077 21.5366 25.7247 21.5879 25.759 21.5879C26.2907 21.5879 26.6854 21.6354 26.9426 21.7293C27.1999 21.8238 27.3755 21.9911 27.47 22.2308C27.5642 22.4712 27.6116 22.8486 27.6116 23.363V24.0306C27.606 24.0306 27.6007 24.0301 27.5952 24.0301C26.7622 24.0301 25.9289 24.0926 25.0959 24.2176V18.2505C25.0959 17.4802 25.2158 16.954 25.4553 16.6728C25.6947 16.3916 26.1475 16.2511 26.8143 16.2511H28.1266C29.3762 16.2511 30.4223 16.6525 31.2659 17.4538C32.1093 18.2556 32.6874 19.4587 32.9999 21.062C33.0413 21.1244 33.1139 21.156 33.2183 21.156C33.3225 21.156 33.3747 21.1244 33.3747 21.062L33.1249 16.3135C33.1249 15.9599 33.088 15.741 33.0153 15.6577C32.942 15.5747 32.7603 15.5327 32.4686 15.5327H19.3789C19.3371 15.5327 19.3167 15.5951 19.3167 15.7202C19.3167 15.8453 19.3371 15.9076 19.3789 15.9076C20.0242 15.9076 20.5038 15.9653 20.816 16.0792C21.1284 16.1941 21.3364 16.3973 21.4409 16.6884C21.5447 16.9804 21.597 17.4384 21.597 18.0631V32.5275C21.597 33.1525 21.5394 33.6157 21.4249 33.9177C21.3105 34.2198 21.1019 34.4229 20.8002 34.5269C20.4982 34.6311 20.0141 34.6829 19.3476 34.6829C19.285 34.6829 19.2539 34.7453 19.2539 34.8703C19.2539 34.9954 19.285 35.0579 19.3476 35.0579C20.0553 35.0579 20.6178 35.0476 21.0345 35.0268L23.3152 34.9954C23.8564 34.9954 24.3511 35.006 24.799 35.0268C25.2466 35.0476 25.627 35.0681 25.9394 35.089C26.5705 35.1388 27.1256 35.168 27.6114 35.1782V36.9534C27.6114 37.4681 27.5639 37.8497 27.4698 38.0983C27.3753 38.3472 27.2039 38.5144 26.9552 38.6C26.7063 38.6859 26.3078 38.7286 25.7588 38.7286C25.7244 38.7286 25.7075 38.7799 25.7075 38.8829C25.7075 38.9859 25.7245 39.0373 25.7588 39.0373H37.9028C38.0398 39.0373 38.1385 39.0076 38.199 38.9472C38.2588 38.8873 38.2887 38.7889 38.2887 38.6517C38.2887 37.5195 38.3661 36.1042 38.5204 34.4061C38.5207 34.3893 38.4988 34.3674 38.4563 34.3417ZM31.1023 26.1855C31.9561 27.0397 32.3832 28.3623 32.3832 30.1533C32.3832 31.5487 32.06 32.6054 31.4146 33.3238C31.2126 33.5487 30.8763 33.7384 30.4673 33.8928V25.7379C30.7196 25.8713 30.9368 26.0202 31.1023 26.1855ZM27.3767 34.4019C26.4601 34.4019 25.8507 34.2456 25.549 33.9332C25.2468 33.6208 25.0959 33.1524 25.0959 32.5274V25.0299C25.5335 24.9465 26.0023 24.9048 26.5019 24.9048C26.846 24.9048 27.2239 24.9274 27.6117 24.9699V34.3983C27.5319 34.4004 27.4529 34.4019 27.3767 34.4019Z" fill="#C8B18A"/>
</svg>
