<svg width="290" height="277" viewBox="0 0 290 277" fill="none" xmlns="http://www.w3.org/2000/svg">
<g opacity="0.15">
<path d="M155.703 276.142L155.7 276.132L155.696 276.122C146.493 252.021 126.439 245.666 113.399 241.676C112.905 241.518 112.424 241.366 111.956 241.219C110.758 240.841 109.65 240.491 108.648 240.141C64.1953 224.603 33.6323 184.263 30.9807 137.304L30.9806 137.303C28.2597 90.7709 53.5786 47.4425 95.2941 26.7437C95.6476 26.623 96.0465 26.7753 96.1924 27.0667C96.368 27.4173 96.2001 27.7592 95.9736 27.844L95.9495 27.853L95.9265 27.8644C54.6098 48.3853 29.6203 91.2563 32.295 137.15C34.9695 183.741 65.0924 223.589 109.08 238.843C110.306 239.332 111.638 239.716 113.044 240.122C113.272 240.188 113.503 240.255 113.735 240.322C126.488 244.31 147.49 250.971 156.93 275.628C157.055 276.016 156.885 276.341 156.542 276.455L156.509 276.467L156.477 276.482C156.466 276.488 156.451 276.493 156.428 276.496C156.405 276.499 156.383 276.5 156.35 276.5C156.007 276.5 155.756 276.3 155.703 276.142Z" stroke="#AF918B"/>
<path d="M90.5993 29.3348L90.6546 29.3111L90.7027 29.275C100.727 21.7516 115.144 19.6645 127.216 22.6428C127.35 22.6766 127.409 22.7472 127.433 22.8071C127.457 22.8681 127.464 22.9642 127.403 23.0809C123.432 28.67 116.914 31.9724 110.205 33.3535L110.205 33.3535L110.2 33.3545C103.508 34.8012 95.9657 33.8946 90.5071 29.676C90.4484 29.6247 90.4359 29.5683 90.4468 29.512C90.4594 29.4465 90.5076 29.374 90.5993 29.3348ZM117.611 25.9619L118.927 25.2918L117.475 25.0246C109.336 23.5277 101.372 25.9567 93.9978 28.9721L94.1871 29.9349C102.243 29.9349 110.484 29.591 117.611 25.9619Z" stroke="#AF918B"/>
<path d="M80.7278 15.756L80.7284 15.7528C81.9692 9.97141 84.9903 4.1662 89.8827 0.68786C89.9733 0.650245 90.0473 0.655364 90.0908 0.671146C90.1264 0.684073 90.1712 0.71297 90.199 0.803702C92.827 11.5208 90.8092 24.2313 84.1861 32.9796L84.1493 33.0282L84.1252 33.0842C84.1098 33.1202 84.0912 33.1389 84.0742 33.1508C84.055 33.1643 84.0288 33.1749 83.9972 33.1788C83.9644 33.1829 83.9365 33.1785 83.9198 33.1728C83.9194 33.1726 83.9191 33.1725 83.9187 33.1724C80.1211 28.3578 79.4184 21.6735 80.7278 15.756ZM83.911 33.1691C83.9111 33.1691 83.9114 33.1692 83.912 33.1696L83.911 33.1691ZM83.5241 29.9177L84.485 30.1162C87.2262 23.5896 89.3775 16.6209 88.1614 9.4071L87.9088 7.90867L87.2223 9.26432C84.0109 15.6058 83.5942 22.7793 83.5241 29.9177Z" stroke="#AF918B"/>
<path d="M71.9812 8.08629L71.9837 8.09507L71.9865 8.10375C75.8721 20.0195 74.8208 34.4823 67.9783 44.9717L67.9153 45.0683L67.9009 45.1828C67.8983 45.2039 67.8939 45.2044 67.8939 45.2044C67.8883 45.2094 67.8663 45.2252 67.8187 45.2337C67.7715 45.2421 67.7156 45.24 67.663 45.2254C67.614 45.2119 67.5813 45.1915 67.5629 45.1747C62.8707 40.1431 61.5464 32.5523 62.4451 25.788C63.3449 19.0152 66.2467 12.2926 71.5843 7.98808L71.59 7.98349L71.5956 7.97874C71.6607 7.92299 71.7117 7.90396 71.7434 7.89752C71.7751 7.89109 71.8026 7.89393 71.8284 7.90321C71.8837 7.92305 71.9516 7.98288 71.9812 8.08629ZM67.0573 41.5013L68.0299 41.6259C70.5609 34.115 72.3519 26.0245 70.3541 17.9745L69.9861 16.4915L69.4062 17.9052C66.3445 25.3698 66.4964 33.5213 67.0573 41.5013Z" stroke="#AF918B"/>
<path d="M51.4245 22.1906L51.4244 22.1907L51.4293 22.199C57.811 32.8647 59.9495 47.3314 55.5946 59.0644L55.576 59.1146L55.5684 59.1676C55.5663 59.182 55.5571 59.2111 55.5254 59.2487C55.4936 59.2865 55.4484 59.3211 55.3986 59.3441C55.3479 59.3674 55.31 59.3709 55.2928 59.3696C55.2918 59.3695 55.291 59.3694 55.2903 59.3694L55.2646 59.3437L55.2291 59.3188C49.5019 55.3024 46.6018 48.3268 45.979 41.4917C45.4276 34.8115 46.8063 27.5541 50.9549 22.0875C51.0528 22.0193 51.1417 22.007 51.2043 22.0166C51.2702 22.0267 51.3541 22.0677 51.4245 22.1906ZM53.9029 55.8148L54.8785 55.7231C55.7225 47.8583 55.665 39.5528 51.9551 32.1445L51.2809 30.7982L51.0158 32.2804C49.591 40.2466 51.59 48.187 53.9029 55.8148Z" stroke="#AF918B"/>
<path d="M31.2318 61.5202L31.2318 61.5202L31.2299 61.5152C28.8116 55.2373 28.1351 47.8964 30.6568 41.5435C30.6818 41.5022 30.7244 41.4706 30.7984 41.4588C30.8785 41.446 30.9846 41.4613 31.0873 41.5203C40.1567 50.0423 46.2287 63.3169 45.2625 75.7208L45.2555 75.8106L45.2803 75.8972C45.2848 75.913 45.2876 75.9665 45.2169 76.027C45.1483 76.0857 45.0843 76.0858 45.0466 76.0697L45.0268 76.0612L45.0063 76.0545C38.3968 73.8774 33.6504 68.0058 31.2318 61.5202ZM42.8169 73.2303L43.7303 72.8734C42.3243 64.9417 39.9911 56.9849 34.3531 50.9281L33.3313 49.8304L33.4899 51.3216C34.3447 59.3582 38.473 66.4447 42.8169 73.2303Z" stroke="#AF918B"/>
<path d="M93.8124 37.1338L93.8168 37.1346C99.8861 38.2364 105.915 41.188 109.676 46.0142C109.736 46.1322 109.723 46.21 109.708 46.2478C109.693 46.2885 109.649 46.3458 109.539 46.3777C98.5879 49.4219 85.4336 47.8899 76.1142 41.2731L76.0443 41.2235L75.9619 41.2C75.9349 41.1923 75.9239 41.1818 75.9179 41.1747C75.9101 41.1655 75.9014 41.1496 75.8974 41.1261C75.8883 41.0712 75.911 41.0343 75.9266 41.0218L75.9267 41.022L75.9374 41.0129C80.8337 36.8711 87.6725 35.9628 93.8124 37.1338ZM79.2446 40.5512L79.0783 41.5173C85.9693 44.1851 93.3045 46.1207 100.673 44.4779L102.148 44.149L100.768 43.5333C94.0678 40.5444 86.6083 40.3411 79.2446 40.5512Z" stroke="#AF918B"/>
<path d="M96.9239 59.25L96.9088 59.2543L96.894 59.2595C85.1743 63.4139 70.6879 62.5747 59.9699 55.9468L59.881 55.8918L59.7778 55.8771C59.7777 55.877 59.7774 55.8769 59.7771 55.8767C59.7753 55.8757 59.7697 55.8722 59.7616 55.8636C59.744 55.8449 59.7225 55.8099 59.7102 55.7608C59.6831 55.6525 59.7195 55.5892 59.7464 55.5668L59.7571 55.5579L59.7673 55.5484C64.8146 50.8495 72.2199 49.323 79.1305 50.151L79.1337 50.1513C85.848 50.9116 92.6506 53.672 97.0292 58.8636L97.043 58.8799L97.0582 58.895C97.097 58.9338 97.1092 58.9655 97.1137 58.987C97.1187 59.0109 97.1179 59.0413 97.1055 59.0772C97.078 59.1565 97.0065 59.2264 96.9239 59.25ZM63.4435 54.9647L63.3375 55.9381C70.9355 58.3966 79.112 59.9731 87.1063 57.6925L88.5417 57.283L87.1493 56.7453C79.6007 53.8301 71.4356 54.1947 63.4435 54.9647Z" stroke="#AF918B"/>
<path d="M86.4471 73.1463L86.4596 73.1608L86.4732 73.1744C86.4937 73.1949 86.4963 73.2073 86.497 73.2108C86.498 73.2162 86.4996 73.231 86.4898 73.2571C86.4695 73.3112 86.3984 73.4081 86.2342 73.4706C74.5132 77.6238 59.9607 76.8518 49.2468 70.1574L49.1571 70.1014L49.0524 70.0864C49.0354 70.084 49.0327 70.0799 49.0325 70.0797L49.0325 70.0796C49.0299 70.0771 49.0194 70.0651 49.0124 70.036C48.9986 69.9783 49.0078 69.8861 49.0716 69.7997C54.1154 64.9861 61.5723 63.5335 68.334 64.3602L68.334 64.3602L68.339 64.3608C75.1214 65.1209 81.9269 67.8809 86.4471 73.1463ZM52.7187 69.244L52.6163 70.2187C60.2108 72.6058 68.3858 74.1818 76.3082 71.9727L77.765 71.5665L76.3531 71.0243C68.9463 68.1799 60.7831 68.4738 52.7187 69.244Z" stroke="#AF918B"/>
<path d="M17.6595 63.9938L17.6595 63.9938L17.6614 63.995C28.0658 70.8513 36.238 82.8998 37.4826 95.465L37.4917 95.557L37.5298 95.6331C37.5297 95.6344 37.5294 95.6361 37.5289 95.6382C37.525 95.6562 37.5113 95.6899 37.4781 95.7285C37.4053 95.8134 37.3217 95.8344 37.2832 95.8308C30.4668 94.67 24.7629 89.6863 21.2398 83.7546L21.2394 83.7539C17.7769 77.9461 15.7983 70.8011 17.3028 64.1781L17.3083 64.154L17.3113 64.1295C17.3219 64.0447 17.3659 63.9975 17.4299 63.9719C17.5049 63.9419 17.5937 63.95 17.6595 63.9938ZM34.5985 93.305L35.4368 92.7966C32.694 85.2128 29.0093 77.8247 22.4467 72.7679L21.245 71.842L21.6606 73.301C23.8688 81.0531 29.132 87.3571 34.5985 93.305Z" stroke="#AF918B"/>
<path d="M77.523 86.2128L77.4987 86.2232L77.4755 86.2361C66.5885 92.329 52.0993 93.9127 40.4119 89.2174L40.3222 89.1813H40.2255C40.2254 89.1813 40.2254 89.1813 40.2254 89.1813L40.2235 89.1804C40.222 89.1796 40.2198 89.1781 40.2168 89.1757C40.2037 89.1652 40.1824 89.1407 40.1665 89.0993C40.1322 89.0102 40.1498 88.9289 40.1889 88.8821L40.1977 88.8715L40.206 88.8605C44.3644 83.2792 51.4195 80.5894 58.2619 80.2444L58.2622 80.2444C65.0332 79.8995 72.2485 81.5559 77.5225 85.7832C77.6205 85.8893 77.6423 85.9967 77.6345 86.0661C77.6272 86.1319 77.5948 86.182 77.523 86.2128ZM43.6705 87.6589L43.734 88.6376C51.6719 89.6896 59.9956 89.9885 67.4921 86.4243L68.8331 85.7867L67.3796 85.4833C59.5433 83.8473 51.5207 85.5594 43.6705 87.6589Z" stroke="#AF918B"/>
<path d="M7.69179 88.2378L7.70395 88.2438L7.71642 88.2492C19.2329 93.2366 29.347 103.626 32.8043 115.708L32.8171 115.752L32.838 115.794C32.8481 115.814 32.8625 115.894 32.8008 116C32.7406 116.103 32.6739 116.12 32.6543 116.12V116.12L32.6444 116.12C25.7636 116.256 19.3068 112.305 14.8115 107.127C10.308 101.869 7.15985 95.3404 7.43356 88.44L7.43395 88.4301V88.4202C7.43395 88.3232 7.47536 88.2742 7.52092 88.2473C7.57684 88.2143 7.64253 88.2132 7.69179 88.2378ZM29.5464 114.077L30.2849 113.432C26.3468 106.551 21.3811 99.7989 14.0306 96.0224L12.6701 95.3235L13.355 96.6911C16.9851 103.94 23.1671 109.178 29.5464 114.077Z" stroke="#AF918B"/>
<path d="M34.6535 109.066L34.5666 109.048L34.4787 109.06C34.4745 109.061 34.4636 109.062 34.4411 109.05C34.416 109.036 34.3823 109.008 34.3519 108.963C34.2891 108.869 34.2831 108.773 34.3042 108.713C37.4414 102.534 43.9348 98.7548 50.6439 97.0965C57.2903 95.5766 64.5801 95.866 70.5353 99.2142C70.6462 99.2778 70.658 99.3395 70.6591 99.3678C70.6607 99.407 70.6429 99.492 70.5336 99.5834C60.8918 107.478 46.9577 111.689 34.6535 109.066ZM37.5603 107.004L37.7952 107.956C45.7393 107.605 53.9892 106.34 60.7677 101.567L62.0198 100.686L60.4887 100.658C52.4441 100.516 44.8535 103.573 37.5603 107.004Z" stroke="#AF918B"/>
<path d="M1.06105 115.125L1.10127 115.142L1.14387 115.152C13.2796 117.991 25.0577 126.58 30.4508 137.97L30.488 138.049L30.5494 138.11C30.569 138.13 30.5861 138.163 30.5638 138.225C30.542 138.286 30.4832 138.357 30.3722 138.388C23.5625 139.673 16.5684 136.888 11.2483 132.543C5.99299 128.124 1.81589 122.223 0.847221 115.473C0.853861 115.281 0.92014 115.173 0.961843 115.133C0.981506 115.115 0.993748 115.112 0.997748 115.111C1.00086 115.11 1.01987 115.107 1.06105 115.125ZM27.0248 136.939L27.643 136.177C22.5148 130.005 16.619 124.168 8.69258 121.744L7.26357 121.307L8.14181 122.516C12.8418 128.986 19.8755 133.16 27.0248 136.939Z" stroke="#AF918B"/>
<path d="M32.2965 132.131C32.2915 132.115 32.291 132.105 32.291 132.102L32.2924 132.097L32.2948 132.089C34.2701 125.425 40.0111 120.548 46.3782 117.783C52.6782 115.157 59.9702 114.21 66.4035 116.532C66.4863 116.564 66.5273 116.596 66.5457 116.615C66.5621 116.632 66.5666 116.644 66.5688 116.655C66.574 116.68 66.5769 116.777 66.4629 116.943C58.2755 126.284 45.1792 132.839 32.6083 132.287L32.516 132.283L32.4466 132.306C32.4283 132.299 32.3959 132.28 32.362 132.242C32.328 132.204 32.3061 132.163 32.2965 132.131ZM35.1727 129.718L35.5652 130.617C43.3679 128.932 51.266 126.318 57.1181 120.475L58.1987 119.396L56.6893 119.627C48.7873 120.836 41.7677 125.095 35.1727 129.718Z" stroke="#AF918B"/>
<path d="M34.5601 159.868L34.6141 159.945L34.6922 159.997C34.6947 160.007 34.699 160.037 34.6859 160.089C34.6594 160.195 34.5807 160.313 34.4727 160.387C27.9319 162.679 20.5389 161.188 14.6136 157.818C8.73731 154.435 3.58942 149.141 1.53142 142.653C1.49859 142.509 1.53491 142.434 1.5623 142.4C1.59159 142.364 1.66143 142.311 1.80608 142.308C14.288 143.144 27.3048 149.519 34.5601 159.868ZM30.9583 159.426L31.4408 158.572C25.3969 153.379 18.5053 148.609 10.2949 147.539L8.80524 147.345L9.88146 148.394C15.6492 154.01 23.3208 156.908 30.9583 159.426Z" stroke="#AF918B"/>
<path d="M34.2714 154.619L34.2715 154.619L34.2724 154.612C35.1586 147.737 39.9422 141.904 45.7479 138.176C51.4937 134.583 58.4411 132.399 65.2158 133.556C65.3821 133.596 65.4186 133.667 65.4303 133.699C65.4484 133.749 65.4548 133.856 65.3737 134.001C58.8529 144.593 47.065 153.095 34.6913 154.752L34.6237 154.761L34.5609 154.788C34.4996 154.814 34.4216 154.807 34.3506 154.755C34.277 154.702 34.2676 154.645 34.2714 154.619ZM36.7193 151.813L37.2558 152.633C44.6347 149.686 52.0406 145.792 56.7535 139.019L57.6089 137.79L56.1865 138.259C48.6382 140.747 42.4699 146.141 36.7193 151.813Z" stroke="#AF918B"/>
<path d="M42.9403 181.813L42.9277 181.819L42.9137 181.827C36.8431 185.368 29.2998 185.114 22.8773 182.701C16.4381 180.281 10.4679 176.085 7.31679 169.943C7.2741 169.836 7.29997 169.792 7.30808 169.779C7.32263 169.757 7.38202 169.693 7.55125 169.671C20.0342 168.357 33.9628 172.587 42.8123 181.423L42.8697 181.481L42.9403 181.516C42.9426 181.518 42.9481 181.524 42.9551 181.538C42.9689 181.566 42.981 181.61 42.981 181.664C42.981 181.718 42.9689 181.763 42.9551 181.79C42.9481 181.804 42.9426 181.81 42.9403 181.813ZM39.1716 181.565L39.4973 180.64C32.6794 176.57 25.1464 173.077 16.8674 173.362L15.3632 173.414L16.5994 174.273C23.1523 178.824 31.1769 180.444 39.1716 181.565Z" stroke="#AF918B"/>
<path d="M41.0725 176.169V176.156L41.0719 176.144C40.7313 169.205 44.5507 162.622 49.5992 157.995C54.6514 153.435 61.2645 150.148 68.115 150.148C68.169 150.148 68.1959 150.161 68.2086 150.169C68.2229 150.178 68.2392 150.193 68.2544 150.221C68.288 150.282 68.2992 150.377 68.2745 150.46C63.6941 162.088 53.501 172.525 41.5451 176.251L41.4766 176.272L41.4168 176.312C41.3984 176.324 41.3181 176.349 41.1988 176.29C41.1466 176.264 41.1101 176.231 41.09 176.204C41.0805 176.191 41.0762 176.182 41.0743 176.176C41.0726 176.172 41.0725 176.169 41.0725 176.169ZM43.0405 172.937L43.7042 173.658C50.4574 169.584 57.0778 164.413 60.6462 157.003L61.3059 155.633L59.9618 156.344C52.8422 160.111 47.7387 166.426 43.0405 172.937Z" stroke="#AF918B"/>
<path d="M35.3409 204.928L35.337 204.927C28.6287 203.684 22.029 200.376 17.9181 194.976C17.8443 194.87 17.8512 194.789 17.874 194.732C17.9021 194.662 17.9707 194.593 18.0722 194.564C30.0689 191.171 44.5547 192.979 54.858 200.367L54.9525 200.435L55.0201 200.446C55.0273 200.461 55.0356 200.484 55.0402 200.515C55.0472 200.562 55.042 200.604 55.0322 200.632C55.0235 200.657 55.0147 200.662 55.0125 200.664L54.9887 200.68L54.9668 200.698C49.6494 205.191 42.1095 206.238 35.3409 204.928ZM51.2377 201.09L51.4087 200.125C43.9537 197.176 35.9226 195.033 27.7885 196.671L26.2951 196.972L27.6763 197.615C35.0089 201.027 43.1716 201.3 51.2377 201.09Z" stroke="#AF918B"/>
<path d="M73.0978 164.765L73.1298 164.76L73.1609 164.752C73.1773 164.747 73.187 164.747 73.1909 164.747C73.1947 164.747 73.1963 164.747 73.197 164.747C73.1975 164.748 73.2101 164.752 73.2293 164.776C73.2701 164.827 73.3159 164.941 73.3007 165.099C70.6585 177.213 62.4042 189.236 51.215 194.822L51.1424 194.858L51.085 194.915C51.0706 194.93 51.0147 194.961 50.9193 194.931C50.8248 194.902 50.8126 194.853 50.8119 194.849L50.8093 194.83L50.8053 194.812C49.3054 188.005 51.8916 180.878 56.1746 175.498L56.1746 175.498L56.1795 175.492C60.3293 170.105 66.2512 165.791 73.0978 164.765ZM52.1809 191.41L52.9577 192.008C58.9357 186.812 64.5627 180.645 66.8463 172.736L67.2662 171.282L66.0626 172.2C59.7236 177.036 55.7562 184.131 52.1809 191.41Z" stroke="#AF918B"/>
<path d="M31.8496 217.918L31.8694 217.911L31.8886 217.902C43.1238 212.57 57.6817 211.887 69.0218 217.341L69.0915 217.374L69.1675 217.385C69.1677 217.385 69.1679 217.385 69.1682 217.385C69.17 217.386 69.1761 217.39 69.1852 217.4C69.2047 217.421 69.2304 217.461 69.2472 217.522C69.2835 217.653 69.2534 217.77 69.2066 217.827C64.7084 223.064 57.4476 225.275 50.6066 225.137V225.137L50.6017 225.137C43.8226 225.068 36.742 222.996 31.7429 218.281C31.6389 218.175 31.6471 218.104 31.6523 218.083C31.6587 218.056 31.6931 217.977 31.8496 217.918ZM65.6196 218.71L65.6255 217.73C57.8223 216.116 49.5736 215.32 41.8655 218.313L40.4556 218.861L41.914 219.262C49.6758 221.395 57.6981 220.25 65.6196 218.71Z" stroke="#AF918B"/>
<path d="M81.3884 178.46L81.3884 178.46L81.3983 178.457C81.4567 178.435 81.4929 178.437 81.5132 178.441C81.5353 178.446 81.5612 178.457 81.5896 178.483C81.6516 178.538 81.7018 178.642 81.7041 178.75C81.2152 191.211 75.1079 204.351 64.9466 211.874L64.8623 211.936L64.8102 212.027C64.792 212.059 64.7753 212.069 64.7659 212.073C64.7532 212.079 64.7332 212.083 64.7068 212.079C64.6475 212.07 64.6134 212.033 64.6035 211.998L64.5965 211.974L64.587 211.95C61.996 205.482 63.3467 198.084 66.5956 192.01C69.8492 185.997 74.9511 180.717 81.3884 178.46ZM65.326 208.353L66.1933 208.812C71.2522 202.568 75.8177 195.615 76.6744 187.346L76.8285 185.859L75.8107 186.955C70.3268 192.857 67.6378 200.659 65.326 208.353Z" stroke="#AF918B"/>
<path d="M51.7139 237.669L51.714 237.669L51.7203 237.665C61.9894 230.599 76.2028 227.426 88.3008 230.946L88.3693 230.966H88.4405C88.4614 230.966 88.5225 230.983 88.5705 231.072C88.6173 231.158 88.5998 231.216 88.5854 231.238L88.5785 231.248L88.5722 231.259C85.028 237.179 78.2484 240.622 71.4057 241.657L71.4057 241.657L71.3993 241.658C64.6895 242.763 57.4033 241.926 51.7227 238.102C51.6161 238.025 51.5925 237.94 51.5949 237.875C51.5977 237.799 51.638 237.72 51.7139 237.669ZM85.1852 232.822L85.0242 231.855C77.0797 231.575 68.7592 232.199 61.6936 236.404L60.4042 237.171L61.8961 237.331C69.8746 238.184 77.6826 235.692 85.1852 232.822Z" stroke="#AF918B"/>
<path d="M94.529 190.371V190.404L94.5335 190.438C96.1978 202.762 92.377 216.809 83.6646 225.922L83.6127 225.976L83.579 226.044L83.5789 226.044C83.578 226.046 83.5747 226.052 83.5576 226.061C83.5376 226.072 83.503 226.082 83.4566 226.082C83.3587 226.082 83.2861 226.039 83.2534 225.994C79.5793 220.076 79.6952 212.621 81.9065 206.066C84.122 199.568 88.2619 193.531 94.219 190.249L94.2191 190.249L94.2256 190.245C94.3345 190.183 94.4168 190.199 94.4564 190.219C94.4773 190.23 94.4933 190.245 94.5048 190.265C94.5159 190.283 94.529 190.316 94.529 190.371ZM83.3896 222.288L84.3209 222.595C88.2575 215.647 91.5424 208.054 91.0428 199.787L90.9506 198.26L90.1232 199.547C85.7812 206.298 84.3712 214.307 83.3896 222.288Z" stroke="#AF918B"/>
<path d="M74.6312 254.714L74.6312 254.714L74.6227 254.71C74.5509 254.68 74.5186 254.629 74.5112 254.564C74.5031 254.491 74.5275 254.376 74.6379 254.265C83.5164 245.54 97.0355 240.083 109.547 241.602L109.648 241.614L109.745 241.586C109.76 241.582 109.767 241.583 109.774 241.586C109.784 241.59 109.804 241.602 109.823 241.627C109.865 241.682 109.876 241.754 109.849 241.818L109.845 241.827L109.841 241.837C107.388 248.299 101.231 252.836 94.7338 254.975C88.2229 257.119 80.8602 257.516 74.6312 254.714ZM106.781 243.913L106.453 242.989C98.5832 244.112 90.5439 246.087 84.264 251.43L83.103 252.418L84.6236 252.31C92.5983 251.741 99.9033 248.047 106.781 243.913Z" stroke="#AF918B"/>
<path d="M108.913 200.587L108.913 200.587L108.915 200.594C112.523 212.508 111.125 227.041 104.076 237.323L104.03 237.39L104.007 237.468C103.993 237.516 103.942 237.572 103.863 237.59C103.828 237.597 103.799 237.594 103.778 237.587C103.759 237.58 103.733 237.566 103.703 237.524L103.688 237.504L103.671 237.484C99.1053 232.313 97.9187 224.855 99.0243 218.093C100.131 211.323 103.096 204.676 108.561 200.368C108.606 200.343 108.661 200.339 108.73 200.37C108.811 200.407 108.884 200.486 108.913 200.587ZM103.217 233.848L104.187 233.998C106.928 226.489 108.934 218.395 107.007 210.339L106.658 208.881L106.062 210.257C102.857 217.65 102.867 225.803 103.217 233.848Z" stroke="#AF918B"/>
<path d="M133.125 275.65L133.12 275.663C132.989 275.956 133.104 276.294 133.424 276.499H133.425H133.426H133.427H133.428H133.429H133.43H133.431H133.432H133.433H133.434H133.435H133.436H133.437H133.437H133.438H133.439H133.44H133.441H133.442H133.443H133.444H133.445H133.446H133.447H133.448H133.449H133.45H133.451H133.452H133.453H133.454H133.455H133.456H133.457H133.458H133.459H133.46H133.46H133.461H133.462H133.463H133.464H133.465H133.466H133.467H133.468H133.469H133.47H133.471H133.472H133.473H133.474H133.475H133.476H133.477H133.478H133.479H133.48H133.481H133.481H133.482H133.483H133.484H133.485H133.486H133.487H133.488H133.489H133.49H133.491H133.492H133.493H133.494H133.495H133.496H133.497H133.498H133.499H133.5H133.5H133.501H133.502H133.503H133.504H133.505H133.506H133.507H133.508H133.509H133.51H133.511H133.512H133.513H133.514H133.515H133.516H133.516H133.517H133.518H133.519H133.52H133.521H133.522H133.523H133.524H133.525H133.526H133.527H133.528H133.529H133.529H133.53H133.531H133.532H133.533H133.534H133.535H133.536H133.537H133.538H133.539H133.54H133.541H133.541H133.542H133.543H133.544H133.545H133.546H133.547H133.548H133.549H133.55H133.551H133.551H133.552H133.553H133.554H133.555H133.556H133.557H133.558H133.559H133.559H133.56H133.561H133.562H133.563H133.564H133.565H133.566H133.567H133.567H133.568H133.569H133.57H133.571H133.572H133.573H133.574H133.575H133.575H133.576H133.577H133.578H133.579H133.58H133.581H133.581H133.582H133.583H133.584H133.585H133.586H133.587H133.587H133.588H133.589H133.59H133.591H133.592H133.593H133.593H133.594H133.595H133.596H133.597H133.598H133.598H133.599H133.6H133.601H133.602H133.603H133.603H133.604H133.605H133.606H133.607H133.608H133.608H133.609H133.61H133.611H133.612H133.612H133.613H133.614H133.615H133.616H133.616H133.617H133.618H133.619H133.62H133.62H133.621H133.622H133.623H133.624H133.624H133.625H133.626H133.627H133.627H133.628H133.629H133.63H133.63H133.631H133.632H133.633H133.634H133.634H133.635H133.636H133.637H133.637H133.638H133.639H133.64H133.64H133.641H133.642H133.643H133.643H133.644H133.645H133.645H133.646H133.647H133.648H133.648H133.649H133.65H133.65H133.651H133.652H133.653H133.653H133.654H133.655H133.655H133.656H133.657H133.657H133.658H133.659H133.66H133.66H133.661H133.662H133.662H133.663H133.664H133.664H133.665H133.666H133.666H133.667H133.668H133.668H133.669H133.669H133.67H133.671H133.671H133.672H133.673H133.673H133.674H133.675H133.675H133.676H133.676H133.677H133.678H133.678H133.679H133.68H133.68H133.681H133.681H133.682H133.683H133.683H133.684H133.684H133.685H133.685H133.686H133.687H133.687H133.688H133.688H133.689H133.689H133.69H133.691H133.691H133.692H133.692H133.693H133.693H133.694H133.694H133.695H133.695H133.696H133.697H133.697H133.698H133.698H133.699H133.699H133.7H133.7H133.701H133.701H133.702H133.702H133.703H133.703H133.704H133.704H133.705H133.705H133.706H133.706H133.706H133.707H133.707H133.708H133.708H133.709H133.709H133.71H133.71H133.711H133.711H133.711H133.712H133.712H133.713H133.713H133.714H133.714H133.714C133.87 276.499 134.015 276.453 134.116 276.384C134.212 276.319 134.259 276.242 134.271 276.158L134.279 276.103L134.299 276.051C143.502 251.947 163.561 245.663 176.667 241.604L176.681 241.6L176.681 241.6C178.422 241.113 179.954 240.626 181.346 240.14L181.346 240.14C225.869 224.602 256.362 184.262 259.013 137.302L259.014 137.301C261.735 90.7597 236.475 47.4234 194.675 26.7299L194.673 26.7292C194.507 26.6464 194.352 26.6444 194.227 26.6901C194.103 26.7355 193.972 26.8418 193.882 27.0449L193.877 27.0553L193.872 27.0655C193.708 27.3935 193.84 27.7842 194.138 27.9333C235.455 48.3845 260.444 91.2557 257.769 137.219C257.769 137.219 257.769 137.22 257.769 137.22L257.27 137.191C254.607 183.513 224.541 223.189 180.74 238.373L133.125 275.65ZM133.125 275.65L133.13 275.638C142.568 250.972 163.574 244.31 176.259 240.321C176.562 240.233 176.864 240.147 177.165 240.061C178.504 239.678 179.806 239.306 180.919 238.84L133.125 275.65Z" stroke="#AF918B"/>
<path d="M162.648 23.0581L162.648 23.0581L162.646 23.0562C162.569 22.9479 162.575 22.865 162.599 22.8071C162.626 22.7386 162.692 22.6707 162.79 22.6405C174.931 19.6654 189.343 21.7539 199.364 29.275L199.412 29.3111L199.467 29.3348C199.559 29.374 199.607 29.4465 199.62 29.512C199.63 29.5686 199.618 29.6254 199.558 29.6769C194.103 33.9618 186.564 34.8026 179.795 33.3543L179.795 33.3543L179.787 33.3527C173.147 32.0405 166.619 28.6635 162.648 23.0581ZM195.809 29.9349L196 28.9727C188.693 25.9561 180.732 23.5289 172.526 24.9537L171.037 25.2124L172.387 25.8928C179.581 29.5198 187.748 29.9349 195.809 29.9349Z" stroke="#AF918B"/>
<path d="M206.029 33.1438L206.002 33.0516L205.944 32.9756C199.185 24.2304 197.235 11.523 199.864 0.803725C199.892 0.710385 199.94 0.680064 199.97 0.668499C200.007 0.654485 200.053 0.655514 200.095 0.67688C205.062 4.15125 208.021 9.95904 209.334 15.7544C210.573 21.6678 209.941 28.3373 206.233 33.1473C206.223 33.1537 206.208 33.1617 206.186 33.1685C206.151 33.1796 206.114 33.1827 206.083 33.1788C206.053 33.175 206.04 33.1664 206.038 33.165C206.038 33.1645 206.037 33.1642 206.037 33.1632C206.036 33.1622 206.032 33.1568 206.029 33.1438ZM202.842 9.26835L202.158 7.88565L201.901 9.4071C200.686 16.6186 202.765 23.5855 205.507 30.1162L206.468 29.9226C206.468 22.7753 205.981 15.6069 202.842 9.26835Z" stroke="#AF918B"/>
<path d="M222.153 45.1234L222.133 45.042L222.087 44.9717C215.248 34.488 214.125 20.0375 218 8.12851C218.06 8.00137 218.153 7.92697 218.219 7.90321C218.249 7.89229 218.27 7.89295 218.284 7.89599C218.296 7.89877 218.327 7.90845 218.371 7.95269L218.389 7.97031L218.408 7.98609C223.68 12.2927 226.65 19.0185 227.55 25.788L227.55 25.788L227.55 25.793C228.518 32.5573 227.192 40.1502 222.426 45.1809L222.412 45.1959L222.399 45.2121C222.398 45.2128 222.39 45.2226 222.365 45.2306C222.339 45.2388 222.305 45.2416 222.27 45.2349C222.237 45.2285 222.212 45.215 222.195 45.2003C222.181 45.1878 222.164 45.1666 222.153 45.1234ZM220.658 17.9037L220.077 16.4999L219.711 17.9745C217.713 26.0245 219.504 34.115 222.035 41.6259L223.008 41.5013C223.568 33.5224 223.721 25.2994 220.658 17.9037Z" stroke="#AF918B"/>
<path d="M234.572 59.2384V59.1473L234.54 59.062C230.115 47.3287 232.185 32.864 238.634 22.201L238.652 22.1714L238.666 22.1395C238.697 22.0668 238.753 22.0278 238.826 22.0166C238.897 22.0056 238.972 22.0253 239.027 22.0698C243.188 27.5413 244.637 34.8084 244.016 41.4887L244.016 41.4887L244.016 41.4946C243.463 48.3267 240.563 55.3037 234.904 59.3205L234.888 59.3316L234.873 59.3439C234.846 59.3662 234.783 59.3895 234.684 59.3441C234.639 59.3231 234.606 59.2946 234.588 59.2705C234.579 59.2591 234.575 59.2505 234.573 59.2457C234.572 59.2414 234.572 59.2393 234.572 59.2384ZM239.05 32.2839L238.796 30.8011L238.112 32.1411C234.329 39.5528 234.343 47.8623 235.186 55.7231L236.162 55.8148C238.476 48.1827 240.403 40.1764 239.05 32.2839Z" stroke="#AF918B"/>
<path d="M244.727 75.9115L244.736 75.8527L244.732 75.7933C243.835 63.3155 249.84 50.0406 258.907 41.5205C259.005 41.4651 259.128 41.4432 259.237 41.4592C259.342 41.4748 259.389 41.516 259.409 41.5452C261.929 47.8976 261.253 55.2375 258.835 61.5147L258.834 61.5153C256.344 68.0079 251.666 73.8776 245.058 76.054L245.049 76.0571L245.039 76.0606C244.941 76.0975 244.862 76.0749 244.802 76.0263C244.736 75.9732 244.729 75.9225 244.727 75.9127C244.727 75.911 244.727 75.9105 244.727 75.9115ZM256.574 51.326L256.75 49.8118L255.711 50.9276C250.073 56.9844 247.74 64.9413 246.334 72.8729L247.246 73.2328C251.666 66.437 255.649 59.2863 256.574 51.326Z" stroke="#AF918B"/>
<path d="M214.082 41.2064L214.011 41.2299L213.95 41.2731C204.63 47.8903 191.475 49.4221 180.524 46.3771L180.493 46.3684L180.46 46.3639C180.415 46.3573 180.39 46.3434 180.378 46.3346C180.367 46.3259 180.359 46.3157 180.353 46.3019C180.344 46.2787 180.327 46.2038 180.39 46.0812C184.08 41.189 190.106 38.2368 196.178 37.1346L196.181 37.134C202.393 35.9625 209.231 36.8715 214.127 41.0129L214.127 41.0131L214.138 41.0218C214.138 41.022 214.141 41.0233 214.144 41.0346C214.148 41.0486 214.151 41.0739 214.144 41.1063C214.138 41.1386 214.124 41.1658 214.11 41.1838C214.096 41.2006 214.086 41.205 214.082 41.2064ZM189.297 43.5333L187.917 44.149L189.392 44.4779C196.76 46.1207 204.165 44.1856 210.919 41.516L210.75 40.5512C203.456 40.3411 195.997 40.5444 189.297 43.5333Z" stroke="#AF918B"/>
<path d="M230.286 55.8771L230.183 55.8918L230.094 55.9468C219.376 62.5745 204.889 63.4142 193.099 59.2592L193.084 59.2541L193.07 59.25C192.987 59.2264 192.916 59.1565 192.888 59.0772C192.876 59.0413 192.875 59.0109 192.88 58.987C192.884 58.9655 192.897 58.9338 192.935 58.895L192.949 58.8813L192.962 58.8665C197.411 53.6726 204.215 50.9118 211.069 50.1515L211.069 50.1515L211.075 50.1507C217.775 49.3232 225.318 50.8502 230.294 55.5461L230.305 55.5568L230.317 55.5668C230.344 55.5892 230.381 55.6525 230.353 55.7608C230.341 55.8099 230.32 55.8449 230.302 55.8636C230.294 55.8722 230.288 55.8757 230.287 55.8767C230.286 55.8769 230.286 55.877 230.286 55.8771ZM202.913 56.8158L201.51 57.3626L202.961 57.7636C210.953 59.9721 219.127 58.3967 226.722 56.0093L226.62 55.0346C218.559 54.2648 210.392 53.8998 202.913 56.8158Z" stroke="#AF918B"/>
<path d="M241.029 70.0178C241.015 70.0663 240.998 70.0842 240.99 70.0896L240.901 70.1046L240.816 70.1574C230.107 76.8491 215.561 77.6235 203.771 73.475C203.654 73.421 203.591 73.3358 203.571 73.2745C203.561 73.2447 203.562 73.2254 203.564 73.2157C203.565 73.2084 203.57 73.1947 203.59 73.1744L203.605 73.1595L203.618 73.1434C208.067 67.8811 214.871 65.121 221.654 64.3608L221.658 64.3603C228.488 63.5337 235.877 64.9848 240.991 69.7999C241.039 69.8683 241.048 69.9487 241.029 70.0178ZM240.989 70.0908C240.988 70.0915 240.987 70.0917 240.987 70.0917C240.987 70.0916 240.988 70.0913 240.989 70.0908ZM213.571 71.0237L212.139 71.5685L213.617 71.9733C221.678 74.1813 229.781 72.6062 237.377 70.2187L237.275 69.244C229.279 68.4737 221.047 68.1802 213.571 71.0237Z" stroke="#AF918B"/>
<path d="M252.579 95.6932C252.553 95.6637 252.541 95.641 252.537 95.6296L252.574 95.5557L252.583 95.4623C253.758 82.9009 261.998 70.8525 272.404 63.995L272.406 63.9938C272.472 63.95 272.56 63.9419 272.635 63.9719C272.699 63.9975 272.743 64.0447 272.754 64.1295L272.757 64.1516L272.761 64.1733C274.199 70.8021 272.286 77.9498 268.826 83.7539L268.826 83.7539L268.823 83.7583C265.379 89.6735 259.693 94.6491 252.825 95.8235C252.742 95.8135 252.644 95.7653 252.579 95.6932ZM268.404 73.305L268.838 71.8286L267.619 72.7679C261.056 77.8247 257.371 85.2128 254.629 92.7966L255.467 93.305C260.936 87.3541 266.125 81.0528 268.404 73.305Z" stroke="#AF918B"/>
<path d="M249.84 89.1813H249.743L249.654 89.2174C237.966 93.9127 223.477 92.329 212.59 86.2361L212.567 86.2232L212.543 86.2128C212.471 86.182 212.438 86.1319 212.431 86.0661C212.423 85.9967 212.445 85.8893 212.543 85.7832C217.818 81.5553 224.963 79.8995 231.733 80.2444L231.734 80.2444C238.647 80.5895 245.702 83.2796 249.86 88.8605L249.868 88.8715L249.877 88.8821C249.916 88.9289 249.934 89.0102 249.899 89.0993C249.883 89.1407 249.862 89.1652 249.849 89.1757C249.846 89.1781 249.844 89.1796 249.842 89.1804L249.84 89.1813C249.84 89.1813 249.84 89.1813 249.84 89.1813ZM222.69 85.4824L221.213 85.7774L222.574 86.4243C230.07 89.9885 238.393 89.6897 246.262 88.6375L246.326 87.6592C238.54 85.5582 230.522 83.9184 222.69 85.4824Z" stroke="#AF918B"/>
<path d="M257.196 115.846L257.24 115.78L257.262 115.703C260.649 103.625 270.831 93.2362 282.277 88.3183C282.386 88.2719 282.485 88.2869 282.544 88.3204C282.593 88.3479 282.631 88.3938 282.631 88.4885V88.496L282.632 88.5035C282.837 95.3385 279.686 101.939 275.254 107.125C270.759 112.303 264.302 116.254 257.351 116.118L257.351 116.118H257.341C257.32 116.118 257.259 116.101 257.211 116.012C257.164 115.926 257.182 115.868 257.196 115.846ZM276.642 96.6859L277.307 95.3311L275.965 96.0208C268.613 99.7978 263.717 106.552 259.712 113.427L260.449 114.076C266.825 109.178 273.081 103.939 276.642 96.6859Z" stroke="#AF918B"/>
<path d="M255.508 109.06L255.424 109.05L255.342 109.067C243.116 111.688 229.123 107.484 219.482 99.6004C219.384 99.4973 219.363 99.414 219.363 99.3749C219.363 99.3564 219.367 99.3363 219.382 99.3107C219.396 99.2859 219.425 99.247 219.486 99.2007C225.504 95.7977 232.781 95.5787 239.421 97.0973C246.071 98.7581 252.636 102.544 255.699 108.728L255.706 108.742L255.713 108.755C255.746 108.812 255.747 108.888 255.696 108.964C255.646 109.039 255.575 109.068 255.508 109.06ZM229.577 100.659L228.059 100.686L229.296 101.567C236.006 106.342 244.258 107.606 252.271 107.956L252.506 107.004C245.212 103.574 237.622 100.517 229.577 100.659Z" stroke="#AF918B"/>
<path d="M259.481 138.069L259.517 138.023L259.542 137.97C264.935 126.58 276.714 117.991 288.849 115.152L288.892 115.142L288.932 115.125C288.969 115.109 288.994 115.109 289.009 115.112C289.026 115.115 289.046 115.123 289.067 115.142C289.108 115.178 289.168 115.273 289.15 115.445C288.259 122.208 284.076 128.189 278.815 132.543L278.815 132.543C273.503 136.952 266.513 139.671 259.633 138.39C259.571 138.367 259.512 138.31 259.482 138.225C259.447 138.128 259.475 138.076 259.481 138.069ZM281.921 122.516L282.8 121.307L281.371 121.744C273.445 124.168 267.48 130.003 262.418 136.18L263.038 136.939C270.188 133.16 277.221 128.986 281.921 122.516Z" stroke="#AF918B"/>
<path d="M257.547 132.302L257.469 132.28L257.388 132.283C244.818 132.835 231.791 126.28 223.603 116.939C223.489 116.773 223.492 116.676 223.497 116.651C223.499 116.64 223.504 116.628 223.52 116.611C223.539 116.592 223.58 116.559 223.663 116.528C230.095 114.206 237.387 115.152 243.689 117.709C249.983 120.473 255.725 125.349 257.771 132.013C257.782 132.059 257.771 132.146 257.696 132.228C257.621 132.311 257.562 132.306 257.547 132.302ZM233.377 119.623L231.867 119.392L232.948 120.471C238.8 126.314 246.698 128.928 254.501 130.613L254.893 129.714C248.298 125.091 241.279 120.832 233.377 119.623Z" stroke="#AF918B"/>
<path d="M255.376 159.999L255.454 159.947L255.508 159.87C262.763 149.521 275.78 143.146 288.193 142.239C288.337 142.243 288.406 142.295 288.436 142.332C288.463 142.366 288.5 142.442 288.466 142.587C286.479 149.07 281.265 154.364 275.384 157.749C269.445 161.127 262.04 162.683 255.497 160.308C255.426 160.274 255.37 160.2 255.354 160.112C255.337 160.024 255.37 160.003 255.376 159.999L255.376 159.999ZM280.187 148.395L281.263 147.347L279.773 147.541C271.563 148.61 264.671 153.381 258.627 158.574L259.108 159.428C266.819 156.909 274.419 154.011 280.187 148.395Z" stroke="#AF918B"/>
<path d="M255.504 154.788L255.441 154.761L255.373 154.752C243 153.095 231.212 144.593 224.691 134.001C224.61 133.857 224.612 133.742 224.631 133.682C224.645 133.64 224.676 133.586 224.787 133.555C231.56 132.401 238.576 134.585 244.318 138.177C250.121 141.833 254.905 147.665 255.792 154.611L255.792 154.611L255.793 154.619C255.797 154.645 255.787 154.702 255.714 154.755C255.643 154.807 255.565 154.814 255.504 154.788ZM233.878 138.259L232.456 137.79L233.311 139.019C238.024 145.792 245.43 149.686 252.809 152.633L253.345 151.813C247.595 146.141 241.426 140.747 233.878 138.259Z" stroke="#AF918B"/>
<path d="M247.107 181.538C247.114 181.524 247.119 181.518 247.122 181.515L247.192 181.48L247.25 181.423C256.098 172.588 270.094 168.357 282.505 169.67C282.633 169.69 282.699 169.748 282.719 169.779C282.727 169.791 282.729 169.799 282.729 169.808C282.729 169.818 282.727 169.849 282.695 169.905L282.689 169.915L282.684 169.925C279.534 176.079 273.557 180.349 267.188 182.699C260.758 185.046 253.147 185.366 247.15 181.828L247.135 181.819L247.122 181.812C247.119 181.81 247.114 181.804 247.107 181.79C247.093 181.762 247.081 181.718 247.081 181.664C247.081 181.61 247.093 181.565 247.107 181.538ZM247.123 181.813C247.123 181.813 247.123 181.813 247.122 181.813L247.123 181.813ZM273.461 174.274L274.712 173.414L273.195 173.362C264.916 173.077 257.383 176.569 250.565 180.64L250.891 181.564C258.816 180.444 266.839 178.824 273.461 174.274Z" stroke="#AF918B"/>
<path d="M248.835 176.297C248.791 176.321 248.758 176.327 248.741 176.328L248.68 176.279L248.59 176.251C236.559 172.523 226.362 162.078 221.785 150.445L221.777 150.424L221.767 150.404C221.743 150.356 221.744 150.291 221.776 150.235C221.803 150.19 221.852 150.148 221.951 150.148C228.801 150.148 235.414 153.435 240.466 157.995C245.503 162.611 249.253 169.182 248.995 176.114C248.98 176.17 248.927 176.247 248.835 176.297ZM230.107 156.346L228.751 155.614L229.419 157.003C232.988 164.413 239.608 169.584 246.361 173.658L247.024 172.935C242.326 166.495 237.224 160.183 230.107 156.346Z" stroke="#AF918B"/>
<path d="M235.06 200.455C235.06 200.455 235.06 200.455 235.06 200.455L235.175 200.438L235.275 200.366C245.508 192.98 259.993 191.171 271.99 194.564C272.091 194.593 272.16 194.662 272.188 194.732C272.211 194.789 272.218 194.87 272.144 194.976C268.033 200.376 261.434 203.683 254.73 204.856L254.73 204.856L254.72 204.858C248.024 206.167 240.48 205.122 235.09 200.694L235.07 200.678L235.049 200.664L235.049 200.664C235.047 200.662 235.04 200.657 235.032 200.636C235.024 200.611 235.02 200.574 235.028 200.533C235.035 200.491 235.051 200.465 235.06 200.455ZM262.316 197.615L263.697 196.972L262.203 196.671C254.069 195.033 246.038 197.176 238.652 200.126L238.824 201.09C246.821 201.3 254.983 201.027 262.316 197.615Z" stroke="#AF918B"/>
<path d="M238.981 194.985L238.925 194.929L238.854 194.893C227.662 189.237 219.408 177.212 216.766 165.099C216.75 164.941 216.796 164.827 216.837 164.776C216.856 164.752 216.869 164.748 216.869 164.747L216.869 164.747C216.87 164.747 216.872 164.747 216.875 164.747C216.879 164.747 216.889 164.747 216.905 164.752L216.936 164.76L216.968 164.765C223.813 165.79 229.665 170.103 233.887 175.563L233.887 175.563L233.892 175.568C238.169 180.941 240.756 187.99 239.335 194.862C239.317 194.908 239.263 194.97 239.161 195C239.05 195.033 238.994 194.998 238.981 194.985ZM224.004 172.13L222.821 171.228L223.219 172.661C225.432 180.644 231.061 186.813 237.113 191.942L237.886 191.342C234.38 184.13 230.342 176.966 224.004 172.13Z" stroke="#AF918B"/>
<path d="M220.972 217.374L220.896 217.385L220.896 217.385L220.896 217.385L220.972 217.374ZM220.972 217.374L221.042 217.341C232.382 211.887 246.94 212.57 258.175 217.902L258.184 217.906L258.193 217.91C258.307 217.958 258.34 218.028 258.347 218.059C258.35 218.075 258.349 218.09 258.344 218.105C258.338 218.12 258.323 218.149 258.28 218.185L258.265 218.197L258.252 218.211C253.326 222.992 246.249 224.998 239.462 225.067L239.457 225.067C232.553 225.205 225.365 222.999 220.795 217.766L220.972 217.374ZM248.219 219.262L249.692 218.861L248.267 218.313C240.49 215.321 232.242 216.115 224.438 217.73L224.444 218.71C232.297 220.251 240.388 221.394 248.219 219.262Z" stroke="#AF918B"/>
<path d="M225.257 212.031L225.205 211.939L225.121 211.877C214.96 204.355 208.852 191.215 208.293 178.753C208.296 178.653 208.339 178.57 208.397 178.522C208.445 178.48 208.52 178.449 208.635 178.473C215.13 180.734 220.222 186.009 223.472 192.013C226.72 198.087 228.071 205.486 225.48 211.953L225.471 211.977L225.464 212.001C225.454 212.036 225.42 212.073 225.36 212.082C225.334 212.086 225.314 212.082 225.301 212.076C225.292 212.072 225.275 212.062 225.257 212.031ZM214.259 186.96L213.237 185.846L213.393 187.35C214.249 195.618 218.815 202.571 223.802 208.812L224.672 208.36C222.429 200.659 219.67 192.861 214.259 186.96Z" stroke="#AF918B"/>
<path d="M201.626 230.967H201.697L201.766 230.947C213.864 227.427 228.078 230.6 238.42 237.599L238.423 237.601C238.499 237.652 238.539 237.731 238.542 237.807C238.544 237.872 238.52 237.957 238.413 238.035C232.733 241.927 225.379 242.765 218.667 241.66L218.667 241.659L218.656 241.658C211.821 240.693 205.04 237.183 201.495 231.26L201.488 231.249L201.481 231.239C201.467 231.218 201.449 231.159 201.496 231.073C201.544 230.985 201.605 230.967 201.626 230.967ZM228.171 237.332L229.663 237.172L228.373 236.405C221.307 232.201 212.987 231.576 204.973 231.857L204.813 232.824C212.384 235.694 220.192 238.186 228.171 237.332Z" stroke="#AF918B"/>
<path d="M206.508 226.055C206.495 226.049 206.489 226.044 206.486 226.041L206.454 225.976L206.402 225.922C197.697 216.817 193.875 202.786 195.459 190.468C195.503 190.316 195.579 190.245 195.628 190.219C195.666 190.199 195.731 190.183 195.841 190.245L195.841 190.245L195.848 190.249C201.805 193.531 205.945 199.568 208.16 206.066C210.369 212.614 210.42 220.072 206.882 225.995C206.855 226.03 206.775 226.082 206.645 226.082C206.584 226.082 206.537 226.069 206.508 226.055ZM199.943 199.547L199.116 198.26L199.024 199.787C198.524 208.054 201.809 215.647 205.746 222.595L206.677 222.288C205.695 214.307 204.285 206.298 199.943 199.547Z" stroke="#AF918B"/>
<path d="M180.321 241.586L180.418 241.614L180.519 241.602C193.03 240.083 206.55 245.54 215.428 254.265C215.54 254.378 215.557 254.486 215.548 254.546C215.541 254.593 215.513 254.657 215.395 254.702L215.379 254.707L215.365 254.714C209.135 257.516 201.773 257.119 195.334 254.975L195.332 254.975C188.846 252.839 182.694 248.312 180.164 241.862C180.151 241.793 180.171 241.705 180.225 241.639C180.251 241.606 180.276 241.592 180.289 241.587C180.299 241.583 180.307 241.582 180.321 241.586ZM205.442 252.31L206.963 252.418L205.802 251.43C199.522 246.087 191.483 244.112 183.613 242.989L183.284 243.913C190.163 248.047 197.468 251.741 205.442 252.31Z" stroke="#AF918B"/>
<path d="M186.07 237.534L186.054 237.419M186.07 237.534L186.07 237.534L186.054 237.419M186.07 237.534C186.071 237.535 186.074 237.54 186.081 237.546M186.07 237.534L186.081 237.546M186.054 237.419L185.988 237.323M186.054 237.419L185.988 237.323M185.988 237.323C178.938 227.041 177.541 212.508 181.148 200.594L181.148 200.594L181.15 200.587C181.179 200.486 181.252 200.407 181.333 200.37C181.402 200.339 181.457 200.343 181.502 200.368C186.899 204.677 189.933 211.396 191.039 218.094C192.145 224.785 190.958 232.313 186.392 237.484L186.375 237.504M185.988 237.323L186.375 237.504M186.375 237.504L186.36 237.524M186.375 237.504L186.36 237.524M186.36 237.524C186.336 237.559 186.309 237.575 186.282 237.584M186.36 237.524L186.282 237.584M186.282 237.584C186.252 237.595 186.213 237.598 186.171 237.589M186.282 237.584L186.171 237.589M186.171 237.589C186.128 237.58 186.097 237.561 186.081 237.546M186.171 237.589L186.081 237.546M184.002 210.257L183.406 208.881L183.057 210.339C181.129 218.395 183.136 226.489 185.877 233.998L186.846 233.848C187.196 225.803 187.206 217.65 184.002 210.257Z" stroke="#AF918B"/>
</g>
</svg>
