<svg width="17" height="17" viewBox="0 0 17 17" fill="none" xmlns="http://www.w3.org/2000/svg">
<path d="M13.0405 16C10.1155 16 7.09672 14.65 4.75297 12.3063C2.27797 9.83125 0.927966 6.7375 1.00297 3.75625V3.64375L1.07797 3.55C1.28422 3.2875 1.49047 3.0625 1.69672 2.8375C2.48422 2.05 3.40297 1.45 4.43422 1.05625C4.52797 1.01875 4.64047 1 4.75297 1C5.10922 1 5.70922 1.1875 5.82172 1.54375C6.19672 2.55625 6.64672 3.8875 6.98422 5.14375C7.04047 5.3875 6.98422 6.1 6.62797 6.30625L5.42797 7.05625C5.35297 7.1125 5.31547 7.1875 5.29672 7.2625C5.25922 7.46875 5.33422 7.73125 5.48422 7.95625C5.95297 8.6125 6.49672 9.25 7.11547 9.86875C7.73422 10.4688 8.37172 11.0125 9.00922 11.4813C9.32797 11.725 9.77797 11.7438 9.89047 11.5563L10.6592 10.3563C10.8467 10.0563 11.428 9.98125 11.6342 9.98125C11.7092 9.98125 11.7655 9.98125 11.8217 10C13.3592 10.3375 14.278 10.6375 15.4592 11.1813C15.8155 11.35 16.078 12.1375 15.9092 12.5687C15.5155 13.6 14.9155 14.5188 14.128 15.3063C13.903 15.5313 13.6592 15.7375 13.4155 15.925L13.3592 16H13.0405ZM1.67797 3.8875C1.64047 6.6625 2.91547 9.53125 5.18422 11.7812L5.24047 11.8375C7.45297 14.05 10.303 15.325 13.0405 15.325H13.1342C13.3405 15.1562 13.528 14.9875 13.6967 14.8187C14.4092 14.1062 14.953 13.2625 15.328 12.3063C15.3655 12.1938 15.2717 11.8375 15.178 11.7625C14.0905 11.275 13.2092 10.9937 11.7092 10.6562C11.503 10.6562 11.2967 10.7125 11.2405 10.75L10.5092 11.9125C10.1905 12.4375 9.29047 12.4938 8.65297 12.025C7.97797 11.5375 7.32172 10.975 6.68422 10.3375C6.04672 9.7 5.48422 9.025 4.99672 8.35C4.71547 7.975 4.60297 7.525 4.67797 7.13125C4.73422 6.85 4.88422 6.625 5.10922 6.475L6.30922 5.725C6.32797 5.66875 6.38422 5.3875 6.36547 5.29375C6.04672 4.05625 5.57797 2.74375 5.22172 1.75C5.18422 1.73125 4.95922 1.65625 4.79047 1.65625C4.73422 1.65625 4.71547 1.65625 4.71547 1.65625C3.75922 2.03125 2.91547 2.575 2.20297 3.2875C2.01547 3.49375 1.84672 3.68125 1.67797 3.8875Z" fill="#AC966D" stroke="#AC966D" stroke-width="0.5"/>
</svg>
