<svg width="34" height="43" viewBox="0 0 34 43" fill="none" xmlns="http://www.w3.org/2000/svg">
<path d="M2.3305 17.413L2.3305 17.413C2.48566 14.8522 2.25669 12.1532 1.64666 9.39043C1.64665 9.39041 1.64665 9.3904 1.64665 9.39038L1.51177 8.77985L1.38479 8.20506L1.97255 8.17274L2.59694 8.13841C9.22191 7.77422 14.0806 4.12809 16.3976 1.97101L16.3976 1.97101L16.7595 1.63404L17.1002 1.31686L17.4409 1.63404L17.8028 1.97097L17.8029 1.97101C20.1201 4.12775 24.9791 7.77345 31.6029 8.13829L31.5754 8.63754L31.6029 8.13829L32.2271 8.17269L32.8148 8.20506L32.6879 8.77975L32.5531 9.39026C31.943 12.1533 31.714 14.8526 31.8692 17.4132C32.1823 22.5777 30.8684 27.4436 27.9722 31.8638C25.9888 34.8913 23.3036 37.6756 19.7789 40.3777L2.3305 17.413ZM2.3305 17.413C2.01791 22.5784 3.33182 27.4443 6.22762 31.8644C8.21102 34.8918 10.896 37.676 14.4204 40.3777L2.3305 17.413ZM3.89509 10.0996C9.97566 9.42946 14.547 6.32099 17.1003 4.11079C19.6538 6.32067 24.2252 9.42882 30.3045 10.0996C29.8323 12.6425 29.6654 15.1396 29.8105 17.5379L29.8105 17.538C30.2981 25.5779 26.656 32.5067 18.5244 38.7411C18.2573 38.9458 17.5912 39.3829 17.0998 39.7003C16.6084 39.3829 15.9421 38.9458 15.6751 38.7411C7.54438 32.508 3.90244 25.5792 4.38905 17.5376C4.53439 15.1393 4.36742 12.6424 3.89509 10.0996Z" fill="#33327E" stroke="#33327E"/>
<path d="M10 20.5H25" stroke="#2A2A61" stroke-width="3"/>
</svg>
