<svg width="64" height="57" viewBox="0 0 64 57" fill="none" xmlns="http://www.w3.org/2000/svg">
<path d="M11.1124 22.1259C10.6741 29.3688 12.5136 36.188 16.58 42.3947C19.3684 46.6509 23.1544 50.5831 28.1546 54.4161C28.874 54.9676 31.0577 56.3529 31.1502 56.4117L31.5577 56.67L31.9653 56.4117C32.0578 56.3529 34.2412 54.9675 34.9603 54.4161C39.9608 50.5825 43.7472 46.6501 46.5356 42.394C50.6026 36.1869 52.442 29.3678 52.003 22.1261C51.7763 18.385 52.1113 14.451 52.9983 10.4337L53.1915 9.55902L52.2971 9.50974C42.5662 8.97375 35.4516 3.6239 32.0768 0.482777L31.5582 0L31.0397 0.482777C27.6652 3.62442 20.5511 8.97489 10.8184 9.50992L9.92383 9.55911L10.1171 10.4339C11.004 14.4508 11.3391 18.3845 11.1124 22.1259ZM31.5583 2.06983C35.1521 5.28719 42.0427 10.1838 51.3295 10.9678C50.5495 14.8243 50.2649 18.6049 50.4836 22.2182C51.2003 34.0359 45.8196 44.173 34.0344 53.2083C33.5452 53.5834 32.23 54.435 31.5577 54.866C30.8854 54.435 29.5699 53.5834 29.0806 53.2083C17.2968 44.1747 11.9164 34.0377 12.6316 22.2178C12.8506 18.6045 12.566 14.8242 11.7857 10.9678C21.0745 10.1847 27.9649 5.28762 31.5583 2.06983Z" fill="#AC966D"/>
<path d="M63.1191 18.1917C63.1173 18.1698 63.1162 18.1576 63.1162 18.1576C63.1162 18.1576 63.1173 18.1699 63.1191 18.1917Z" fill="#AC966D"/>
<path d="M62.3695 25.3257L62.3428 25.3251L62.3695 25.3257Z" fill="#AC966D"/>
<path d="M0 18.1917C0.00210531 18.1698 0.00302249 18.1576 0.00302249 18.1576C0.00302249 18.1576 0.0018307 18.1699 0 18.1917Z" fill="#AC966D"/>
<path d="M0.775829 25.3251L0.748047 25.3258L0.775829 25.3251Z" fill="#AC966D"/>
<path d="M41.2145 35.277C41.1744 35.253 41.1384 35.241 41.1062 35.241C41.0422 35.241 41.0102 35.2572 41.0102 35.289C40.7056 36.427 40.0968 37.3284 39.1832 37.9932C38.2698 38.6584 37.1883 38.9908 35.9384 38.9908H35.1211C34.7041 38.9908 34.4037 38.9588 34.2195 38.8946C34.035 38.8307 33.9109 38.7064 33.8469 38.5221C33.7828 38.3383 33.7507 38.0375 33.7507 37.6208V35.743C34.1141 35.637 34.4659 35.5069 34.8034 35.3479C35.815 34.8713 36.6031 34.2195 37.1676 33.3923C37.7315 32.5654 38.0138 31.6459 38.0138 30.6341C38.0138 29.0195 37.3575 27.7837 36.0437 26.9276C35.3706 26.4888 34.6053 26.1642 33.7507 25.9504V25.0443C33.7507 24.5635 33.7906 24.2068 33.871 23.9743C33.951 23.7424 34.1114 23.582 34.3519 23.4937C34.5922 23.4059 34.9605 23.3616 35.4574 23.3616C35.5054 23.3616 35.5295 23.3137 35.5295 23.2174C35.5295 23.1213 35.5055 23.0732 35.4574 23.0732L34.2315 23.0971C33.4942 23.1295 31.3148 23.1295 30.5777 23.0971L29.3519 23.0732C29.3198 23.0732 29.3039 23.1212 29.3039 23.2174C29.3039 23.3137 29.3199 23.3616 29.3519 23.3616C29.8486 23.3616 30.2174 23.4059 30.4577 23.4937C30.6981 23.582 30.8622 23.7383 30.9504 23.9623C31.0384 24.1869 31.0827 24.5394 31.0827 25.02V25.6437C31.0775 25.6437 31.0726 25.6433 31.0674 25.6433C30.2891 25.6433 29.5106 25.7016 28.7324 25.8185V20.2436C28.7324 19.524 28.8444 19.0324 29.0681 18.7696C29.2919 18.5069 29.7148 18.3756 30.3378 18.3756H31.5638C32.7313 18.3756 33.7087 18.7506 34.4968 19.4993C35.2848 20.2484 35.8249 21.3724 36.1168 22.8703C36.1554 22.9286 36.2233 22.9581 36.3208 22.9581C36.4182 22.9581 36.4669 22.9286 36.4669 22.8703L36.2336 18.4339C36.2336 18.1036 36.1992 17.899 36.1312 17.8213C36.0627 17.7437 35.8929 17.7045 35.6204 17.7045H23.3912C23.3522 17.7045 23.333 17.7628 23.333 17.8796C23.333 17.9965 23.3522 18.0547 23.3912 18.0547C23.994 18.0547 24.4421 18.1086 24.7338 18.2151C25.0257 18.3223 25.22 18.5122 25.3177 18.7842C25.4146 19.0569 25.4635 19.4849 25.4635 20.0685V33.5821C25.4635 34.166 25.4097 34.5987 25.3027 34.8809C25.1959 35.1631 25.001 35.3529 24.719 35.45C24.4369 35.5474 23.9846 35.5958 23.362 35.5958C23.3035 35.5958 23.2744 35.6541 23.2744 35.7709C23.2744 35.8877 23.3035 35.9461 23.362 35.9461C24.0231 35.9461 24.5487 35.9365 24.938 35.917L27.0688 35.8878C27.5744 35.8878 28.0365 35.8976 28.455 35.917C28.8731 35.9366 29.2286 35.9557 29.5205 35.9752C30.11 36.0217 30.6287 36.049 31.0825 36.0585V37.7171C31.0825 38.1979 31.0382 38.5544 30.9502 38.7867C30.862 39.0193 30.7018 39.1754 30.4694 39.2554C30.2369 39.3356 29.8646 39.3755 29.3517 39.3755C29.3196 39.3755 29.3038 39.4235 29.3038 39.5197C29.3038 39.616 29.3197 39.6639 29.3517 39.6639H40.6974C40.8254 39.6639 40.9176 39.6362 40.9741 39.5797C41.03 39.5238 41.0579 39.4319 41.0579 39.3037C41.0579 38.2459 41.1303 36.9237 41.2744 35.3372C41.2747 35.3215 41.2542 35.301 41.2145 35.277ZM34.3439 27.657C35.1416 28.455 35.5407 29.6906 35.5407 31.3639C35.5407 32.6676 35.2387 33.6549 34.6357 34.326C34.447 34.5361 34.1328 34.7134 33.7507 34.8577V27.2388C33.9864 27.3634 34.1893 27.5025 34.3439 27.657ZM30.8632 35.3333C30.0069 35.3333 29.4376 35.1872 29.1557 34.8954C28.8733 34.6035 28.7324 34.1659 28.7324 33.582V26.5773C29.1412 26.4994 29.5792 26.4605 30.046 26.4605C30.3675 26.4605 30.7204 26.4815 31.0828 26.5213V35.3299C31.0082 35.3319 30.9345 35.3333 30.8632 35.3333Z" fill="#AC966D"/>
</svg>
