<svg width="59" height="89" viewBox="0 0 59 89" fill="none" xmlns="http://www.w3.org/2000/svg">
<path d="M14.57 21.162C14.25 26.4507 15.5932 31.43 18.5625 35.9621C20.5985 39.0699 23.363 41.9411 27.0141 44.74C27.5394 45.1427 29.1339 46.1543 29.2015 46.1971L29.499 46.3857L29.7966 46.1971C29.8642 46.1543 31.4584 45.1427 31.9835 44.74C35.6349 41.9407 38.3997 39.0693 40.4357 35.9615C43.4054 31.4292 44.7486 26.45 44.428 21.1622C44.2625 18.4304 44.507 15.5579 45.1548 12.6245L45.2958 11.9858L44.6427 11.9498C37.5373 11.5584 32.3423 7.652 29.8781 5.35838L29.4994 5.00586L29.1207 5.35838C26.6567 7.65238 21.4621 11.5592 14.3554 11.9499L13.7021 11.9858L13.8433 12.6246C14.4909 15.5577 14.7356 18.4301 14.57 21.162ZM29.4995 6.51723C32.1236 8.86651 37.1551 12.4419 43.9362 13.0144C43.3667 15.8304 43.1588 18.591 43.3185 21.2294C43.8418 29.8586 39.9129 37.2605 31.3075 43.8581C30.9502 44.1319 29.9899 44.7538 29.499 45.0685C29.0081 44.7538 28.0475 44.1319 27.6903 43.8581C19.0858 37.2618 15.1571 29.8599 15.6794 21.2291C15.8393 18.5907 15.6314 15.8303 15.0617 13.0144C21.8442 12.4426 26.8756 8.86683 29.4995 6.51723Z" fill="#273057"/>
<path d="M34.1121 53.605C34.1072 53.5486 34.0991 53.4934 34.0886 53.439C33.8506 54.2648 31.8868 54.9089 29.4994 54.9089C27.1121 54.9089 25.1483 54.2648 24.9103 53.439C24.8998 53.4934 24.8917 53.5486 24.8868 53.605C24.6087 56.8127 23.4843 59.1824 22.739 60.4387C22.3689 61.0627 22.457 61.8546 22.9583 62.3789C24.3416 63.8256 26.9798 66.7219 28.4477 69.2199C28.5923 69.4661 28.9678 69.3649 28.9678 69.0796V60.6271C28.549 60.4279 28.2588 60.0022 28.2588 59.5075C28.2588 58.8224 28.8143 58.2669 29.4994 58.2669C30.1846 58.2669 30.74 58.8224 30.74 59.5075C30.74 60.0021 30.4498 60.4279 30.0311 60.6271V69.0796C30.0311 69.3649 30.4066 69.4661 30.5511 69.2199C32.0191 66.7219 34.6573 63.8256 36.0406 62.3789C36.5419 61.8546 36.6299 61.0626 36.2599 60.4387C35.5144 59.1824 34.39 56.8127 34.1121 53.605Z" fill="#273057"/>
<path d="M11.2966 20.964C10.9722 26.3247 12.4623 31.7053 15.7256 36.9561C16.8775 38.8097 18.3228 40.4213 19.5846 42.172C20.6945 43.7117 21.747 45.2915 22.8087 46.8644C23.288 47.5745 23.6768 48.2387 24.0348 49.0065C24.3217 49.6217 25.3058 50.7774 25.3058 51.4395H25.3057C25.0361 51.6477 24.8846 51.8793 24.8846 52.1235C24.8846 53.0288 26.9502 53.7626 29.4981 53.7626C32.046 53.7626 34.1116 53.0288 34.1116 52.1235C34.1116 51.8793 33.96 51.6477 33.6904 51.4395C33.6761 51.1003 34.2596 50.3748 34.4139 50.0881C35.6706 47.7528 36.9887 45.4439 38.5211 43.2765C40.0456 41.1202 41.8726 39.2058 43.2708 36.9561C46.5344 31.7052 48.0245 26.3247 47.6994 20.964C47.3444 15.1019 49.2954 10.0331 49.3148 9.98342L49.9676 8.32193L48.1971 8.55027C43.6606 9.1351 39.2885 8.06961 35.2013 5.38302C32.1094 3.35092 30.3511 1.10332 30.3336 1.08082L29.4995 0L28.6625 1.08089C28.645 1.10338 26.887 3.35092 23.7952 5.38296C19.7081 8.06955 15.3355 9.13516 10.7989 8.55021L9.03223 8.32327L9.6809 9.98259C9.70071 10.033 11.6518 15.1018 11.2966 20.964ZM25.0213 7.10389C27.1171 5.71669 28.6337 4.25977 29.4982 3.33398C30.3626 4.25964 31.8791 5.71656 33.9753 7.10389C37.9608 9.74159 42.3727 11.0016 46.8251 10.7892C46.2156 12.8576 45.3278 16.731 45.5917 21.0916C46.3532 33.6506 35.9355 43.0572 32.7245 45.641C32.1457 46.1068 30.5133 47.1595 29.4979 47.8011C28.4827 47.1597 26.8503 46.1071 26.2713 45.641C23.0607 43.0575 12.6441 33.6522 13.4042 21.0915C13.6685 16.7309 12.7805 12.8575 12.1709 10.7891C16.6254 11.0016 21.0361 9.74166 25.0213 7.10389Z" fill="#273057"/>
<path d="M51.7304 32.386C51.9207 32.5907 52.2495 32.673 52.5794 32.6879C52.9099 32.7032 53.2407 32.6502 53.4457 32.5968C53.8016 32.5036 54.1447 32.3378 54.4474 32.123C54.747 31.9078 55.0211 31.6468 55.2733 31.3724C55.3177 31.3258 55.4778 31.1067 55.6336 30.9126C55.7907 30.719 55.9341 30.5494 55.9941 30.6186C55.724 30.3009 55.3682 30.0629 55.0434 30.0259C54.6676 29.9835 54.3043 30.0406 53.9471 30.1644C53.791 30.2182 53.636 30.2848 53.4822 30.3615C53.327 30.4378 53.1686 30.5236 53.0132 30.6172C52.7015 30.8042 52.3917 31.021 52.0916 31.2505C52.0519 31.2804 52.0101 31.314 51.9674 31.3502L52.1458 30.4568C52.1999 30.2042 52.2395 29.9489 52.2796 29.6937C52.4599 29.8807 52.759 29.9341 53.0537 29.9206C53.3489 29.9073 53.6394 29.8263 53.8156 29.7556C54.1572 29.6193 54.4627 29.3952 54.7344 29.1221L54.7307 29.1215L53.7034 28.9626C53.6589 28.9877 53.614 29.0116 53.5689 29.0348C53.3082 29.169 53.035 29.2792 52.753 29.372C52.612 29.4188 52.4686 29.4595 52.3228 29.4961C52.3189 29.4971 52.3145 29.4979 52.3105 29.4993L52.3779 29.0746C52.4921 29.0674 52.6065 29.0568 52.7203 29.0426C52.9376 29.0154 53.1519 28.9704 53.3615 28.9098L53.3524 28.9084L51.1035 28.5607L51.0943 28.5594C51.2739 28.6752 51.4625 28.7807 51.6595 28.8728C51.7627 28.921 51.8676 28.9664 51.9734 29.009L51.8971 29.4279C51.8938 29.4253 51.8901 29.4231 51.8866 29.4209C51.7611 29.3382 51.639 29.2533 51.521 29.1651C51.2852 28.9893 51.0615 28.8056 50.857 28.6098C50.8216 28.5759 50.7865 28.5416 50.7527 28.5066C50.5908 28.342 50.4344 28.1653 50.2995 27.9802C50.1379 27.7537 50.005 27.5084 49.9178 27.2426C49.9637 27.3731 50.0279 27.494 50.0972 27.6103C50.1699 27.724 50.2524 27.8302 50.3407 27.9318C50.4295 28.033 50.5281 28.1256 50.6295 28.2152C50.7323 28.3028 50.8421 28.3856 50.9509 28.4641C50.9979 28.4965 51.0455 28.5286 51.0943 28.5595L53.3614 28.9101C53.418 28.8942 53.4742 28.8765 53.5298 28.8581C53.6617 28.8123 53.7884 28.7602 53.9107 28.6998C54.0321 28.6369 54.1518 28.5687 54.2646 28.4873C54.3771 28.4052 54.4854 28.3151 54.5866 28.2129C54.6851 28.1068 54.7803 27.9928 54.8605 27.8623C54.7032 28.1299 54.5078 28.3575 54.291 28.5507C54.1104 28.7077 53.9179 28.8454 53.7033 28.9629L54.7342 29.1223C54.8463 29.0129 54.9455 28.8946 55.0368 28.7708C55.1292 28.6471 55.2162 28.5183 55.2984 28.3875C55.3293 28.3373 55.4454 28.1074 55.5539 27.9024C55.6632 27.6977 55.7712 27.5187 55.8268 27.5817C55.7 27.4364 55.553 27.3117 55.4047 27.2225C55.257 27.1332 55.109 27.0794 54.9725 27.0747C54.656 27.0632 54.3655 27.1502 54.0715 27.3014C53.5592 27.5668 53.0492 28.0285 52.5497 28.5357C52.5164 28.5709 52.4813 28.6079 52.4457 28.6454L52.6187 27.1976C52.7775 27.3694 53.038 27.3993 53.2907 27.3631C53.5431 27.3271 53.7903 27.225 53.9328 27.1412C54.4363 26.8503 54.7978 26.2809 55.0374 25.6749C55.0586 25.6233 55.1188 25.3873 55.1782 25.1773C55.2357 24.9673 55.2927 24.7836 55.3453 24.8419C55.1009 24.5729 54.8313 24.3912 54.6206 24.3999C54.3762 24.4104 54.1564 24.5161 53.9411 24.6872C53.7527 24.8364 53.5692 25.0354 53.3804 25.2647C53.1967 25.4942 52.9926 25.7528 52.7915 26.0236C52.765 26.059 52.7368 26.0984 52.7081 26.1404L52.7437 25.6871L52.761 25.4606L52.7703 25.2333L52.8009 24.4605C52.9317 24.6195 53.1365 24.6292 53.3281 24.5743C53.5202 24.5196 53.6981 24.3997 53.8005 24.3062C53.9999 24.1257 54.1564 23.8657 54.2534 23.5647L54.2512 23.5646L53.615 23.5458C53.5927 23.5764 53.5698 23.6057 53.5462 23.6346C53.4784 23.7178 53.406 23.7958 53.3299 23.8693C53.2521 23.9429 53.1687 24.0118 53.0834 24.077C52.9976 24.1426 52.9087 24.2026 52.8165 24.2592C52.8139 24.2606 52.8112 24.2621 52.8086 24.2641L52.8239 23.8351C52.8943 23.8124 52.9637 23.7863 53.032 23.7568C53.1622 23.7003 53.2871 23.6271 53.4032 23.5395H53.4048C53.4354 23.5165 53.4658 23.4929 53.4953 23.4678C53.5655 23.4054 53.6325 23.3378 53.6945 23.2627C53.7556 23.185 53.8133 23.1036 53.8631 23.0099C53.9131 22.9156 53.9556 22.8139 53.9902 22.7026C54.0227 22.5876 54.0488 22.4656 54.0626 22.33C54.0379 22.6072 53.9803 22.8525 53.8887 23.0676C53.8133 23.2437 53.7215 23.4028 53.6158 23.5459L54.2534 23.5646H54.2544C54.3328 23.3224 54.3868 23.0546 54.4128 22.7825C54.4183 22.7303 54.4233 22.4946 54.4266 22.2853C54.4262 22.0761 54.4198 21.8934 54.4662 21.947C54.2524 21.6997 54.0491 21.5375 53.9232 21.5578C53.7775 21.5816 53.6637 21.6978 53.5492 21.8794C53.471 22.0032 53.3968 22.1574 53.3115 22.3331C53.2261 22.5088 53.1371 22.7061 53.0422 22.916C53.0625 22.693 53.0762 22.4316 53.0697 22.1353C53.0618 21.839 53.0378 21.508 52.9982 21.1463C52.9513 20.7262 52.884 20.3364 52.8204 19.9881C52.7568 19.6398 52.697 19.3331 52.6541 19.0779C52.5796 18.6497 52.5508 18.3675 52.5434 18.2878C52.5461 18.3202 52.5512 18.385 52.5562 18.4806C52.5631 18.6211 52.5684 18.8265 52.5608 19.0848C52.5548 19.3429 52.5348 19.654 52.5062 20.0045C52.4779 20.3551 52.4408 20.7448 52.4136 21.161C52.3919 21.5078 52.3745 21.8244 52.3669 22.1087C52.3581 22.3931 52.3532 22.6453 52.3647 22.8629C52.1983 22.462 52.052 22.1204 51.8974 21.893C51.7805 21.7199 51.6622 21.6128 51.5162 21.5946C51.3897 21.5791 51.1922 21.739 50.9818 21.9697C51.0271 21.9195 51.0251 22.0884 51.0217 22.2819C51.0174 22.4753 51.0141 22.6933 51.0176 22.7416C51.034 22.9937 51.0782 23.2433 51.1479 23.4731H51.1488L51.4617 23.4823L51.1511 23.4732L51.1489 23.4731C51.1924 23.6158 51.2532 23.7509 51.3162 23.8736C51.3799 23.9963 51.4559 24.107 51.5449 24.2011C51.6367 24.2984 51.8004 24.4297 51.9856 24.5029C52.17 24.5757 52.3744 24.59 52.5222 24.4462L52.4666 25.2123L52.4504 25.4374L52.4262 25.6618L52.3772 26.1105C52.3568 26.0644 52.3364 26.021 52.3168 25.9819C52.1673 25.6835 52.0232 25.4048 51.8575 25.1596C51.6953 24.9147 51.5348 24.705 51.3637 24.5453C51.1681 24.3622 50.9609 24.2451 50.7189 24.2134C50.5102 24.1865 50.2224 24.3265 49.9511 24.5357C50.0097 24.4901 50.0471 24.6571 50.082 24.849C50.1197 25.0515 50.1571 25.2542 50.1668 25.3066C50.2969 25.8715 50.5517 26.4404 50.9929 26.8141C51.1192 26.9208 51.3271 27.0676 51.5648 27.1591C51.8007 27.2501 52.0606 27.2847 52.259 27.1559L52.051 28.5854C52.0293 28.5376 52.0037 28.4921 51.9811 28.4512C51.631 27.8249 51.2538 27.2773 50.8223 26.929C50.5732 26.7293 50.295 26.593 49.9849 26.54C49.7136 26.4936 49.3703 26.6091 49.0481 26.7927C49.1171 26.7529 49.1793 26.9225 49.2359 27.1171C49.2919 27.3113 49.3487 27.5312 49.3666 27.5808C49.4608 27.8396 49.5815 28.1018 49.7216 28.3472C49.895 28.6523 50.1141 28.9356 50.3935 29.1636C50.5378 29.2813 50.7862 29.4484 51.0597 29.5615C51.3331 29.674 51.6314 29.7318 51.8626 29.6199C51.8179 29.8714 51.7735 30.1231 51.7147 30.3719L51.5217 31.252C51.4972 31.2015 51.4724 31.1537 51.448 31.1105C51.2652 30.7804 51.0661 30.4683 50.8517 30.1908C50.744 30.0517 50.6341 29.9217 50.5154 29.8011C50.3952 29.6803 50.2705 29.5697 50.1402 29.471C49.8427 29.245 49.5165 29.0822 49.1481 28.9982C48.8292 28.9259 48.4194 29.0055 48.0688 29.1601C48.1431 29.126 48.2381 29.3047 48.3128 29.5052C48.3861 29.7051 48.4532 29.93 48.477 29.9818C48.6087 30.2829 48.7639 30.5895 48.9577 30.8796C49.1512 31.1693 49.3732 31.4402 49.652 31.6717C49.8106 31.8036 50.0805 31.995 50.3799 32.1348C50.6789 32.2742 51.0064 32.3612 51.2701 32.2716L51.0902 32.97L50.8852 33.6613C50.8616 33.6087 50.8372 33.5587 50.8133 33.5134C50.6312 33.1669 50.437 32.8394 50.1995 32.5388C49.9656 32.2391 49.713 31.973 49.4316 31.7526C49.1102 31.5008 48.753 31.309 48.3473 31.1921C47.9967 31.0912 47.5454 31.1341 47.1646 31.2575C47.2471 31.2306 47.3469 31.4161 47.4363 31.6256C47.5277 31.8353 47.6132 32.0704 47.6353 32.1236C47.7612 32.403 47.9034 32.6882 48.0784 32.9652C48.2951 33.3091 48.5591 33.6405 48.8794 33.924C49.0438 34.0698 49.3232 34.2846 49.6351 34.4503C49.9467 34.6155 50.2902 34.7309 50.5764 34.6642L50.3305 35.3891L50.1859 35.815L50.025 36.235C50.0031 36.1801 49.9805 36.1278 49.9577 36.0801C49.8712 35.8979 49.784 35.7214 49.6803 35.5469C49.5773 35.3727 49.4678 35.2041 49.3513 35.0432C49.1183 34.7214 48.8568 34.4298 48.5637 34.1821C48.2294 33.8987 47.852 33.6728 47.4214 33.5173C47.0493 33.3835 46.5676 33.3834 46.1668 33.4719C46.253 33.4522 46.3623 33.6488 46.4582 33.8687C46.5541 34.0881 46.6368 34.3308 46.6631 34.3878C46.7422 34.5546 46.8175 34.72 46.9017 34.8861C46.9874 35.0526 47.0802 35.2193 47.1821 35.3834C47.3858 35.7113 47.6257 36.0294 47.9189 36.3142C48.0883 36.4778 48.3685 36.7189 48.6827 36.9134C48.9975 37.1077 49.3462 37.2543 49.6483 37.2138L49.3651 37.876C49.2695 38.0961 49.1796 38.3189 49.0792 38.5369C49.0604 38.4802 49.0412 38.4265 49.0191 38.3762C48.6964 37.612 48.2604 36.9011 47.6757 36.3569C47.3362 36.043 46.9496 35.7829 46.5093 35.5907C46.3189 35.5073 46.1013 35.4566 45.881 35.434C45.6595 35.4108 45.4399 35.418 45.233 35.4453C45.3215 35.4329 45.4302 35.6392 45.5233 35.8678C45.6164 36.0959 45.694 36.3464 45.7192 36.4057C45.8486 36.7132 46 37.0341 46.1642 37.3418C46.3699 37.7257 46.6157 38.1026 46.9271 38.4442C47.0886 38.6208 47.3626 38.8864 47.6716 39.1073C47.9806 39.3277 48.3249 39.5023 48.6296 39.4838C48.5243 39.7161 48.4019 39.9397 48.2841 40.1654L47.866 40.9608C47.8507 40.9022 47.8328 40.8455 47.815 40.7937C47.6813 40.3985 47.5161 40.0131 47.3137 39.6524C47.1099 39.2907 46.8757 38.9578 46.587 38.6548C46.2608 38.3098 45.8821 38.0152 45.446 37.7839C45.069 37.5846 44.5773 37.5046 44.1747 37.5316C44.2631 37.5262 44.3689 37.7448 44.4532 37.9819C44.5387 38.2193 44.6063 38.4779 44.6291 38.5397C44.6955 38.7196 44.7654 38.9025 44.8413 39.0864C44.8791 39.1783 44.919 39.2708 44.9603 39.3629C44.9999 39.4539 45.0414 39.5448 45.0849 39.6354C45.2586 39.9977 45.4647 40.3554 45.7242 40.6875C45.8729 40.8776 46.1266 41.166 46.417 41.4121C46.7076 41.6579 47.0358 41.8605 47.3412 41.8675C47.2803 41.9707 47.223 42.0762 47.159 42.1777L46.966 42.4811L46.5798 43.0879C46.5689 43.0282 46.5566 42.9708 46.5433 42.9181C46.4441 42.5158 46.3108 42.12 46.1367 41.7455C45.9655 41.3729 45.7402 41.0127 45.4771 40.6906C45.175 40.3218 44.8158 39.9982 44.3966 39.7337C44.0336 39.5051 43.5534 39.3888 43.157 39.3861C43.243 39.3864 43.3387 39.6154 43.4145 39.8631C43.4876 40.1075 43.5406 40.3717 43.5596 40.435C43.6589 40.7658 43.7675 41.1071 43.8988 41.4467C44.0582 41.8654 44.2441 42.2756 44.4977 42.6629C44.6289 42.8626 44.8545 43.1675 45.1187 43.4324C45.3832 43.6973 45.6873 43.9215 45.9878 43.9511C45.8416 44.1595 45.6993 44.3709 45.5406 44.5698L44.9942 45.282C44.9898 45.2222 44.9835 45.1646 44.9758 45.1115C44.9202 44.7064 44.8285 44.3042 44.693 43.9195C44.5601 43.5366 44.3734 43.1628 44.1417 42.8206C43.8774 42.4293 43.5515 42.0787 43.1632 41.7828C42.8266 41.5273 42.3703 41.3756 41.9912 41.3459C42.073 41.3514 42.1538 41.5903 42.2088 41.8425C42.2637 42.0929 42.2963 42.3615 42.3101 42.4265C42.3902 42.8045 42.4805 43.1988 42.5925 43.5851C42.7015 43.9679 42.8367 44.3485 43.0225 44.71C43.1293 44.917 43.3155 45.234 43.5419 45.5138C43.7689 45.7934 44.0373 46.0354 44.3246 46.0861L44.093 46.3611L43.8494 46.6251L43.3607 47.1521C43.3634 47.0936 43.364 47.0372 43.3627 46.9849C43.355 46.5865 43.3105 46.1872 43.2196 45.8008C43.1757 45.609 43.1155 45.4158 43.0431 45.227C42.9715 45.039 42.8878 44.8559 42.792 44.6796C42.5732 44.2762 42.2896 43.9079 41.9413 43.59C41.6397 43.3149 41.2154 43.1366 40.8586 43.0865C40.9364 43.0974 40.9938 43.3385 41.0292 43.5967C41.0642 43.8525 41.0704 44.1187 41.0785 44.1847C41.1182 44.5249 41.1602 44.8746 41.2208 45.2244C41.2935 45.6554 41.3813 46.0734 41.534 46.4772C41.6129 46.6854 41.7545 47.0048 41.9381 47.2895C42.1224 47.5741 42.3499 47.824 42.6202 47.891L42.3476 48.1581C42.2547 48.2448 42.1577 48.3273 42.063 48.412L41.3907 49.0062C41.4021 48.9512 41.4103 48.8966 41.4165 48.8465C41.4649 48.4641 41.4772 48.0774 41.4418 47.6985C41.4242 47.5089 41.3948 47.3215 41.3528 47.1377C41.3083 46.9507 41.25 46.7658 41.1802 46.588C41.0214 46.1809 40.7947 45.803 40.5018 45.4716C40.248 45.1854 39.8688 44.9878 39.5441 44.9255C39.5792 44.932 39.6049 44.9965 39.6228 45.092C39.6414 45.1885 39.6503 45.3132 39.6504 45.4373C39.6531 45.6884 39.6301 45.9534 39.6294 46.0178C39.6282 46.2062 39.6263 46.3965 39.6292 46.5906C39.6324 46.7761 39.6356 46.966 39.6388 47.1611C39.6501 47.5354 39.6794 47.905 39.7576 48.261C39.8026 48.4645 39.8896 48.7762 40.0198 49.0549C40.1509 49.3338 40.3267 49.5801 40.572 49.6575L40.431 49.7689L40.2846 49.8728L39.9916 50.0809C39.7956 50.2183 39.6032 50.3617 39.4041 50.4947C39.4248 50.4464 39.442 50.3975 39.4553 50.3506C39.5612 49.9986 39.6301 49.6355 39.6524 49.2773C39.6636 49.098 39.6627 48.9196 39.6491 48.7436C39.6346 48.5663 39.6039 48.3857 39.5621 48.2129C39.4658 47.8161 39.2998 47.4415 39.067 47.1114C38.8643 46.8247 38.536 46.6242 38.245 46.5615C38.3075 46.5734 38.3121 46.8215 38.2794 47.0608C38.2494 47.3039 38.1922 47.5583 38.1841 47.622C38.1617 47.7832 38.1388 47.9475 38.1154 48.1155C38.1045 48.1969 38.0935 48.2793 38.0824 48.3627C38.0709 48.4408 38.0592 48.52 38.0475 48.6L38.6085 49.4752C38.6088 49.2298 38.6116 48.9689 38.6212 48.7039C38.6362 48.3841 38.667 48.0582 38.7257 47.7405C38.7002 47.9004 38.6863 48.0605 38.6764 48.2198C38.6703 48.3799 38.6712 48.538 38.6753 48.6934C38.6801 48.849 38.693 49.0017 38.7072 49.1517C38.7242 49.3025 38.7429 49.4467 38.7635 49.5874C38.7736 49.6463 38.7839 49.7055 38.7942 49.7651L39.4107 50.7272L38.7993 49.7729L38.7943 49.7651C38.834 49.9838 38.8818 50.1971 38.9413 50.4037C38.9728 50.5118 39.0061 50.6183 39.0415 50.7229L38.6827 50.9491C38.6827 50.945 38.6821 50.9409 38.6817 50.937C38.668 50.7963 38.6562 50.6545 38.647 50.5108C38.6284 50.2239 38.6141 49.9302 38.6096 49.631C38.6092 49.5789 38.6089 49.5266 38.6085 49.4751L38.0495 48.603L38.0475 48.5999C37.9931 48.9921 37.9582 49.3817 37.976 49.7469C37.986 49.9365 38.0177 50.2256 38.0951 50.4843C38.1705 50.738 38.2992 50.9734 38.5186 51.0526C38.3008 51.1841 38.0745 51.3009 37.8526 51.4259L37.4597 51.6432C37.3278 51.714 37.1904 51.7738 37.056 51.8395C37.0848 51.798 37.1111 51.7572 37.1337 51.719C37.3111 51.4359 37.4386 51.1056 37.5259 50.7861C37.6121 50.4642 37.6509 50.1393 37.6348 49.8248C37.6171 49.4648 37.5223 49.1084 37.3614 48.7993C37.2913 48.665 37.1879 48.551 37.0707 48.4641C37.012 48.4206 36.9498 48.384 36.8863 48.3553C36.822 48.3248 36.7557 48.3001 36.6908 48.2854C36.7476 48.2986 36.7073 48.5207 36.6387 48.7514C36.5711 48.9823 36.4748 49.2219 36.4555 49.2798C36.428 49.3645 36.4004 49.4502 36.3723 49.5371C36.3436 49.6214 36.313 49.701 36.2837 49.7829C36.2277 49.9397 36.1703 50.1002 36.1114 50.2653C36.0028 50.5832 35.9116 50.8967 35.8595 51.1754C35.8297 51.3341 35.7992 51.5746 35.8185 51.79C35.8385 52.0058 35.9095 52.1967 36.104 52.2762L35.951 52.3381C35.9943 52.4197 36.0383 52.5011 36.061 52.5913C36.0625 52.5975 36.0625 52.6033 36.0638 52.6094L36.2164 52.5535C36.1277 52.742 36.2033 52.9313 36.3429 53.1009C36.482 53.2702 36.6867 53.4201 36.8351 53.5102C37.0924 53.6642 37.4082 53.7784 37.7703 53.8843C37.9502 53.9352 38.1408 53.9822 38.3388 54.0267C38.4375 54.0484 38.5395 54.0718 38.6402 54.0904C38.7425 54.1076 38.8437 54.1243 38.9436 54.141C39.013 54.1515 39.3168 54.177 39.6042 54.2181C39.8907 54.259 40.1603 54.3154 40.1252 54.3777C40.2077 54.2371 40.2466 54.0716 40.2448 53.9133C40.2435 53.7555 40.2011 53.604 40.1158 53.479C39.9169 53.1885 39.6383 52.9599 39.3092 52.7698C39.0202 52.6011 38.698 52.4694 38.3655 52.3713C38.0316 52.2712 37.6926 52.2152 37.3438 52.1571C37.2984 52.1501 37.249 52.1441 37.1974 52.1394C37.3361 52.0763 37.4777 52.0195 37.614 51.9514L38.0199 51.7416C38.2489 51.6204 38.483 51.5077 38.7081 51.3794C38.6702 51.619 38.7958 51.8398 38.9861 52.0369C39.1727 52.2287 39.4188 52.3862 39.5918 52.4758C39.9247 52.648 40.3286 52.7685 40.7742 52.8542C40.8637 52.8715 40.9552 52.8875 41.0479 52.9024C41.1389 52.9147 41.2307 52.9254 41.3238 52.9355C41.5102 52.9553 41.7012 52.9713 41.8944 52.985C41.9687 52.9913 42.2841 52.9869 42.5849 53.0003C42.8881 53.017 43.1601 53.0352 43.1434 53.1143C43.2301 52.7573 43.156 52.3586 42.9242 52.0944C42.6583 51.7903 42.3161 51.5529 41.9407 51.3738C41.776 51.2946 41.607 51.2293 41.4297 51.1687C41.2515 51.1068 41.069 51.0544 40.8852 51.0107C40.5175 50.9234 40.1426 50.8684 39.779 50.8426C39.7294 50.8395 39.677 50.8362 39.6239 50.833C39.83 50.7021 40.0292 50.5607 40.2323 50.4251L40.5353 50.219L40.6868 50.116L40.8328 50.0056C40.839 50.2693 41.0187 50.5126 41.2508 50.7127C41.4822 50.9125 41.7677 51.0693 41.9635 51.1553C42.305 51.3062 42.6913 51.3972 43.1097 51.4542C43.2141 51.4684 43.3205 51.4801 43.4283 51.4902C43.5347 51.4987 43.6407 51.5033 43.7489 51.5074C43.9654 51.5159 44.1839 51.5145 44.4044 51.51C44.4798 51.5086 44.7991 51.4757 45.1056 51.4627C45.2599 51.4573 45.4069 51.4539 45.5137 51.4615C45.6216 51.47 45.6918 51.4917 45.6895 51.5343C45.7096 51.1396 45.5623 50.7183 45.2827 50.457C44.9595 50.1548 44.5722 49.932 44.1578 49.7712C43.9764 49.7004 43.7899 49.6414 43.5996 49.5918C43.4064 49.5395 43.2101 49.497 43.0134 49.4632C42.6196 49.3959 42.2241 49.3636 41.8412 49.3563C41.7908 49.3549 41.7369 49.3559 41.6804 49.3575L42.3762 48.7636C42.4742 48.6788 42.5745 48.5962 42.6707 48.5093L42.9527 48.2415C43.0047 48.5191 43.2357 48.7658 43.5121 48.9617C43.7878 49.1574 44.1105 49.3021 44.327 49.3776C44.7429 49.5222 45.2104 49.5919 45.6926 49.6033C46.076 49.6092 46.4729 49.5803 46.8723 49.5374C46.9477 49.5288 47.2689 49.4682 47.5731 49.4247C47.8696 49.3763 48.155 49.3496 48.1655 49.4395C48.1192 49.0246 47.9038 48.6009 47.5783 48.354C47.2027 48.0681 46.7744 47.8697 46.3263 47.7357C46.1302 47.6773 45.9302 47.6311 45.7285 47.5955C45.5278 47.5607 45.3232 47.5346 45.1138 47.5133C44.6982 47.4733 44.2838 47.4681 43.8849 47.4866C43.8326 47.4888 43.7763 47.4929 43.7183 47.4989L44.2229 46.9677L44.4745 46.7013L44.7133 46.4237C44.804 46.7053 45.0755 46.9437 45.3857 47.1256C45.6953 47.3077 46.0447 47.433 46.2754 47.4944C46.6773 47.6018 47.106 47.6378 47.5498 47.6275C47.9875 47.6133 48.4254 47.5431 48.8676 47.4579C48.9428 47.4434 49.2531 47.3529 49.5541 47.2851C49.8505 47.2149 50.1262 47.1613 50.1503 47.2537C50.0466 46.8321 49.7756 46.417 49.4186 46.1907C49.006 45.9292 48.5517 45.7611 48.0834 45.66C47.6742 45.5715 47.2558 45.5352 46.8261 45.5232C46.4001 45.514 45.978 45.5393 45.5725 45.5864C45.5191 45.5923 45.462 45.6006 45.4034 45.6108L45.9656 44.8897C46.1291 44.6882 46.2749 44.4738 46.425 44.2625C46.5512 44.5401 46.8578 44.7607 47.1959 44.9206C47.5337 45.0811 47.904 45.18 48.1452 45.2234C48.6083 45.3063 49.1001 45.302 49.583 45.2319L49.579 45.2291L48.414 44.4534C48.3489 44.449 48.284 44.4433 48.2195 44.437C47.84 44.3967 47.4669 44.3302 47.1001 44.2466C46.9165 44.2051 46.735 44.1575 46.5545 44.1055C46.5495 44.1041 46.5442 44.1025 46.5391 44.1011L46.7884 43.7485C46.9251 43.8107 47.0638 43.87 47.2044 43.9261C47.4726 44.0329 47.7496 44.1237 48.0263 44.1952C48.1012 44.2152 48.1766 44.2335 48.2522 44.2507C48.4311 44.2891 48.6124 44.322 48.796 44.346C48.9795 44.3672 49.1659 44.3835 49.3539 44.3849C49.5417 44.3854 49.7315 44.3775 49.9224 44.3554C50.1127 44.3286 50.3045 44.2927 50.4935 44.236C50.1177 44.3584 49.7332 44.4277 49.352 44.4567C49.0372 44.4779 48.7235 44.4756 48.414 44.4534L49.5831 45.2319C49.9683 45.1739 50.3562 45.0779 50.7385 44.9659C50.8115 44.9447 51.1088 44.8264 51.3988 44.7314C51.6804 44.6331 51.9496 44.5561 51.9844 44.6466C51.8282 44.2296 51.5095 43.8344 51.1281 43.6376C50.6876 43.4096 50.2164 43.2793 49.7371 43.2163C49.3167 43.161 48.8961 43.1608 48.4623 43.184C48.0325 43.2097 47.6086 43.2693 47.2015 43.3489C47.148 43.359 47.0908 43.3719 47.0324 43.3866L47.4274 42.7704L47.6249 42.4622C47.6902 42.3592 47.7485 42.2519 47.8106 42.147C47.964 42.4163 48.2945 42.6147 48.6496 42.7495C49.0044 42.8847 49.3843 42.9552 49.6288 42.9798C50.0554 43.0233 50.4886 42.9892 50.9213 42.9049C51.3609 42.8239 51.7661 42.6774 52.175 42.5179C52.2445 42.4906 52.5227 42.3473 52.7953 42.2282C53.0688 42.1099 53.3323 42.0147 53.3727 42.1019C53.1748 41.6957 52.8211 41.3245 52.4287 41.1575C51.9747 40.9644 51.5005 40.8714 51.0227 40.8473C50.6063 40.8264 50.1704 40.8502 49.7496 40.9109C49.3268 40.9706 48.9106 41.0636 48.5114 41.1748C48.4587 41.1891 48.4032 41.2065 48.3454 41.2256L48.7695 40.4166C48.889 40.1868 49.0135 39.9595 49.1196 39.7233C49.2947 39.9788 49.6408 40.1495 50.0047 40.254C50.3683 40.3591 50.7499 40.3973 50.993 40.401C51.4626 40.4087 51.9283 40.3202 52.3846 40.1737L52.3802 40.1718L51.1053 39.5914C51.0401 39.5972 50.9749 39.6016 50.9098 39.6054C50.5346 39.6274 50.1585 39.6223 49.783 39.5987C49.5952 39.5871 49.4076 39.5692 49.2198 39.5465C49.2146 39.546 49.2089 39.5452 49.2037 39.5447L49.3874 39.1544C49.5325 39.194 49.6793 39.2305 49.8269 39.2634C50.1087 39.3257 50.3937 39.3703 50.6811 39.3983L50.6697 39.3931L47.8792 38.1228L47.8678 38.1176C48.0786 38.3075 48.2983 38.4899 48.5284 38.6619C48.649 38.7518 48.7715 38.8396 48.895 38.9249L48.7129 39.3084L48.7014 39.297C48.5653 39.165 48.4321 39.0319 48.3027 38.8965C48.0442 38.6266 47.7951 38.352 47.5629 38.0712C47.523 38.0221 47.4832 37.973 47.444 37.9246C47.2578 37.6919 47.0801 37.4505 46.9168 37.2049C46.7235 36.907 46.5589 36.6005 46.44 36.2892C46.5035 36.4439 46.5851 36.5945 46.6724 36.7427C46.7641 36.8899 46.866 37.0328 46.9732 37.1728C47.0811 37.3127 47.1996 37.4476 47.3201 37.58C47.4442 37.7119 47.5698 37.8384 47.6991 37.9627C47.755 38.0139 47.8112 38.0655 47.8678 38.1174L50.6812 39.3981C50.7586 39.4061 50.8363 39.4124 50.9137 39.4177C51.0965 39.4275 51.2829 39.4324 51.4629 39.4258C51.6435 39.4167 51.8254 39.4022 52.0052 39.3725C52.1847 39.3421 52.3638 39.3028 52.5406 39.2492C52.7154 39.191 52.8895 39.1235 53.0557 39.0358C52.7269 39.2198 52.3761 39.3526 52.0177 39.4443C51.8692 39.4808 51.7197 39.5114 51.5689 39.5363C51.4161 39.5604 51.2601 39.5782 51.1054 39.5912L52.3848 40.1736C52.7595 40.059 53.0979 39.895 53.4368 39.7209C53.5013 39.6876 53.7561 39.5203 54.0063 39.3776C54.2566 39.2354 54.5026 39.118 54.5506 39.2011C54.4396 39.0089 54.2826 38.8255 54.1116 38.6761C53.9393 38.5264 53.7471 38.4092 53.55 38.3431C53.0947 38.1902 52.6296 38.1391 52.1647 38.1557C51.3383 38.1815 50.5048 38.4079 49.7358 38.6963C49.6858 38.7153 49.6296 38.7361 49.5732 38.7596C49.6744 38.5378 49.7641 38.3111 49.8601 38.0871L50.1436 37.4133C50.3274 37.6519 50.6779 37.7942 51.0426 37.8703C51.4085 37.9472 51.7859 37.9559 52.0196 37.9395C52.4306 37.9121 52.8305 37.8066 53.2167 37.6517C53.6006 37.4965 53.9818 37.2946 54.3175 37.0671C54.3757 37.0285 54.6019 36.841 54.8251 36.6785C55.0483 36.5164 55.2687 36.3797 55.3219 36.4589C55.0727 36.0929 54.6928 35.7872 54.3093 35.6873C53.8655 35.5718 53.4174 35.5576 52.971 35.6107C52.5799 35.6566 52.189 35.7534 51.8059 35.882C51.4234 36.0109 51.049 36.1717 50.6725 36.3415C50.6233 36.3638 50.5713 36.3894 50.5183 36.4172L50.6775 35.9898L50.82 35.5564L51.0615 34.8191C51.2519 35.0401 51.5969 35.1512 51.9489 35.1949C52.3012 35.2392 52.6604 35.2153 52.8852 35.1799C53.317 35.111 53.7187 34.9463 54.1008 34.7277C54.4076 34.5516 54.6945 34.3385 54.9672 34.1135C55.0215 34.071 55.211 33.8646 55.4016 33.6839C55.5886 33.5027 55.7735 33.347 55.831 33.4208C55.566 33.0794 55.1928 32.8097 54.8333 32.7446C54.4175 32.6686 54.0063 32.6935 53.5991 32.7847C53.2429 32.8646 52.8912 32.9957 52.5424 33.1567C52.1989 33.3192 51.8411 33.507 51.5025 33.7102C51.4576 33.7367 51.4102 33.7666 51.3618 33.799L51.5593 33.096L51.7304 32.386ZM52.9596 26.5152C53.1883 26.4603 53.4099 26.3772 53.6208 26.2709C53.7257 26.2155 53.8281 26.1544 53.9264 26.0856C54.0238 26.0138 54.1182 25.9381 54.205 25.8491C54.2907 25.7596 54.3745 25.6621 54.4455 25.5539C54.5133 25.4418 54.5751 25.3219 54.6246 25.1872C54.5774 25.3251 54.5212 25.4541 54.4571 25.5745C54.3904 25.6947 54.3129 25.8061 54.2308 25.9094C54.0645 26.1142 53.8729 26.2916 53.6672 26.4435C53.4613 26.597 53.2403 26.7267 53.0076 26.8407C52.8912 26.8985 52.7719 26.9501 52.6502 26.9976L52.6398 27.0013L52.674 26.5734C52.7696 26.5571 52.8651 26.5384 52.9596 26.5152ZM52.6273 23.1245L52.6793 22.2215C52.6889 21.9201 52.6938 21.6186 52.6945 21.3171L52.6922 20.865L52.6821 20.4124L52.7041 20.8646L52.7242 21.3164L52.7565 22.2214L52.7731 23.1274L52.7823 23.508L52.7828 23.5211L52.955 23.5262L52.6021 23.5158L52.6058 23.4607L52.6273 23.1245ZM52.193 23.5039L52.0046 23.4983L52.0003 23.4981L52.193 23.5039ZM52.2835 24.0432C52.2054 23.9723 52.1316 23.899 52.0601 23.8221C51.9867 23.7453 51.9173 23.6651 51.8525 23.5809C51.83 23.5519 51.8082 23.5223 51.7874 23.4918L51.7861 23.4917C51.6857 23.3486 51.6 23.193 51.531 23.0237C51.4471 22.8168 51.3985 22.5852 51.3838 22.3245C51.3929 22.452 51.4145 22.567 51.4427 22.6761C51.4733 22.7817 51.512 22.8788 51.5586 22.97C51.605 23.0605 51.6596 23.14 51.7178 23.2171C51.7771 23.2916 51.8415 23.3596 51.9093 23.4235C51.9379 23.4494 51.9674 23.474 51.9972 23.4981L51.9988 23.4981C52.1115 23.5895 52.2335 23.6689 52.3614 23.7335C52.4285 23.7671 52.4971 23.7979 52.5663 23.8257L52.536 24.2513C52.5336 24.2491 52.5311 24.2474 52.5288 24.2458C52.4436 24.1813 52.3617 24.1144 52.2835 24.0432ZM51.954 26.7284C51.7472 26.5709 51.5534 26.405 51.3788 26.2242C51.2041 26.0449 51.0477 25.8492 50.9203 25.6368C50.8571 25.5298 50.8031 25.4176 50.7552 25.2993C50.7046 25.1808 50.6626 25.0565 50.6305 24.926C50.6652 25.0539 50.7138 25.1707 50.7689 25.2823C50.8259 25.3906 50.8867 25.4909 50.9566 25.586C51.0261 25.6804 51.1054 25.765 51.1885 25.8474C51.2729 25.9273 51.3627 26.0016 51.4557 26.0719C51.6437 26.2086 51.8463 26.329 52.0608 26.4261C52.1494 26.4669 52.2396 26.5037 52.3305 26.5388L52.2849 26.962L52.2756 26.9562C52.1648 26.8832 52.0575 26.8079 51.954 26.7284ZM51.8773 31.7761C52.0068 31.7795 52.1366 31.7807 52.2665 31.7772C52.5805 31.7699 52.8863 31.7321 53.1887 31.6697C53.3392 31.6361 53.4883 31.5964 53.6348 31.5481C53.7803 31.4969 53.9247 31.4411 54.0635 31.3708C54.2019 31.2999 54.3373 31.2201 54.4664 31.1284C54.5941 31.0326 54.7142 30.9272 54.8244 30.8048C54.611 31.0574 54.3579 31.2655 54.0875 31.4362C53.8156 31.6051 53.5263 31.7425 53.2256 31.8516C52.9264 31.9626 52.6029 32.0441 52.2815 32.1099C52.1194 32.1434 51.956 32.1702 51.7907 32.1926L51.7767 32.194L51.8773 31.7761ZM36.2847 52.2029L36.2858 52.1933C36.3039 52.0723 36.3219 51.9527 36.3399 51.8341C36.3791 51.5889 36.4228 51.3349 36.4766 51.0719C36.5291 50.8102 36.5931 50.5391 36.6676 50.2605C36.7402 49.974 36.8263 49.6733 36.9352 49.3773C36.8841 49.5262 36.8435 49.6748 36.8059 49.8208C36.7718 49.966 36.7447 50.1117 36.7204 50.2527C36.6953 50.3904 36.6774 50.5221 36.6607 50.6528C36.6464 50.7828 36.6363 50.91 36.6288 51.0346C36.6177 51.2826 36.6179 51.5205 36.6381 51.7474C36.646 51.8414 36.6569 51.9333 36.669 52.0238C36.5407 52.083 36.4155 52.1496 36.2847 52.2029ZM37.5407 52.9818C37.648 53.0537 37.7614 53.1242 37.8829 53.1918C38.0067 53.2573 38.1363 53.3242 38.277 53.3817C38.4161 53.4353 38.5645 53.4872 38.7215 53.5303C38.8817 53.5705 39.0501 53.6074 39.2311 53.6322C38.8646 53.5879 38.5331 53.5185 38.2292 53.4222C37.9229 53.3186 37.6461 53.2034 37.3963 53.0806C37.1449 52.9576 36.9189 52.8278 36.7102 52.6959C36.6049 52.6299 36.5069 52.5643 36.41 52.4907L36.4023 52.4845C36.5369 52.4344 36.6661 52.371 36.7983 52.3148C36.8573 52.3838 36.919 52.4525 36.9851 52.5196C37.144 52.683 37.33 52.8357 37.5407 52.9818ZM40.1856 51.7881C40.3147 51.8639 40.4486 51.9363 40.5868 51.9996C40.7272 52.0618 40.8733 52.122 41.0294 52.1725C41.1857 52.2224 41.3492 52.2673 41.5221 52.303C41.6964 52.3347 41.8771 52.3596 42.0677 52.3693C41.6845 52.3585 41.3236 52.3046 40.991 52.2262C40.7183 52.1603 40.4612 52.0797 40.2133 51.9787C40.1626 51.9577 40.1114 51.9366 40.0603 51.9155C39.7703 51.7914 39.5024 51.6536 39.2511 51.5091C39.1251 51.4368 39.0048 51.3617 38.8877 51.2841C38.8846 51.2821 38.8814 51.2795 38.8778 51.2776L39.2489 51.0564C39.3273 51.1347 39.4091 51.2115 39.4944 51.2866C39.6572 51.4298 39.8351 51.5633 40.0274 51.6885C40.079 51.7225 40.1321 51.7557 40.1856 51.7881ZM40.7244 49.5354L40.7206 49.5227C40.6796 49.3701 40.6403 49.2165 40.6046 49.0611C40.532 48.7516 40.4642 48.4374 40.4075 48.1182C40.3779 47.9579 40.3542 47.8002 40.3286 47.6344C40.303 47.4684 40.2807 47.3012 40.2616 47.133C40.2271 46.7988 40.2116 46.4605 40.2256 46.1279C40.2221 46.2944 40.2322 46.4619 40.2459 46.6281C40.2637 46.7938 40.2885 46.9585 40.3173 47.121C40.3467 47.2835 40.3864 47.4443 40.4256 47.6024C40.4672 47.7593 40.5154 47.9169 40.561 48.0653C40.6582 48.3639 40.7664 48.654 40.893 48.932C40.945 49.0473 40.9999 49.1602 41.0556 49.2718L40.7244 49.5354ZM42.4374 50.3539C42.5847 50.4274 42.7316 50.4912 42.887 50.5514C43.0432 50.608 43.2045 50.6631 43.3729 50.7047C43.5415 50.7455 43.7165 50.7797 43.898 50.8032C44.0808 50.8221 44.2698 50.8342 44.4649 50.8281C44.0727 50.8485 43.6975 50.8232 43.3445 50.7658C43.1674 50.7354 42.9952 50.6983 42.8281 50.6555C42.6609 50.6127 42.4929 50.5579 42.3336 50.5018C42.012 50.389 41.7104 50.2578 41.4225 50.1156C41.2779 50.0451 41.1382 49.9699 41.0018 49.8916L40.9905 49.8847L41.3333 49.6226C41.4299 49.7025 41.5286 49.7811 41.6312 49.857C41.8783 50.041 42.1476 50.2056 42.4374 50.3539ZM42.7592 47.7546C42.7577 47.75 42.7554 47.7453 42.7535 47.7412C42.6851 47.5837 42.6187 47.4257 42.5555 47.2661C42.429 46.9475 42.3083 46.6248 42.1993 46.2981C42.1797 46.2399 42.1603 46.1819 42.141 46.1245C42.0493 45.8485 41.9685 45.5693 41.898 45.2888C41.8158 44.949 41.7548 44.606 41.7277 44.2684C41.7451 44.4374 41.7773 44.6068 41.8137 44.7749C41.8542 44.9429 41.903 45.1091 41.9558 45.2736C42.0093 45.4379 42.0722 45.5995 42.1363 45.759C42.2028 45.9179 42.2742 46.0746 42.3477 46.2288C42.3801 46.2932 42.4128 46.358 42.4458 46.4229C42.5699 46.6633 42.697 46.8919 42.8367 47.1145C42.9101 47.2309 42.9852 47.3457 43.0621 47.4584L42.7592 47.7546ZM44.6683 48.4885C44.8283 48.5506 44.9924 48.6081 45.1613 48.6581C45.3306 48.7054 45.5044 48.7488 45.684 48.7789C45.8637 48.8081 46.0478 48.83 46.2374 48.8391C46.4273 48.8437 46.6217 48.8404 46.819 48.8172C46.424 48.8721 46.0365 48.8768 45.6648 48.8456C45.3583 48.8172 45.0608 48.7686 44.773 48.702C44.7132 48.6873 44.6529 48.6726 44.5927 48.6578C44.2427 48.5637 43.9079 48.448 43.5848 48.3184C43.423 48.2537 43.2651 48.1841 43.1095 48.1108C43.1053 48.1088 43.1008 48.1063 43.0962 48.1045L43.4094 47.8067C43.5226 47.8844 43.6387 47.9596 43.7574 48.0323C43.984 48.1703 44.2237 48.2959 44.4681 48.4033C44.534 48.433 44.601 48.4612 44.6683 48.4885ZM44.4501 45.9368L44.4421 45.9238C44.3511 45.7671 44.2626 45.6097 44.1777 45.4504C44.007 45.1332 43.8429 44.8124 43.6923 44.4871C43.5397 44.162 43.3952 43.8244 43.2727 43.4879C43.1519 43.1508 43.0549 42.8094 42.9957 42.4723C43.0292 42.6407 43.079 42.809 43.1332 42.9759C43.1919 43.1421 43.2591 43.3069 43.331 43.4693C43.4036 43.6318 43.4862 43.7907 43.5698 43.9482C43.6561 44.1048 43.7472 44.2589 43.8409 44.4107C44.0338 44.7137 44.2298 45.0001 44.4483 45.2767C44.5378 45.391 44.6299 45.5028 44.7229 45.6131L44.4501 45.9368ZM45.5097 46.1514C45.8244 46.3096 46.1618 46.4476 46.5002 46.5543C46.6712 46.6062 46.8455 46.6527 47.0232 46.6911C47.2015 46.7263 47.3826 46.7577 47.568 46.7745C47.7531 46.7905 47.9422 46.7979 48.1335 46.7924C48.325 46.782 48.5196 46.7629 48.7141 46.7231C48.3259 46.8115 47.937 46.8475 47.5579 46.8443C47.1772 46.8377 46.8107 46.8025 46.4438 46.7317C46.0756 46.6621 45.7193 46.5677 45.3716 46.4578C45.1971 46.4035 45.0261 46.3432 44.8566 46.2786L44.8425 46.2729L45.1238 45.9457C45.2503 46.0166 45.3785 46.0859 45.5097 46.1514ZM45.4661 42.4897L45.4558 42.4829C45.6386 42.7069 45.8252 42.9209 46.0242 43.1269C46.1285 43.2346 46.2345 43.3405 46.3421 43.4439L46.0991 43.7915L46.0898 43.7786C45.9789 43.6275 45.8705 43.4757 45.7657 43.3222C45.5562 43.0158 45.3542 42.7056 45.1668 42.3909C45.1339 42.3353 45.101 42.2797 45.0686 42.2249C44.9131 41.9606 44.7702 41.6921 44.6408 41.4219C44.4874 41.0942 44.3598 40.7617 44.2735 40.4307C44.3206 40.5957 44.3851 40.7595 44.4545 40.9217C44.5282 41.0832 44.6115 41.242 44.6996 41.3988C44.7884 41.5553 44.8874 41.7083 44.9882 41.8591C45.0913 42.0091 45.1996 42.1564 45.3105 42.3013C45.3587 42.3613 45.4071 42.4219 45.4558 42.4828L46.7411 43.3387L45.4661 42.4897ZM47.4389 41.6985L47.4281 41.6867C47.3027 41.5434 47.18 41.3994 47.0614 41.253C46.8236 40.9619 46.594 40.6669 46.3809 40.3662C46.1686 40.0677 45.9655 39.757 45.7854 39.4423C45.6081 39.1275 45.4586 38.8059 45.353 38.483C45.4099 38.6438 45.4846 38.8019 45.5647 38.9582C45.6493 39.1131 45.7436 39.2657 45.843 39.4153C45.9433 39.5648 46.0542 39.7096 46.1666 39.8529C46.2807 39.9944 46.4036 40.135 46.5235 40.2694C46.7696 40.5376 47.0286 40.7959 47.3045 41.0377C47.4182 41.1381 47.5343 41.2358 47.6513 41.3317L47.4389 41.6985ZM48.5593 41.7479C48.9117 41.8577 49.2731 41.9393 49.6416 41.996C49.8273 42.0226 50.0092 42.0406 50.1939 42.0504C50.3781 42.0567 50.5639 42.0587 50.7498 42.0451C50.9353 42.0306 51.1219 42.0068 51.3073 41.9698C51.4915 41.9274 51.6761 41.8759 51.8553 41.8035C51.4999 41.957 51.1289 42.0578 50.7557 42.1168C50.5685 42.1452 50.3811 42.1649 50.1932 42.1763C50.0048 42.1872 49.8106 42.1874 49.6208 42.1818C49.2392 42.1715 48.8611 42.1336 48.4863 42.0782C48.2985 42.0511 48.112 42.0174 47.9258 41.9789L47.9102 41.9753L48.1265 41.6024C48.2692 41.6538 48.4132 41.7029 48.5593 41.7479ZM49.7202 37.0324L49.7081 37.0225C49.5662 36.9017 49.4276 36.7797 49.2929 36.6547C49.0236 36.4065 48.7639 36.1533 48.5224 35.8918C48.2805 35.6318 48.0551 35.3614 47.8589 35.0849C47.6651 34.8075 47.4876 34.5137 47.3636 34.2142C47.4304 34.3629 47.5151 34.5063 47.6058 34.6467C47.7 34.7849 47.8075 34.9205 47.9144 35.0498C48.0224 35.179 48.1409 35.3019 48.263 35.4237C48.3871 35.5438 48.5168 35.6601 48.6493 35.7734C48.918 35.9974 49.2004 36.2096 49.498 36.4028C49.621 36.4833 49.746 36.5605 49.8718 36.6361L49.7202 37.0324ZM50.7999 36.8979C51.1516 36.9485 51.5062 36.9696 51.861 36.9648C52.0384 36.96 52.216 36.9493 52.3929 36.9295C52.5696 36.9067 52.745 36.8788 52.9183 36.8357C53.0913 36.792 53.2563 36.7367 53.4207 36.6698C53.5823 36.5976 53.7419 36.5162 53.892 36.4151C53.5943 36.6248 53.2776 36.7874 52.9342 36.9051C52.5904 37.0206 52.2322 37.1008 51.8727 37.1518C51.5125 37.2045 51.1487 37.2293 50.7823 37.2361C50.599 37.2401 50.4152 37.2373 50.2307 37.2297L50.2151 37.2286L50.3656 36.8253C50.5097 36.8525 50.6543 36.8775 50.7999 36.8979ZM49.7387 33.4508L49.7276 33.4476C49.9409 33.5997 50.163 33.7432 50.3944 33.8745C50.5157 33.9431 50.6385 34.0094 50.7625 34.073C50.7212 34.2084 50.684 34.3453 50.6391 34.4797C50.6355 34.4764 50.6311 34.4734 50.6272 34.4706C50.4882 34.364 50.3472 34.2544 50.2124 34.1426C49.9422 33.9196 49.6826 33.6904 49.4411 33.4523C49.3997 33.4105 49.3582 33.3687 49.3174 33.3275C49.1223 33.1284 48.9442 32.9219 48.7824 32.7092C48.6861 32.5797 48.5977 32.4469 48.5186 32.311C48.4352 32.1736 48.3615 32.0331 48.299 31.8893C48.3651 32.0313 48.4486 32.1663 48.5383 32.2982C48.6293 32.4272 48.7282 32.5496 48.8341 32.669C48.9406 32.788 49.0577 32.9002 49.1773 33.0099C49.299 33.118 49.4266 33.2221 49.557 33.323C49.613 33.365 49.6699 33.4068 49.7276 33.4475L51.0895 33.8461L49.7387 33.4508ZM52.6637 34.2256C52.8295 34.2053 52.9949 34.1789 53.1583 34.1436C53.3209 34.1057 53.4832 34.0622 53.6411 34.0043C53.7982 33.9455 53.9546 33.8786 54.1032 33.7974C54.2471 33.7116 54.388 33.6168 54.5178 33.5035C54.3903 33.6207 54.2549 33.7263 54.1138 33.8212C53.9684 33.9151 53.8166 33.9984 53.6613 34.0721C53.4037 34.1912 53.1368 34.2883 52.8622 34.3648C52.8044 34.3813 52.7462 34.3963 52.6883 34.4108C52.3533 34.4941 52.0109 34.5511 51.664 34.5897C51.49 34.6092 51.3172 34.623 51.1378 34.6306C51.1329 34.6309 51.1275 34.6311 51.1226 34.6315C51.1664 34.4947 51.2023 34.3556 51.2426 34.2178C51.3806 34.2328 51.5194 34.2444 51.6583 34.2525C51.9233 34.2676 52.1881 34.2644 52.4514 34.2447C52.5224 34.2399 52.5934 34.2332 52.6637 34.2256ZM51.3188 32.0823L51.3071 32.0746C51.1711 31.9794 51.0384 31.8827 50.9099 31.7823C50.6514 31.583 50.4102 31.3788 50.1772 31.1605C49.9448 30.9439 49.7326 30.7146 49.5463 30.4733C49.3623 30.231 49.207 29.9723 49.1039 29.6983C49.1601 29.8334 49.2317 29.9601 49.3132 30.0835C49.3981 30.2042 49.4926 30.319 49.5931 30.4295C49.694 30.5396 49.8055 30.6415 49.9192 30.7417C50.035 30.8397 50.1565 30.933 50.281 31.023C50.5323 31.1993 50.8 31.3624 51.0774 31.5034C51.1918 31.562 51.308 31.6174 51.425 31.671L51.3188 32.0823Z" fill="#273057"/>
<path d="M52.5451 18.289C52.5438 18.2733 52.543 18.2644 52.543 18.2644C52.543 18.2644 52.5438 18.2733 52.5451 18.289Z" fill="#273057"/>
<path d="M51.9968 23.4985L51.9775 23.498L51.9968 23.4985Z" fill="#273057"/>
<path d="M22.655 53.1007C22.7948 52.931 22.8701 52.7418 22.7816 52.5532L22.9342 52.6091C22.9354 52.6031 22.9354 52.5972 22.9369 52.5911C22.9595 52.5008 23.0036 52.4194 23.0469 52.3378L22.8939 52.276C23.0885 52.1964 23.1593 52.0055 23.1793 51.7897C23.1986 51.5743 23.1682 51.3338 23.1383 51.1752C23.0863 50.8964 22.995 50.5829 22.8865 50.265C22.8275 50.1 22.7701 49.9394 22.714 49.7827C22.6847 49.7008 22.6541 49.6212 22.6256 49.5368C22.5976 49.4499 22.5697 49.3642 22.5423 49.2795C22.5229 49.2217 22.4266 48.9821 22.3591 48.7511C22.2906 48.5204 22.2502 48.2984 22.307 48.2852C22.242 48.2998 22.1757 48.3245 22.1114 48.355C22.0478 48.3838 21.9858 48.4204 21.9271 48.4638C21.8098 48.5507 21.7065 48.6648 21.6365 48.799C21.4755 49.1081 21.3807 49.4645 21.363 49.8245C21.347 50.1391 21.3858 50.4639 21.4719 50.7858C21.5591 51.1054 21.6868 51.4356 21.8641 51.7188C21.8867 51.757 21.9129 51.7976 21.9418 51.8392C21.8074 51.7735 21.67 51.7137 21.5381 51.643L21.1451 51.4257C20.9234 51.3007 20.6971 51.1839 20.4792 51.0523C20.6986 50.9732 20.8274 50.7378 20.9027 50.484C20.98 50.2253 21.0118 49.9362 21.0219 49.7466C21.0396 49.3814 21.0047 48.9918 20.9502 48.5996L20.9482 48.6027L20.3893 49.4749C20.389 49.5264 20.3887 49.5786 20.3883 49.6307C20.3837 49.9299 20.3694 50.2236 20.3509 50.5105C20.3417 50.6542 20.3297 50.796 20.3161 50.9368C20.3157 50.9407 20.315 50.9447 20.315 50.9488L19.9564 50.7226C19.9918 50.618 20.0252 50.5115 20.0565 50.4034C20.116 50.1968 20.1639 49.9835 20.2036 49.7648L20.1986 49.7726L19.5871 50.7269L20.2036 49.7648C20.214 49.7051 20.2241 49.6461 20.2344 49.5871C20.2548 49.4464 20.2736 49.3023 20.2906 49.1514C20.3047 49.0014 20.3176 48.8487 20.3224 48.6931C20.3265 48.5376 20.3275 48.3797 20.3214 48.2196C20.3116 48.0602 20.2976 47.9001 20.2721 47.7402C20.3308 48.058 20.3617 48.3838 20.3766 48.7037C20.3862 48.9687 20.389 49.2296 20.3893 49.4749L20.9502 48.5997C20.9386 48.5197 20.927 48.4406 20.9155 48.3624C20.9043 48.2791 20.8933 48.1966 20.8825 48.1152C20.859 47.9472 20.8361 47.7829 20.8136 47.6218C20.8055 47.5581 20.7482 47.3036 20.7184 47.0605C20.6856 46.8213 20.6904 46.5731 20.7527 46.5613C20.4618 46.6238 20.1335 46.8244 19.9308 47.1112C19.6981 47.4412 19.5319 47.8158 19.4356 48.2126C19.3939 48.3854 19.3631 48.566 19.3487 48.7433C19.3351 48.9194 19.3342 49.0978 19.3453 49.277C19.3676 49.6352 19.4365 49.9983 19.5425 50.3503C19.5558 50.3972 19.5729 50.4461 19.5937 50.4945C19.3946 50.3615 19.2022 50.2181 19.0061 50.0806L18.7132 49.8726L18.5667 49.7686L18.4256 49.6572C18.6709 49.5799 18.8468 49.3336 18.9778 49.0546C19.1081 48.7759 19.195 48.4643 19.24 48.2607C19.3183 47.9047 19.3476 47.5352 19.3588 47.1608C19.3622 46.9657 19.3653 46.7759 19.3685 46.5904C19.3714 46.3963 19.3696 46.2059 19.3683 46.0175C19.3676 45.9531 19.3445 45.6882 19.3473 45.4371C19.3475 45.313 19.3562 45.1881 19.3749 45.0917C19.3928 44.9963 19.4185 44.9317 19.4535 44.9252C19.1288 44.9875 18.7497 45.1851 18.4957 45.4714C18.2028 45.8027 17.9762 46.1806 17.8174 46.5877C17.7477 46.7655 17.6893 46.9505 17.6449 47.1374C17.6029 47.3212 17.5734 47.5087 17.5558 47.6982C17.5204 48.0771 17.5327 48.4638 17.5811 48.8463C17.5875 48.8964 17.5956 48.9509 17.607 49.006L16.9347 48.4118C16.8399 48.3271 16.743 48.2446 16.6501 48.1578L16.3775 47.8908C16.6478 47.8237 16.8753 47.5739 17.0596 47.2892C17.2433 47.0046 17.3849 46.6851 17.4639 46.477C17.6166 46.0732 17.7042 45.6552 17.777 45.2241C17.8375 44.8743 17.8795 44.5247 17.9192 44.1845C17.9271 44.1184 17.9334 43.8522 17.9684 43.5964C18.0038 43.3382 18.0614 43.0972 18.1389 43.0863C17.7821 43.1364 17.3579 43.3147 17.0562 43.5897C16.708 43.9077 16.4244 44.276 16.2055 44.6794C16.1098 44.8557 16.0262 45.0387 15.9545 45.2267C15.8822 45.4155 15.8219 45.6088 15.778 45.8005C15.6873 46.187 15.6427 46.5862 15.6351 46.9846C15.6337 47.037 15.6344 47.0934 15.6369 47.1519L15.1484 46.6249L14.9047 46.3609L14.6732 46.0859C14.9605 46.0351 15.2289 45.7932 15.4559 45.5136C15.6823 45.2337 15.8685 44.9167 15.9751 44.7098C16.161 44.3483 16.2962 43.9677 16.4053 43.5848C16.5171 43.1986 16.6076 42.8042 16.6876 42.4262C16.7014 42.3612 16.734 42.0927 16.7888 41.8422C16.8438 41.5901 16.9246 41.3511 17.0065 41.3456C16.6272 41.3754 16.1711 41.527 15.8345 41.7825C15.4462 42.0785 15.1202 42.4291 14.856 42.8204C14.6243 43.1625 14.4377 43.5364 14.3047 43.9192C14.1693 44.304 14.0776 44.7061 14.0219 45.1112C14.0143 45.1643 14.0081 45.2219 14.0037 45.2818L13.4572 44.5696C13.2984 44.3706 13.1563 44.1593 13.01 43.9509C13.3105 43.9213 13.6145 43.697 13.8791 43.4322C14.1434 43.1672 14.3688 42.8624 14.5 42.6626C14.7536 42.2754 14.9395 41.8651 15.0989 41.4465C15.2303 41.1069 15.3387 40.7656 15.4382 40.4347C15.4572 40.3713 15.5102 40.1072 15.5833 39.8628C15.6592 39.6151 15.755 39.3861 15.8408 39.3859C15.4444 39.3885 14.9642 39.5049 14.6012 39.7335C14.182 39.9979 13.8226 40.3215 13.5208 40.6904C13.2575 41.0124 13.0323 41.3727 12.861 41.7453C12.6869 42.1198 12.5536 42.5155 12.4545 42.9179C12.4411 42.9706 12.4287 43.0279 12.4179 43.0877L12.0318 42.4808L11.8386 42.1774C11.7747 42.076 11.7174 41.9705 11.6564 41.8673C11.9619 41.8602 12.29 41.6576 12.5807 41.4118C12.8712 41.1657 13.1248 40.8773 13.2736 40.6872C13.5329 40.3551 13.7391 39.9975 13.9129 39.6352C13.9563 39.5446 13.9977 39.4536 14.0372 39.3626C14.0786 39.2706 14.1186 39.1781 14.1563 39.0861C14.2323 38.9023 14.3023 38.7193 14.3686 38.5395C14.3913 38.4777 14.459 38.219 14.5445 37.9817C14.6288 37.7446 14.7346 37.5259 14.823 37.5313C14.4204 37.5043 13.9289 37.5844 13.5518 37.7837C13.1158 38.015 12.7369 38.3096 12.4107 38.6546C12.122 38.9576 11.8878 39.2904 11.6838 39.6522C11.4815 40.0129 11.3164 40.3983 11.1827 40.7935C11.165 40.8452 11.147 40.902 11.1317 40.9606L10.7137 40.1652C10.5956 39.9395 10.4734 39.7158 10.368 39.4835C10.6729 39.5021 11.017 39.3275 11.3261 39.107C11.635 38.8862 11.9091 38.6206 12.0706 38.444C12.3821 38.1023 12.6278 37.7254 12.8335 37.3416C12.9976 37.0338 13.1491 36.713 13.2784 36.4054C13.3037 36.3462 13.3813 36.0957 13.4744 35.8676C13.5676 35.639 13.6763 35.4326 13.7647 35.4451C13.5578 35.4178 13.3382 35.4106 13.1167 35.4338C12.8964 35.4564 12.6788 35.507 12.4883 35.5904C12.0481 35.7826 11.6614 36.0428 11.3221 36.3567C10.7373 36.9009 10.3013 37.6118 9.97858 38.3759C9.95634 38.4263 9.93723 38.4799 9.91844 38.5367C9.81817 38.3186 9.72812 38.0959 9.63257 37.8758L9.34946 37.2136C9.65156 37.254 10.0002 37.1074 10.3149 36.9132C10.6292 36.7186 10.9093 36.4776 11.0788 36.314C11.372 36.0291 11.612 35.7111 11.8157 35.3832C11.9174 35.219 12.0102 35.0524 12.0961 34.8858C12.1802 34.7198 12.2555 34.5544 12.3344 34.3875C12.3609 34.3306 12.4436 34.0879 12.5394 33.8685C12.6354 33.6485 12.7446 33.452 12.8308 33.4716C12.43 33.3832 11.9484 33.3833 11.5762 33.517C11.1457 33.6725 10.7683 33.8985 10.4341 34.1819C10.1407 34.4296 9.87926 34.7211 9.64644 35.043C9.52987 35.2039 9.42033 35.3724 9.31738 35.5467C9.21365 35.7212 9.12661 35.8976 9.03995 36.0799C9.0172 36.1276 8.99457 36.1798 8.97272 36.2347L8.81192 35.8147L8.66717 35.3888L8.42125 34.664C8.70763 34.7306 9.05113 34.6152 9.36275 34.45C9.67456 34.2844 9.95397 34.0696 10.1185 33.9237C10.4389 33.6402 10.7028 33.3088 10.9195 32.9649C11.0945 32.6879 11.2366 32.4027 11.3625 32.1233C11.3848 32.0702 11.4701 31.835 11.5615 31.6254C11.651 31.4158 11.7508 31.2303 11.8333 31.2572C11.4524 31.1338 11.0012 31.0909 10.6506 31.1919C10.245 31.3087 9.88763 31.5005 9.5663 31.7524C9.28491 31.9727 9.03235 32.2388 8.7985 32.5386C8.56096 32.8391 8.3668 33.1666 8.18473 33.5132C8.1607 33.5585 8.13641 33.6084 8.11276 33.6611L7.90774 32.9698L7.72784 32.2713C7.9914 32.3608 8.319 32.2739 8.61802 32.1345C8.91731 31.9947 9.18726 31.8034 9.34588 31.6714C9.62472 31.44 9.84667 31.1691 10.0402 30.8793C10.234 30.5892 10.3892 30.2827 10.521 29.9816C10.5448 29.9298 10.6118 29.7048 10.6852 29.5049C10.7599 29.3045 10.855 29.1257 10.9292 29.1599C10.5786 29.0052 10.1688 28.9256 9.84993 28.9979C9.48137 29.082 9.15531 29.2447 8.85762 29.4708C8.7275 29.5694 8.60275 29.6801 8.48254 29.8009C8.36392 29.9215 8.25394 30.0514 8.14632 30.1905C7.9319 30.4681 7.73283 30.7803 7.54986 31.1102C7.52563 31.1535 7.50071 31.2012 7.4763 31.2517L7.28323 30.3717C7.2245 30.1228 7.18002 29.8712 7.13528 29.6196C7.36657 29.7316 7.66496 29.6738 7.93823 29.5612C8.2117 29.4481 8.46017 29.281 8.60441 29.1633C8.88388 28.9353 9.10309 28.652 9.27622 28.3469C9.41631 28.1016 9.53716 27.8394 9.63129 27.5805C9.64919 27.531 9.706 27.311 9.76192 27.1168C9.81861 26.9223 9.88086 26.7526 9.94982 26.7924C9.62759 26.6089 9.28414 26.4934 9.01292 26.5398C8.7029 26.5928 8.42464 26.7291 8.17565 26.9287C7.74407 27.277 7.36708 27.8247 7.01686 28.451C6.99423 28.4918 6.96873 28.5374 6.94707 28.5852L6.73905 27.1556C6.93742 27.2845 7.19721 27.2499 7.43322 27.1589C7.67077 27.0673 7.87879 26.9206 8.00501 26.8138C8.4463 26.4402 8.70123 25.8713 8.83109 25.3064C8.84087 25.254 8.87839 25.0513 8.91597 24.8488C8.95099 24.6569 8.98825 24.4898 9.04685 24.5354C8.77556 24.3263 8.48771 24.1862 8.27905 24.2132C8.03709 24.2449 7.82978 24.362 7.63434 24.5451C7.46313 24.7049 7.30272 24.9145 7.14046 25.1594C6.97468 25.4046 6.83069 25.6832 6.68108 25.9817C6.66146 26.0208 6.64108 26.0641 6.62069 26.1103L6.5718 25.6616L6.54758 25.4372L6.53141 25.2121L6.47568 24.446C6.62357 24.5898 6.82794 24.5755 7.01232 24.5026C7.19753 24.4295 7.3612 24.2981 7.45303 24.2008C7.54206 24.1067 7.61811 23.996 7.68177 23.8733C7.74484 23.7506 7.80568 23.6156 7.84908 23.4729L7.84678 23.4729L7.53631 23.4821L7.84908 23.4728H7.84997C7.91963 23.2431 7.96398 22.9934 7.98028 22.7414C7.98379 22.693 7.98035 22.4751 7.97619 22.2817C7.97293 22.0882 7.97089 21.9193 8.01613 21.9695C7.80575 21.7389 7.60833 21.579 7.48166 21.5944C7.33557 21.6126 7.2174 21.7196 7.10051 21.8927C6.94586 22.1203 6.79963 22.4617 6.63321 22.8626C6.64465 22.6449 6.63986 22.3928 6.63111 22.1085C6.62344 21.8241 6.60612 21.5076 6.58426 21.1608C6.5571 20.7446 6.51997 20.3548 6.49153 20.0042C6.46296 19.6537 6.44302 19.3427 6.43708 19.0845C6.42941 18.8262 6.43484 18.6209 6.44162 18.4803C6.44667 18.3847 6.45171 18.3199 6.4544 18.2876C6.44711 18.3672 6.41823 18.6494 6.34371 19.0776C6.30076 19.3328 6.24107 19.6396 6.17742 19.9879C6.11396 20.3361 6.04653 20.726 5.99962 21.146C5.96006 21.5077 5.93597 21.8387 5.92805 22.135C5.92153 22.4314 5.93527 22.6928 5.95559 22.9158C5.86069 22.7059 5.77166 22.5086 5.68628 22.3329C5.6009 22.1572 5.52676 22.003 5.44854 21.8792C5.33402 21.6976 5.22032 21.5814 5.07468 21.5575C4.94871 21.5372 4.74523 21.6995 4.53164 21.9467C4.57817 21.8932 4.57165 22.0758 4.57127 22.285C4.57453 22.4943 4.57957 22.73 4.58501 22.7822C4.61108 23.0543 4.66508 23.3221 4.74343 23.5643H4.74433L5.38201 23.5456C5.27631 23.4025 5.1846 23.2434 5.10919 23.0674C5.01754 22.8523 4.95983 22.6071 4.93516 22.3298C4.94916 22.4654 4.9751 22.5873 5.0077 22.7023C5.04227 22.8137 5.08471 22.9153 5.13468 23.0097C5.18441 23.1033 5.24224 23.1847 5.30328 23.2625C5.36539 23.3375 5.43231 23.4051 5.50254 23.4675C5.53207 23.4926 5.56243 23.5163 5.5931 23.5393H5.5947C5.71069 23.6268 5.83551 23.7001 5.96575 23.7565C6.03401 23.786 6.10354 23.8121 6.17384 23.8349L6.18918 24.2638C6.18662 24.2619 6.18387 24.2604 6.18132 24.259C6.08922 24.2024 6.00026 24.1423 5.91456 24.0768C5.82905 24.0115 5.74571 23.9426 5.66794 23.8691C5.59195 23.7956 5.51948 23.7175 5.45161 23.6343C5.42802 23.6055 5.40502 23.5762 5.38297 23.5456L4.74657 23.5643L4.74427 23.5644C4.84134 23.8654 4.99786 24.1255 5.19712 24.3059C5.2997 24.3994 5.47749 24.5193 5.66979 24.5741C5.86132 24.629 6.06596 24.6193 6.19691 24.4603L6.22759 25.2331L6.23673 25.4603L6.25398 25.6868L6.28958 26.1401C6.26094 26.0982 6.23283 26.0588 6.20611 26.0234C6.00512 25.7525 5.801 25.4939 5.61732 25.2644C5.42854 25.0353 5.24518 24.8362 5.05665 24.687C4.84128 24.5159 4.62156 24.41 4.37724 24.3997C4.16653 24.3909 3.89678 24.5726 3.65239 24.8417C3.70505 24.7833 3.76205 24.9669 3.81957 25.177C3.87882 25.387 3.93921 25.623 3.96036 25.6747C4.19996 26.2806 4.56142 26.8501 5.06509 27.141C5.20748 27.2247 5.45467 27.3269 5.70705 27.3628C5.95974 27.399 6.22024 27.3691 6.37905 27.1974L6.55211 28.6451C6.51645 28.6077 6.48137 28.5706 6.44813 28.5355C5.94862 28.0282 5.43857 27.5666 4.92634 27.3011C4.63236 27.15 4.34183 27.063 4.02529 27.0745C3.88878 27.0792 3.74077 27.1331 3.59321 27.2222C3.44468 27.3115 3.29789 27.4361 3.17103 27.5814C3.22644 27.5185 3.33463 27.6974 3.44379 27.9021C3.55243 28.1072 3.66843 28.3371 3.69942 28.3872C3.78167 28.5181 3.86872 28.6469 3.96107 28.7705C4.05245 28.8944 4.15152 29.0127 4.26368 29.1221L5.29452 28.9626C5.07985 28.8451 4.88742 28.7074 4.70682 28.5504C4.48991 28.3573 4.29473 28.1297 4.13726 27.862C4.21753 27.9926 4.31263 28.1065 4.41118 28.2126C4.51241 28.3149 4.62073 28.405 4.73321 28.487C4.84607 28.5684 4.96558 28.6366 5.08714 28.6996C5.20946 28.76 5.33606 28.8121 5.46803 28.8578C5.5237 28.8762 5.57987 28.8939 5.63643 28.9098L7.90353 28.5592C7.95222 28.5284 7.99977 28.4962 8.04681 28.4639C8.15558 28.3854 8.26538 28.3026 8.3684 28.2149C8.46976 28.1254 8.56824 28.0328 8.65701 27.9316C8.74533 27.83 8.82784 27.7238 8.9005 27.6101C8.96971 27.4938 9.03401 27.3729 9.07983 27.2423C8.99279 27.5081 8.85979 27.7534 8.69823 27.9799C8.56332 28.1651 8.40694 28.3418 8.24499 28.5063C8.21112 28.5414 8.1761 28.5757 8.14069 28.6095C7.93631 28.8054 7.71257 28.9891 7.47675 29.1648C7.35864 29.253 7.2367 29.3379 7.11132 29.4206C7.10786 29.4228 7.10397 29.4251 7.10064 29.4277L7.02433 29.0088C7.13004 28.9662 7.23498 28.9208 7.33819 28.8725C7.53528 28.7804 7.72401 28.675 7.90353 28.5591L7.89452 28.5611L5.6457 28.9088L5.63656 28.9103C5.84612 28.9709 6.06046 29.0158 6.27775 29.0431C6.3917 29.0573 6.50604 29.0678 6.62031 29.0751L6.6876 29.4998C6.68364 29.4984 6.67929 29.4976 6.67533 29.4965C6.52949 29.46 6.38614 29.4193 6.2451 29.3725C5.96313 29.2796 5.68986 29.1694 5.42918 29.0353C5.38412 29.0121 5.33919 28.9881 5.29465 28.9631L4.26732 29.122L4.2638 29.1225C4.53528 29.3956 4.8409 29.6197 5.18236 29.7561C5.35869 29.8267 5.64934 29.9078 5.94434 29.921C6.23909 29.9346 6.53818 29.8812 6.7186 29.6942C6.7586 29.9494 6.79823 30.2047 6.85229 30.4572L7.0306 31.3506C6.98797 31.3145 6.94611 31.2809 6.90649 31.2509C6.6065 31.0215 6.29661 30.8047 5.98486 30.6176C5.8295 30.524 5.67113 30.4382 5.51583 30.362C5.36207 30.2853 5.20703 30.2187 5.05096 30.1649C4.69378 30.0411 4.33033 29.984 3.95468 30.0264C3.62983 30.0633 3.27405 30.3014 3.00391 30.619C3.06392 30.5498 3.20733 30.7195 3.36441 30.9131C3.52016 31.1072 3.68019 31.3263 3.72473 31.3729C3.97691 31.6472 4.25102 31.9082 4.55069 32.1235C4.85329 32.3383 5.19629 32.5039 5.55239 32.5972C5.75735 32.6507 6.08814 32.7037 6.41854 32.6883C6.74863 32.6734 7.07744 32.5912 7.26757 32.3864L7.43891 33.0962L7.63639 33.7992C7.58801 33.7668 7.54059 33.7369 7.49573 33.7104C7.1572 33.5072 6.79931 33.3193 6.45587 33.1569C6.10706 32.9959 5.75536 32.8647 5.39901 32.7849C4.99204 32.6937 4.58066 32.6688 4.16493 32.7447C3.80545 32.8099 3.43216 33.0796 3.16732 33.421C3.22458 33.3473 3.40966 33.5029 3.59653 33.6841C3.78711 33.8647 3.97685 34.0712 4.03098 34.1137C4.30368 34.3387 4.59057 34.5518 4.89733 34.7279C5.2795 34.9465 5.68117 35.1112 6.113 35.18C6.33783 35.2155 6.69687 35.2394 7.0492 35.1951C7.40121 35.1514 7.74618 35.0403 7.93669 34.8193L8.1782 35.5566L8.32066 35.99L8.47985 36.4174C8.42687 36.3896 8.37472 36.364 8.32564 36.3417C7.94909 36.1718 7.57472 36.0111 7.19222 35.8821C6.80922 35.7537 6.41822 35.6568 6.0271 35.6109C5.58064 35.5577 5.13258 35.572 4.68873 35.6875C4.30522 35.7874 3.92547 36.093 3.67623 36.4591C3.7294 36.3799 3.94975 36.5166 4.17305 36.6787C4.39622 36.8412 4.62252 37.0287 4.68074 37.0673C5.01639 37.2948 5.39741 37.4966 5.78157 37.6518C6.16764 37.8068 6.56758 37.9123 6.97851 37.9397C7.21235 37.9561 7.58961 37.9474 7.95555 37.8705C8.32034 37.7944 8.67075 37.6521 8.85449 37.4135L9.13798 38.0873C9.23391 38.3113 9.32377 38.538 9.42487 38.7598C9.36857 38.7362 9.31226 38.7155 9.26229 38.6965C8.49321 38.408 7.65984 38.1817 6.83344 38.1559C6.3685 38.1393 5.90331 38.1904 5.44803 38.3433C5.25113 38.4094 5.05883 38.5266 4.88646 38.6763C4.71545 38.8257 4.55848 39.0091 4.44754 39.2012C4.49547 39.1183 4.74139 39.2356 4.99179 39.3778C5.24212 39.5205 5.49679 39.6878 5.56127 39.7211C5.90012 39.8952 6.2387 40.0592 6.61327 40.1737L7.8926 39.5914C7.73807 39.5783 7.58194 39.5606 7.42926 39.5364C7.27837 39.5115 7.12876 39.4809 6.98043 39.4445C6.62184 39.3527 6.27117 39.22 5.9423 39.036C6.10853 39.1237 6.28249 39.1913 6.45753 39.2494C6.63411 39.303 6.81325 39.3423 6.99277 39.3727C7.1726 39.4024 7.35442 39.4169 7.53509 39.4259C7.71506 39.4326 7.90155 39.4277 8.08426 39.4179C8.16172 39.4126 8.23937 39.4063 8.31695 39.3983L11.1301 38.1176C11.1867 38.0657 11.2429 38.0141 11.2989 37.9629C11.4282 37.8386 11.5537 37.7121 11.6777 37.5802C11.7983 37.4478 11.9169 37.3129 12.0249 37.173C12.132 37.0329 12.2339 36.89 12.3254 36.7429C12.4128 36.5947 12.4945 36.4441 12.5579 36.2894C12.439 36.6007 12.2746 36.9072 12.0812 37.2051C11.9179 37.4507 11.7402 37.692 11.554 37.9248C11.5147 37.9732 11.4749 38.0223 11.4351 38.0714C11.2029 38.3522 10.9536 38.6268 10.6952 38.8967C10.5658 39.0321 10.4327 39.1651 10.2966 39.2972L10.285 39.3086L10.1029 38.9251C10.2265 38.8398 10.3489 38.752 10.4695 38.662C10.6996 38.4901 10.9194 38.3077 11.1301 38.1178L11.1188 38.123L8.3282 39.3933L8.31695 39.3985C8.60422 39.3705 8.88925 39.3259 9.17103 39.2636C9.31866 39.2307 9.46532 39.1942 9.61065 39.1546L9.79426 39.5449C9.78909 39.5455 9.78346 39.5462 9.77829 39.5467C9.59033 39.5693 9.40282 39.5873 9.21499 39.5989C8.83953 39.6225 8.46343 39.6276 8.08809 39.6056C8.0231 39.6018 7.95791 39.5974 7.89266 39.5916L6.61775 40.172L6.61334 40.1739C7.06971 40.3204 7.53548 40.4089 8.00489 40.4012C8.24799 40.3975 8.62966 40.3593 8.99342 40.2542C9.35713 40.1496 9.70319 39.979 9.8785 39.7235C9.98452 39.9597 10.109 40.187 10.2285 40.4168L10.6527 41.2257C10.5947 41.2067 10.5393 41.1893 10.4865 41.175C10.0873 41.0638 9.6713 40.9708 9.24836 40.9111C8.82758 40.8503 8.39153 40.8266 7.97529 40.8475C7.49751 40.8716 7.02331 40.9645 6.5693 41.1577C6.17691 41.3247 5.82304 41.6959 5.62512 42.1021C5.66564 42.0149 5.92907 42.1101 6.20279 42.2284C6.47517 42.3475 6.75349 42.4907 6.82302 42.5181C7.23178 42.6777 7.63709 42.8241 8.07672 42.9051C8.50938 42.9894 8.94255 43.0236 9.36921 42.98C9.61379 42.9554 9.99366 42.8849 10.3485 42.7497C10.7036 42.6149 11.0339 42.4165 11.1873 42.1472C11.2495 42.2521 11.3077 42.3594 11.3731 42.4624L11.5706 42.7705L11.9657 43.3868C11.9071 43.372 11.8501 43.3591 11.7965 43.3491C11.3896 43.2695 10.9655 43.21 10.5357 43.1842C10.1019 43.161 9.68134 43.1612 9.26088 43.2165C8.78157 43.2794 8.31037 43.4098 7.86997 43.6378C7.4885 43.8346 7.16979 44.2298 7.01353 44.6468C7.04849 44.5563 7.31761 44.6333 7.59932 44.7316C7.88921 44.8265 8.18651 44.9448 8.25963 44.9661C8.6418 45.0781 9.02966 45.1741 9.4149 45.232L10.5839 44.4536C10.2746 44.4758 9.96087 44.4781 9.64606 44.4569C9.26491 44.4279 8.88044 44.3585 8.50459 44.2362C8.6935 44.2928 8.88529 44.3288 9.07548 44.3556C9.26651 44.3777 9.45638 44.3856 9.64414 44.3851C9.8321 44.3837 10.0185 44.3674 10.2019 44.3461C10.3855 44.3222 10.567 44.2893 10.7459 44.2509C10.8213 44.2337 10.8967 44.2155 10.9717 44.1954C11.2484 44.1239 11.5255 44.0331 11.7937 43.9263C11.9342 43.8702 12.0731 43.8109 12.2096 43.7487L12.4589 44.1013C12.4539 44.1027 12.4485 44.1042 12.4435 44.1057C12.263 44.1577 12.0814 44.2054 11.8978 44.2468C11.5311 44.3304 11.1579 44.3969 10.7785 44.4372C10.714 44.4435 10.649 44.4492 10.5839 44.4536L9.41893 45.2293L9.4149 45.232C9.89792 45.3023 10.3896 45.3065 10.8528 45.2235C11.0939 45.1801 11.4642 45.0812 11.802 44.9208C12.1402 44.7608 12.4469 44.5403 12.5729 44.2627C12.7231 44.474 12.8689 44.6884 13.0324 44.8899L13.5946 45.611C13.536 45.6008 13.4789 45.5925 13.4256 45.5866C13.02 45.5394 12.5978 45.5141 12.1719 45.5234C11.7422 45.5354 11.3238 45.5717 10.9146 45.6602C10.4463 45.7613 9.99193 45.9293 9.5794 46.1909C9.22235 46.4172 8.95131 46.8323 8.84758 47.2539C8.87168 47.1615 9.14751 47.2152 9.44392 47.2853C9.74499 47.3532 10.0552 47.4436 10.1305 47.4581C10.5725 47.5432 11.0103 47.6135 11.4481 47.6277C11.8918 47.6379 12.3205 47.602 12.7226 47.4946C12.9532 47.4331 13.3027 47.3079 13.6122 47.1258C13.9224 46.9438 14.1939 46.7055 14.2846 46.4239L14.5234 46.7015L14.7751 46.9679L15.2796 47.4991C15.2217 47.4931 15.1654 47.489 15.1129 47.4868C14.7141 47.4683 14.2998 47.4735 13.8841 47.5135C13.6748 47.5348 13.47 47.5609 13.2694 47.5956C13.0677 47.6314 12.8678 47.6774 12.6716 47.7359C12.2236 47.8699 11.7951 48.0682 11.4197 48.3542C11.0942 48.6011 10.8787 49.0248 10.8323 49.4397C10.8428 49.3497 11.1283 49.3765 11.4247 49.4249C11.7288 49.4684 12.0502 49.529 12.1256 49.5376C12.5248 49.5805 12.9219 49.6093 13.3052 49.6035C13.7873 49.592 14.2548 49.5223 14.6707 49.3778C14.8873 49.3023 15.2099 49.1577 15.4857 48.9619C15.7621 48.7661 15.993 48.5192 16.045 48.2417L16.3272 48.5095C16.4233 48.5964 16.5236 48.679 16.6217 48.7638L17.3174 49.3577C17.2609 49.3561 17.2071 49.3551 17.1567 49.3564C16.7737 49.3638 16.3782 49.3961 15.9845 49.4634C15.7876 49.4971 15.5915 49.5396 15.3983 49.592C15.208 49.6415 15.0215 49.7005 14.84 49.7713C14.4257 49.9322 14.0383 50.1551 13.7152 50.4572C13.4356 50.7186 13.2883 51.1399 13.3084 51.5345C13.306 51.4919 13.3762 51.4702 13.4842 51.4617C13.591 51.4541 13.7379 51.4575 13.8922 51.4629C14.1988 51.4759 14.5181 51.5088 14.5934 51.5102C14.8139 51.5147 15.0324 51.5161 15.2489 51.5076C15.3569 51.5036 15.463 51.4989 15.5694 51.4904C15.6772 51.4803 15.7837 51.4685 15.8881 51.4544C16.3064 51.3974 16.6928 51.3064 17.0343 51.1555C17.23 51.0695 17.5154 50.9127 17.747 50.7128C17.9791 50.5127 18.1588 50.2694 18.1649 50.0058L18.311 50.1162L18.4625 50.2192L18.7656 50.4253C18.9687 50.5609 19.1679 50.7023 19.374 50.8332C19.3209 50.8364 19.2685 50.8398 19.2188 50.8428C18.8554 50.8686 18.4805 50.9236 18.1127 51.0109C17.9288 51.0546 17.7465 51.107 17.5683 51.1688C17.391 51.2295 17.222 51.2948 17.0571 51.374C16.6818 51.5532 16.3397 51.7905 16.0737 52.0946C15.842 52.3588 15.7677 52.7575 15.8546 53.1145C15.8379 53.0354 16.1098 53.0171 16.4129 53.0005C16.7138 52.987 17.0293 52.9914 17.1037 52.9852C17.2968 52.9714 17.4876 52.9555 17.6741 52.9356C17.7672 52.9256 17.8591 52.9149 17.95 52.9025C18.0429 52.8878 18.1343 52.8717 18.2238 52.8544C18.6693 52.7687 19.0733 52.6482 19.4061 52.476C19.5791 52.3864 19.8254 52.2289 20.0118 52.0371C20.2021 51.8399 20.3277 51.6192 20.2898 51.3796C20.5149 51.5079 20.749 51.6206 20.9779 51.7418L21.3838 51.9516C21.5201 52.0197 21.6617 52.0765 21.8004 52.1395C21.7488 52.1443 21.6994 52.1503 21.654 52.1573C21.3053 52.2153 20.966 52.2713 20.6323 52.3715C20.2997 52.4696 19.9777 52.6013 19.6886 52.77C19.3595 52.9601 19.0809 53.1887 18.882 53.4792C18.7967 53.6041 18.7544 53.7557 18.7531 53.9135C18.7513 54.0718 18.7901 54.2372 18.8728 54.3779C18.8377 54.3156 19.1072 54.2592 19.3937 54.2183C19.6811 54.1771 19.9849 54.1516 20.0542 54.1412C20.1542 54.1245 20.2554 54.1077 20.3577 54.0906C20.4585 54.072 20.5604 54.0486 20.6591 54.0269C20.857 53.9825 21.0477 53.9354 21.2276 53.8845C21.5896 53.7786 21.9054 53.6644 22.1627 53.5104C22.3113 53.4199 22.5159 53.27 22.655 53.1007ZM6.99775 23.4985L6.9934 23.4987L6.80507 23.5043L6.99775 23.4985ZM6.34793 26.998C6.22612 26.9505 6.10686 26.8989 5.99055 26.8411C5.7578 26.7271 5.5368 26.5974 5.33088 26.4439C5.1251 26.292 4.93357 26.1145 4.76715 25.9098C4.68522 25.8065 4.60769 25.6951 4.54091 25.5749C4.47694 25.4546 4.42063 25.3255 4.3736 25.1876C4.42287 25.3223 4.4848 25.4422 4.55242 25.5543C4.62348 25.6625 4.70733 25.7599 4.79316 25.8495C4.87982 25.9385 4.97408 26.0142 5.07167 26.086C5.17003 26.1548 5.27247 26.2158 5.37728 26.2713C5.58818 26.3776 5.80975 26.4607 6.03835 26.5156C6.13294 26.5388 6.22842 26.5575 6.32422 26.5738L6.35834 27.0017L6.34793 26.998ZM6.04289 23.5267L6.21538 23.5215L6.2157 23.5084L6.2249 23.1278L6.24152 22.2219L6.27366 21.3169L6.29386 20.865L6.31591 20.4128L6.30587 20.8654L6.30345 21.3176C6.30428 21.619 6.30914 21.9205 6.31872 22.2219L6.37081 23.125L6.39215 23.4613L6.39599 23.5163L6.04289 23.5267ZM6.46194 24.2517L6.43158 23.826C6.5008 23.7982 6.56937 23.7674 6.63654 23.7339C6.76448 23.6693 6.88649 23.5899 6.99909 23.4985L7.00069 23.4985C7.0306 23.4744 7.05993 23.4498 7.08856 23.4239C7.15637 23.36 7.22079 23.292 7.28016 23.2174C7.33819 23.1404 7.39296 23.0608 7.43942 22.9704C7.48595 22.8792 7.52461 22.7821 7.55516 22.6765C7.58347 22.5674 7.6052 22.4524 7.61408 22.3249C7.59945 22.5856 7.55069 22.8172 7.46703 23.0241C7.39807 23.1934 7.31218 23.349 7.21191 23.4921L7.21063 23.4922C7.18986 23.5226 7.16794 23.5522 7.14544 23.5813C7.0807 23.6654 7.0113 23.7457 6.93787 23.8225C6.86635 23.8994 6.79254 23.9727 6.71432 24.0436C6.63641 24.1147 6.55448 24.1816 6.4691 24.2461C6.4668 24.2478 6.46424 24.2495 6.46194 24.2517ZM6.71317 26.9623L6.6676 26.5392C6.75848 26.5041 6.84878 26.4672 6.93729 26.4264C7.1517 26.3293 7.35429 26.2089 7.54244 26.0722C7.63543 26.0018 7.72516 25.9276 7.80952 25.8477C7.89266 25.7653 7.97204 25.6807 8.04144 25.5863C8.11136 25.4913 8.1722 25.3909 8.22908 25.2826C8.28423 25.171 8.33293 25.0542 8.3675 24.9263C8.33555 25.0569 8.29356 25.1812 8.24282 25.2996C8.19489 25.4179 8.14101 25.5301 8.07787 25.6371C7.95037 25.8495 7.79392 26.0453 7.6192 26.2245C7.4446 26.4054 7.25096 26.5712 7.04408 26.7288C6.94055 26.8082 6.83331 26.8835 6.72256 26.9565L6.71317 26.9623ZM7.20737 32.1929C7.0421 32.1705 6.87862 32.1437 6.71668 32.1102C6.39522 32.0443 6.07158 31.9628 5.77243 31.8519C5.47187 31.7428 5.18236 31.6054 4.91068 31.4365C4.64009 31.2656 4.38702 31.0576 4.17356 30.8051C4.2838 30.9275 4.40389 31.0328 4.53145 31.1287C4.66074 31.2204 4.79597 31.3002 4.93452 31.3711C5.07333 31.4415 5.21764 31.4971 5.36322 31.5484C5.50964 31.5967 5.65886 31.6363 5.80931 31.67C6.11185 31.7324 6.41752 31.7702 6.73157 31.7774C6.8615 31.7809 6.99123 31.7798 7.12071 31.7763L7.22136 32.1942L7.20737 32.1929ZM7.57286 31.6713C7.68994 31.6177 7.80626 31.5624 7.92059 31.5037C8.19789 31.3627 8.46567 31.1996 8.71689 31.0233C8.84145 30.9333 8.96281 30.84 9.07855 30.742C9.19237 30.6418 9.3037 30.5399 9.40481 30.4299C9.50521 30.3194 9.59979 30.2045 9.6846 30.0838C9.76621 29.9604 9.83778 29.8338 9.89402 29.6986C9.79075 29.9726 9.63558 30.2313 9.45152 30.4736C9.26516 30.7149 9.05305 30.9443 8.82061 31.1608C8.5876 31.3791 8.34635 31.5833 8.0879 31.7827C7.95938 31.8831 7.82677 31.9798 7.69084 32.0749L7.67921 32.0826L7.57286 31.6713ZM7.86026 34.631C7.68074 34.6233 7.50799 34.6095 7.33391 34.5901C6.98714 34.5515 6.64478 34.4945 6.30977 34.4112C6.25174 34.3967 6.19378 34.3816 6.13594 34.3652C5.8612 34.2887 5.59444 34.1916 5.3367 34.0725C5.18134 33.9988 5.02975 33.9155 4.88429 33.8216C4.74299 33.7266 4.60776 33.6211 4.48026 33.5039C4.61006 33.6172 4.75085 33.7119 4.89484 33.7978C5.04355 33.879 5.19987 33.9458 5.35709 34.0046C5.51488 34.0626 5.67714 34.106 5.83966 34.144C6.00327 34.1792 6.16866 34.2057 6.33444 34.226C6.4048 34.2336 6.47574 34.2403 6.54681 34.2451C6.80999 34.2648 7.07476 34.2679 7.33985 34.2529C7.47879 34.2448 7.61747 34.2332 7.75564 34.2182C7.79577 34.3559 7.83182 34.4951 7.8756 34.6318C7.87055 34.6315 7.86512 34.6313 7.86026 34.631ZM8.35894 34.4802C8.31414 34.3457 8.27688 34.2088 8.23553 34.0735C8.35945 34.0098 8.48235 33.9435 8.60371 33.8749C8.83506 33.7436 9.05714 33.6002 9.2704 33.4481L9.25941 33.4513L7.90857 33.8466L9.2704 33.4481C9.32811 33.4074 9.38506 33.3655 9.44091 33.3235C9.57148 33.2225 9.69897 33.1185 9.82066 33.0104C9.94029 32.9006 10.0574 32.7885 10.1637 32.6695C10.2699 32.5501 10.3687 32.4276 10.4597 32.2987C10.5494 32.1669 10.6328 32.0318 10.699 31.8898C10.6365 32.0336 10.5628 32.174 10.4794 32.3115C10.4003 32.4474 10.3119 32.5803 10.2155 32.7097C10.0537 32.9224 9.87575 33.1289 9.6807 33.328C9.63979 33.3693 9.59838 33.4111 9.5569 33.4529C9.31539 33.6909 9.05574 33.9202 8.78553 34.1431C8.65068 34.2549 8.50983 34.3645 8.37076 34.4711C8.36693 34.4739 8.36264 34.4768 8.35894 34.4802ZM8.76738 37.2299C8.58275 37.2375 8.39914 37.2404 8.21565 37.2363C7.84946 37.2297 7.48544 37.2048 7.12518 37.1521C6.76576 37.101 6.40762 37.0209 6.06372 36.9053C5.72047 36.7877 5.40355 36.6251 5.10605 36.4154C5.25605 36.5164 5.41556 36.5979 5.57725 36.6701C5.74169 36.737 5.9067 36.7923 6.0797 36.8359C6.25283 36.8791 6.42839 36.907 6.60503 36.9298C6.78199 36.9496 6.95966 36.9604 7.13681 36.9651C7.49183 36.9698 7.84626 36.9488 8.19795 36.8982C8.3436 36.8778 8.48823 36.8528 8.63215 36.8255L8.78284 37.2288L8.76738 37.2299ZM9.27775 37.0328L9.12629 36.6364C9.25213 36.5607 9.377 36.4837 9.4999 36.4031C9.79771 36.2099 10.0801 35.9977 10.3487 35.7738C10.4813 35.6604 10.6109 35.5441 10.7351 35.424C10.8571 35.3022 10.9757 35.1794 11.0836 35.0501C11.1905 34.9208 11.2981 34.7852 11.3922 34.6471C11.483 34.5066 11.5677 34.3632 11.6345 34.2145C11.5105 34.5141 11.3331 34.8078 11.1392 35.0852C10.943 35.3617 10.7177 35.6321 10.4757 35.8921C10.2342 36.1536 9.97455 36.4068 9.70524 36.6551C9.57052 36.78 9.43184 36.9021 9.29002 37.0228L9.27775 37.0328ZM11.0722 41.9792C10.8861 42.0177 10.6997 42.0514 10.5118 42.0785C10.1369 42.1339 9.75886 42.1718 9.37726 42.1821C9.18745 42.1877 8.99336 42.1876 8.80483 42.1766C8.61694 42.1652 8.42943 42.1455 8.24237 42.1171C7.86914 42.0582 7.49815 41.9574 7.14263 41.8039C7.32196 41.8763 7.50653 41.9277 7.69084 41.9701C7.87617 42.0072 8.06279 42.0309 8.24838 42.0454C8.4341 42.0591 8.61994 42.057 8.80413 42.0507C8.98889 42.0409 9.17077 42.0229 9.35643 41.9963C9.72492 41.9396 10.0864 41.8581 10.4388 41.7482C10.5847 41.7032 10.7289 41.6541 10.8716 41.6027L11.0879 41.9755L11.0722 41.9792ZM11.5699 41.687L11.5591 41.6989L11.3469 41.332C11.4637 41.2361 11.5799 41.1384 11.6936 41.038C11.9695 40.7962 12.2285 40.5379 12.4745 40.2697C12.5944 40.1353 12.7173 39.9947 12.8315 39.8532C12.9439 39.7099 13.0548 39.5651 13.1551 39.4157C13.2546 39.266 13.3487 39.1134 13.4333 38.9585C13.5135 38.8023 13.5882 38.6441 13.6451 38.4833C13.5395 38.8062 13.3899 39.1278 13.2127 39.4426C13.0326 39.7573 12.8295 40.068 12.6172 40.3665C12.4041 40.6672 12.1745 40.9622 11.9367 41.2533C11.818 41.3999 11.6953 41.5439 11.5699 41.687ZM12.8989 43.7919L12.656 43.4443C12.7634 43.3409 12.8696 43.235 12.9738 43.1273C13.1726 42.9213 13.3594 42.7073 13.5422 42.4833L13.532 42.4901L12.257 43.3391L13.5422 42.4832C13.5911 42.4224 13.6395 42.3618 13.6876 42.3018C13.7985 42.1569 13.9068 42.0095 14.01 41.8596C14.1107 41.7087 14.2097 41.5558 14.2985 41.3993C14.3867 41.2424 14.4699 41.0836 14.5436 40.9221C14.613 40.76 14.6773 40.5961 14.7246 40.4312C14.6384 40.7621 14.5107 41.0947 14.3573 41.4224C14.2279 41.6925 14.085 41.9611 13.9296 42.2253C13.8971 42.2801 13.8642 42.3358 13.8312 42.3914C13.6439 42.706 13.4419 43.0162 13.2324 43.3226C13.1275 43.4762 13.0193 43.6279 12.9083 43.7791L12.8989 43.7919ZM14.1413 46.2789C13.972 46.3435 13.8009 46.4038 13.6264 46.4581C13.2787 46.5681 12.9224 46.6624 12.5542 46.732C12.1875 46.8027 11.8209 46.838 11.44 46.8446C11.0609 46.8478 10.6722 46.8118 10.2839 46.7234C10.4784 46.7632 10.673 46.7823 10.8645 46.7928C11.0559 46.7982 11.2448 46.7908 11.4301 46.7748C11.6154 46.7581 11.7966 46.7266 11.9748 46.6915C12.1525 46.6531 12.3268 46.6065 12.4977 46.5546C12.8362 46.4479 13.1735 46.3099 13.4883 46.1517C13.6194 46.0862 13.7477 46.0169 13.8741 45.9459L14.1555 46.2731L14.1413 46.2789ZM14.5479 45.9372L14.275 45.6134C14.368 45.5031 14.4601 45.3913 14.5496 45.277C14.7681 45.0004 14.9642 44.714 15.1571 44.411C15.2507 44.2592 15.3418 44.1051 15.4281 43.9486C15.5118 43.791 15.5944 43.632 15.667 43.4696C15.7389 43.3072 15.8061 43.1424 15.8648 42.9762C15.919 42.8093 15.9687 42.641 16.0022 42.4726C15.9431 42.8097 15.846 43.1511 15.7252 43.4882C15.6027 43.8247 15.4582 44.1623 15.3057 44.4874C15.1551 44.8127 14.9909 45.1335 14.8203 45.4507C14.7352 45.6101 14.6468 45.7674 14.5558 45.9241L14.5479 45.9372ZM15.8887 48.1113C15.7331 48.1846 15.575 48.2542 15.4133 48.3188C15.0902 48.4484 14.7553 48.5641 14.4055 48.6583C14.3452 48.673 14.2849 48.6878 14.2251 48.7024C13.9373 48.769 13.6398 48.8176 13.3333 48.8461C12.9614 48.8772 12.5742 48.8725 12.1791 48.8176C12.3764 48.8408 12.5708 48.8441 12.7606 48.8395C12.9501 48.8304 13.1344 48.8085 13.314 48.7794C13.4936 48.7493 13.6674 48.7059 13.8368 48.6585C14.0057 48.6085 14.1698 48.5509 14.3297 48.4889C14.397 48.4616 14.464 48.4335 14.5301 48.4038C14.7744 48.2964 15.0141 48.1708 15.2406 48.0328C15.3594 47.9601 15.4755 47.8849 15.5887 47.8072L15.9019 48.1051C15.8973 48.1068 15.8928 48.1092 15.8887 48.1113ZM16.2445 47.7415C16.2426 47.7457 16.2403 47.7504 16.2388 47.755L15.9359 47.4587C16.0129 47.346 16.088 47.2312 16.1613 47.1148C16.3011 46.8922 16.428 46.6635 16.5524 46.4232C16.5853 46.3582 16.6179 46.2935 16.6504 46.2291C16.7239 46.0749 16.7952 45.9183 16.8617 45.7594C16.9258 45.5998 16.9888 45.4383 17.0423 45.2739C17.0952 45.1095 17.1439 44.9432 17.1843 44.7752C17.2207 44.6071 17.253 44.4377 17.2704 44.2688C17.2433 44.6063 17.1823 44.9493 17.1 45.2891C17.0295 45.5697 16.9489 45.8488 16.8571 46.1248C16.8378 46.1822 16.8183 46.2403 16.7988 46.2984C16.6897 46.6251 16.5692 46.9478 16.4426 47.2664C16.3793 47.4262 16.3131 47.5841 16.2445 47.7415ZM17.9963 49.8919C17.8598 49.9702 17.72 50.0454 17.5756 50.116C17.2876 50.2582 16.986 50.3893 16.6646 50.5021C16.5051 50.5583 16.3372 50.6131 16.1701 50.6559C16.0028 50.6987 15.8306 50.7357 15.6536 50.7662C15.3006 50.8235 14.9252 50.8488 14.5331 50.8285C14.7284 50.8347 14.9172 50.8225 15.1002 50.8035C15.2816 50.7801 15.4566 50.7459 15.6252 50.7051C15.7937 50.6635 15.9549 50.6083 16.1111 50.5517C16.2665 50.4917 16.4133 50.4278 16.5608 50.3543C16.8505 50.206 17.1199 50.0414 17.3669 49.8574C17.4696 49.7815 17.5683 49.7029 17.6649 49.623L18.0077 49.8852L17.9963 49.8919ZM18.2774 49.5231L18.2737 49.5358L17.9423 49.2722C17.9981 49.1606 18.0529 49.0476 18.1049 48.9324C18.2315 48.6544 18.3398 48.3643 18.4369 48.0658C18.4825 47.9174 18.5308 47.7597 18.5722 47.6028C18.6116 47.4447 18.6512 47.284 18.6806 47.1214C18.7095 46.959 18.7343 46.7943 18.7521 46.6286C18.7658 46.4623 18.7759 46.2948 18.7725 46.1283C18.7863 46.4609 18.7709 46.7992 18.7364 47.1335C18.7173 47.3016 18.6949 47.4688 18.6694 47.6348C18.6438 47.8007 18.62 47.9584 18.5903 48.1186C18.5338 48.4378 18.466 48.7521 18.3932 49.0616C18.3576 49.2169 18.3185 49.3704 18.2774 49.5231ZM20.1101 51.2845C19.9932 51.3621 19.8727 51.4372 19.7468 51.5095C19.4955 51.654 19.2275 51.7917 18.9375 51.9159C18.8865 51.937 18.8354 51.9581 18.7845 51.9791C18.5367 52.0801 18.2795 52.1607 18.0069 52.2266C17.6743 52.305 17.3134 52.3589 16.9303 52.3697C17.1209 52.36 17.3015 52.335 17.4759 52.3034C17.6488 52.2677 17.8122 52.2228 17.9686 52.1729C18.1248 52.1224 18.2707 52.0622 18.4111 52C18.5494 51.9367 18.6833 51.8643 18.8123 51.7885C18.866 51.756 18.9191 51.7229 18.9706 51.6888C19.1629 51.5637 19.3408 51.4302 19.5036 51.2869C19.5888 51.2118 19.6706 51.135 19.7492 51.0567L20.1202 51.2779C20.1165 51.2798 20.1133 51.2824 20.1101 51.2845ZM22.3305 50.2608C22.405 50.5395 22.4689 50.8106 22.5215 51.0722C22.5752 51.3352 22.619 51.5892 22.6582 51.8344C22.676 51.953 22.694 52.0727 22.7122 52.1936L22.7133 52.2032C22.5825 52.1499 22.4573 52.0833 22.329 52.0241C22.3413 51.9335 22.3521 51.8416 22.3599 51.7477C22.38 51.5207 22.3803 51.2829 22.3692 51.0348C22.3616 50.9103 22.3517 50.7831 22.3373 50.6531C22.3207 50.5223 22.3027 50.3908 22.2777 50.253C22.2533 50.112 22.2263 49.9663 22.1922 49.821C22.1545 49.675 22.1139 49.5265 22.063 49.3775C22.1718 49.6736 22.2577 49.9743 22.3305 50.2608ZM21.6015 53.081C21.3518 53.2038 21.075 53.319 20.7687 53.4226C20.465 53.5189 20.1335 53.5883 19.7668 53.6326C19.9479 53.6078 20.1162 53.5708 20.2765 53.5306C20.4334 53.4876 20.5819 53.4357 20.721 53.3821C20.8616 53.3247 20.9912 53.2578 21.115 53.1922C21.2366 53.1245 21.35 53.0541 21.4572 52.9822C21.668 52.8361 21.8539 52.6833 22.0129 52.5201C22.079 52.453 22.1406 52.3842 22.1998 52.3153C22.3319 52.3715 22.461 52.4348 22.5956 52.4849L22.5879 52.4912C22.4909 52.5647 22.393 52.6303 22.2877 52.6963C22.0791 52.8282 21.8531 52.958 21.6015 53.081Z" fill="#273057"/>
<path d="M6.45508 18.289C6.4566 18.2733 6.45726 18.2644 6.45726 18.2644C6.45726 18.2644 6.4564 18.2733 6.45508 18.289Z" fill="#273057"/>
<path d="M7.02106 23.498L7.00098 23.4985L7.02106 23.498Z" fill="#273057"/>
<path d="M5.15954 78.8893C5.6903 79.2352 5.95559 79.7345 5.95559 80.3869C5.95559 80.7957 5.84144 81.1674 5.61361 81.5014C5.38552 81.8357 5.06713 82.099 4.65837 82.2916C4.24961 82.4843 3.79343 82.5805 3.2904 82.5805C3.07803 82.5805 2.82246 82.5685 2.52388 82.545C2.40584 82.5371 2.26231 82.5293 2.09339 82.5215C1.92429 82.5137 1.73749 82.5098 1.53317 82.5098L0.672192 82.5215C0.514912 82.5293 0.302545 82.5333 0.0354064 82.5333C0.0117602 82.5333 0 82.5098 0 82.4626C0 82.4154 0.0117602 82.3919 0.0354064 82.3919C0.287079 82.3919 0.469793 82.3722 0.583806 82.3329C0.697628 82.2937 0.776491 82.2171 0.819629 82.1029C0.862768 81.989 0.88456 81.8141 0.88456 81.5782V76.118C0.88456 75.8821 0.864751 75.7092 0.825703 75.599C0.786207 75.4891 0.707661 75.4124 0.589813 75.3691C0.471902 75.3261 0.290852 75.3043 0.0472957 75.3043C0.0315102 75.3043 0.0237122 75.2807 0.0237122 75.2335C0.0237122 75.1863 0.0315102 75.1628 0.0472957 75.1628H4.98852C5.09863 75.1628 5.16727 75.1786 5.19488 75.2099C5.2223 75.2414 5.23623 75.3241 5.23623 75.4575L5.33056 77.2501C5.33056 77.2737 5.31088 77.2856 5.27151 77.2856C5.23208 77.2856 5.2046 77.2737 5.189 77.2501C5.07109 76.6448 4.85284 76.1907 4.53445 75.888C4.21606 75.5856 3.8211 75.434 3.34939 75.434H2.85397C2.6023 75.434 2.43134 75.4871 2.34097 75.5933C2.25048 75.6994 2.2053 75.898 2.2053 76.1888V78.4412C2.51973 78.3941 2.83429 78.3706 3.14878 78.3706C3.9585 78.3705 4.62891 78.5434 5.15954 78.8893ZM4.21024 81.8787C4.45386 81.6076 4.57586 81.2087 4.57586 80.6819C4.57586 80.0057 4.41462 79.5064 4.09233 79.184C3.76984 78.8617 3.31788 78.7006 2.73619 78.7006C2.54759 78.7006 2.3705 78.7163 2.20543 78.7477V81.5781C2.20543 81.8139 2.26237 81.9907 2.37638 82.1087C2.49033 82.2267 2.7204 82.2857 3.06634 82.2857C3.58521 82.2857 3.96656 82.15 4.21024 81.8787Z" fill="#273057"/>
<path d="M15.0835 82.4625C15.0835 82.5097 15.0637 82.5332 15.0244 82.5332C14.8671 82.5332 14.6235 82.5254 14.2932 82.5097C13.9472 82.494 13.6995 82.486 13.5504 82.486C13.3537 82.486 13.114 82.494 12.831 82.5097C12.5636 82.5254 12.3513 82.5332 12.1941 82.5332C12.1627 82.5332 12.1469 82.5097 12.1469 82.4625C12.1469 82.4153 12.1627 82.3918 12.1941 82.3918C12.3985 82.3918 12.5459 82.3701 12.6364 82.3268C12.7267 82.2838 12.772 82.207 12.772 82.0969C12.772 81.9633 12.6934 81.7391 12.5361 81.4247L11.3097 79.0072H9.21066L8.37327 80.8586C8.27095 81.0867 8.21995 81.299 8.21995 81.4954C8.21995 81.7785 8.32016 81.9986 8.52058 82.1558C8.72112 82.3131 8.99037 82.3917 9.32845 82.3917C9.36769 82.3917 9.38737 82.4152 9.38737 82.4624C9.38737 82.5097 9.36769 82.5331 9.32845 82.5331C9.18695 82.5331 8.98245 82.5253 8.71524 82.5097C8.41634 82.4939 8.157 82.486 7.93703 82.486C7.72466 82.486 7.46909 82.4939 7.17032 82.5097C6.90299 82.5253 6.68685 82.5331 6.52177 82.5331C6.49046 82.5331 6.47461 82.5097 6.47461 82.4624C6.47461 82.4152 6.49046 82.3917 6.52177 82.3917C6.74175 82.3917 6.92657 82.3464 7.07612 82.2561C7.22528 82.1658 7.37476 82.0046 7.52418 81.7727C7.6734 81.5408 7.85037 81.1967 8.05488 80.7407L10.6139 75.1154C10.6298 75.0919 10.665 75.0801 10.7202 75.0801C10.783 75.0801 10.8184 75.0919 10.8263 75.1154L13.7746 80.9176C14.0497 81.4758 14.2775 81.8611 14.4586 82.0734C14.6394 82.2857 14.828 82.3917 15.0246 82.3917C15.0637 82.3917 15.0835 82.4153 15.0835 82.4625ZM11.1446 78.677L10.2011 76.8137L9.36372 78.677H11.1446Z" fill="#273057"/>
<path d="M21.8515 75.2336C21.8515 75.2807 21.8397 75.3043 21.8162 75.3043C21.5882 75.3043 21.3504 75.4085 21.1026 75.6168C20.8551 75.8252 20.6605 76.0905 20.519 76.4129L18.3019 81.5664C18.1289 81.9752 17.944 82.2622 17.7476 82.4274C17.5511 82.5923 17.2877 82.675 16.9575 82.675C16.6351 82.675 16.3756 82.6042 16.1793 82.4627C15.9824 82.3212 15.8843 82.1365 15.8843 81.9084C15.8843 81.7434 15.9393 81.6001 16.0495 81.4779C16.1595 81.3562 16.3128 81.2953 16.5095 81.2953C16.6981 81.2953 16.8356 81.3445 16.9222 81.4427C17.0087 81.5411 17.0832 81.6766 17.1463 81.8496C17.1935 81.9597 17.2385 82.0441 17.2817 82.1031C17.3249 82.162 17.3821 82.1916 17.453 82.1916C17.5314 82.1916 17.61 82.1464 17.6888 82.0559C17.7673 81.9656 17.8578 81.8064 17.9599 81.5784L18.1368 81.1656L15.5541 76.1418C15.389 75.8273 15.2417 75.6092 15.1118 75.4872C14.9822 75.3654 14.8033 75.3045 14.5754 75.3045C14.5595 75.3045 14.5518 75.2809 14.5518 75.2338C14.5518 75.1865 14.5596 75.1631 14.5754 75.1631C14.7482 75.1631 14.8702 75.167 14.9409 75.1748C15.1768 75.1906 15.4834 75.1983 15.8608 75.1983C16.4189 75.1983 16.8789 75.1906 17.2407 75.1748C17.3427 75.167 17.4647 75.1631 17.6062 75.1631C17.6219 75.1631 17.6298 75.1865 17.6298 75.2338C17.6298 75.2809 17.6219 75.3045 17.6062 75.3045C17.1186 75.3045 16.875 75.4264 16.875 75.67C16.875 75.7645 16.9105 75.8823 16.9813 76.0239L18.7739 79.6796L20.1653 76.4131C20.236 76.2479 20.2715 76.0946 20.2715 75.9531C20.2715 75.7567 20.1987 75.5993 20.0533 75.4814C19.9076 75.3634 19.7053 75.3045 19.4458 75.3045C19.4301 75.3045 19.4223 75.2809 19.4223 75.2338C19.4223 75.1865 19.4301 75.1631 19.4458 75.1631L19.9767 75.1748C20.2754 75.1906 20.5427 75.1983 20.7785 75.1983C20.9514 75.1983 21.1324 75.1906 21.3211 75.1748L21.8163 75.1631C21.8397 75.1628 21.8515 75.1864 21.8515 75.2336Z" fill="#273057"/>
<path d="M31.6051 82.4627C31.6051 82.51 31.5972 82.5334 31.5815 82.5334C31.3142 82.5334 31.1019 82.5295 30.9446 82.5217L30.072 82.5099L29.1875 82.5217C29.0382 82.5295 28.8338 82.5334 28.5743 82.5334C28.5507 82.5334 28.5391 82.51 28.5391 82.4627C28.5391 82.4155 28.5508 82.392 28.5743 82.392C28.9045 82.392 29.1287 82.3526 29.2466 82.2741C29.3646 82.1955 29.4235 82.0305 29.4235 81.7788L29.4117 81.5783L29.164 76.7549L26.7347 82.451C26.7189 82.4825 26.6876 82.4982 26.6403 82.4982C26.5931 82.4982 26.5618 82.4825 26.5461 82.451L23.5624 76.7785L23.4681 81.0357C23.46 81.4603 23.5447 81.7925 23.7215 82.0323C23.8985 82.2722 24.1479 82.3919 24.4704 82.3919C24.494 82.3919 24.5058 82.4155 24.5058 82.4627C24.5058 82.5099 24.494 82.5334 24.4704 82.5334C24.258 82.5334 24.093 82.5294 23.975 82.5216L23.3265 82.5099L22.5835 82.5216C22.4578 82.5294 22.2888 82.5334 22.0765 82.5334C22.0529 82.5334 22.041 82.5099 22.041 82.4627C22.041 82.4155 22.053 82.3919 22.0765 82.3919C22.3987 82.3919 22.6543 82.2701 22.843 82.0264C23.0317 81.7827 23.1298 81.4524 23.1379 81.0357L23.244 76.1534L23.2322 76.1416C23.0749 75.8508 22.9117 75.6385 22.7428 75.5047C22.5737 75.3712 22.379 75.3043 22.159 75.3043C22.1354 75.3043 22.1237 75.2807 22.1237 75.2335C22.1237 75.1863 22.1355 75.1628 22.159 75.1628L22.7133 75.1745C22.8233 75.1825 22.9648 75.1864 23.1379 75.1864L23.7628 75.1745C23.8335 75.1667 23.924 75.1628 24.0341 75.1628C24.1362 75.1628 24.2147 75.1981 24.27 75.2688C24.3249 75.3397 24.427 75.5089 24.5766 75.776L27.1475 80.5993L29.3881 75.4576C29.4353 75.3477 29.4842 75.271 29.5355 75.2276C29.5866 75.1845 29.6553 75.1628 29.7419 75.1628C29.8125 75.1628 29.8933 75.1667 29.9837 75.1745C30.0739 75.1825 30.1782 75.1864 30.2962 75.1864L30.9919 75.1745C31.102 75.1667 31.2591 75.1628 31.4637 75.1628C31.4872 75.1628 31.4992 75.1863 31.4992 75.2335C31.4992 75.2807 31.4872 75.3043 31.4637 75.3043C31.0941 75.3043 30.8268 75.3791 30.6618 75.5283C30.4966 75.6778 30.4219 75.9098 30.4378 76.2242L30.7208 81.5782C30.7364 81.8219 30.7659 81.9987 30.8092 82.1088C30.8523 82.2191 30.931 82.2937 31.0451 82.3329C31.1589 82.3723 31.3378 82.3919 31.5816 82.3919C31.5972 82.392 31.6051 82.4155 31.6051 82.4627Z" fill="#273057"/>
<path d="M40.9454 81.5311C40.9454 81.7354 40.9612 81.883 40.9926 81.9733C41.024 82.0637 41.0848 82.1247 41.1754 82.156C41.2657 82.1875 41.4131 82.2031 41.6177 82.2031H42.0187C42.6319 82.2031 43.1624 82.0401 43.6106 81.7137C44.0588 81.3876 44.3575 80.9455 44.5068 80.387C44.5068 80.3714 44.5225 80.3635 44.5539 80.3635C44.5697 80.3635 44.5874 80.3694 44.6071 80.3811C44.6267 80.3929 44.6366 80.4029 44.6366 80.4106C44.5659 81.189 44.5304 81.8377 44.5304 82.3565C44.5304 82.4194 44.5167 82.4646 44.4893 82.492C44.4615 82.5197 44.4163 82.5333 44.3535 82.5333H38.7872C38.7714 82.5333 38.7637 82.5098 38.7637 82.4626C38.7637 82.4154 38.7714 82.3919 38.7872 82.3919C39.0389 82.3919 39.2215 82.3723 39.3355 82.3329C39.4495 82.2937 39.5282 82.2171 39.5714 82.1029C39.6146 81.989 39.6363 81.8141 39.6363 81.5782V76.118C39.6363 75.8821 39.6146 75.7092 39.5714 75.599C39.5282 75.4891 39.4476 75.4124 39.3296 75.3691C39.2117 75.3261 39.0309 75.3043 38.7872 75.3043C38.7714 75.3043 38.7637 75.2807 38.7637 75.2335C38.7637 75.1863 38.7714 75.1628 38.7872 75.1628L39.3886 75.1745C39.7502 75.1904 40.049 75.1981 40.2848 75.1981C40.5207 75.1981 40.8194 75.1904 41.1811 75.1745L41.7826 75.1628C41.8061 75.1628 41.8179 75.1863 41.8179 75.2335C41.8179 75.2807 41.8061 75.3043 41.7826 75.3043C41.5387 75.3043 41.358 75.3261 41.2402 75.3691C41.1222 75.4124 41.0436 75.4911 41.0043 75.6048C40.9648 75.7189 40.9452 75.8939 40.9452 76.1298V81.5311H40.9454Z" fill="#273057"/>
<path d="M50.7561 80.6348C50.7795 80.6348 50.8012 80.6406 50.8209 80.6523C50.8404 80.6642 50.8503 80.6741 50.8503 80.682C50.7716 81.2952 50.7325 81.8534 50.7325 82.3565C50.7325 82.4194 50.7205 82.4646 50.697 82.492C50.6734 82.5197 50.6262 82.5333 50.5554 82.5333H45.343C45.3194 82.5333 45.3076 82.5098 45.3076 82.4626C45.3076 82.4154 45.3194 82.3919 45.343 82.3919C45.5945 82.3919 45.7774 82.3723 45.8914 82.3329C46.0052 82.2937 46.0819 82.2171 46.1213 82.1029C46.1605 81.989 46.1804 81.8141 46.1804 81.5782V76.118C46.1804 75.8821 46.1605 75.7092 46.1213 75.599C46.0819 75.4891 46.0034 75.4124 45.8854 75.3691C45.7675 75.3261 45.5866 75.3043 45.343 75.3043C45.3194 75.3043 45.3077 75.2807 45.3077 75.2335C45.3077 75.1863 45.3194 75.1628 45.343 75.1628H50.3432C50.4216 75.1628 50.4611 75.1981 50.4611 75.2688L50.4847 76.8374C50.4847 76.8533 50.463 76.865 50.4199 76.8727C50.3766 76.8808 50.3508 76.8727 50.3432 76.8492C50.2174 76.3933 50.0052 76.0552 49.7063 75.835C49.4075 75.6149 49.0146 75.5048 48.5271 75.5048H48.1733C47.9375 75.5048 47.7645 75.5561 47.6543 75.6581C47.5443 75.7604 47.4893 75.9175 47.4893 76.1299V78.5357H48.4682C48.924 78.5357 49.2739 78.4571 49.5176 78.2998C49.7613 78.1427 49.8834 77.9225 49.8834 77.6394C49.8834 77.6159 49.9049 77.6039 49.9482 77.6039C49.9913 77.6039 50.0131 77.6159 50.0131 77.6394L50.0013 78.7008L50.0131 79.2668C50.0288 79.5341 50.0367 79.7464 50.0367 79.9037C50.0367 79.9193 50.0131 79.9271 49.9659 79.9271C49.9187 79.9271 49.8952 79.9193 49.8952 79.9037C49.8952 79.5812 49.7714 79.3276 49.5238 79.1429C49.2761 78.9583 48.9203 78.8658 48.4564 78.8658H47.4895V81.5311C47.4895 81.7591 47.5325 81.928 47.6192 82.0382C47.7056 82.1484 47.8432 82.2032 48.0318 82.2032H48.4211C49.0344 82.2032 49.5255 82.0776 49.8952 81.826C50.2647 81.5743 50.5358 81.1853 50.7089 80.6583C50.7088 80.6426 50.7244 80.6348 50.7561 80.6348Z" fill="#273057"/>
<path d="M59 82.4627C59 82.5099 58.9882 82.5334 58.9646 82.5334C58.7366 82.5334 58.5595 82.5294 58.4338 82.5216L57.7263 82.5099L56.7593 82.5216C56.6098 82.5294 56.4014 82.5334 56.1343 82.5334C56.1108 82.5334 56.0988 82.5099 56.0988 82.4627C56.0988 82.4155 56.1108 82.3919 56.1343 82.3919C56.3937 82.3919 56.5234 82.3251 56.5234 82.1915C56.5234 82.1207 56.488 82.0343 56.4173 81.932L54.8017 79.4319L53.7875 80.8823C53.4808 81.3148 53.3276 81.6646 53.3276 81.932C53.3276 82.2387 53.5319 82.3919 53.9409 82.3919C53.9565 82.3919 53.9645 82.4154 53.9645 82.4626C53.9645 82.5098 53.9565 82.5333 53.9409 82.5333C53.6814 82.5333 53.4847 82.5293 53.3512 82.5215L52.4785 82.5098L51.9242 82.5215C51.8219 82.5293 51.6568 82.5333 51.4289 82.5333C51.4053 82.5333 51.3936 82.5098 51.3936 82.4626C51.3936 82.4154 51.4053 82.3919 51.4289 82.3919C51.6725 82.3919 51.9714 82.2622 52.3251 82.0027C52.6789 81.7433 53.0484 81.3463 53.4337 80.8115L54.6366 79.1841L52.7496 76.2477C52.5374 75.9098 52.3329 75.668 52.1364 75.5224C51.9398 75.3771 51.7315 75.3043 51.5115 75.3043C51.488 75.3043 51.476 75.2807 51.476 75.2335C51.476 75.1863 51.488 75.1628 51.5115 75.1628L52.0185 75.1745C52.2387 75.1904 52.4038 75.1981 52.5138 75.1981C52.7891 75.1981 53.1311 75.1904 53.5399 75.1745L54.2121 75.1628C54.2278 75.1628 54.2357 75.1863 54.2357 75.2335C54.2357 75.2807 54.2278 75.3043 54.2121 75.3043C53.9448 75.3043 53.8111 75.3712 53.8111 75.5047C53.8111 75.5677 53.8466 75.6581 53.9174 75.776L55.474 78.17L56.4174 76.8256C56.7241 76.3854 56.8773 76.0315 56.8773 75.7642C56.8773 75.4575 56.6728 75.3043 56.2641 75.3043C56.2482 75.3043 56.2405 75.2808 56.2405 75.2336C56.2405 75.1864 56.2482 75.1629 56.2641 75.1629L56.8537 75.1746C57.1681 75.1905 57.4592 75.1981 57.7264 75.1981C57.8915 75.1981 58.0763 75.1905 58.2807 75.1746L58.776 75.1629C58.7996 75.1629 58.8114 75.1864 58.8114 75.2336C58.8114 75.2808 58.7996 75.3043 58.776 75.3043C58.5243 75.3043 58.2236 75.436 57.8739 75.6994C57.524 75.9629 57.1525 76.3618 56.7594 76.8963L55.6392 78.4294L57.6558 81.5546C57.8522 81.8455 58.0527 82.0578 58.2573 82.1914C58.4615 82.325 58.6974 82.3919 58.9648 82.3919C58.9883 82.3919 59 82.4155 59 82.4627Z" fill="#273057"/>
<path d="M36.8237 78.6055H33.0645V79.0907H36.8237V78.6055Z" fill="#273057"/>
<path d="M2.68219 84.981C3.08015 84.981 3.41969 85.1215 3.7007 85.4025C3.98164 85.6835 4.12224 86.0231 4.12224 86.4211C4.12224 86.8191 3.9817 87.1586 3.7007 87.4396C3.41969 87.7206 3.08015 87.8611 2.68219 87.8611C2.31107 87.8611 1.98974 87.7368 1.71813 87.488C1.44652 87.2393 1.29321 86.9321 1.25831 86.5663H0.754073V87.8329H0.439453V85.0093H0.754073V86.2718H1.25831C1.29595 85.9088 1.44991 85.6029 1.72018 85.3542C1.99045 85.1054 2.31114 84.981 2.68219 84.981ZM1.88557 87.2379C2.10197 87.4571 2.36757 87.5666 2.68219 87.5666C2.99681 87.5666 3.26305 87.4571 3.48085 87.2379C3.69872 87.0187 3.80762 86.7465 3.80762 86.4211C3.80762 86.0957 3.69872 85.8234 3.48085 85.6043C3.26305 85.3851 2.99681 85.2754 2.68219 85.2754C2.36757 85.2754 2.10197 85.3851 1.88557 85.6043C1.66905 85.8235 1.56085 86.0957 1.56085 86.4211C1.56085 86.7464 1.66905 87.0187 1.88557 87.2379Z" fill="#273057"/>
<path d="M4.85645 85.009H5.7479C6.11358 85.009 6.41076 85.1018 6.63936 85.2873C6.86789 85.4728 6.98222 85.7256 6.98222 86.0456C6.98222 86.3657 6.86789 86.6184 6.63936 86.804C6.41076 86.9895 6.11358 87.0822 5.7479 87.0822H5.17106V87.8325H4.85645V85.009ZM5.17106 86.7879H5.76803C6.03159 86.7879 6.25003 86.7261 6.42354 86.6023C6.59698 86.4787 6.68371 86.2931 6.68371 86.0457C6.68371 85.8011 6.59698 85.6161 6.42354 85.491C6.25009 85.366 6.03159 85.3035 5.76803 85.3035H5.17106V86.7879Z" fill="#273057"/>
<path d="M9.81456 87.8327H9.49994V85.6262L7.85423 87.8327H7.67676V85.009H7.99138V87.2154L9.64112 85.009H9.81456V87.8327Z" fill="#273057"/>
<path d="M13.3672 88.3529H13.0526V87.8326H10.6808V88.3529H10.3662V87.5382H10.7333L11.782 85.009H11.9595L13.0042 87.5382H13.3673V88.3529H13.3672ZM11.8667 85.5979L11.0681 87.5382H12.6654L11.8667 85.5979Z" fill="#273057"/>
<path d="M16.0587 87.8327H15.7441V85.6262L14.0984 87.8327H13.9209V85.009H14.2355V87.2154L15.8853 85.009H16.0587V87.8327Z" fill="#273057"/>
<path d="M18.8542 87.8326H18.5396V86.6668C18.4724 86.8255 18.3668 86.9465 18.2229 87.0299C18.0791 87.1133 17.917 87.155 17.7369 87.155C17.4303 87.155 17.1809 87.0629 16.9886 86.8787C16.7963 86.6945 16.7002 86.4033 16.7002 86.0054V85.009H17.0148V86.0174C17.0148 86.5795 17.2703 86.8605 17.7812 86.8605C17.991 86.8605 18.1698 86.7899 18.3177 86.6487C18.4656 86.5075 18.5396 86.2944 18.5396 86.0093V85.009H18.8542V87.8326Z" fill="#273057"/>
<path d="M20.0793 86.2596H21.4628V86.554H20.0793V87.5382H21.5516V87.8326H19.7646V85.009H21.5515V85.3035H20.0792V86.2596H20.0793Z" fill="#273057"/>
<path d="M23.5131 84.981C23.938 84.981 24.2929 85.1383 24.578 85.4529L24.3723 85.6384C24.1383 85.3964 23.852 85.2754 23.5131 85.2754C23.1985 85.2754 22.9329 85.385 22.7164 85.6042C22.5 85.8234 22.3917 86.0956 22.3917 86.421C22.3917 86.7464 22.4999 87.0187 22.7164 87.2378C22.9329 87.457 23.1984 87.5666 23.5131 87.5666C23.8573 87.5666 24.1437 87.4455 24.3723 87.2035L24.578 87.3971C24.2957 87.7064 23.9407 87.861 23.5131 87.861C23.1151 87.861 22.7762 87.7205 22.4966 87.4395C22.2169 87.1585 22.0771 86.819 22.0771 86.4209C22.0771 86.023 22.217 85.6834 22.4966 85.4024C22.7762 85.1216 23.1151 84.981 23.5131 84.981Z" fill="#273057"/>
<path d="M27.1585 87.8327L26.5857 86.9372C26.4809 86.7785 26.3968 86.6736 26.3336 86.6225C26.2704 86.5714 26.1715 86.5459 26.0371 86.5459H25.5773V87.8327H25.2627V85.009H25.5773V86.2474H25.9928C26.1273 86.2474 26.2261 86.2225 26.2893 86.1728C26.3524 86.123 26.4365 86.0175 26.5414 85.8561L27.0859 85.009H27.4449L26.8237 85.9651C26.735 86.0968 26.6637 86.1929 26.61 86.2535C26.5561 86.3139 26.5011 86.3577 26.4446 86.3845C26.5172 86.4088 26.5823 86.4525 26.6402 86.5157C26.698 86.5789 26.7739 86.6831 26.8681 86.8283L27.5175 87.8327H27.1585V87.8327Z" fill="#273057"/>
<path d="M28.5431 87.0824L28.2365 87.8327H27.8896L29.0594 85.009H29.2369L30.4027 87.8327H30.0558L29.7492 87.0824H28.5431ZM29.1481 85.59L28.656 86.7879H29.6402L29.1481 85.59Z" fill="#273057"/>
<path d="M32.9275 87.8326H32.6129V87.042H32.032C31.8761 87.0447 31.7543 87.0729 31.6669 87.1266C31.5795 87.1805 31.478 87.2961 31.3624 87.4736L31.1284 87.8326H30.7734L31.0558 87.4009C31.2144 87.1536 31.369 86.9975 31.5197 86.9331C31.2991 86.8685 31.1244 86.7583 30.9953 86.6023C30.8662 86.4464 30.8017 86.2541 30.8017 86.0255C30.8017 85.7136 30.914 85.4662 31.1385 85.2833C31.3631 85.1005 31.6568 85.009 32.0199 85.009H32.9275V87.8326ZM32.6129 85.3035H31.9958C31.7349 85.3035 31.5204 85.3646 31.3524 85.487C31.1843 85.6094 31.1003 85.7889 31.1003 86.0255C31.1003 86.2648 31.1843 86.445 31.3524 86.566C31.5205 86.6871 31.7349 86.7475 31.9958 86.7475H32.6129V85.3035Z" fill="#273057"/>
<path d="M37.0169 87.8327L36.4442 86.9372C36.3393 86.7785 36.2552 86.6736 36.1921 86.6225C36.1289 86.5714 36.0301 86.5459 35.8956 86.5459H35.4358V87.8327H35.1211V85.009H35.4358V86.2474H35.8512C35.9857 86.2474 36.0844 86.2225 36.1477 86.1728C36.2109 86.123 36.295 86.0175 36.3998 85.8561L36.9444 85.009H37.3034L36.6822 85.9651C36.5934 86.0968 36.5222 86.1929 36.4683 86.2535C36.4145 86.3139 36.3594 86.3577 36.3029 86.3845C36.3756 86.4088 36.4407 86.4525 36.4986 86.5157C36.5564 86.5789 36.6324 86.6831 36.7265 86.8283L37.376 87.8327H37.0169V87.8327Z" fill="#273057"/>
<path d="M38.1372 85.4025C38.4169 85.1216 38.7557 84.981 39.1537 84.981C39.5516 84.981 39.8912 85.1215 40.1722 85.4025C40.4532 85.6835 40.5938 86.0231 40.5938 86.4211C40.5938 86.8191 40.4532 87.1586 40.1722 87.4396C39.8912 87.7206 39.5517 87.8611 39.1537 87.8611C38.7556 87.8611 38.4169 87.7207 38.1372 87.4396C37.8575 87.1586 37.7178 86.8191 37.7178 86.4211C37.7178 86.0231 37.8575 85.6835 38.1372 85.4025ZM39.9525 85.6042C39.7346 85.385 39.4684 85.2754 39.1537 85.2754C38.8391 85.2754 38.5736 85.385 38.3571 85.6042C38.1406 85.8234 38.0324 86.0956 38.0324 86.421C38.0324 86.7464 38.1406 87.0187 38.3571 87.2378C38.5736 87.457 38.8391 87.5666 39.1537 87.5666C39.4684 87.5666 39.7346 87.457 39.9525 87.2378C40.1703 87.0186 40.2792 86.7464 40.2792 86.421C40.2792 86.0957 40.1703 85.8234 39.9525 85.6042Z" fill="#273057"/>
<path d="M44.024 87.8327H43.7094V85.6141L42.6565 86.9533L41.6037 85.6141V87.8327H41.2891V85.009H41.4665L42.6565 86.5257L43.8464 85.009H44.0238V87.8327H44.024Z" fill="#273057"/>
<path d="M47.0093 87.8327H46.6946V85.3035H45.2062V87.8327H44.8916V85.009H47.0093V87.8327Z" fill="#273057"/>
<path d="M48.2472 87.0824L47.9406 87.8327H47.5938L48.7635 85.009H48.941L50.1068 87.8327H49.7598L49.4532 87.0824H48.2472ZM48.8523 85.59L48.3602 86.7879H49.3444L48.8523 85.59Z" fill="#273057"/>
<path d="M52.8262 87.8327H52.5116V86.5499H51.007V87.8327H50.6924V85.009H51.007V86.2555H52.5116V85.009H52.8262V87.8327Z" fill="#273057"/>
<path d="M55.7893 87.8327H55.4746V85.6262L53.8288 87.8327H53.6514V85.009H53.966V87.2154L55.6158 85.009H55.7893V87.8327Z" fill="#273057"/>
<path d="M58.5457 87.8326H58.231V87.042H57.6502C57.4942 87.0447 57.3725 87.0729 57.2851 87.1266C57.1977 87.1805 57.0961 87.2961 56.9805 87.4736L56.7466 87.8326H56.3916L56.674 87.4009C56.8326 87.1536 56.9872 86.9975 57.1379 86.9331C56.9173 86.8685 56.7425 86.7583 56.6135 86.6023C56.4844 86.4464 56.4199 86.2541 56.4199 86.0255C56.4199 85.7136 56.5321 85.4662 56.7567 85.2833C56.9812 85.1005 57.275 85.009 57.6381 85.009H58.5457V87.8326ZM58.231 85.3035H57.6139C57.353 85.3035 57.1385 85.3646 56.9706 85.487C56.8024 85.6094 56.7184 85.7889 56.7184 86.0255C56.7184 86.2648 56.8024 86.445 56.9706 86.566C57.1386 86.6871 57.353 86.7475 57.6139 86.7475H58.231V85.3035Z" fill="#273057"/>
<path d="M37.938 31.1948C37.899 31.1714 37.8639 31.1598 37.8326 31.1598C37.7704 31.1598 37.7393 31.1755 37.7393 31.2065C37.4431 32.313 36.8512 33.1894 35.9629 33.8357C35.0748 34.4825 34.0234 34.8057 32.8081 34.8057H32.0134C31.608 34.8057 31.3159 34.7745 31.1369 34.7122C30.9575 34.6501 30.8368 34.5292 30.7746 34.35C30.7123 34.1713 30.681 33.8788 30.681 33.4737V31.6479C31.0344 31.5449 31.3764 31.4184 31.7045 31.2638C32.6881 30.8004 33.4544 30.1667 34.0032 29.3623C34.5515 28.5583 34.826 27.6643 34.826 26.6807C34.826 25.1108 34.1878 23.9092 32.9105 23.0768C32.256 22.6503 31.5119 22.3346 30.681 22.1267V21.2457C30.681 20.7782 30.7198 20.4315 30.798 20.2054C30.8758 19.9799 31.0317 19.824 31.2655 19.7381C31.4992 19.6528 31.8573 19.6097 32.3405 19.6097C32.3871 19.6097 32.4105 19.5631 32.4105 19.4695C32.4105 19.376 32.3872 19.3293 32.3405 19.3293L31.1485 19.3525C30.4316 19.384 28.3127 19.384 27.596 19.3525L26.4042 19.3293C26.3729 19.3293 26.3575 19.376 26.3575 19.4695C26.3575 19.5631 26.373 19.6097 26.4042 19.6097C26.8871 19.6097 27.2457 19.6528 27.4792 19.7381C27.713 19.824 27.8725 19.976 27.9584 20.1937C28.0439 20.4121 28.087 20.7549 28.087 21.2222V21.8286C28.0819 21.8286 28.0771 21.8281 28.0721 21.8281C27.3154 21.8281 26.5584 21.8849 25.8018 21.9985V16.5781C25.8018 15.8784 25.9107 15.4005 26.1282 15.145C26.3458 14.8896 26.757 14.7619 27.3627 14.7619H28.5548C29.6898 14.7619 30.6402 15.1265 31.4064 15.8545C32.1726 16.5828 32.6977 17.6756 32.9815 19.132C33.0191 19.1887 33.0851 19.2174 33.1799 19.2174C33.2746 19.2174 33.322 19.1887 33.322 19.132L33.0951 14.8186C33.0951 14.4974 33.0616 14.2985 32.9955 14.2229C32.9289 14.1475 32.7638 14.1094 32.4989 14.1094H20.6087C20.5707 14.1094 20.5521 14.1661 20.5521 14.2797C20.5521 14.3933 20.5707 14.4499 20.6087 14.4499C21.1948 14.4499 21.6305 14.5023 21.9141 14.6058C22.1978 14.7101 22.3868 14.8947 22.4817 15.1592C22.576 15.4244 22.6235 15.8405 22.6235 16.4079V29.5469C22.6235 30.1146 22.5712 30.5354 22.4671 30.8097C22.3633 31.0841 22.1738 31.2686 21.8997 31.363C21.6254 31.4577 21.1856 31.5048 20.5802 31.5048C20.5234 31.5048 20.4951 31.5615 20.4951 31.675C20.4951 31.7886 20.5234 31.8454 20.5802 31.8454C21.2231 31.8454 21.7341 31.836 22.1126 31.8171L24.1843 31.7887C24.6759 31.7887 25.1252 31.7983 25.5321 31.8171C25.9387 31.8361 26.2842 31.8547 26.568 31.8737C27.1412 31.9189 27.6455 31.9454 28.0868 31.9546V33.5673C28.0868 34.0347 28.0437 34.3814 27.9582 34.6072C27.8723 34.8333 27.7166 34.9852 27.4907 35.0629C27.2646 35.1409 26.9026 35.1797 26.404 35.1797C26.3727 35.1797 26.3573 35.2264 26.3573 35.3199C26.3573 35.4135 26.3728 35.4602 26.404 35.4602H37.4351C37.5596 35.4602 37.6493 35.4332 37.7042 35.3783C37.7586 35.3239 37.7857 35.2345 37.7857 35.1099C37.7857 34.0815 37.856 32.7959 37.9962 31.2533C37.9964 31.238 37.9766 31.2182 37.938 31.1948ZM31.2578 23.786C32.0334 24.5619 32.4214 25.7633 32.4214 27.3902C32.4214 28.6578 32.1278 29.6176 31.5415 30.2702C31.358 30.4745 31.0525 30.6468 30.681 30.7871V23.3794C30.9102 23.5006 31.1075 23.6358 31.2578 23.786ZM27.8736 31.2495C27.041 31.2495 26.4874 31.1075 26.2134 30.8238C25.9389 30.54 25.8018 30.1145 25.8018 29.5468V22.7363C26.1993 22.6605 26.6251 22.6227 27.079 22.6227C27.3916 22.6227 27.7348 22.6432 28.087 22.6818V31.2462C28.0145 31.2482 27.9428 31.2495 27.8736 31.2495Z" fill="#273057"/>
</svg>
