<svg width="74" height="97" viewBox="0 0 74 97" fill="none" xmlns="http://www.w3.org/2000/svg">
<path d="M16.2346 29.645C15.7883 37.0195 17.6613 43.9627 21.8016 50.2823C24.6407 54.6158 28.4955 58.6195 33.5866 62.5221C34.319 63.0837 36.5424 64.4942 36.6366 64.554L37.0515 64.817L37.4665 64.554C37.5607 64.4942 39.7838 63.0836 40.5159 62.5221C45.6074 58.6188 49.4626 54.615 52.3016 50.2815C56.4426 43.9616 58.3155 37.0186 57.8685 29.6453C57.6377 25.8362 57.9787 21.8307 58.8819 17.7403L59.0786 16.8497L58.1679 16.7995C48.2601 16.2538 41.0162 10.8067 37.5801 7.6085L37.0521 7.11694L36.5241 7.6085C33.0883 10.8072 25.8448 16.255 15.9352 16.7997L15.0244 16.8498L15.2212 17.7405C16.1243 21.8304 16.4654 25.8356 16.2346 29.645ZM37.0522 9.2244C40.7113 12.5002 47.7271 17.4858 57.1828 18.2841C56.3886 22.2107 56.0988 26.06 56.3215 29.739C57.0511 41.7716 51.5727 52.0928 39.5733 61.2924C39.0751 61.6743 37.736 62.5414 37.0515 62.9803C36.3671 62.5414 35.0276 61.6743 34.5294 61.2924C22.5314 52.0946 17.0532 41.7733 17.7814 29.7386C18.0044 26.0596 17.7146 22.2106 16.9201 18.2841C26.3777 17.4868 33.3934 12.5007 37.0522 9.2244Z" fill="#2A2A61"/>
<path d="M43.4842 74.8837C43.4774 74.8051 43.466 74.7281 43.4514 74.6522C43.1195 75.8038 40.3812 76.7019 37.0523 76.7019C33.7233 76.7019 30.985 75.8038 30.6531 74.6522C30.6385 74.7281 30.6272 74.8051 30.6204 74.8837C30.2326 79.3566 28.6648 82.6608 27.6255 84.4126C27.1094 85.2827 27.2322 86.3869 27.9313 87.1181C29.8601 89.1353 33.5389 93.1739 35.5858 96.6571C35.7874 97.0004 36.3109 96.8593 36.3109 96.4614V84.6754C35.727 84.3976 35.3224 83.804 35.3224 83.1142C35.3224 82.1588 36.0969 81.3843 37.0523 81.3843C38.0076 81.3843 38.7821 82.1588 38.7821 83.1142C38.7821 83.8039 38.3775 84.3975 37.7936 84.6754V96.4614C37.7936 96.8593 38.3171 97.0004 38.5187 96.6571C40.5657 93.1739 44.2444 89.1353 46.1733 87.1181C46.8723 86.3869 46.995 85.2826 46.479 84.4126C45.4396 82.6608 43.8717 79.3566 43.4842 74.8837Z" fill="#2A2A61"/>
<path d="M11.673 29.3689C11.2208 36.8438 13.2986 44.3465 17.8489 51.6682C19.4551 54.2529 21.4703 56.5001 23.2299 58.9412C24.7775 61.0883 26.2451 63.2911 27.7255 65.4844C28.3939 66.4746 28.936 67.4007 29.4352 68.4714C29.8352 69.3292 31.2075 70.9406 31.2075 71.8639H31.2073C30.8314 72.1542 30.6202 72.4771 30.6202 72.8176C30.6202 74.0799 33.5005 75.1031 37.0533 75.1031C40.606 75.1031 43.4862 74.0799 43.4862 72.8176C43.4862 72.4771 43.2749 72.1542 42.899 71.8639C42.879 71.3909 43.6927 70.3793 43.9078 69.9794C45.6601 66.7231 47.4981 63.5036 49.6349 60.4814C51.7606 57.4747 54.3082 54.8052 56.2579 51.6683C60.8086 44.3464 62.8864 36.8438 62.4331 29.3689C61.9381 21.1947 64.6586 14.1268 64.6856 14.0576L65.5959 11.7408L63.1271 12.0592C56.8014 12.8747 50.7049 11.389 45.0057 7.6428C40.6944 4.80924 38.2427 1.67519 38.2182 1.64382L37.0551 0.136719L35.888 1.64391C35.8636 1.67527 33.4122 4.80924 29.1012 7.64271C23.402 11.3889 17.3049 12.8748 10.9791 12.0591L8.51562 11.7427L9.42014 14.0564C9.44776 14.1267 12.1683 21.1946 11.673 29.3689ZM30.8107 10.0424C33.7331 8.10807 35.8479 6.07653 37.0533 4.78562C38.2586 6.07635 40.3733 8.10789 43.2961 10.0424C48.8536 13.7204 55.0056 15.4774 61.214 15.1811C60.3641 18.0653 59.1261 23.4663 59.4941 29.5469C60.5559 47.059 46.0295 60.1756 41.5521 63.7785C40.7451 64.428 38.4687 65.8959 37.053 66.7905C35.6373 65.8961 33.3612 64.4284 32.5537 63.7785C28.0769 60.1761 13.552 47.0614 14.6119 29.5467C14.9804 23.4663 13.7422 18.0652 12.8922 15.1811C19.1035 15.4774 25.2537 13.7205 30.8107 10.0424Z" fill="#2A2A61"/>
<path d="M68.0543 45.2962C68.3196 45.5817 68.7781 45.6964 69.2382 45.7172C69.699 45.7386 70.1603 45.6647 70.446 45.5902C70.9424 45.4602 71.4209 45.2291 71.8428 44.9296C72.2607 44.6295 72.6429 44.2655 72.9944 43.883C73.0564 43.818 73.2797 43.5124 73.497 43.2418C73.716 42.9719 73.9159 42.7353 73.9996 42.8318C73.623 42.3889 73.1269 42.0569 72.6739 42.0054C72.1499 41.9462 71.6433 42.0259 71.1452 42.1985C70.9276 42.2736 70.7114 42.3664 70.497 42.4733C70.2806 42.5797 70.0597 42.6993 69.843 42.8298C69.4084 43.0906 68.9764 43.3929 68.5579 43.7129C68.5026 43.7546 68.4443 43.8014 68.3848 43.8519L68.6335 42.6061C68.709 42.254 68.7642 41.898 68.8201 41.5422C69.0716 41.8029 69.4885 41.8774 69.8995 41.8585C70.3111 41.8399 70.7162 41.727 70.9619 41.6285C71.4382 41.4384 71.8642 41.1259 72.243 40.7451L72.238 40.7443L70.8054 40.5227C70.7434 40.5577 70.6808 40.5911 70.6179 40.6234C70.2544 40.8105 69.8735 40.9641 69.4802 41.0936C69.2836 41.1588 69.0837 41.2156 68.8804 41.2666C68.8749 41.268 68.8688 41.2691 68.8632 41.2711L68.9571 40.6789C69.1165 40.6688 69.276 40.6541 69.4346 40.6343C69.7376 40.5962 70.0365 40.5336 70.3288 40.4491L70.316 40.4471L67.1801 39.9623L67.1674 39.9604C67.4178 40.1219 67.6807 40.269 67.9555 40.3974C68.0994 40.4646 68.2456 40.528 68.3931 40.5874L68.2868 41.1716C68.2821 41.1679 68.2769 41.1648 68.2721 41.1617C68.0971 41.0464 67.9269 40.928 67.7623 40.805C67.4335 40.56 67.1216 40.3038 66.8365 40.0307C66.7871 39.9835 66.7381 39.9356 66.691 39.8868C66.4652 39.6573 66.2472 39.4109 66.059 39.1528C65.8338 38.837 65.6484 38.4949 65.5268 38.1243C65.5907 38.3063 65.6804 38.4749 65.7769 38.6371C65.8783 38.7956 65.9934 38.9437 66.1164 39.0854C66.2404 39.2265 66.3778 39.3556 66.5191 39.4805C66.6626 39.6027 66.8157 39.7181 66.9674 39.8276C67.0329 39.8727 67.0993 39.9176 67.1674 39.9606L70.3285 40.4495C70.4075 40.4273 70.4858 40.4026 70.5633 40.3769C70.7473 40.3131 70.924 40.2405 71.0944 40.1563C71.2638 40.0685 71.4307 39.9734 71.588 39.8599C71.7448 39.7455 71.8958 39.6198 72.037 39.4772C72.1743 39.3293 72.307 39.1704 72.4189 38.9884C72.1995 39.3616 71.9271 39.679 71.6249 39.9483C71.373 40.1673 71.1046 40.3592 70.8053 40.5231L72.2429 40.7454C72.3991 40.5929 72.5375 40.4279 72.6647 40.2552C72.7936 40.0828 72.9149 39.9032 73.0296 39.7207C73.0726 39.6508 73.2345 39.3302 73.3858 39.0443C73.5381 38.7589 73.6888 38.5094 73.7663 38.5972C73.5895 38.3945 73.3846 38.2207 73.1778 38.0962C72.9717 37.9718 72.7654 37.8968 72.5751 37.8902C72.1337 37.8742 71.7287 37.9955 71.3187 38.2063C70.6043 38.5764 69.8933 39.2202 69.1968 39.9274C69.1502 39.9765 69.1013 40.0281 69.0517 40.0804L69.2929 38.0616C69.5144 38.3011 69.8776 38.3428 70.2299 38.2923C70.5819 38.2422 70.9266 38.0997 71.1254 37.983C71.8274 37.5773 72.3315 36.7833 72.6656 35.9383C72.6952 35.8663 72.7791 35.5373 72.8618 35.2444C72.9421 34.9516 73.0216 34.6955 73.095 34.7768C72.7541 34.4017 72.3781 34.1484 72.0843 34.1605C71.7436 34.175 71.4371 34.3225 71.1369 34.5611C70.8741 34.7692 70.6183 35.0467 70.3551 35.3663C70.0989 35.6863 69.8143 36.0469 69.534 36.4245C69.4969 36.4739 69.4576 36.5289 69.4177 36.5874L69.4673 35.9553L69.4914 35.6395L69.5043 35.3226L69.547 34.245C69.7294 34.4667 70.0149 34.4803 70.2821 34.4037C70.55 34.3273 70.798 34.1602 70.9409 34.0298C71.2188 33.7781 71.4372 33.4155 71.5724 32.9958L71.5692 32.9957L70.6821 32.9695C70.6511 33.0122 70.6191 33.0531 70.5863 33.0933C70.4917 33.2093 70.3908 33.3181 70.2847 33.4206C70.1761 33.5232 70.0598 33.6192 69.9409 33.7102C69.8213 33.8016 69.6973 33.8854 69.5687 33.9643C69.5652 33.9662 69.5613 33.9684 69.5578 33.9711L69.5791 33.3729C69.6773 33.3412 69.774 33.3048 69.8693 33.2637C70.0508 33.185 70.225 33.0829 70.3868 32.9608H70.389C70.4318 32.9287 70.4741 32.8957 70.5153 32.8607C70.6132 32.7737 70.7066 32.6794 70.7931 32.5748C70.8782 32.4665 70.9586 32.3529 71.0281 32.2223C71.0979 32.0908 71.1571 31.949 71.2054 31.7937C71.2507 31.6333 71.287 31.4633 71.3064 31.2742C71.2719 31.6608 71.1916 32.0027 71.0639 32.3027C70.9586 32.5483 70.8308 32.7701 70.6833 32.9696L71.5724 32.9957H71.5737C71.6831 32.658 71.7583 32.2846 71.7947 31.9051C71.8023 31.8324 71.8093 31.5037 71.8139 31.2118C71.8133 30.9201 71.8043 30.6655 71.8691 30.7401C71.571 30.3953 71.2875 30.1691 71.112 30.1974C70.9088 30.2307 70.7501 30.3927 70.5905 30.6459C70.4814 30.8186 70.378 31.0336 70.259 31.2786C70.1399 31.5235 70.0158 31.7986 69.8835 32.0914C69.9117 31.7804 69.9309 31.4159 69.9219 31.0027C69.9108 30.5895 69.8773 30.128 69.8221 29.6236C69.7567 29.0379 69.6628 28.4943 69.5741 28.0087C69.4855 27.523 69.4022 27.0953 69.3424 26.7394C69.2384 26.1424 69.1983 25.7489 69.1879 25.6378C69.1918 25.6829 69.1988 25.7733 69.2058 25.9066C69.2154 26.1025 69.2228 26.3889 69.2123 26.7491C69.2039 27.109 69.176 27.5427 69.1361 28.0315C69.0966 28.5204 69.0449 29.0638 69.0069 29.6442C68.9766 30.1277 68.9525 30.5691 68.9418 30.9657C68.9295 31.3622 68.9227 31.7138 68.9388 32.0172C68.7068 31.4582 68.5027 30.982 68.2872 30.6648C68.1242 30.4235 67.9592 30.2742 67.7557 30.2488C67.5792 30.2272 67.3038 30.4502 67.0104 30.7719C67.0736 30.7018 67.0708 30.9373 67.066 31.2072C67.0602 31.4768 67.0555 31.7807 67.0603 31.8482C67.0832 32.1996 67.1449 32.5477 67.2421 32.8681H67.2434L67.6797 32.881L67.2466 32.8683L67.2435 32.8682C67.3041 33.0671 67.3889 33.2555 67.4768 33.4266C67.5656 33.5977 67.6716 33.752 67.7956 33.8832C67.9236 34.0189 68.1519 34.202 68.4101 34.3041C68.6672 34.4057 68.9522 34.4255 69.1583 34.225L69.0808 35.2933L69.0583 35.6072L69.0245 35.9201L68.9562 36.5457C68.9278 36.4814 68.8993 36.421 68.8719 36.3664C68.6636 35.9503 68.4626 35.5617 68.2315 35.2198C68.0053 34.8782 67.7815 34.5859 67.543 34.3632C67.2702 34.1079 66.9813 33.9447 66.6439 33.9005C66.3528 33.8629 65.9515 34.0581 65.5733 34.3498C65.6549 34.2863 65.707 34.5191 65.7558 34.7867C65.8083 35.0691 65.8605 35.3517 65.874 35.4248C66.0554 36.2125 66.4107 37.0057 67.0259 37.5268C67.202 37.6756 67.492 37.8803 67.8234 38.0079C68.1523 38.1348 68.5148 38.183 68.7914 38.0034L68.5013 39.9968C68.4711 39.9301 68.4354 39.8666 68.4039 39.8096C67.9156 38.9363 67.3898 38.1727 66.788 37.687C66.4407 37.4086 66.0528 37.2186 65.6204 37.1447C65.2421 37.08 64.7633 37.241 64.3141 37.4969C64.4103 37.4414 64.4971 37.678 64.576 37.9493C64.6541 38.2201 64.7333 38.5267 64.7582 38.5959C64.8895 38.9568 65.0579 39.3224 65.2532 39.6646C65.495 40.09 65.8005 40.485 66.1901 40.8029C66.3913 40.967 66.7376 41.2001 67.1191 41.3577C67.5003 41.5147 67.9162 41.5953 68.2386 41.4392C68.1763 41.7899 68.1145 42.141 68.0324 42.4879L67.7633 43.715C67.7291 43.6446 67.6945 43.578 67.6605 43.5177C67.4056 43.0575 67.128 42.6223 66.829 42.2352C66.6788 42.0413 66.5256 41.8601 66.3602 41.6919C66.1924 41.5235 66.0187 41.3692 65.837 41.2316C65.4221 40.9164 64.9673 40.6895 64.4535 40.5723C64.0089 40.4716 63.4374 40.5824 62.9485 40.7981C63.0521 40.7505 63.1847 40.9998 63.2887 41.2792C63.391 41.558 63.4845 41.8716 63.5178 41.9439C63.7014 42.3637 63.9178 42.7912 64.1881 43.1957C64.4578 43.5998 64.7674 43.9774 65.1561 44.3002C65.3773 44.4842 65.7537 44.751 66.1712 44.946C66.5881 45.1404 67.0448 45.2616 67.4125 45.1367L67.1616 46.1106L66.8758 47.0746C66.8429 47.0011 66.8089 46.9316 66.7755 46.8684C66.5215 46.3851 66.2507 45.9285 65.9197 45.5094C65.5934 45.0914 65.2412 44.7204 64.8489 44.4131C64.4007 44.0619 63.9026 43.7945 63.3369 43.6316C62.8481 43.4908 62.2188 43.5506 61.6877 43.7226C61.8028 43.6851 61.942 43.9438 62.0666 44.236C62.1941 44.5283 62.3132 44.8563 62.344 44.9303C62.5196 45.3199 62.7179 45.7176 62.962 46.1039C63.2641 46.5834 63.6322 47.0455 64.0789 47.4408C64.308 47.6442 64.6977 47.9437 65.1326 48.1747C65.567 48.4051 66.046 48.566 66.4452 48.473L66.1023 49.4838L65.9006 50.0776L65.6763 50.6633C65.6458 50.5867 65.6143 50.5138 65.5825 50.4474C65.4618 50.1932 65.3403 49.9472 65.1956 49.7039C65.052 49.4609 64.8994 49.2259 64.7369 49.0015C64.412 48.5527 64.0474 48.1462 63.6386 47.8008C63.1725 47.4056 62.6462 47.0905 62.0459 46.8737C61.527 46.6872 60.8553 46.687 60.2965 46.8104C60.4166 46.783 60.569 47.0571 60.7027 47.3638C60.8365 47.6697 60.9518 48.0081 60.9885 48.0875C61.0988 48.3202 61.2037 48.5508 61.3211 48.7824C61.4407 49.0146 61.5701 49.247 61.7121 49.4758C61.9962 49.9331 62.3308 50.3766 62.7395 50.7738C62.9758 51.0019 63.3665 51.3381 63.8046 51.6093C64.2435 51.8801 64.7297 52.0846 65.151 52.0282L64.7562 52.9516C64.6228 53.2585 64.4974 53.569 64.3575 53.8731C64.3312 53.7941 64.3045 53.7192 64.2737 53.649C63.8237 52.5834 63.2157 51.5921 62.4004 50.8333C61.9271 50.3956 61.3879 50.0329 60.774 49.7648C60.5085 49.6486 60.2051 49.578 59.898 49.5464C59.5891 49.5141 59.2829 49.5241 58.9943 49.5622C59.1177 49.5448 59.2693 49.8326 59.3992 50.1513C59.5289 50.4693 59.6371 50.8187 59.6723 50.9013C59.8527 51.3301 60.0639 51.7776 60.2927 52.2067C60.5797 52.7419 60.9223 53.2675 61.3566 53.7439C61.5818 53.9901 61.9639 54.3605 62.3948 54.6684C62.8256 54.9758 63.3057 55.2193 63.7305 55.1934C63.5837 55.5173 63.4131 55.8292 63.2487 56.1439L62.6658 57.253C62.6445 57.1713 62.6195 57.0922 62.5947 57.02C62.4082 56.4689 62.1779 55.9315 61.8957 55.4286C61.6115 54.9241 61.2849 54.4599 60.8823 54.0375C60.4275 53.5565 59.8994 53.1457 59.2914 52.8232C58.7656 52.5452 58.08 52.4336 57.5186 52.4712C57.6419 52.4638 57.7894 52.7686 57.907 53.0992C58.0262 53.4302 58.1205 53.7908 58.1522 53.877C58.2448 54.1278 58.3424 54.3828 58.4482 54.6393C58.5009 54.7674 58.5564 54.8965 58.6141 55.0248C58.6693 55.1517 58.7272 55.2785 58.7878 55.4049C59.03 55.9101 59.3175 56.4088 59.6793 56.8719C59.8866 57.1369 60.2403 57.5391 60.6454 57.8823C61.0506 58.225 61.5082 58.5075 61.9339 58.5173C61.8491 58.6612 61.7692 58.8083 61.68 58.9497L61.4108 59.3729L60.8723 60.219C60.8572 60.1357 60.84 60.0557 60.8214 59.9822C60.6831 59.4213 60.4972 58.8694 60.2545 58.3472C60.0157 57.8276 59.7016 57.3253 59.3347 56.8762C58.9135 56.3619 58.4126 55.9107 57.828 55.5419C57.3219 55.2232 56.6523 55.0609 56.0996 55.0572C56.2194 55.0576 56.3529 55.3769 56.4586 55.7223C56.5605 56.0631 56.6345 56.4315 56.661 56.5198C56.7994 56.981 56.9508 57.4569 57.134 57.9306C57.3562 58.5143 57.6154 59.0864 57.969 59.6263C58.152 59.9049 58.4665 60.3299 58.8349 60.6994C59.2038 61.0687 59.6278 61.3813 60.0469 61.4227C59.843 61.7133 59.6446 62.008 59.4232 62.2854L58.6613 63.2785C58.6552 63.1951 58.6464 63.1147 58.6357 63.0406C58.5581 62.4758 58.4302 61.915 58.2414 61.3786C58.0561 60.8447 57.7957 60.3234 57.4726 59.8463C57.1041 59.3007 56.6497 58.8118 56.1082 58.3991C55.6388 58.0428 55.0026 57.8314 54.4739 57.7899C54.5881 57.7976 54.7007 58.1308 54.7774 58.4823C54.854 58.8316 54.8995 59.206 54.9186 59.2967C55.0303 59.8238 55.1563 60.3736 55.3124 60.9122C55.4644 61.446 55.653 61.9768 55.9121 62.4809C56.061 62.7694 56.3205 63.2115 56.6363 63.6017C56.9528 63.9916 57.3271 64.3289 57.7277 64.3997L57.4047 64.7832L57.065 65.1513L56.3836 65.8861C56.3873 65.8046 56.3882 65.7259 56.3863 65.6529C56.3756 65.0974 56.3136 64.5407 56.1869 64.0018C56.1257 63.7345 56.0417 63.465 55.9408 63.2017C55.8409 62.9396 55.7242 62.6843 55.5906 62.4385C55.2856 61.876 54.8901 61.3623 54.4044 60.9191C53.9838 60.5355 53.3923 60.2869 52.8946 60.217C53.0031 60.2323 53.0832 60.5684 53.1326 60.9284C53.1813 61.2851 53.1901 61.6563 53.2013 61.7484C53.2566 62.2227 53.3152 62.7104 53.3997 63.1981C53.5011 63.7992 53.6235 64.382 53.8364 64.9451C53.9465 65.2353 54.1439 65.6807 54.3999 66.0776C54.657 66.4746 54.9741 66.823 55.3511 66.9165L54.9709 67.2889C54.8414 67.4098 54.7061 67.5248 54.5741 67.6429L53.6366 68.4715C53.6526 68.3948 53.664 68.3187 53.6726 68.2488C53.7402 67.7155 53.7572 67.1763 53.7079 66.648C53.6834 66.3836 53.6424 66.1223 53.5838 65.866C53.5217 65.6053 53.4404 65.3474 53.3432 65.0995C53.1216 64.5319 52.8056 64.0049 52.3972 63.5429C52.0432 63.1437 51.5145 62.8682 51.0617 62.7813C51.1107 62.7904 51.1466 62.8804 51.1714 63.0134C51.1975 63.148 51.2098 63.322 51.21 63.495C51.2138 63.8451 51.1816 64.2146 51.1806 64.3044C51.179 64.5671 51.1763 64.8325 51.1804 65.1032C51.1848 65.3619 51.1893 65.6265 51.1938 65.8986C51.2095 66.4206 51.2504 66.9359 51.3594 67.4323C51.4222 67.7162 51.5435 68.1507 51.7251 68.5393C51.9078 68.9283 52.153 69.2718 52.4951 69.3796L52.2985 69.5349L52.0943 69.6799L51.6857 69.97C51.4125 70.1616 51.1442 70.3616 50.8665 70.5471C50.8954 70.4796 50.9193 70.4115 50.9379 70.346C51.0856 69.8553 51.1817 69.349 51.2128 68.8494C51.2283 68.5995 51.2271 68.3508 51.2082 68.1052C51.1879 67.858 51.1451 67.6062 51.0868 67.3652C50.9526 66.8119 50.7211 66.2896 50.3964 65.8294C50.1138 65.4296 49.6561 65.15 49.2503 65.0626C49.3374 65.0791 49.3439 65.4251 49.2982 65.7588C49.2565 66.0978 49.1767 66.4525 49.1654 66.5414C49.1341 66.766 49.1022 66.9952 49.0696 67.2294C49.0544 67.343 49.039 67.4579 49.0235 67.5741C49.0075 67.6831 48.9913 67.7934 48.9749 67.905L49.7571 69.1254C49.7576 68.7832 49.7615 68.4195 49.7748 68.05C49.7957 67.604 49.8387 67.1496 49.9205 66.7065C49.885 66.9295 49.8656 67.1527 49.8518 67.375C49.8433 67.5982 49.8445 67.8186 49.8503 68.0353C49.857 68.2522 49.8749 68.4652 49.8948 68.6743C49.9185 68.8846 49.9446 69.0857 49.9732 69.2818C49.9874 69.3641 50.0017 69.4465 50.0161 69.5296L50.8757 70.8712L50.0231 69.5405L50.0162 69.5296C50.0715 69.8346 50.1383 70.132 50.2212 70.4201C50.2651 70.5709 50.3116 70.7193 50.3609 70.8652L49.8607 71.1806C49.8607 71.175 49.8598 71.1693 49.8592 71.1638C49.8402 70.9675 49.8237 70.7698 49.8109 70.5694C49.7849 70.1695 49.765 69.7598 49.7587 69.3427C49.7582 69.27 49.7576 69.1971 49.7571 69.1253L48.9776 67.9092L48.9749 67.9049C48.899 68.4518 48.8504 68.995 48.8752 69.5042C48.8891 69.7686 48.9333 70.1717 49.0413 70.5325C49.1464 70.8863 49.3258 71.2145 49.6318 71.3249C49.328 71.5083 49.0126 71.6712 48.7032 71.8455L48.1552 72.1485C47.9713 72.2472 47.7797 72.3306 47.5924 72.4222C47.6325 72.3643 47.6692 72.3075 47.7007 72.2542C47.948 71.8594 48.1259 71.3989 48.2476 70.9533C48.3677 70.5045 48.4218 70.0515 48.3994 69.6129C48.3748 69.1109 48.2425 68.6139 48.0182 68.183C47.9204 67.9957 47.7762 67.8367 47.6128 67.7156C47.531 67.655 47.4442 67.6039 47.3558 67.5638C47.2661 67.5213 47.1736 67.4869 47.0831 67.4664C47.1623 67.4848 47.1061 67.7944 47.0104 68.1161C46.9162 68.4382 46.7819 68.7722 46.755 68.8529C46.7167 68.9711 46.6781 69.0906 46.6389 69.2117C46.599 69.3293 46.5563 69.4403 46.5155 69.5545C46.4373 69.7731 46.3573 69.997 46.2752 70.2271C46.1237 70.6704 45.9966 71.1075 45.9239 71.4962C45.8824 71.7175 45.8399 72.0528 45.8668 72.3531C45.8946 72.6541 45.9936 72.9203 46.2648 73.0312L46.0515 73.1175C46.1119 73.2312 46.1732 73.3447 46.2048 73.4705C46.207 73.4792 46.207 73.4873 46.2088 73.4958L46.4216 73.4178C46.298 73.6807 46.4033 73.9446 46.5979 74.1811C46.792 74.4172 47.0774 74.6262 47.2843 74.7518C47.6431 74.9666 48.0835 75.1258 48.5883 75.2735C48.8392 75.3444 49.105 75.41 49.3811 75.472C49.5187 75.5023 49.6609 75.535 49.8013 75.5609C49.944 75.5848 50.0851 75.6081 50.2244 75.6314C50.3211 75.646 50.7448 75.6815 51.1456 75.7389C51.545 75.796 51.921 75.8746 51.872 75.9615C51.987 75.7654 52.0413 75.5346 52.0388 75.314C52.0369 75.0939 51.9778 74.8826 51.859 74.7083C51.5816 74.3032 51.1931 73.9846 50.7342 73.7194C50.3312 73.4842 49.882 73.3006 49.4183 73.1637C48.9528 73.0242 48.48 72.9461 47.9936 72.8651C47.9304 72.8553 47.8614 72.847 47.7895 72.8403C47.9829 72.7525 48.1804 72.6731 48.3704 72.5782L48.9364 72.2857C49.2558 72.1167 49.5822 71.9596 49.896 71.7807C49.8432 72.1148 50.0183 72.4226 50.2837 72.6975C50.5438 72.9649 50.8871 73.1845 51.1283 73.3095C51.5925 73.5496 52.1557 73.7177 52.7769 73.8371C52.9018 73.8612 53.0293 73.8836 53.1586 73.9043C53.2855 73.9215 53.4135 73.9363 53.5434 73.9504C53.8033 73.9781 54.0695 74.0004 54.3389 74.0195C54.4426 74.0283 54.8824 74.0221 55.3019 74.0409C55.7246 74.064 56.1038 74.0894 56.0806 74.1998C56.2015 73.702 56.0981 73.146 55.775 72.7777C55.4041 72.3536 54.9271 72.0226 54.4036 71.7728C54.1739 71.6624 53.9382 71.5713 53.691 71.4868C53.4425 71.4005 53.1881 71.3275 52.9317 71.2665C52.419 71.1448 51.8963 71.0681 51.3893 71.0322C51.3201 71.0278 51.247 71.0232 51.173 71.0187C51.4604 70.8362 51.7381 70.639 52.0213 70.4499L52.4439 70.1626L52.6551 70.019L52.8587 69.865C52.8673 70.2328 53.1179 70.572 53.4415 70.8509C53.7642 71.1296 54.1624 71.3482 54.4353 71.4682C54.9116 71.6786 55.4502 71.8054 56.0336 71.8849C56.1791 71.9047 56.3275 71.9211 56.4779 71.9351C56.6262 71.947 56.774 71.9535 56.9248 71.9592C57.2268 71.9709 57.5314 71.9691 57.839 71.9627C57.944 71.9608 58.3892 71.915 58.8167 71.8968C59.0319 71.8893 59.2368 71.8845 59.3857 71.8951C59.5361 71.907 59.6341 71.9372 59.6309 71.9967C59.6589 71.4463 59.4535 70.8589 59.0636 70.4945C58.6129 70.0731 58.0729 69.7623 57.4951 69.5381C57.2422 69.4395 56.9821 69.3572 56.7168 69.2881C56.4474 69.2151 56.1736 69.1558 55.8993 69.1088C55.3503 69.0148 54.7987 68.9698 54.2649 68.9596C54.1945 68.9577 54.1194 68.959 54.0406 68.9613L55.0108 68.1332C55.1475 68.015 55.2874 67.8997 55.4215 67.7786L55.8147 67.4052C55.8872 67.7922 56.2093 68.1363 56.5947 68.4094C56.9792 68.6823 57.4291 68.8841 57.7311 68.9893C58.3109 69.1909 58.9629 69.2881 59.6351 69.304C60.1697 69.3122 60.7232 69.272 61.2801 69.2121C61.3853 69.2002 61.8332 69.1156 62.2574 69.055C62.6707 68.9876 63.0687 68.9502 63.0834 69.0756C63.0188 68.4971 62.7184 67.9063 62.2646 67.5621C61.7409 67.1633 61.1436 66.8867 60.5188 66.6999C60.2454 66.6184 59.9665 66.554 59.6852 66.5043C59.4054 66.4558 59.1201 66.4195 58.8281 66.3898C58.2485 66.334 57.6708 66.3267 57.1146 66.3526C57.0416 66.3556 56.9631 66.3614 56.8822 66.3697L57.5858 65.6289L57.9367 65.2575L58.2697 64.8704C58.3962 65.2631 58.7748 65.5955 59.2072 65.8491C59.6389 66.1031 60.1262 66.2778 60.4478 66.3634C61.0083 66.5131 61.6061 66.5633 62.2248 66.549C62.8352 66.5292 63.4459 66.4312 64.0623 66.3125C64.1673 66.2922 64.5999 66.1661 65.0196 66.0716C65.4329 65.9737 65.8174 65.8989 65.851 66.0278C65.7064 65.4398 65.3286 64.861 64.8308 64.5456C64.2555 64.1808 63.6219 63.9466 62.9689 63.8056C62.3983 63.6822 61.8149 63.6315 61.2158 63.6148C60.6217 63.6019 60.0331 63.6371 59.4677 63.7029C59.3932 63.7111 59.3136 63.7227 59.2319 63.7369L60.0159 62.7314C60.2439 62.4504 60.4472 62.1515 60.6565 61.8568C60.8324 62.2439 61.2599 62.5515 61.7314 62.7745C62.2024 62.9983 62.7188 63.1362 63.0551 63.1967C63.7008 63.3123 64.3866 63.3064 65.06 63.2085L65.0544 63.2047L63.4299 62.123C63.3391 62.117 63.2486 62.1089 63.1586 62.1002C62.6296 62.044 62.1092 61.9512 61.5978 61.8347C61.3419 61.7768 61.0888 61.7104 60.837 61.6379C60.8301 61.6359 60.8226 61.6337 60.8156 61.6318L61.1632 61.1402C61.3537 61.2269 61.5472 61.3095 61.7432 61.3878C62.1172 61.5366 62.5035 61.6633 62.8893 61.763C62.9938 61.7909 63.0989 61.8164 63.2043 61.8404C63.4537 61.8939 63.7066 61.9398 63.9626 61.9732C64.2185 62.0029 64.4783 62.0256 64.7405 62.0276C65.0023 62.0283 65.2671 62.0172 65.5333 61.9864C65.7986 61.9491 66.0661 61.8989 66.3296 61.8198C65.8055 61.9906 65.2694 62.0872 64.7378 62.1276C64.2989 62.1571 63.8615 62.1539 63.4299 62.123L65.0601 63.2085C65.5973 63.1277 66.1382 62.9938 66.6712 62.8376C66.773 62.808 67.1876 62.6431 67.5919 62.5107C67.9845 62.3736 68.36 62.2662 68.4085 62.3925C68.1907 61.811 67.7462 61.2599 67.2144 60.9855C66.6002 60.6676 65.9432 60.4858 65.2748 60.398C64.6886 60.3209 64.1022 60.3206 63.4973 60.353C62.898 60.3889 62.3068 60.472 61.7391 60.5829C61.6646 60.597 61.5849 60.6149 61.5034 60.6355L62.0542 59.7762L62.3296 59.3465C62.4207 59.2028 62.5019 59.0533 62.5886 58.907C62.8024 59.2825 63.2633 59.5592 63.7584 59.7471C64.2531 59.9356 64.7828 60.0339 65.1239 60.0682C65.7187 60.1289 66.3227 60.0813 66.926 59.9638C67.5391 59.8509 68.1041 59.6466 68.6743 59.4242C68.7711 59.3861 69.1591 59.1863 69.5391 59.0202C69.9205 58.8553 70.288 58.7225 70.3444 58.8441C70.0684 58.2777 69.5751 57.7601 69.028 57.5272C68.3949 57.2579 67.7337 57.1283 67.0675 57.0947C66.4869 57.0655 65.879 57.0987 65.2922 57.1833C64.7027 57.2667 64.1224 57.3963 63.5657 57.5514C63.4922 57.5712 63.4148 57.5956 63.3342 57.6221L63.9257 56.4941C64.0922 56.1738 64.2658 55.8568 64.4138 55.5274C64.658 55.8837 65.1406 56.1216 65.648 56.2674C66.155 56.414 66.6871 56.4672 67.0261 56.4724C67.6808 56.4831 68.3302 56.3597 68.9666 56.1555L68.9604 56.1527L67.1827 55.3435C67.0917 55.3515 67.0008 55.3577 66.9101 55.363C66.3869 55.3937 65.8625 55.3866 65.3388 55.3536C65.0769 55.3375 64.8154 55.3125 64.5535 55.2808C64.5463 55.2801 64.5383 55.279 64.531 55.2783L64.7872 54.7341C64.9896 54.7894 65.1942 54.8403 65.4 54.8861C65.793 54.973 66.1904 55.0351 66.5911 55.0743L66.5752 55.067L62.6842 53.2956L62.6682 53.2884C62.9622 53.5532 63.2686 53.8076 63.5894 54.0473C63.7577 54.1728 63.9284 54.2951 64.1007 54.4141L63.8467 54.9489L63.8307 54.933C63.6408 54.7489 63.4551 54.5633 63.2748 54.3745C62.9143 53.9982 62.5669 53.6153 62.2431 53.2237C62.1876 53.1552 62.132 53.0868 62.0773 53.0193C61.8177 52.6947 61.5699 52.3582 61.3422 52.0158C61.0727 51.6003 60.8432 51.173 60.6774 50.739C60.7659 50.9546 60.8797 51.1646 61.0015 51.3713C61.1293 51.5764 61.2714 51.7757 61.4208 51.971C61.5713 52.1661 61.7366 52.3541 61.9046 52.5388C62.0776 52.7227 62.2527 52.8991 62.4331 53.0724C62.511 53.1438 62.5894 53.2158 62.6683 53.2881L66.5912 55.074C66.6992 55.0851 66.8075 55.0939 66.9155 55.1013C67.1704 55.115 67.4302 55.1218 67.6814 55.1125C67.9331 55.0999 68.1868 55.0796 68.4375 55.0383C68.6878 54.9958 68.9375 54.941 69.184 54.8663C69.4278 54.7852 69.6706 54.691 69.9024 54.5688C69.4438 54.8254 68.9547 55.0105 68.4549 55.1383C68.2478 55.1892 68.0393 55.2319 67.8291 55.2666C67.616 55.3003 67.3985 55.325 67.1829 55.3432L68.9668 56.1552C69.4892 55.9955 69.9612 55.7669 70.4337 55.524C70.5236 55.4776 70.8789 55.2443 71.2278 55.0454C71.5768 54.8471 71.9199 54.6834 71.9867 54.7992C71.832 54.5313 71.6131 54.2754 71.3746 54.0672C71.1344 53.8585 70.8663 53.695 70.5916 53.6028C69.9567 53.3897 69.3081 53.3184 68.6599 53.3415C67.5075 53.3775 66.3454 53.6932 65.2731 54.0953C65.2033 54.1219 65.1249 54.1509 65.0463 54.1836C65.1874 53.8743 65.3125 53.5583 65.4464 53.2459L65.8417 52.3063C66.0979 52.639 66.5867 52.8374 67.0953 52.9435C67.6054 53.0508 68.1317 53.063 68.4576 53.0401C69.0306 53.0019 69.5882 52.8547 70.1267 52.6387C70.6621 52.4223 71.1937 52.1408 71.6617 51.8237C71.7429 51.7698 72.0583 51.5084 72.3695 51.2817C72.6808 51.0557 72.9881 50.865 73.0623 50.9755C72.7148 50.4651 72.185 50.039 71.6503 49.8996C71.0314 49.7386 70.4067 49.7187 69.7842 49.7928C69.2388 49.8568 68.6937 49.9918 68.1596 50.171C67.6262 50.3509 67.1042 50.575 66.5791 50.8118C66.5106 50.8429 66.438 50.8786 66.3642 50.9174L66.5862 50.3214L66.7848 49.7171L67.1216 48.689C67.3871 48.9971 67.8681 49.1521 68.359 49.213C68.8503 49.2747 69.3511 49.2414 69.6645 49.192C70.2667 49.096 70.8267 48.8663 71.3596 48.5615C71.7874 48.316 72.1874 48.0188 72.5677 47.7051C72.6433 47.6459 72.9076 47.358 73.1735 47.106C73.4341 46.8534 73.692 46.6363 73.7721 46.7392C73.4027 46.2632 72.8823 45.8871 72.381 45.7962C71.8012 45.6903 71.2278 45.725 70.66 45.8523C70.1633 45.9636 69.6729 46.1465 69.1865 46.3709C68.7076 46.5975 68.2087 46.8595 67.7365 47.1427C67.674 47.1796 67.6078 47.2214 67.5403 47.2665L67.8157 46.2863L68.0543 45.2962ZM69.7683 37.11C70.0872 37.0335 70.3962 36.9176 70.6902 36.7693C70.8365 36.6921 70.9793 36.607 71.1164 36.511C71.2523 36.4109 71.3839 36.3053 71.5048 36.1813C71.6243 36.0564 71.7412 35.9205 71.8402 35.7696C71.9347 35.6133 72.021 35.4462 72.0899 35.2582C72.0242 35.4506 71.9458 35.6305 71.8564 35.7983C71.7633 35.9659 71.6553 36.1213 71.5409 36.2653C71.3089 36.5508 71.0418 36.7982 70.755 37.01C70.4678 37.2241 70.1596 37.405 69.8353 37.564C69.673 37.6445 69.5066 37.7165 69.3368 37.7827L69.3223 37.7879L69.3701 37.1912C69.5034 37.1685 69.6365 37.1424 69.7683 37.11ZM69.3049 32.3821L69.3774 31.1229C69.3909 30.7026 69.3977 30.2822 69.3987 29.8618L69.3954 29.2313L69.3813 28.6002L69.4121 29.2308L69.44 29.8608L69.4851 31.1228L69.5082 32.3861L69.5211 32.9167L69.5218 32.935L69.7619 32.9422L69.2698 32.9277L69.275 32.8509L69.3049 32.3821ZM68.6994 32.911L68.4366 32.9033L68.4306 32.903L68.6994 32.911ZM68.8256 33.6631C68.7167 33.5642 68.6138 33.462 68.514 33.3547C68.4117 33.2476 68.315 33.1358 68.2246 33.0185C68.1932 32.978 68.1628 32.9367 68.1337 32.8942L68.132 32.8941C67.992 32.6945 67.8724 32.4776 67.7762 32.2415C67.6593 31.953 67.5915 31.6301 67.571 31.2665C67.5837 31.4443 67.6138 31.6046 67.6531 31.7568C67.6958 31.9041 67.7498 32.0395 67.8148 32.1666C67.8795 32.2928 67.9556 32.4037 68.0367 32.5111C68.1194 32.615 68.2093 32.7099 68.3038 32.799C68.3437 32.835 68.3847 32.8693 68.4263 32.9029L68.4285 32.903C68.5857 33.0305 68.7558 33.1412 68.9341 33.2312C69.0278 33.2781 69.1233 33.321 69.2199 33.3597L69.1776 33.9533C69.1743 33.9502 69.1707 33.9478 69.1675 33.9456C69.0487 33.8557 68.9346 33.7624 68.8256 33.6631ZM68.3661 37.4074C68.0777 37.1877 67.8076 36.9564 67.5641 36.7043C67.3204 36.4542 67.1024 36.1814 66.9247 35.8851C66.8366 35.736 66.7613 35.5795 66.6945 35.4145C66.6239 35.2494 66.5654 35.0761 66.5207 34.894C66.569 35.0724 66.6368 35.2352 66.7136 35.3908C66.7931 35.5419 66.8779 35.6818 66.9753 35.8143C67.0722 35.946 67.1828 36.064 67.2987 36.1789C67.4163 36.2903 67.5416 36.3938 67.6712 36.4919C67.9334 36.6825 68.216 36.8503 68.515 36.9858C68.6385 37.0426 68.7644 37.0941 68.8911 37.143L68.8276 37.733L68.8145 37.725C68.66 37.6231 68.5104 37.5182 68.3661 37.4074ZM68.2591 44.4458C68.4397 44.4506 68.6206 44.4522 68.8019 44.4473C69.2396 44.4372 69.666 44.3845 70.0878 44.2975C70.2976 44.2506 70.5056 44.1953 70.7098 44.1279C70.9127 44.0565 71.114 43.9788 71.3075 43.8807C71.5006 43.7818 71.6894 43.6706 71.8694 43.5427C72.0474 43.409 72.2149 43.2621 72.3686 43.0914C72.071 43.4437 71.7181 43.7338 71.341 43.9719C70.9619 44.2074 70.5585 44.399 70.1392 44.5511C69.722 44.7058 69.271 44.8195 68.8227 44.9113C68.5967 44.958 68.3689 44.9954 68.1383 45.0266L68.1189 45.0286L68.2591 44.4458ZM46.5168 72.9289L46.5184 72.9155C46.5436 72.7468 46.5687 72.58 46.5937 72.4146C46.6485 72.0727 46.7094 71.7186 46.7844 71.3519C46.8576 70.987 46.9468 70.609 47.0507 70.2205C47.152 69.821 47.272 69.4016 47.4239 68.9889C47.3526 69.1965 47.2961 69.4037 47.2437 69.6073C47.196 69.8098 47.1582 70.013 47.1244 70.2096C47.0894 70.4016 47.0643 70.5852 47.0412 70.7675C47.0212 70.9488 47.0071 71.1261 46.9967 71.2998C46.9811 71.6457 46.9815 71.9774 47.0096 72.2938C47.0206 72.4248 47.0358 72.5529 47.0528 72.6792C46.8737 72.7617 46.6992 72.8546 46.5168 72.9289ZM48.2682 74.015C48.4178 74.1153 48.576 74.2136 48.7454 74.3079C48.9179 74.3992 49.0987 74.4925 49.2949 74.5727C49.4889 74.6474 49.6958 74.7197 49.9148 74.7798C50.1381 74.8359 50.3729 74.8874 50.6253 74.9219C50.1142 74.8602 49.652 74.7634 49.2282 74.6291C48.8012 74.4847 48.4152 74.3241 48.0669 74.1528C47.7163 73.9813 47.4012 73.8003 47.1102 73.6163C46.9634 73.5243 46.8267 73.4328 46.6916 73.3303L46.6808 73.3215C46.8686 73.2517 47.0487 73.1634 47.2329 73.085C47.3153 73.1812 47.4013 73.277 47.4935 73.3706C47.7151 73.5983 47.9744 73.8113 48.2682 74.015ZM51.9563 72.3506C52.1362 72.4562 52.323 72.5571 52.5157 72.6454C52.7114 72.7322 52.9151 72.8162 53.1328 72.8866C53.3508 72.9562 53.5788 73.0187 53.8198 73.0686C54.0629 73.1127 54.3149 73.1474 54.5806 73.161C54.0463 73.1459 53.543 73.0707 53.0793 72.9614C52.699 72.8696 52.3405 72.7572 51.9949 72.6163C51.9242 72.5871 51.8528 72.5577 51.7815 72.5282C51.3772 72.3551 51.0035 72.163 50.6532 71.9615C50.4775 71.8607 50.3097 71.756 50.1465 71.6478C50.1422 71.645 50.1376 71.6414 50.1326 71.6387L50.65 71.3303C50.7594 71.4395 50.8735 71.5465 50.9924 71.6512C51.2194 71.851 51.4675 72.0371 51.7356 72.2116C51.8075 72.2591 51.8816 72.3053 51.9563 72.3506ZM52.7076 69.2094L52.7022 69.1916C52.6451 68.9788 52.5903 68.7647 52.5405 68.5481C52.4393 68.1165 52.3447 67.6783 52.2657 67.2332C52.2244 67.0098 52.1914 66.7897 52.1556 66.5586C52.12 66.3272 52.0888 66.0939 52.0622 65.8595C52.0141 65.3935 51.9925 64.9217 52.012 64.4579C52.0072 64.6901 52.0212 64.9237 52.0403 65.1555C52.0651 65.3866 52.0997 65.6162 52.1399 65.8427C52.1809 66.0693 52.2362 66.2936 52.2909 66.5139C52.3489 66.7327 52.4161 66.9525 52.4797 67.1595C52.6152 67.5758 52.7661 67.9803 52.9427 68.368C53.0152 68.5287 53.0917 68.6862 53.1693 68.8418L52.7076 69.2094ZM55.0961 70.3507C55.3015 70.4531 55.5064 70.5422 55.7231 70.626C55.9409 70.705 56.1658 70.7819 56.4006 70.8398C56.6357 70.8967 56.8797 70.9444 57.1328 70.9771C57.3877 71.0036 57.6512 71.0204 57.9234 71.0119C57.3765 71.0403 56.8532 71.005 56.361 70.9251C56.1141 70.8826 55.8739 70.8309 55.6409 70.7713C55.4078 70.7116 55.1736 70.6352 54.9514 70.5569C54.503 70.3996 54.0824 70.2167 53.681 70.0184C53.4793 69.9201 53.2846 69.8152 53.0944 69.706L53.0786 69.6965L53.5566 69.3309C53.6913 69.4423 53.8289 69.5519 53.972 69.6578C54.3166 69.9144 54.692 70.1439 55.0961 70.3507ZM55.5448 66.7263C55.5428 66.7199 55.5396 66.7133 55.5369 66.7075C55.4415 66.4879 55.3489 66.2676 55.2609 66.045C55.0844 65.6008 54.9161 65.1508 54.7642 64.6953C54.7368 64.6142 54.7097 64.5333 54.6828 64.4533C54.5549 64.0684 54.4424 63.679 54.344 63.2879C54.2294 62.8141 54.1444 62.3358 54.1066 61.8651C54.1307 62.1007 54.1757 62.337 54.2265 62.5713C54.283 62.8056 54.351 63.0373 54.4246 63.2667C54.4992 63.4958 54.5869 63.7212 54.6763 63.9436C54.7691 64.1652 54.8685 64.3837 54.9711 64.5987C55.0163 64.6884 55.0619 64.7788 55.1078 64.8693C55.2809 65.2045 55.4582 65.5233 55.653 65.8336C55.7552 65.996 55.86 66.1561 55.9672 66.3132L55.5448 66.7263ZM58.2069 67.7495C58.4301 67.8361 58.6589 67.9163 58.8943 67.986C59.1304 68.052 59.3728 68.1126 59.6232 68.1545C59.8738 68.1952 60.1305 68.2257 60.3949 68.2384C60.6596 68.2448 60.9307 68.2402 61.2059 68.2079C60.6551 68.2845 60.1148 68.2911 59.5964 68.2476C59.169 68.2079 58.7542 68.1401 58.3529 68.0472C58.2695 68.0268 58.1854 68.0062 58.1015 67.9856C57.6135 67.8544 57.1466 67.6931 56.6961 67.5124C56.4705 67.4222 56.2503 67.3251 56.0333 67.2229C56.0275 67.2201 56.0211 67.2167 56.0147 67.2142L56.4515 66.7989C56.6094 66.9072 56.7712 67.0121 56.9368 67.1134C57.2527 67.3059 57.587 67.481 57.9277 67.6307C58.0197 67.6722 58.1131 67.7115 58.2069 67.7495ZM57.9027 64.1915L57.8915 64.1734C57.7647 63.9548 57.6412 63.7354 57.5228 63.5132C57.2849 63.0709 57.0559 62.6237 56.846 62.17C56.6333 61.7167 56.4318 61.246 56.2608 60.7768C56.0925 60.3067 55.9571 59.8306 55.8746 59.3606C55.9214 59.5954 55.9907 59.83 56.0664 60.0628C56.1483 60.2946 56.2419 60.5243 56.3422 60.7508C56.4434 60.9774 56.5587 61.199 56.6751 61.4187C56.7954 61.637 56.9225 61.8518 57.0533 62.0635C57.3222 62.486 57.5955 62.8854 57.9002 63.2711C58.0249 63.4304 58.1534 63.5863 58.283 63.7402L57.9027 64.1915ZM59.3801 64.4907C59.819 64.7113 60.2894 64.9037 60.7614 65.0526C60.9998 65.1249 61.2428 65.1898 61.4906 65.2433C61.7391 65.2924 61.9918 65.3362 62.2502 65.3595C62.5084 65.3818 62.772 65.3922 63.0388 65.3846C63.3059 65.37 63.5771 65.3434 63.8484 65.2879C63.3071 65.4111 62.7648 65.4613 62.2361 65.4569C61.7054 65.4477 61.1943 65.3986 60.6827 65.2998C60.1693 65.2028 59.6724 65.0713 59.1875 64.9179C58.9443 64.8422 58.7059 64.7582 58.4695 64.6681L58.4499 64.6601L58.8421 64.2038C59.0184 64.3027 59.1972 64.3994 59.3801 64.4907ZM59.3194 59.3849L59.305 59.3754C59.5599 59.6877 59.8202 59.9861 60.0976 60.2734C60.243 60.4235 60.3908 60.5712 60.5409 60.7155L60.202 61.2001L60.189 61.1821C60.0344 60.9714 59.8832 60.7598 59.7372 60.5457C59.445 60.1185 59.1634 59.6859 58.902 59.2471C58.8561 59.1696 58.8102 59.092 58.765 59.0156C58.5483 58.6471 58.349 58.2727 58.1686 57.896C57.9547 57.439 57.7768 56.9753 57.6565 56.5138C57.7221 56.7438 57.812 56.9723 57.9087 57.1984C58.0115 57.4236 58.1277 57.645 58.2506 57.8637C58.3744 58.082 58.5125 58.2952 58.6529 58.5056C58.7967 58.7148 58.9478 58.9202 59.1023 59.1222C59.1696 59.2059 59.2371 59.2903 59.3051 59.3752L61.0972 60.5687L59.3194 59.3849ZM62.0703 58.2816L62.0551 58.2651C61.8803 58.0654 61.7093 57.8646 61.5438 57.6604C61.2122 57.2545 60.8921 56.8432 60.5949 56.4238C60.2989 56.0076 60.0157 55.5744 59.7646 55.1356C59.5174 54.6966 59.3089 54.2482 59.1617 53.7979C59.241 54.0221 59.3452 54.2427 59.4569 54.4605C59.5748 54.6765 59.7063 54.8893 59.8449 55.098C59.9847 55.3063 60.1395 55.5083 60.2961 55.708C60.4553 55.9054 60.6266 56.1014 60.7938 56.2889C61.1369 56.6628 61.4981 57.023 61.8829 57.3601C62.0414 57.5002 62.2032 57.6364 62.3664 57.7701L62.0703 58.2816ZM63.6325 58.3505C64.1239 58.5036 64.6278 58.6174 65.1417 58.6964C65.4006 58.7335 65.6543 58.7586 65.9118 58.7722C66.1687 58.7811 66.4278 58.7839 66.6869 58.7648C66.9456 58.7447 67.2058 58.7115 67.4643 58.6599C67.7212 58.6008 67.9786 58.529 68.2285 58.4281C67.7329 58.642 67.2156 58.7827 66.6951 58.8649C66.4341 58.9045 66.1728 58.9319 65.9108 58.9478C65.6481 58.9631 65.3773 58.9633 65.1126 58.9555C64.5806 58.9411 64.0534 58.8884 63.5307 58.8111C63.2688 58.7733 63.0088 58.7262 62.7492 58.6726L62.7274 58.6675L63.0291 58.1476C63.2281 58.2193 63.4288 58.2878 63.6325 58.3505ZM65.2513 51.7752L65.2344 51.7614C65.0365 51.593 64.8433 51.4228 64.6554 51.2486C64.2799 50.9024 63.9178 50.5494 63.5811 50.1847C63.2437 49.8222 62.9295 49.4452 62.6559 49.0596C62.3856 48.6728 62.1381 48.2632 61.9652 47.8455C62.0584 48.0529 62.1764 48.2528 62.303 48.4486C62.4343 48.6413 62.5842 48.8303 62.7332 49.0107C62.8838 49.1909 63.0491 49.3621 63.2193 49.532C63.3924 49.6994 63.5732 49.8616 63.758 50.0197C64.1327 50.332 64.5265 50.6278 64.9415 50.8973C65.113 51.0096 65.2872 51.1171 65.4626 51.2226L65.2513 51.7752ZM66.7568 51.5877C67.2473 51.6583 67.7416 51.6876 68.2365 51.681C68.4837 51.6743 68.7315 51.6593 68.9781 51.6318C69.2245 51.6 69.4691 51.561 69.7107 51.5009C69.952 51.4399 70.182 51.3629 70.4112 51.2696C70.6366 51.1689 70.8591 51.0554 71.0684 50.9145C70.6533 51.2068 70.2118 51.4336 69.7329 51.5977C69.2535 51.7588 68.754 51.8705 68.2528 51.9417C67.7505 52.0152 67.2431 52.0498 66.7323 52.0592C66.4766 52.0649 66.2204 52.0609 65.9632 52.0503L65.9413 52.0488L66.1513 51.4864C66.3521 51.5244 66.5538 51.5592 66.7568 51.5877ZM65.2771 46.781L65.2616 46.7766C65.559 46.9887 65.8688 47.1887 66.1914 47.3718C66.3605 47.4675 66.5318 47.5599 66.7047 47.6487C66.6471 47.8375 66.5951 48.0284 66.5326 48.2158C66.5275 48.2111 66.5215 48.207 66.516 48.203C66.3221 48.0544 66.1256 47.9016 65.9377 47.7457C65.5609 47.4348 65.1988 47.1151 64.8621 46.7832C64.8044 46.7249 64.7466 46.6666 64.6896 46.609C64.4176 46.3315 64.1693 46.0435 63.9436 45.747C63.8094 45.5664 63.6861 45.3812 63.5757 45.1917C63.4595 45.0001 63.3567 44.8041 63.2695 44.6036C63.3617 44.8016 63.4781 44.9899 63.6032 45.1738C63.7301 45.3537 63.868 45.5243 64.0157 45.6909C64.1642 45.8568 64.3275 46.0132 64.4943 46.1662C64.664 46.317 64.8418 46.4621 65.0237 46.6028C65.1018 46.6614 65.1812 46.7197 65.2616 46.7765L67.1607 47.3322L65.2771 46.781ZM69.3556 47.8615C69.5869 47.8331 69.8175 47.7962 70.0454 47.747C70.2721 47.6942 70.4984 47.6336 70.7186 47.5528C70.9376 47.4708 71.1557 47.3776 71.3629 47.2644C71.5636 47.1446 71.76 47.0126 71.941 46.8546C71.7632 47.018 71.5745 47.1651 71.3776 47.2975C71.1749 47.4284 70.9634 47.5447 70.7468 47.6474C70.3875 47.8134 70.0154 47.9489 69.6324 48.0555C69.5519 48.0784 69.4708 48.0995 69.39 48.1196C68.9229 48.2358 68.4454 48.3152 67.9617 48.3691C67.7191 48.3962 67.4781 48.4155 67.2279 48.4262C67.2211 48.4265 67.2136 48.4269 67.2068 48.4273C67.2678 48.2366 67.318 48.0426 67.3741 47.8505C67.5666 47.8714 67.7601 47.8877 67.9537 47.8989C68.3233 47.9199 68.6925 47.9155 69.0597 47.888C69.1586 47.8813 69.2576 47.872 69.3556 47.8615ZM67.4803 44.8727L67.4641 44.862C67.2745 44.7294 67.0894 44.5945 66.9103 44.4545C66.5498 44.1766 66.2135 43.8918 65.8885 43.5875C65.5645 43.2854 65.2686 42.9656 65.0087 42.6292C64.7522 42.2913 64.5357 41.9306 64.3919 41.5485C64.4702 41.737 64.5701 41.9135 64.6837 42.0856C64.8021 42.254 64.9339 42.4141 65.0741 42.5682C65.2148 42.7216 65.3702 42.8638 65.5288 43.0034C65.6903 43.1401 65.8597 43.2702 66.0333 43.3957C66.3837 43.6415 66.7569 43.869 67.1437 44.0655C67.3033 44.1474 67.4653 44.2245 67.6284 44.2992L67.4803 44.8727Z" fill="#2A2A61"/>
<path d="M69.1866 25.6394C69.1847 25.6171 69.1836 25.6046 69.1836 25.6046C69.1836 25.6046 69.1847 25.6172 69.1866 25.6394Z" fill="#2A2A61"/>
<path d="M68.4247 32.903L68.3975 32.9023L68.4247 32.903Z" fill="#2A2A61"/>
<path d="M27.5109 74.1804C27.7057 73.9439 27.8108 73.6799 27.6874 73.417L27.9001 73.495C27.9018 73.4865 27.9018 73.4783 27.9039 73.4698C27.9354 73.344 27.9969 73.2304 28.0573 73.1167L27.844 73.0304C28.1153 72.9195 28.2141 72.6533 28.2419 72.3524C28.2688 72.0521 28.2264 71.7167 28.1848 71.4955C28.1122 71.1067 27.985 70.6696 27.8337 70.2264C27.7514 69.9962 27.6714 69.7724 27.5931 69.5538C27.5522 69.4396 27.5096 69.3287 27.4699 69.2109C27.4308 69.0898 27.3919 68.9703 27.3537 68.8522C27.3267 68.7715 27.1924 68.4375 27.0982 68.1154C27.0027 67.7937 26.9464 67.4841 27.0256 67.4656C26.9349 67.486 26.8425 67.5205 26.7529 67.563C26.6642 67.6031 26.5777 67.6542 26.4958 67.7148C26.3323 67.8359 26.1883 67.9951 26.0906 68.1822C25.8661 68.6132 25.734 69.1101 25.7093 69.6121C25.6869 70.0507 25.741 70.5037 25.8611 70.9526C25.9827 71.3982 26.1607 71.8587 26.408 72.2535C26.4396 72.3068 26.4761 72.3634 26.5163 72.4214C26.329 72.3298 26.1374 72.2464 25.9534 72.1478L25.4055 71.8448C25.0963 71.6705 24.7807 71.5076 24.4769 71.3242C24.7828 71.2139 24.9625 70.8856 25.0675 70.5317C25.1752 70.171 25.2196 69.7679 25.2337 69.5035C25.2584 68.9943 25.2096 68.451 25.1337 67.9042L25.1309 67.9084L24.3515 69.1246C24.3512 69.1964 24.3506 69.2692 24.3501 69.3419C24.3437 69.7591 24.3238 70.1686 24.2981 70.5687C24.2852 70.7691 24.2685 70.9667 24.2495 71.1631C24.2489 71.1685 24.248 71.1741 24.248 71.1798L23.748 70.8644C23.7973 70.7186 23.8439 70.5701 23.8875 70.4193C23.9705 70.1312 24.0372 69.8338 24.0926 69.5289L24.0856 69.5398L23.233 70.8704L24.0926 69.5289C24.1071 69.4457 24.1213 69.3633 24.1356 69.2811C24.164 69.0849 24.1902 68.8839 24.2139 68.6736C24.2336 68.4644 24.2516 68.2514 24.2582 68.0345C24.264 67.8177 24.2654 67.5974 24.2569 67.3742C24.2432 67.152 24.2237 66.9287 24.1882 66.7058C24.2699 67.1489 24.313 67.6032 24.3338 68.0492C24.3473 68.4187 24.3512 68.7826 24.3515 69.1247L25.1337 67.9043C25.1175 67.7927 25.1013 67.6824 25.0852 67.5734C25.0697 67.4572 25.0544 67.3422 25.0392 67.2287C25.0065 66.9944 24.9746 66.7653 24.9433 66.5406C24.9319 66.4518 24.852 66.0969 24.8105 65.758C24.7648 65.4244 24.7714 65.0784 24.8582 65.0619C24.4526 65.1491 23.9949 65.4288 23.7122 65.8286C23.3877 66.2889 23.156 66.8112 23.0217 67.3645C22.9636 67.6055 22.9206 67.8572 22.9005 68.1045C22.8815 68.35 22.8804 68.5987 22.8959 68.8487C22.927 69.3482 23.0229 69.8545 23.1708 70.3453C23.1893 70.4107 23.2132 70.4788 23.2422 70.5463C22.9645 70.3609 22.6962 70.161 22.4227 69.9692L22.0143 69.6791L21.8101 69.5341L21.6134 69.3788C21.9554 69.271 22.2007 68.9276 22.3834 68.5386C22.5651 68.1499 22.6863 67.7154 22.749 67.4316C22.8582 66.9351 22.8991 66.4199 22.9147 65.8979C22.9193 65.6258 22.9237 65.3612 22.9281 65.1024C22.9321 64.8318 22.9296 64.5664 22.9278 64.3037C22.927 64.2139 22.8947 63.8444 22.8985 63.4943C22.8988 63.3212 22.911 63.1472 22.937 63.0127C22.962 62.8796 22.9978 62.7896 23.0466 62.7806C22.5939 62.8674 22.0653 63.143 21.7112 63.5421C21.3028 64.0042 20.9868 64.5311 20.7652 65.0988C20.6681 65.3466 20.5867 65.6046 20.5248 65.8652C20.4662 66.1215 20.4251 66.3829 20.4006 66.6472C20.3512 67.1756 20.3683 67.7147 20.4359 68.2481C20.4447 68.3179 20.456 68.394 20.4719 68.4707L19.5345 67.6422C19.4023 67.5241 19.2672 67.4091 19.1376 67.2881L18.7575 66.9157C19.1343 66.8222 19.4517 66.4738 19.7086 66.0769C19.9648 65.68 20.1622 65.2346 20.2723 64.9443C20.4852 64.3813 20.6075 63.7985 20.7089 63.1973C20.7934 62.7096 20.8519 62.2221 20.9072 61.7476C20.9183 61.6556 20.9271 61.2843 20.9759 60.9277C21.0253 60.5676 21.1055 60.2315 21.2136 60.2163C20.7161 60.2862 20.1246 60.5348 19.7039 60.9183C19.2184 61.3617 18.8229 61.8752 18.5177 62.4377C18.3842 62.6836 18.2676 62.9388 18.1677 63.201C18.0669 63.4641 17.9828 63.7337 17.9215 64.0011C17.7951 64.5399 17.7329 65.0966 17.7222 65.6522C17.7204 65.7252 17.7213 65.8038 17.7248 65.8854L17.0436 65.1505L16.7038 64.7824L16.3811 64.399C16.7816 64.3282 17.1559 63.9908 17.4724 63.6009C17.7881 63.2107 18.0477 62.7687 18.1964 62.4801C18.4556 61.9761 18.6441 61.4454 18.7963 60.9115C18.9522 60.373 19.0783 59.823 19.19 59.2959C19.2092 59.2053 19.2547 58.8308 19.331 58.4816C19.4077 58.1301 19.5204 57.7968 19.6346 57.7892C19.1057 57.8306 18.4696 58.0421 18.0004 58.3984C17.4589 58.8111 17.0043 59.3 16.6359 59.8456C16.3128 60.3226 16.0526 60.8439 15.8672 61.3778C15.6783 61.9144 15.5505 62.4751 15.4729 63.0399C15.4622 63.1139 15.4537 63.1943 15.4474 63.2777L14.6855 62.2846C14.4641 62.0072 14.2659 61.7125 14.0619 61.4219C14.4808 61.3807 14.9048 61.068 15.2737 60.6987C15.6422 60.3292 15.9565 59.9041 16.1396 59.6256C16.4932 59.0856 16.7524 58.5135 16.9747 57.9298C17.1578 57.4563 17.309 56.9804 17.4477 56.519C17.4742 56.4306 17.5481 56.0623 17.6501 55.7216C17.7558 55.3761 17.8894 55.0569 18.0091 55.0565C17.4563 55.0602 16.7867 55.2224 16.2806 55.5412C15.6961 55.9099 15.195 56.3611 14.7741 56.8755C14.407 57.3245 14.093 57.8269 13.8541 58.3464C13.6113 58.8686 13.4254 59.4205 13.2872 59.9815C13.2686 60.055 13.2513 60.1349 13.2362 60.2183L12.6978 59.3721L12.4285 58.949C12.3394 58.8077 12.2595 58.6604 12.1744 58.5165C12.6004 58.5067 13.0579 58.2242 13.4632 57.8815C13.8683 57.5383 14.2219 57.1362 14.4294 56.8711C14.7909 56.4079 15.0785 55.9093 15.3208 55.4041C15.3813 55.2778 15.4391 55.151 15.4942 55.0241C15.552 54.8958 15.6077 54.7668 15.6603 54.6386C15.7662 54.3822 15.8638 54.127 15.9563 53.8763C15.988 53.7902 16.0824 53.4295 16.2015 53.0985C16.3191 52.7679 16.4666 52.463 16.59 52.4705C16.0285 52.4329 15.3432 52.5445 14.8173 52.8224C14.2094 53.1449 13.681 53.5557 13.2263 54.0368C12.8236 54.4593 12.4971 54.9234 12.2127 55.4278C11.9305 55.9308 11.7003 56.4682 11.5138 57.0192C11.4892 57.0914 11.4641 57.1705 11.4427 57.2523L10.8599 56.1432C10.6952 55.8284 10.5249 55.5166 10.3779 55.1927C10.8031 55.2185 11.2828 54.975 11.7138 54.6677C12.1446 54.3598 12.5267 53.9894 12.7519 53.7431C13.1863 53.2667 13.5289 52.7411 13.8158 52.2059C14.0446 51.7768 14.2558 51.3294 14.4362 50.9006C14.4715 50.818 14.5795 50.4686 14.7095 50.1506C14.8394 49.8318 14.991 49.5441 15.1142 49.5615C14.8257 49.5234 14.5195 49.5133 14.2107 49.5457C13.9034 49.5772 13.6001 49.6478 13.3344 49.7641C12.7206 50.0322 12.1813 50.3948 11.7082 50.8326C10.8928 51.5915 10.2849 52.5827 9.83484 53.6482C9.80383 53.7184 9.77719 53.7932 9.75099 53.8724C9.61117 53.5683 9.48561 53.2577 9.35238 52.9508L8.95761 52.0274C9.37885 52.0838 9.86505 51.8794 10.3039 51.6086C10.742 51.3373 11.1327 51.0012 11.369 50.7731C11.7778 50.3759 12.1125 49.9323 12.3965 49.4751C12.5384 49.2463 12.6678 49.0139 12.7875 48.7816C12.9047 48.5501 13.0098 48.3195 13.1199 48.0868C13.1567 48.0075 13.2721 47.6689 13.4056 47.363C13.5396 47.0564 13.6918 46.7823 13.812 46.8097C13.2532 46.6864 12.5815 46.6865 12.0626 46.873C11.4623 47.0898 10.936 47.4049 10.47 47.8C10.0609 48.1454 9.69636 48.552 9.37172 49.0007C9.20917 49.2251 9.05643 49.4601 8.91287 49.7031C8.76824 49.9464 8.64686 50.1925 8.52602 50.4466C8.4943 50.5131 8.46275 50.586 8.43228 50.6626L8.20807 50.0769L8.00622 49.483L7.66331 48.4723C8.06263 48.5652 8.54162 48.4043 8.97614 48.1739C9.41093 47.943 9.80054 47.6435 10.0299 47.4401C10.4767 47.0448 10.8447 46.5826 11.1469 46.1031C11.3909 45.7169 11.589 45.3192 11.7646 44.9296C11.7957 44.8555 11.9146 44.5276 12.0421 44.2353C12.1669 43.9431 12.3061 43.6844 12.421 43.7219C11.8899 43.5498 11.2608 43.49 10.7719 43.6308C10.2064 43.7937 9.70804 44.0612 9.25997 44.4124C8.8676 44.7196 8.51542 45.0906 8.18936 45.5086C7.85812 45.9277 7.58739 46.3844 7.3335 46.8676C7.3 46.9308 7.26613 47.0004 7.23316 47.0738L6.94728 46.1099L6.69642 45.136C7.06393 45.2608 7.52073 45.1396 7.93769 44.9453C8.35502 44.7503 8.73144 44.4835 8.95262 44.2994C9.34142 43.9768 9.65091 43.5991 9.92075 43.195C10.191 42.7905 10.4074 42.3631 10.5912 41.9432C10.6244 41.8709 10.7179 41.5572 10.8201 41.2785C10.9244 40.999 11.0569 40.7497 11.1604 40.7974C10.6715 40.5817 10.1001 40.4708 9.65546 40.5715C9.14154 40.6887 8.68688 40.9157 8.27178 41.2309C8.09035 41.3685 7.9164 41.5227 7.74877 41.6912C7.58338 41.8593 7.43001 42.0406 7.27994 42.2345C6.98097 42.6215 6.70338 43.0568 6.44824 43.5169C6.41447 43.5773 6.37971 43.6438 6.34567 43.7142L6.07646 42.4871C5.99456 42.1401 5.93254 41.7892 5.87016 41.4384C6.19266 41.5946 6.60874 41.514 6.98979 41.357C7.37111 41.1993 7.71758 40.9663 7.91871 40.8022C8.30841 40.4843 8.61407 40.0892 8.85548 39.6638C9.05082 39.3217 9.21933 38.9561 9.3506 38.5952C9.37555 38.5261 9.45477 38.2194 9.53275 37.9486C9.61179 37.6773 9.69859 37.4407 9.79474 37.4962C9.34543 37.2403 8.86653 37.0792 8.48833 37.1439C8.05604 37.2178 7.66804 37.4079 7.32085 37.6863C6.71906 38.172 6.19337 38.9357 5.70503 39.8089C5.67348 39.8658 5.63793 39.9294 5.60772 39.996L5.31765 38.0026C5.59426 38.1823 5.95651 38.1341 6.28561 38.0072C6.61684 37.8795 6.90691 37.6749 7.08291 37.5261C7.69825 37.005 8.05372 36.2117 8.2348 35.424C8.24843 35.3511 8.30074 35.0684 8.35314 34.786C8.40198 34.5184 8.45393 34.2854 8.53565 34.3491C8.15736 34.0574 7.75599 33.8621 7.46503 33.8997C7.12765 33.9439 6.83856 34.1072 6.56605 34.3625C6.32732 34.5853 6.10364 34.8776 5.87738 35.2191C5.64621 35.561 5.44544 35.9495 5.23682 36.3657C5.20947 36.4202 5.18104 36.4807 5.15261 36.545L5.08444 35.9193L5.05067 35.6065L5.02812 35.2926L4.95041 34.2243C5.15662 34.4248 5.44161 34.4049 5.6987 34.3033C5.95695 34.2013 6.18518 34.0182 6.31323 33.8825C6.43737 33.7513 6.54342 33.5969 6.63218 33.4258C6.72013 33.2547 6.80497 33.0664 6.86547 32.8674L6.86227 32.8675L6.42935 32.8803L6.86547 32.8674H6.86672C6.96385 32.547 7.0257 32.1989 7.04842 31.8474C7.05333 31.78 7.04852 31.4761 7.04272 31.2064C7.03818 30.9366 7.03533 30.7011 7.09842 30.7711C6.80506 30.4495 6.52978 30.2266 6.35316 30.248C6.14944 30.2734 5.98467 30.4227 5.82168 30.6641C5.60602 30.9813 5.40213 31.4575 5.17008 32.0165C5.18603 31.713 5.17935 31.3613 5.16714 30.9649C5.15645 30.5684 5.13229 30.127 5.10182 29.6435C5.06394 29.0632 5.01217 28.5197 4.97251 28.0308C4.93268 27.542 4.90488 27.1083 4.89659 26.7483C4.88589 26.3881 4.89347 26.1018 4.90291 25.9059C4.90995 25.7725 4.917 25.6822 4.92074 25.6371C4.91058 25.7481 4.8703 26.1416 4.76639 26.7387C4.70651 27.0945 4.62328 27.5223 4.53452 28.008C4.44603 28.4935 4.35201 29.0371 4.2866 29.6229C4.23144 30.1272 4.19784 30.5887 4.18679 31.0019C4.1777 31.4152 4.19686 31.7797 4.2252 32.0906C4.09287 31.7979 3.96873 31.5228 3.84968 31.2778C3.73062 31.0329 3.62724 30.8178 3.51817 30.6452C3.35848 30.3919 3.19994 30.2299 2.99685 30.1967C2.82121 30.1684 2.53747 30.3946 2.23965 30.7394C2.30453 30.6647 2.29544 30.9194 2.2949 31.2111C2.29945 31.5029 2.30648 31.8316 2.31406 31.9044C2.35042 32.2838 2.42572 32.6572 2.53497 32.995H2.53622L3.4254 32.9689C3.27801 32.7693 3.15013 32.5474 3.04497 32.302C2.91718 32.0021 2.83671 31.6601 2.80231 31.2735C2.82183 31.4626 2.85801 31.6326 2.90346 31.793C2.95167 31.9482 3.01084 32.09 3.08053 32.2215C3.14986 32.3521 3.23051 32.4656 3.31561 32.5741C3.40223 32.6787 3.49554 32.773 3.59347 32.86C3.63464 32.895 3.67697 32.928 3.71975 32.96H3.72197C3.88371 33.0821 4.05776 33.1842 4.23937 33.2629C4.33455 33.3041 4.4315 33.3405 4.52953 33.3722L4.55091 33.9703C4.54735 33.9676 4.54352 33.9655 4.53995 33.9635C4.41154 33.8847 4.28749 33.8009 4.16799 33.7095C4.04875 33.6185 3.93255 33.5224 3.8241 33.4199C3.71814 33.3174 3.61708 33.2086 3.52244 33.0925C3.48956 33.0524 3.45748 33.0115 3.42674 32.9688L2.53934 32.995L2.53613 32.9951C2.67149 33.4148 2.88973 33.7774 3.16759 34.029C3.31062 34.1593 3.55854 34.3265 3.82668 34.403C4.09376 34.4795 4.3791 34.466 4.5617 34.2443L4.60447 35.3218L4.61721 35.6387L4.64128 35.9545L4.69091 36.5866C4.65099 36.5282 4.61178 36.4732 4.57453 36.4238C4.29426 36.0461 4.00963 35.6856 3.75352 35.3656C3.49028 35.046 3.23461 34.7685 2.97172 34.5603C2.67141 34.3218 2.36503 34.1742 2.02435 34.1598C1.73054 34.1476 1.35439 34.4009 1.01362 34.7761C1.08705 34.6947 1.16654 34.9508 1.24674 35.2437C1.32935 35.5365 1.41356 35.8656 1.44306 35.9376C1.77715 36.7826 2.28118 37.5766 2.98348 37.9822C3.18203 38.099 3.52672 38.2415 3.87863 38.2916C4.23099 38.3421 4.59422 38.3004 4.81567 38.0608L5.05699 40.0796C5.00727 40.0274 4.95834 39.9757 4.912 39.9267C4.21549 39.2194 3.50427 38.5756 2.79002 38.2056C2.38009 37.9948 1.97498 37.8734 1.5336 37.8895C1.34325 37.8962 1.13686 37.9712 0.931097 38.0955C0.723996 38.22 0.519299 38.3938 0.342408 38.5964C0.419669 38.5086 0.57054 38.7582 0.722747 39.0436C0.874241 39.3295 1.03598 39.6501 1.0792 39.72C1.19389 39.9025 1.31527 40.082 1.44404 40.2545C1.57147 40.4272 1.7096 40.5921 1.866 40.7447L3.30341 40.5223C3.00407 40.3585 2.73575 40.1664 2.48391 39.9476C2.18146 39.6783 1.9093 39.3608 1.68973 38.9876C1.80165 39.1697 1.93426 39.3286 2.07167 39.4765C2.21283 39.6192 2.36387 39.7447 2.52072 39.8592C2.67809 39.9727 2.84474 40.0678 3.01423 40.1556C3.1848 40.2398 3.36133 40.3124 3.54535 40.3762C3.62297 40.4019 3.7013 40.4265 3.78017 40.4487L6.9414 39.9599C7.0093 39.9168 7.07561 39.872 7.14119 39.8269C7.29287 39.7174 7.44596 39.602 7.58961 39.4797C7.73095 39.3549 7.86827 39.2257 7.99205 39.0847C8.11521 38.9431 8.23025 38.7949 8.33158 38.6363C8.42809 38.4741 8.51774 38.3056 8.58163 38.1236C8.46026 38.4942 8.27481 38.8361 8.04953 39.152C7.86141 39.4102 7.64335 39.6566 7.41754 39.8861C7.37031 39.9349 7.32147 39.9828 7.2721 40.03C6.98711 40.303 6.67513 40.5592 6.3463 40.8043C6.18161 40.9273 6.01158 41.0456 5.83674 41.1609C5.83193 41.1641 5.82649 41.1672 5.82186 41.1708L5.71545 40.5867C5.86285 40.5272 6.00918 40.464 6.15309 40.3967C6.42792 40.2683 6.69108 40.1212 6.9414 39.9597L6.92883 39.9624L3.79309 40.4473L3.78034 40.4494C4.07255 40.5338 4.37143 40.5965 4.67442 40.6345C4.83331 40.6543 4.99274 40.669 5.15208 40.6791L5.24591 41.2713C5.24039 41.2694 5.23433 41.2682 5.2288 41.2668C5.02544 41.2158 4.82556 41.1591 4.62889 41.0938C4.23572 40.9643 3.85467 40.8107 3.49117 40.6237C3.42834 40.5913 3.36569 40.5579 3.30358 40.523L1.87108 40.7445L1.86617 40.7453C2.24473 41.1261 2.67087 41.4385 3.14701 41.6287C3.39288 41.7273 3.79817 41.8403 4.20952 41.8587C4.62051 41.8776 5.03756 41.8032 5.28913 41.5424C5.34492 41.8983 5.40017 42.2543 5.47556 42.6064L5.72419 43.8522C5.66475 43.8017 5.60638 43.7549 5.55113 43.7132C5.13283 43.3932 4.70072 43.0909 4.26602 42.83C4.04938 42.6995 3.82855 42.5799 3.612 42.4736C3.3976 42.3667 3.18141 42.2738 2.96379 42.1988C2.46573 42.0261 1.95894 41.9465 1.43513 42.0056C0.98216 42.0572 0.48606 42.3891 0.109375 42.832C0.193053 42.7355 0.393024 42.9721 0.612067 43.242C0.829238 43.5127 1.05238 43.8182 1.11449 43.8832C1.46614 44.2658 1.84835 44.6297 2.2662 44.9298C2.68816 45.2294 3.16644 45.4603 3.66298 45.5904C3.94877 45.6649 4.41002 45.7389 4.87074 45.7174C5.33102 45.6967 5.78951 45.582 6.05463 45.2965L6.29354 46.2862L6.5689 47.2664C6.50144 47.2213 6.43532 47.1795 6.37276 47.1426C5.90073 46.8593 5.40169 46.5973 4.92279 46.3708C4.4364 46.1463 3.946 45.9634 3.4491 45.8522C2.88163 45.7249 2.308 45.6902 1.72831 45.7961C1.22704 45.887 0.706529 46.2631 0.33724 46.7391C0.417087 46.6363 0.675161 46.8533 0.935731 47.1059C1.20147 47.3578 1.46605 47.6458 1.54153 47.7049C1.92178 48.0187 2.32181 48.3159 2.74956 48.5614C3.28246 48.8662 3.84254 49.0958 4.44469 49.1919C4.75819 49.2413 5.25884 49.2746 5.75012 49.2129C6.24096 49.152 6.722 48.997 6.98765 48.6889L7.32441 49.717L7.52305 50.3212L7.74503 50.9172C7.67115 50.8785 7.59844 50.8427 7.53 50.8117C7.00494 50.5749 6.48291 50.3507 5.94956 50.1709C5.4155 49.9918 4.8703 49.8567 4.32492 49.7927C3.70237 49.7186 3.07759 49.7384 2.45869 49.8995C1.92392 50.0388 1.3944 50.465 1.04686 50.9753C1.121 50.8649 1.42826 51.0555 1.73963 51.2816C2.05082 51.5082 2.36637 51.7697 2.44755 51.8235C2.91558 52.1407 3.44688 52.4221 3.98254 52.6386C4.52088 52.8546 5.07856 53.0018 5.65156 53.0399C5.97763 53.0628 6.50367 53.0506 7.01394 52.9434C7.5226 52.8373 8.01121 52.6389 8.26742 52.3062L8.66273 53.2458C8.79649 53.5581 8.92178 53.8742 9.06276 54.1834C8.98425 54.1507 8.90574 54.1218 8.83605 54.0952C7.76365 53.693 6.60161 53.3774 5.44927 53.3414C4.80097 53.3182 4.15231 53.3895 3.51746 53.6027C3.2429 53.6949 2.97475 53.8584 2.73441 54.0671C2.49594 54.2753 2.27707 54.5312 2.12237 54.799C2.18921 54.6834 2.53212 54.847 2.88127 55.0453C3.23033 55.2442 3.58545 55.4775 3.67536 55.5239C4.14785 55.7667 4.61997 55.9954 5.14227 56.1551L6.92616 55.3431C6.71068 55.3248 6.49298 55.3001 6.28008 55.2664C6.06968 55.2317 5.86107 55.189 5.65424 55.1382C5.15422 55.0103 4.66525 54.8252 4.20667 54.5687C4.43845 54.691 4.68102 54.7851 4.92511 54.8661C5.17133 54.9409 5.42111 54.9957 5.67144 55.0381C5.9222 55.0796 6.17573 55.0998 6.42765 55.1124C6.6786 55.1216 6.93864 55.1149 7.19341 55.1011C7.30142 55.0937 7.40969 55.085 7.51788 55.0739L11.4405 53.288C11.5195 53.2157 11.5979 53.1437 11.6759 53.0723C11.8562 52.899 12.0312 52.7226 12.2041 52.5387C12.3723 52.354 12.5376 52.166 12.6882 51.9709C12.8376 51.7755 12.9797 51.5762 13.1073 51.3712C13.2291 51.1645 13.343 50.9545 13.4315 50.7388C13.2656 51.1729 13.0364 51.6002 12.7668 52.0157C12.5391 52.358 12.2912 52.6946 12.0317 53.0192C11.9769 53.0866 11.9213 53.1551 11.8658 53.2236C11.5421 53.6152 11.1945 53.9981 10.8341 54.3744C10.6537 54.5632 10.4681 54.7487 10.2783 54.9329L10.2621 54.9488L10.0082 54.414C10.1805 54.295 10.3513 54.1727 10.5194 54.0472C10.8402 53.8075 11.1468 53.5531 11.4405 53.2883L11.4248 53.2955L7.53356 55.0668L7.51788 55.0741C7.91845 55.035 8.3159 54.9729 8.7088 54.8859C8.91465 54.8401 9.11917 54.7892 9.32181 54.734L9.57784 55.2782C9.57062 55.279 9.56278 55.28 9.55556 55.2807C9.29348 55.3123 9.03202 55.3374 8.77011 55.3535C8.24656 55.3865 7.72213 55.3935 7.19876 55.3629C7.10813 55.3576 7.01724 55.3515 6.92625 55.3434L5.14851 56.1526L5.14236 56.1554C5.77873 56.3596 6.42819 56.4829 7.08273 56.4723C7.42172 56.4671 7.95392 56.4139 8.46115 56.2673C8.9683 56.1215 9.45085 55.8836 9.69529 55.5273C9.84313 55.8567 10.0166 56.1736 10.1833 56.494L10.7748 57.622C10.694 57.5954 10.6167 57.5711 10.5431 57.5512C9.98643 57.3962 9.40639 57.2665 8.81663 57.1832C8.2299 57.0985 7.62187 57.0655 7.04147 57.0945C6.37526 57.1282 5.71403 57.2578 5.08096 57.5271C4.5338 57.76 4.04038 58.2776 3.76439 58.844C3.82089 58.7224 4.18822 58.8552 4.56989 59.0201C4.9497 59.1861 5.33779 59.3859 5.43475 59.4241C6.00472 59.6466 6.56988 59.8507 7.1829 59.9637C7.7862 60.0812 8.39022 60.1289 8.98514 60.0681C9.32618 60.0339 9.85588 59.9356 10.3507 59.747C10.8458 59.5591 11.3064 59.2824 11.5203 58.9068C11.607 59.0532 11.6882 59.2027 11.7793 59.3464L12.0548 59.7761L12.6057 60.6354C12.524 60.6148 12.4446 60.5968 12.3698 60.5828C11.8024 60.4719 11.2109 60.3888 10.6117 60.3529C10.0067 60.3206 9.42038 60.3208 8.8341 60.3979C8.16574 60.4857 7.5087 60.6675 6.89461 60.9853C6.36269 61.2598 5.91828 61.8108 5.70039 62.3924C5.74914 62.2661 6.1244 62.3735 6.51722 62.5105C6.92144 62.643 7.336 62.8079 7.43794 62.8375C7.97085 62.9937 8.51168 63.1276 9.04886 63.2084L10.6789 62.1229C10.2476 62.1539 9.81016 62.157 9.37118 62.1275C8.83971 62.0871 8.3036 61.9904 7.77952 61.8197C8.04294 61.8988 8.31037 61.9489 8.57557 61.9863C8.84194 62.0171 9.1067 62.0282 9.36851 62.0274C9.6306 62.0255 9.89045 62.0028 10.1463 61.9731C10.4022 61.9397 10.6554 61.8938 10.9048 61.8403C11.01 61.8162 11.1151 61.7909 11.2197 61.7629C11.6055 61.6632 11.9919 61.5365 12.3659 61.3877C12.5617 61.3094 12.7554 61.2268 12.9457 61.14L13.2935 61.6317C13.2865 61.6336 13.2788 61.6357 13.2719 61.6378C13.0202 61.7104 12.7671 61.7768 12.5109 61.8346C11.9997 61.9511 11.4793 62.0438 10.9503 62.1001C10.8603 62.1088 10.7697 62.1168 10.6788 62.1229L9.05447 63.2046L9.04886 63.2084C9.72238 63.3063 10.4079 63.3122 11.0538 63.1965C11.3901 63.1359 11.9064 62.9981 12.3774 62.7744C12.849 62.5513 13.2767 62.2438 13.4524 61.8567C13.6618 62.1514 13.8651 62.4503 14.0931 62.7313L14.877 63.7367C14.7954 63.7226 14.7157 63.711 14.6413 63.7028C14.0758 63.637 13.4871 63.6017 12.8932 63.6147C12.294 63.6313 11.7106 63.682 11.1401 63.8055C10.487 63.9464 9.85347 64.1807 9.27824 64.5455C8.78036 64.8609 8.40242 65.4397 8.25779 66.0277C8.29139 65.8988 8.67601 65.9737 9.08932 66.0714C9.50914 66.1661 9.94169 66.2922 10.0467 66.3124C10.6631 66.4311 11.2735 66.5291 11.8839 66.5488C12.5027 66.5632 13.1004 66.513 13.6611 66.3633C13.9827 66.2776 14.47 66.1029 14.9016 65.849C15.3341 65.5953 15.7126 65.263 15.8392 64.8703L16.1722 65.2574L16.5231 65.6288L17.2266 66.3695C17.1459 66.3612 17.0673 66.3554 16.9941 66.3524C16.438 66.3266 15.8603 66.3339 15.2807 66.3897C14.9889 66.4193 14.7033 66.4557 14.4236 66.5042C14.1424 66.554 13.8635 66.6183 13.59 66.6998C12.9652 66.8866 12.3678 67.1632 11.8444 67.562C11.3904 67.9062 11.09 68.4969 11.0253 69.0755C11.0399 68.9501 11.438 68.9874 11.8513 69.0549C12.2754 69.1155 12.7235 69.2001 12.8286 69.212C13.3853 69.2719 13.9391 69.3121 14.4735 69.3039C15.1458 69.2879 15.7976 69.1907 16.3776 68.9892C16.6795 68.884 17.1295 68.6823 17.514 68.4093C17.8993 68.1362 18.2213 67.7921 18.2939 67.405L18.6874 67.7785C18.8214 67.8996 18.9613 68.0148 19.0981 68.1331L20.0681 68.9611C19.9893 68.959 19.9143 68.9576 19.8441 68.9594C19.31 68.9697 18.7585 69.0147 18.2094 69.1086C17.935 69.1556 17.6615 69.2149 17.3921 69.2879C17.1268 69.357 16.8667 69.4392 16.6137 69.538C16.0359 69.7623 15.4957 70.073 15.0453 70.4944C14.6553 70.8588 14.4499 71.4463 14.478 71.9966C14.4746 71.9371 14.5725 71.9069 14.723 71.895C14.872 71.8844 15.0769 71.8892 15.292 71.8967C15.7195 71.9148 16.1647 71.9606 16.2697 71.9626C16.5772 71.9689 16.8819 71.9708 17.1837 71.959C17.3344 71.9534 17.4824 71.9468 17.6306 71.935C17.7811 71.921 17.9294 71.9045 18.0751 71.8848C18.6584 71.8053 19.1971 71.6785 19.6733 71.468C19.9462 71.3481 20.3442 71.1295 20.6671 70.8508C20.9908 70.5718 21.2413 70.2325 21.2498 69.8649L21.4535 70.0188L21.6648 70.1625L22.0875 70.4498C22.3706 70.6389 22.6485 70.8361 22.9358 71.0186C22.8617 71.0232 22.7887 71.0278 22.7194 71.0321C22.2127 71.068 21.6899 71.1447 21.1771 71.2664C20.9206 71.3274 20.6665 71.4004 20.418 71.4866C20.1707 71.5712 19.9351 71.6623 19.7051 71.7727C19.1818 72.0226 18.7047 72.3535 18.3339 72.7776C18.0108 73.1459 17.9072 73.7018 18.0284 74.1997C18.0051 74.0893 18.3843 74.0639 18.8069 74.0407C19.2264 74.0219 19.6664 74.0281 19.7701 74.0194C20.0393 74.0002 20.3055 73.9779 20.5654 73.9503C20.6954 73.9363 20.8235 73.9214 20.9501 73.9041C21.0797 73.8835 21.2071 73.8612 21.332 73.8369C21.9531 73.7175 22.5165 73.5494 22.9805 73.3094C23.2217 73.1843 23.5652 72.9648 23.8251 72.6973C24.0905 72.4224 24.2656 72.1146 24.2129 71.7805C24.5266 71.9595 24.8531 72.1166 25.1723 72.2855L25.7383 72.5781C25.9283 72.673 26.1258 72.7523 26.3192 72.8402C26.2473 72.8469 26.1783 72.8552 26.1151 72.865C25.6288 72.9459 25.1557 73.0239 24.6904 73.1636C24.2266 73.3005 23.7776 73.4841 23.3745 73.7193C22.9156 73.9844 22.5271 74.3031 22.2498 74.7082C22.1308 74.8824 22.0719 75.0938 22.07 75.3138C22.0675 75.5345 22.1216 75.7652 22.2369 75.9613C22.1879 75.8744 22.5637 75.7958 22.9632 75.7388C23.364 75.6814 23.7877 75.6459 23.8843 75.6312C24.0237 75.608 24.1648 75.5846 24.3074 75.5608C24.448 75.5348 24.5901 75.5021 24.7277 75.4719C25.0038 75.41 25.2696 75.3443 25.5204 75.2734C26.0253 75.1257 26.4656 74.9665 26.8244 74.7517C27.0316 74.6255 27.3169 74.4165 27.5109 74.1804ZM5.67839 32.9032L5.67232 32.9034L5.40971 32.9112L5.67839 32.9032ZM4.77227 37.7829C4.60242 37.7167 4.43614 37.6447 4.27395 37.5641C3.94939 37.4051 3.64124 37.2242 3.35411 37.0102C3.06716 36.7984 2.80009 36.551 2.56804 36.2655C2.45379 36.1214 2.34569 35.9661 2.25257 35.7985C2.16337 35.6307 2.08486 35.4508 2.01927 35.2584C2.08798 35.4463 2.17433 35.6134 2.26861 35.7697C2.36771 35.9207 2.48462 36.0565 2.6043 36.1814C2.72514 36.3055 2.85659 36.4111 2.99267 36.5111C3.12981 36.6071 3.27266 36.6922 3.41881 36.7695C3.71288 36.9178 4.02184 37.0336 4.3406 37.1102C4.47249 37.1426 4.60563 37.1686 4.73921 37.1913L4.7868 37.7881L4.77227 37.7829ZM4.34693 32.9425L4.58745 32.9353L4.5879 32.917L4.60073 32.3863L4.6239 31.123L4.66872 29.8611L4.69688 29.2311L4.72763 28.6005L4.71363 29.2316L4.71025 29.8621C4.71141 30.2824 4.71818 30.7029 4.73155 31.1231L4.80418 32.3823L4.83394 32.8512L4.83929 32.928L4.34693 32.9425ZM4.93125 33.9535L4.88892 33.3599C4.98544 33.3211 5.08105 33.2782 5.17471 33.2314C5.35312 33.1414 5.52324 33.0306 5.68026 32.9032L5.68248 32.9031C5.72419 32.8695 5.76509 32.8353 5.80501 32.7992C5.89956 32.7101 5.98939 32.6152 6.07218 32.5113C6.15309 32.4039 6.22946 32.2928 6.29425 32.1667C6.35913 32.0397 6.41304 31.9042 6.45564 31.7569C6.49512 31.6048 6.52541 31.4445 6.5378 31.2667C6.5174 31.6303 6.4494 31.9532 6.33275 32.2417C6.23659 32.4778 6.11682 32.6947 5.977 32.8943L5.97523 32.8944C5.94626 32.9368 5.9157 32.978 5.88433 33.0187C5.79405 33.1359 5.69728 33.2478 5.59489 33.3549C5.49517 33.4621 5.39224 33.5644 5.28317 33.6632C5.17454 33.7624 5.06029 33.8557 4.94123 33.9456C4.93802 33.948 4.93446 33.9504 4.93125 33.9535ZM5.28156 37.7331L5.21802 37.1431C5.34474 37.0942 5.47066 37.0427 5.59408 36.9859C5.89306 36.8504 6.17555 36.6826 6.4379 36.492C6.56756 36.3938 6.69268 36.2903 6.81031 36.1789C6.92625 36.064 7.03693 35.9461 7.13371 35.8144C7.2312 35.6818 7.31603 35.5419 7.39535 35.3909C7.47225 35.2353 7.54016 35.0725 7.58837 34.8941C7.54381 35.0761 7.48526 35.2495 7.41451 35.4146C7.34767 35.5795 7.27255 35.736 7.1845 35.8852C7.00672 36.1814 6.78857 36.4544 6.54493 36.7043C6.30147 36.9565 6.03146 37.1878 5.74299 37.4074C5.59863 37.5182 5.44909 37.6232 5.29466 37.725L5.28156 37.7331ZM5.97068 45.0266C5.74023 44.9953 5.51228 44.958 5.28646 44.9113C4.83822 44.8194 4.38694 44.7058 3.9698 44.5511C3.5507 44.399 3.14701 44.2075 2.76818 43.9719C2.39087 43.7337 2.03798 43.4436 1.74034 43.0914C1.89406 43.2622 2.06151 43.409 2.23938 43.5427C2.41966 43.6706 2.60823 43.7818 2.80143 43.8807C2.99498 43.9788 3.1962 44.0564 3.3992 44.1279C3.60336 44.1953 3.81145 44.2505 4.02122 44.2975C4.44309 44.3845 4.86932 44.4372 5.30722 44.4473C5.48839 44.4522 5.66929 44.4506 5.84984 44.4458L5.99019 45.0285L5.97068 45.0266ZM6.48032 44.2993C6.64358 44.2246 6.80577 44.1474 6.9652 44.0656C7.35186 43.8689 7.72525 43.6416 8.07555 43.3957C8.24924 43.2703 8.41846 43.1402 8.57985 43.0035C8.73856 42.8638 8.8938 42.7217 9.03478 42.5682C9.17478 42.4142 9.30667 42.254 9.42492 42.0857C9.53872 41.9136 9.63853 41.7371 9.71695 41.5486C9.57294 41.9307 9.35657 42.2914 9.09992 42.6293C8.84006 42.9658 8.54429 43.2855 8.22018 43.5875C7.89527 43.8919 7.55887 44.1766 7.19849 44.4546C7.01929 44.5946 6.83437 44.7294 6.64483 44.8621L6.62861 44.8728L6.48032 44.2993ZM6.88107 48.4263C6.63075 48.4156 6.38987 48.3964 6.14712 48.3693C5.66359 48.3155 5.18621 48.236 4.71907 48.1198C4.63816 48.0996 4.55733 48.0786 4.47668 48.0557C4.09358 47.949 3.72162 47.8136 3.36222 47.6476C3.14558 47.5448 2.93421 47.4286 2.73138 47.2977C2.53435 47.1653 2.34578 47.0181 2.168 46.8547C2.34899 47.0127 2.54531 47.1448 2.74608 47.2645C2.95345 47.3777 3.17143 47.4709 3.39065 47.5529C3.61067 47.6337 3.83693 47.6942 4.06355 47.7472C4.29168 47.7964 4.52231 47.8333 4.75347 47.8616C4.85158 47.8722 4.9505 47.8815 5.0496 47.8882C5.41657 47.9156 5.78577 47.92 6.15541 47.899C6.34915 47.8878 6.54252 47.8716 6.73519 47.8506C6.79115 48.0428 6.84141 48.2368 6.90246 48.4275C6.89542 48.427 6.88784 48.4267 6.88107 48.4263ZM7.57642 48.216C7.51396 48.0285 7.462 47.8376 7.40435 47.6489C7.57714 47.5601 7.74851 47.4677 7.91773 47.372C8.24033 47.189 8.55 46.9889 8.84737 46.7768L8.83204 46.7813L6.94844 47.3325L8.84737 46.7768C8.92784 46.7201 9.00725 46.6617 9.08513 46.6031C9.26719 46.4623 9.44497 46.3173 9.61464 46.1666C9.78146 46.0135 9.94473 45.8572 10.093 45.6912C10.2411 45.5247 10.3788 45.3539 10.5057 45.1741C10.6308 44.9903 10.7471 44.802 10.8394 44.604C10.7523 44.8045 10.6494 45.0003 10.5332 45.192C10.4229 45.3816 10.2996 45.5668 10.1653 45.7473C9.93964 46.0439 9.69146 46.3318 9.41948 46.6094C9.36245 46.6669 9.3047 46.7252 9.24687 46.7835C8.91011 47.1155 8.54804 47.4351 8.17127 47.746C7.98323 47.9019 7.78682 48.0547 7.59291 48.2034C7.58756 48.2072 7.58159 48.2113 7.57642 48.216ZM8.14596 52.0502C7.88851 52.0608 7.63248 52.0648 7.37663 52.0591C6.86601 52.0499 6.35841 52.0152 5.85608 51.9417C5.3549 51.8705 4.8555 51.7587 4.37598 51.5976C3.89735 51.4336 3.45543 51.2069 3.04061 50.9145C3.24976 51.0554 3.47218 51.1689 3.69764 51.2696C3.92693 51.3629 4.15703 51.44 4.39826 51.5008C4.63967 51.561 4.88447 51.5999 5.13078 51.6318C5.37754 51.6594 5.62527 51.6744 5.8723 51.6809C6.36733 51.6875 6.86155 51.6582 7.35195 51.5876C7.55504 51.5592 7.7567 51.5244 7.95739 51.4863L8.16752 52.0487L8.14596 52.0502ZM8.85762 51.7753L8.64642 51.2226C8.82189 51.1171 8.99601 51.0096 9.16738 50.8974C9.58265 50.6279 9.97636 50.332 10.351 50.0198C10.5358 49.8617 10.7165 49.6995 10.8898 49.532C11.0599 49.3622 11.2252 49.191 11.3757 49.0107C11.5248 48.8305 11.6748 48.6414 11.806 48.4487C11.9326 48.2528 12.0507 48.0529 12.1439 47.8456C11.971 48.2632 11.7235 48.6729 11.4532 49.0597C11.1796 49.4453 10.8654 49.8223 10.5281 50.1848C10.1913 50.5494 9.82923 50.9024 9.45371 51.2487C9.26585 51.4229 9.07247 51.5931 8.87473 51.7614L8.85762 51.7753ZM11.3599 58.6727C11.1003 58.7263 10.8403 58.7734 10.5784 58.8111C10.0556 58.8884 9.52847 58.9412 8.99637 58.9555C8.7317 58.9633 8.46106 58.9632 8.19818 58.9478C7.93618 58.932 7.67472 58.9045 7.41388 58.865C6.89346 58.7828 6.37615 58.6422 5.88041 58.4281C6.13046 58.5291 6.38782 58.6008 6.64483 58.6599C6.90326 58.7117 7.16347 58.7448 7.42226 58.7649C7.68122 58.784 7.94037 58.7811 8.19719 58.7723C8.45482 58.7587 8.70844 58.7335 8.96732 58.6964C9.48115 58.6174 9.98518 58.5037 10.4766 58.3505C10.6801 58.2878 10.881 58.2193 11.08 58.1476L11.3817 58.6675L11.3599 58.6727ZM12.0538 58.2652L12.0387 58.2817L11.7428 57.7702C11.9057 57.6364 12.0677 57.5003 12.2262 57.3602C12.6109 57.0231 12.9721 56.6629 13.3152 56.2889C13.4824 56.1014 13.6537 55.9055 13.813 55.7081C13.9697 55.5083 14.1244 55.3064 14.2642 55.098C14.4029 54.8893 14.5342 54.6766 14.6522 54.4606C14.7639 54.2427 14.8681 54.0221 14.9475 53.7979C14.8002 54.2482 14.5916 54.6967 14.3445 55.1356C14.0934 55.5744 13.8101 56.0077 13.5142 56.4239C13.217 56.8432 12.8968 57.2546 12.5652 57.6605C12.3997 57.8648 12.2286 58.0656 12.0538 58.2652ZM13.907 61.2003L13.5682 60.7156C13.718 60.5713 13.8661 60.4237 14.0114 60.2735C14.2886 59.9863 14.5491 59.6878 14.804 59.3755L14.7897 59.385L13.0119 60.5689L14.804 59.3754C14.8721 59.2906 14.9396 59.2061 15.0067 59.1224C15.1614 58.9204 15.3123 58.7149 15.4563 58.5058C15.5966 58.2954 15.7347 58.0822 15.8585 57.8639C15.9815 57.6453 16.0976 57.4238 16.2003 57.1986C16.2971 56.9725 16.3867 56.744 16.4527 56.514C16.3325 56.9756 16.1544 57.4392 15.9406 57.8962C15.76 58.2729 15.5608 58.6474 15.3441 59.0158C15.2988 59.0922 15.2529 59.1698 15.2069 59.2474C14.9457 59.6861 14.6641 60.1186 14.3719 60.5459C14.2258 60.76 14.0748 60.9715 13.9201 61.1824L13.907 61.2003ZM15.6394 64.6682C15.4032 64.7583 15.1647 64.8423 14.9213 64.918C14.4365 65.0713 13.9397 65.2029 13.4262 65.2999C12.9149 65.3985 12.4037 65.4477 11.8727 65.4569C11.3441 65.4615 10.802 65.4112 10.2605 65.288C10.5318 65.3435 10.8032 65.37 11.0701 65.3846C11.337 65.3922 11.6005 65.3819 11.8589 65.3596C12.1172 65.3363 12.3699 65.2924 12.6184 65.2434C12.8662 65.1898 13.1093 65.125 13.3475 65.0526C13.8195 64.9038 14.2898 64.7114 14.7288 64.4907C14.9116 64.3995 15.0905 64.3028 15.2668 64.2038L15.6591 64.6601L15.6394 64.6682ZM16.2063 64.1917L15.8258 63.7402C15.9555 63.5863 16.0839 63.4305 16.2086 63.2711C16.5134 62.8854 16.7867 62.486 17.0558 62.0635C17.1863 61.8519 17.3133 61.637 17.4337 61.4187C17.5503 61.199 17.6655 60.9773 17.7667 60.7509C17.8671 60.5244 17.9607 60.2946 18.0425 60.0628C18.1182 59.8301 18.1875 59.5954 18.2342 59.3606C18.1518 59.8307 18.0163 60.3067 17.848 60.7768C17.6772 61.246 17.4756 61.7167 17.263 62.17C17.053 62.6237 16.824 63.071 16.5861 63.5132C16.4675 63.7355 16.3442 63.9549 16.2173 64.1734L16.2063 64.1917ZM18.0758 67.2232C17.8589 67.3254 17.6385 67.4224 17.413 67.5126C16.9625 67.6932 16.4955 67.8546 16.0077 67.9859C15.9237 68.0065 15.8395 68.0271 15.7562 68.0475C15.3548 68.1403 14.94 68.2081 14.5127 68.2478C13.9942 68.2912 13.4541 68.2847 12.9032 68.2081C13.1784 68.2405 13.4494 68.245 13.7141 68.2386C13.9783 68.2259 14.2353 68.1954 14.4858 68.1548C14.7362 68.1128 14.9785 68.0523 15.2148 67.9862C15.4502 67.9165 15.679 67.8363 15.9021 67.7497C15.9958 67.7117 16.0893 67.6725 16.1815 67.631C16.5221 67.4813 16.8563 67.3062 17.1722 67.1137C17.3378 67.0123 17.4997 66.9075 17.6576 66.7992L18.0944 67.2145C18.0879 67.2169 18.0816 67.2203 18.0758 67.2232ZM18.572 66.7076C18.5694 66.7134 18.5662 66.72 18.5641 66.7264L18.1418 66.3132C18.2491 66.1561 18.3538 65.9961 18.456 65.8337C18.651 65.5233 18.8279 65.2045 19.0014 64.8694C19.0472 64.7788 19.0927 64.6885 19.138 64.5987C19.2406 64.3837 19.3399 64.1653 19.4326 63.9437C19.5221 63.7212 19.6099 63.496 19.6845 63.2668C19.7582 63.0375 19.8261 62.8057 19.8825 62.5714C19.9333 62.337 19.9783 62.1007 20.0026 61.8652C19.9648 62.3359 19.8797 62.8141 19.765 63.288C19.6666 63.6792 19.5543 64.0684 19.4262 64.4533C19.3994 64.5332 19.3722 64.6143 19.345 64.6953C19.1929 65.1509 19.0247 65.6008 18.8483 66.0451C18.76 66.2679 18.6677 66.4881 18.572 66.7076ZM21.0147 69.7061C20.8244 69.8153 20.6295 69.9202 20.4281 70.0186C20.0266 70.2169 19.606 70.3997 19.1578 70.557C18.9354 70.6353 18.7013 70.7117 18.4683 70.7714C18.235 70.831 17.9949 70.8827 17.7481 70.9252C17.2558 71.0051 16.7325 71.0405 16.1856 71.012C16.458 71.0207 16.7212 71.0037 16.9765 70.9773C17.2294 70.9446 17.4733 70.8969 17.7085 70.8399C17.9434 70.782 18.1683 70.705 18.386 70.6262C18.6028 70.5424 18.8074 70.4534 19.0131 70.3509C19.417 70.144 19.7926 69.9146 20.1372 69.658C20.2803 69.5521 20.4179 69.4425 20.5526 69.3312L21.0306 69.6967L21.0147 69.7061ZM21.4068 69.1918L21.4015 69.2095L20.9394 68.842C21.0172 68.6864 21.0936 68.5289 21.1662 68.3682C21.3428 67.9805 21.4937 67.576 21.6292 67.1597C21.6927 66.9528 21.76 66.7329 21.8178 66.5142C21.8727 66.2937 21.928 66.0696 21.9689 65.843C22.0092 65.6164 22.0438 65.3868 22.0686 65.1557C22.0878 64.9238 22.1018 64.6904 22.097 64.4581C22.1163 64.9219 22.0949 65.3936 22.0468 65.8597C22.0201 66.0942 21.9888 66.3274 21.9533 66.5588C21.9176 66.7901 21.8844 67.01 21.843 67.2334C21.7642 67.6785 21.6696 68.1167 21.5682 68.5483C21.5185 68.7648 21.464 68.979 21.4068 69.1918ZM23.9622 71.6479C23.7993 71.7561 23.6311 71.8608 23.4556 71.9616C23.1052 72.1632 22.7315 72.3552 22.3272 72.5283C22.256 72.5578 22.1847 72.5872 22.1138 72.6164C21.7683 72.7573 21.4097 72.8697 21.0295 72.9616C20.5657 73.0709 20.0626 73.146 19.5283 73.1611C19.7941 73.1476 20.0459 73.1128 20.2891 73.0687C20.5302 73.0189 20.758 72.9563 20.9761 72.8867C21.1939 72.8163 21.3974 72.7324 21.5932 72.6456C21.7859 72.5573 21.9727 72.4564 22.1526 72.3507C22.2274 72.3054 22.3015 72.2593 22.3734 72.2117C22.6414 72.0372 22.8895 71.851 23.1165 71.6512C23.2353 71.5465 23.3494 71.4395 23.459 71.3303L23.9763 71.6388C23.9712 71.6414 23.9667 71.645 23.9622 71.6479ZM27.0583 70.2205C27.1623 70.609 27.2514 70.9872 27.3246 71.3519C27.3996 71.7186 27.4606 72.0727 27.5154 72.4147C27.5401 72.5801 27.5653 72.747 27.5907 72.9156L27.5921 72.929C27.4097 72.8546 27.2352 72.7618 27.0562 72.6792C27.0733 72.5529 27.0885 72.4247 27.0994 72.2937C27.1274 71.9773 27.1278 71.6456 27.1124 71.2998C27.1018 71.1262 27.0879 70.9488 27.0678 70.7675C27.0446 70.5852 27.0196 70.4017 26.9848 70.2096C26.9507 70.013 26.9131 69.8099 26.8654 69.6072C26.813 69.4037 26.7564 69.1965 26.6853 68.9889C26.837 69.4016 26.9568 69.821 27.0583 70.2205ZM26.0418 74.1529C25.6936 74.3242 25.3076 74.4848 24.8806 74.6292C24.457 74.7635 23.9949 74.8603 23.4836 74.9221C23.736 74.8875 23.9708 74.836 24.1942 74.7799C24.413 74.7199 24.62 74.6475 24.814 74.5728C25.0102 74.4927 25.1909 74.3994 25.3634 74.308C25.533 74.2136 25.6911 74.1154 25.8406 74.0152C26.1346 73.8115 26.3939 73.5985 26.6155 73.3708C26.7076 73.2772 26.7936 73.1814 26.876 73.0853C27.0603 73.1636 27.2403 73.2519 27.428 73.3218L27.4172 73.3305C27.282 73.4331 27.1454 73.5245 26.9987 73.6166C26.7078 73.8004 26.3927 73.9814 26.0418 74.1529Z" fill="#2A2A61"/>
<path d="M4.9209 25.6394C4.92305 25.6171 4.92398 25.6046 4.92398 25.6046C4.92398 25.6046 4.92277 25.6172 4.9209 25.6394Z" fill="#2A2A61"/>
<path d="M5.71099 32.9023L5.68262 32.903L5.71099 32.9023Z" fill="#2A2A61"/>
<path d="M48.8193 43.6351C48.765 43.6025 48.7161 43.5863 48.6725 43.5863C48.5857 43.5863 48.5423 43.6082 48.5423 43.6513C48.1293 45.1942 47.304 46.4163 46.0654 47.3176C44.827 48.2194 43.3608 48.67 41.6662 48.67H40.5582C39.9929 48.67 39.5856 48.6266 39.3359 48.5397C39.0858 48.4531 38.9175 48.2845 38.8307 48.0347C38.7438 47.7854 38.7003 47.3776 38.7003 46.8127V44.2668C39.193 44.1232 39.6699 43.9468 40.1274 43.7313C41.4989 43.0851 42.5675 42.2014 43.3327 41.0798C44.0973 39.9588 44.48 38.7122 44.48 37.3405C44.48 35.1515 43.5901 33.476 41.809 32.3154C40.8965 31.7205 39.8589 31.2804 38.7003 30.9905V29.7621C38.7003 29.1102 38.7543 28.6267 38.8633 28.3115C38.9719 27.997 39.1892 27.7796 39.5153 27.6599C39.8412 27.5409 40.3405 27.4809 41.0142 27.4809C41.0792 27.4809 41.1119 27.4158 41.1119 27.2853C41.1119 27.155 41.0793 27.0898 41.0142 27.0898L39.3521 27.1222C38.3525 27.1661 35.3979 27.1661 34.3985 27.1222L32.7366 27.0898C32.6931 27.0898 32.6716 27.1549 32.6716 27.2853C32.6716 27.4158 32.6932 27.4809 32.7366 27.4809C33.41 27.4809 33.91 27.5409 34.2357 27.6599C34.5617 27.7796 34.7841 27.9916 34.9038 28.2952C35.0231 28.5997 35.0831 29.0776 35.0831 29.7292V30.5748C35.0761 30.5748 35.0694 30.5742 35.0624 30.5742C34.0072 30.5742 32.9518 30.6533 31.8967 30.8117V23.2535C31.8967 22.2779 32.0485 21.6114 32.3519 21.2553C32.6552 20.8991 33.2287 20.7211 34.0733 20.7211H35.7354C37.3182 20.7211 38.6433 21.2295 39.7118 22.2445C40.7801 23.2601 41.5123 24.7839 41.9081 26.8147C41.9605 26.8938 42.0525 26.9338 42.1847 26.9338C42.3168 26.9338 42.3828 26.8938 42.3828 26.8147L42.0664 20.8001C42.0664 20.3523 42.0198 20.0749 41.9276 19.9695C41.8348 19.8644 41.6046 19.8112 41.2351 19.8112H24.6554C24.6025 19.8112 24.5766 19.8902 24.5766 20.0486C24.5766 20.2071 24.6025 20.286 24.6554 20.286C25.4727 20.286 26.0802 20.359 26.4757 20.5034C26.8713 20.6488 27.1348 20.9063 27.2672 21.275C27.3986 21.6448 27.4649 22.225 27.4649 23.0162V41.3372C27.4649 42.1288 27.3919 42.7155 27.2469 43.098C27.1021 43.4807 26.8378 43.7379 26.4556 43.8696C26.0731 44.0016 25.4599 44.0673 24.6158 44.0673C24.5365 44.0673 24.4971 44.1463 24.4971 44.3047C24.4971 44.4631 24.5365 44.5422 24.6158 44.5422C25.5122 44.5422 26.2246 44.5292 26.7525 44.5028L29.6413 44.4632C30.3267 44.4632 30.9533 44.4765 31.5207 44.5028C32.0875 44.5293 32.5694 44.5552 32.9651 44.5817C33.7644 44.6448 34.4676 44.6817 35.0828 44.6946V46.9432C35.0828 47.5951 35.0228 48.0784 34.9035 48.3933C34.7839 48.7086 34.5667 48.9204 34.2517 49.0287C33.9365 49.1375 33.4317 49.1916 32.7364 49.1916C32.6928 49.1916 32.6713 49.2567 32.6713 49.3871C32.6713 49.5176 32.6929 49.5827 32.7364 49.5827H48.1182C48.2918 49.5827 48.4168 49.5451 48.4934 49.4685C48.5692 49.3927 48.607 49.268 48.607 49.0942C48.607 47.6602 48.7051 45.8676 48.9005 43.7166C48.9009 43.6953 48.8732 43.6676 48.8193 43.6351ZM39.5045 33.3043C40.586 34.3862 41.127 36.0614 41.127 38.33C41.127 40.0975 40.7176 41.4359 39.9001 42.3458C39.6442 42.6306 39.2183 42.8709 38.7003 43.0666V32.7373C39.0198 32.9063 39.2949 33.0949 39.5045 33.3043ZM34.7856 43.7114C33.6246 43.7114 32.8528 43.5134 32.4706 43.1177C32.0878 42.7219 31.8968 42.1287 31.8968 41.3371V31.8405C32.451 31.7349 33.0447 31.6821 33.6776 31.6821C34.1135 31.6821 34.592 31.7107 35.0832 31.7646V43.7068C34.9822 43.7095 34.8822 43.7114 34.7856 43.7114Z" fill="#2A2A61"/>
</svg>
