<svg width="689" height="659" viewBox="0 0 689 659" fill="none" xmlns="http://www.w3.org/2000/svg">
<g opacity="0.2">
<path d="M369.767 656.809L369.763 656.798L369.759 656.789C347.999 599.797 300.604 584.762 269.597 575.275C268.428 574.901 267.287 574.541 266.176 574.191C263.323 573.291 260.674 572.456 258.281 571.62C152.296 534.574 79.4228 438.39 73.1004 326.425L73.1004 326.424C66.6121 215.464 126.997 112.145 226.479 62.8011C227.606 62.3919 228.969 62.835 229.5 63.8965C230.062 65.0187 229.605 66.3251 228.605 66.6993L228.581 66.7083L228.558 66.7197C130.539 115.403 71.2571 217.108 77.6025 325.982C83.9477 436.518 155.414 531.052 259.775 567.235C262.662 568.387 265.797 569.292 269.148 570.259C269.695 570.418 270.248 570.577 270.807 570.74C301.142 580.226 351.412 596.146 373.988 655.138C374.403 656.394 373.846 657.587 372.635 657.99L372.601 658.001L372.569 658.017C372.35 658.127 372.121 658.131 371.959 658.131C370.94 658.131 370.013 657.545 369.767 656.809Z" stroke="#AC966D"/>
<path d="M215.311 68.9665L215.367 68.9428L215.415 68.9067C239.445 50.8704 273.955 45.8899 302.835 53.0156C303.356 53.1458 303.68 53.4576 303.825 53.8188C303.969 54.179 303.953 54.6354 303.699 55.0912C294.126 68.5902 278.431 76.5228 262.351 79.833L262.346 79.8341C246.283 83.3063 228.115 81.1456 214.928 70.9464C214.267 70.3885 214.437 69.3407 215.311 68.9665ZM279.513 60.9641L280.83 60.294L279.377 60.0268C260.226 56.5045 241.444 62.2127 223.926 69.3754L224.115 70.3382C243.28 70.3382 262.727 69.512 279.513 60.9641Z" stroke="#AC966D"/>
<path d="M191.43 37.1555L191.431 37.1524C194.411 23.2678 201.684 9.26308 213.533 0.866233C213.916 0.684632 214.302 0.669049 214.607 0.779795C214.907 0.888792 215.169 1.13338 215.294 1.56218C221.594 27.229 216.775 57.6865 200.878 78.684L200.841 78.7326L200.817 78.7886C200.647 79.1852 200.314 79.3821 199.964 79.4258C199.586 79.473 199.288 79.3342 199.176 79.1848L199.176 79.1847L199.169 79.1751C189.955 67.5121 188.285 51.3712 191.43 37.1555ZM199.443 70.9926L200.404 71.1912C206.913 55.6949 211.962 39.2743 209.103 22.3192L208.851 20.8208L208.164 22.1764C200.606 37.1018 199.61 54.0166 199.443 70.9926Z" stroke="#AC966D"/>
<path d="M171.965 18.8743L171.968 18.8831L171.97 18.8917C181.265 47.3965 178.765 82.0169 162.359 107.166L162.296 107.263L162.282 107.378C162.233 107.769 161.953 108.015 161.524 108.092C161.078 108.171 160.588 108.036 160.303 107.757C148.945 95.5883 145.785 77.2907 147.939 61.0737C150.095 44.8491 157.054 28.6746 169.926 18.2938L169.932 18.2892L169.937 18.2845C170.395 17.8923 170.834 17.8583 171.172 17.9799C171.529 18.1082 171.839 18.4333 171.965 18.8743ZM160.279 98.4879L161.252 98.6125C167.26 80.7816 171.466 61.696 166.764 42.7475L166.396 41.2645L165.816 42.6782C158.601 60.2698 158.946 79.5127 160.279 98.4879Z" stroke="#AC966D"/>
<path d="M123.009 52.2659L123.009 52.2659L123.014 52.2742C138.282 77.7929 143.415 112.417 132.975 140.546L132.956 140.597L132.949 140.65C132.895 141.022 132.582 141.399 132.151 141.598C131.719 141.797 131.345 141.746 131.13 141.531L131.099 141.501L131.064 141.476C117.222 131.769 110.265 114.956 108.773 98.5724C107.449 82.5348 110.76 65.0517 120.804 51.8689C121.195 51.56 121.62 51.4561 121.992 51.5132C122.372 51.5715 122.745 51.8053 123.009 52.2659ZM128.965 132.378L129.94 132.286C131.944 113.619 131.789 94.0294 123.056 76.5905L122.382 75.2442L122.117 76.7263C118.76 95.4948 123.464 114.237 128.965 132.378Z" stroke="#AC966D"/>
<path d="M73.7402 146.388L73.7402 146.387L73.7383 146.382C67.9385 131.326 66.2964 113.664 72.3941 98.3402C72.7199 97.7187 73.6391 97.503 74.4617 98.0288C96.1873 118.414 110.762 150.208 108.443 179.974L108.436 180.064L108.461 180.151C108.562 180.504 108.42 180.895 108.095 181.173C107.773 181.448 107.347 181.545 106.971 181.384L106.951 181.375L106.931 181.369C90.9513 176.105 79.5397 161.939 73.7402 146.388ZM102.52 173.626L103.433 173.269C100.095 154.439 94.5742 135.68 81.305 121.425L80.2832 120.327L80.4418 121.818C82.4557 140.753 92.1867 157.485 102.52 173.626Z" stroke="#AC966D"/>
<path d="M223.353 87.4717L223.357 87.4725C237.928 90.1177 252.459 97.2174 261.532 108.893C261.785 109.352 261.793 109.765 261.671 110.076C261.547 110.394 261.263 110.668 260.814 110.797C234.601 118.085 203.092 114.431 180.732 98.5553L180.662 98.5057L180.58 98.4821C180.203 98.3747 179.991 98.0888 179.936 97.7573C179.878 97.413 179.998 97.0627 180.255 96.8573L180.255 96.8575L180.266 96.8484C192.117 86.8232 208.616 84.6611 223.353 87.4717ZM188.596 96.9654L188.43 97.9314C204.787 104.264 222.072 108.804 239.39 104.943L240.865 104.614L239.485 103.998C223.705 96.9586 206.102 96.466 188.596 96.9654Z" stroke="#AC966D"/>
<path d="M230.814 141.411L230.799 141.415L230.784 141.42C202.739 151.361 168.064 149.365 142.373 133.478L142.284 133.423L142.181 133.408C141.861 133.363 141.563 133.071 141.449 132.617C141.338 132.171 141.447 131.722 141.763 131.458L141.774 131.45L141.784 131.44C153.98 120.086 171.817 116.438 188.388 118.423L188.391 118.424C204.475 120.245 220.841 126.863 231.402 139.385L231.416 139.401L231.431 139.416C231.784 139.769 231.838 140.188 231.708 140.563C231.571 140.956 231.234 141.291 230.814 141.411ZM151.063 131.242L150.957 132.215C168.988 138.05 188.273 141.748 207.086 136.381L208.521 135.972L207.129 135.434C189.341 128.564 170.067 129.411 151.063 131.242Z" stroke="#AC966D"/>
<path d="M206.23 173.35L206.243 173.364L206.256 173.378C206.524 173.645 206.578 173.975 206.454 174.304C206.325 174.647 205.989 175.01 205.438 175.217C177.392 185.157 142.554 183.324 116.867 167.274L116.778 167.218L116.673 167.203C116.323 167.154 116.09 166.915 116.005 166.562C115.919 166.206 115.999 165.753 116.303 165.376C128.495 153.713 146.482 150.234 162.712 152.218L162.717 152.219C178.966 154.04 195.335 160.658 206.23 173.35ZM125.556 165.204L125.453 166.178C143.48 171.845 162.764 175.543 181.409 170.344L182.865 169.937L181.454 169.395C164.001 162.693 144.729 163.373 125.556 165.204Z" stroke="#AC966D"/>
<path d="M42.4883 151.457L42.4902 151.458C67.3843 167.863 86.955 196.693 89.9384 226.812L89.9475 226.904L89.9889 226.986C90.118 227.244 90.0601 227.611 89.7649 227.955C89.474 228.294 89.0525 228.482 88.679 228.432C72.2017 225.632 58.4792 213.607 50.0292 199.38L50.0287 199.38C41.7364 185.47 36.9565 168.295 40.5861 152.316L40.5915 152.292L40.5946 152.267C40.7075 151.366 41.7445 150.962 42.4883 151.457ZM82.9006 221.276L83.7389 220.768C77.2287 202.767 68.521 185.349 53.0714 173.444L51.8697 172.518L52.2853 173.977C57.488 192.242 69.8995 207.13 82.9006 221.276Z" stroke="#AC966D"/>
<path d="M184.754 205.508L184.73 205.518L184.707 205.531C158.654 220.111 123.976 223.913 95.9631 212.659L95.8734 212.623H95.7767C95.4577 212.623 95.1503 212.395 94.9932 211.987C94.8382 211.584 94.88 211.117 95.1605 210.781L95.1694 210.77L95.1776 210.759C105.228 197.269 122.233 190.818 138.639 189.991L138.639 189.991C154.878 189.164 172.237 193.135 184.949 203.344C185.336 203.741 185.477 204.209 185.433 204.601C185.39 204.993 185.164 205.332 184.754 205.508ZM104.148 208.979L104.212 209.958C123.065 212.457 142.691 213.141 160.33 204.755L161.671 204.117L160.218 203.814C141.756 199.959 122.817 203.986 104.148 208.979Z" stroke="#AC966D"/>
<path d="M18.7082 209.075L18.7203 209.081L18.7328 209.086C46.2845 221.018 70.5019 245.874 78.7891 274.834L78.8019 274.879L78.8227 274.921C78.9778 275.23 78.9438 275.672 78.7131 276.067C78.4839 276.46 78.1274 276.693 77.7697 276.693L77.7598 276.693C61.1227 277.022 45.5857 267.477 34.8116 255.066C24.0292 242.478 16.4375 226.787 17.0976 210.145L17.098 210.135V210.125C17.098 209.192 18.0167 208.729 18.7082 209.075ZM70.7979 270.6L71.5364 269.955C62.1888 253.622 50.4613 237.707 33.1611 228.819L31.8007 228.12L32.4856 229.488C41.0422 246.574 55.6282 258.949 70.7979 270.6Z" stroke="#AC966D"/>
<path d="M82.3806 259.903L82.2937 259.884L82.2057 259.897C81.8682 259.945 81.4953 259.757 81.2337 259.365C80.9772 258.981 80.9005 258.5 81.0634 258.106C88.6435 243.149 104.315 234.063 120.395 230.09C136.315 226.448 153.844 227.123 168.203 235.198C168.653 235.454 168.833 235.805 168.846 236.135C168.86 236.475 168.698 236.874 168.298 237.206C145.23 256.096 111.879 266.19 82.3806 259.903ZM89.7308 254.947L89.9657 255.898C108.825 255.065 128.281 252.065 144.236 240.83L145.488 239.948L143.957 239.921C124.997 239.586 107.07 246.79 89.7308 254.947Z" stroke="#AC966D"/>
<path d="M2.90081 273.003L2.94103 273.02L2.98362 273.03C32.024 279.823 60.2237 300.372 73.1514 327.676L73.1886 327.755L73.25 327.816C73.5111 328.077 73.5765 328.448 73.4455 328.811C73.3155 329.172 72.9922 329.508 72.495 329.637C56.025 332.755 39.1772 326.016 26.4185 315.594C13.8211 305.001 3.75129 290.805 1.43086 274.506C1.43828 273.877 1.65159 273.41 1.92014 273.156C2.17294 272.917 2.50281 272.832 2.90081 273.003ZM64.7023 324.909L65.3205 324.147C53.1407 309.487 39.2273 295.742 20.5785 290.038L19.1495 289.601L20.0277 290.81C31.1032 306.057 47.7 315.921 64.7023 324.909Z" stroke="#AC966D"/>
<path d="M76.2482 313.805L76.2509 313.797L76.2533 313.789C81.0299 297.673 94.8851 285.948 110.139 279.325C125.23 273.034 142.761 270.737 158.275 276.339C158.822 276.544 159.043 276.846 159.104 277.136C159.169 277.448 159.078 277.881 158.721 278.388C139.135 300.75 107.781 316.468 77.6293 315.145L77.5371 315.141L77.4495 315.17C77.2123 315.249 76.8658 315.147 76.562 314.81C76.2598 314.475 76.158 314.075 76.2482 313.805ZM84.1543 308.911L84.5468 309.809C103.072 305.81 121.692 299.627 135.465 285.876L136.546 284.797L135.037 285.027C116.412 287.875 99.8294 297.922 84.1543 308.911Z" stroke="#AC966D"/>
<path d="M82.8657 379.656L82.9197 379.733L82.9981 379.785C83.267 379.964 83.3819 380.296 83.2693 380.746C83.1588 381.187 82.8401 381.642 82.3969 381.909C66.5816 387.483 48.7538 383.871 34.5195 375.773C20.432 367.665 8.03903 354.944 3.08338 339.292C2.95415 338.761 3.06426 338.35 3.28371 338.076C3.50496 337.8 3.88699 337.602 4.41952 337.598C34.2895 339.591 65.4674 354.84 82.8657 379.656ZM73.9511 378.346L74.4335 377.492C60.0822 365.162 43.8207 353.93 24.5015 351.414L23.0119 351.22L24.0881 352.268C37.6803 365.504 55.7844 372.356 73.9511 378.346Z" stroke="#AC966D"/>
<path d="M80.933 367.468L80.933 367.468L80.9339 367.462C83.0759 350.845 94.6214 336.814 108.541 327.879C122.305 319.27 139.009 314 155.347 316.797C155.95 316.933 156.25 317.246 156.37 317.578C156.496 317.929 156.455 318.397 156.181 318.88C140.58 344.229 112.37 364.595 82.7052 368.566L82.6376 368.575L82.5748 368.602C82.1754 368.773 81.7351 368.694 81.3985 368.449C81.0593 368.203 80.8809 367.833 80.933 367.468ZM87.9209 361.383L88.4574 362.204C105.979 355.206 123.431 346.008 134.52 330.072L135.375 328.843L133.953 329.311C116.165 335.176 101.593 347.899 87.9209 361.383Z" stroke="#AC966D"/>
<path d="M102.546 432.859L102.531 432.866L102.517 432.874C87.8495 441.431 69.6804 440.79 54.2744 435.001C38.8509 429.206 24.4763 419.126 16.8819 404.303C16.6942 403.855 16.7466 403.5 16.9102 403.248C17.0814 402.985 17.43 402.752 17.9862 402.682C47.8569 399.535 81.2017 409.649 102.416 430.831L102.473 430.888L102.546 430.924C102.818 431.06 103.019 431.423 103.019 431.891C103.019 432.36 102.818 432.723 102.546 432.859ZM93.3657 430.972L93.6914 430.047C77.5035 420.383 59.7312 412.165 40.2468 412.836L38.7427 412.887L39.9788 413.746C55.4187 424.47 74.3588 428.308 93.3657 430.972Z" stroke="#AC966D"/>
<path d="M97.1016 418.821V418.808L97.101 418.796C96.2773 402.02 105.506 386.178 117.606 375.089C129.71 364.163 145.597 356.247 162.107 356.247C162.58 356.247 162.876 356.47 163.043 356.777C163.221 357.103 163.257 357.535 163.137 357.907C152.181 385.738 127.788 410.74 99.1197 419.675L99.0511 419.696L98.9914 419.736C98.6832 419.941 98.2165 419.942 97.7833 419.725C97.3475 419.508 97.1016 419.152 97.1016 418.821ZM103.03 411.538L103.694 412.259C119.72 402.591 135.324 390.38 143.723 372.939L144.382 371.569L143.038 372.28C126.259 381.159 114.2 396.057 103.03 411.538Z" stroke="#AC966D"/>
<path d="M84.0272 487.895L84.0232 487.895C67.9447 484.916 52.0713 476.978 42.1647 463.959C41.8495 463.515 41.8328 463.072 41.9761 462.714C42.1249 462.343 42.4592 462.033 42.8987 461.907C71.6068 453.789 106.282 458.104 130.978 475.812L131.073 475.88L131.187 475.899C131.38 475.931 131.623 476.164 131.692 476.623C131.756 477.061 131.615 477.46 131.326 477.652L131.302 477.668L131.28 477.686C118.428 488.544 100.262 491.038 84.0272 487.895ZM121.948 477.403L122.119 476.438C104.425 469.438 85.4783 464.402 66.332 468.258L64.8386 468.559L66.2198 469.202C83.5019 477.243 102.773 477.902 121.948 477.403Z" stroke="#AC966D"/>
<path d="M173.856 391.018L173.888 391.013L173.919 391.004C174.289 390.899 174.588 391.019 174.808 391.294C175.041 391.584 175.185 392.059 175.122 392.604C168.809 421.596 149.06 450.403 122.221 463.801L122.148 463.837L122.091 463.895C121.835 464.15 121.417 464.229 121.008 464.103C120.599 463.978 120.321 463.688 120.272 463.346L120.27 463.327L120.266 463.309C116.641 446.857 122.898 429.7 133.17 416.797L133.17 416.797L133.174 416.79C143.12 403.881 157.349 393.49 173.856 391.018ZM124.829 455.374L125.606 455.972C139.795 443.638 153.053 429.081 158.428 410.466L158.847 409.012L157.644 409.93C142.708 421.324 133.331 438.064 124.829 455.374Z" stroke="#AC966D"/>
<path d="M75.614 517.469L75.6338 517.461L75.653 517.452C102.537 504.694 137.38 503.046 164.563 516.12L164.632 516.153L164.709 516.164C165.026 516.209 165.329 516.498 165.464 516.988C165.597 517.469 165.518 517.996 165.231 518.342C154.357 531.006 136.857 536.303 120.452 535.972L120.447 535.972C104.202 535.806 87.1712 530.841 75.1205 519.471C74.7262 519.075 74.639 518.667 74.7164 518.345C74.7953 518.017 75.0711 517.672 75.614 517.469ZM156.041 519.322L156.047 518.342C137.521 514.509 118.067 512.653 99.9264 519.696L98.5164 520.244L99.9748 520.645C118.266 525.671 137.204 522.984 156.041 519.322Z" stroke="#AC966D"/>
<path d="M193.448 423.621L193.448 423.621L193.457 423.617C193.94 423.436 194.329 423.555 194.615 423.812C194.918 424.084 195.113 424.524 195.116 424.97C193.951 454.792 179.343 486.258 154.982 504.294L154.897 504.356L154.845 504.447C154.625 504.831 154.256 504.964 153.897 504.909C153.523 504.851 153.199 504.597 153.093 504.225L153.086 504.2L153.076 504.177C146.815 488.547 150.097 470.732 157.886 456.171C165.68 441.767 177.93 429.06 193.448 423.621ZM156.134 495.565L157.001 496.023C169.015 481.196 179.763 464.791 181.779 445.334L181.933 443.847L180.915 444.943C167.993 458.85 161.633 477.261 156.134 495.565Z" stroke="#AC966D"/>
<path d="M122.718 564.517L122.718 564.517L122.724 564.513C147.29 547.609 181.306 539.999 210.308 548.438L210.377 548.458H210.448C210.807 548.458 211.158 548.692 211.363 549.07C211.567 549.445 211.573 549.865 211.366 550.176L211.359 550.187L211.352 550.197C202.785 564.509 186.442 572.774 170.037 575.256L170.037 575.256L170.03 575.257C153.95 577.905 136.424 575.911 122.726 566.685C121.87 566.07 121.99 565.001 122.718 564.517ZM202.459 552.918L202.298 551.951C183.438 551.285 163.816 552.778 147.187 562.672L145.898 563.44L147.39 563.599C166.187 565.61 184.621 559.743 202.459 552.918Z" stroke="#AC966D"/>
<path d="M225.617 452.598V452.631L225.621 452.665C229.604 482.157 220.47 515.782 199.587 537.627L199.535 537.681L199.501 537.748C199.358 538.033 199.024 538.221 198.594 538.221C198.169 538.221 197.76 538.033 197.534 537.701C188.643 523.391 188.952 505.423 194.254 489.704C199.561 474.141 209.497 459.615 223.858 451.704L223.858 451.704L223.864 451.701C224.311 451.446 224.756 451.461 225.073 451.627C225.383 451.788 225.617 452.114 225.617 452.598ZM199.118 528.592L200.05 528.899C209.396 512.402 217.124 494.489 215.948 475.035L215.856 473.508L215.029 474.794C204.794 490.708 201.452 509.616 199.118 528.592Z" stroke="#AC966D"/>
<path d="M177.322 606.256L177.322 606.256L177.314 606.252C176.904 606.077 176.678 605.737 176.635 605.346C176.59 604.948 176.735 604.472 177.136 604.071C198.379 583.193 230.734 570.117 260.73 573.757L260.831 573.769L260.928 573.742C261.278 573.642 261.619 573.78 261.852 574.084C262.086 574.392 262.17 574.826 261.998 575.227L261.994 575.237L261.99 575.247C256.06 590.871 241.208 601.773 225.631 606.902C210.04 612.036 192.342 613.012 177.322 606.256ZM253.714 579.348L253.386 578.424C234.697 581.09 215.742 585.765 200.962 598.343L199.801 599.331L201.321 599.222C220.115 597.882 237.369 589.173 253.714 579.348Z" stroke="#AC966D"/>
<path d="M259.8 476.705L259.8 476.705L259.802 476.712C268.433 505.215 265.103 540.002 248.201 564.655L248.155 564.722L248.133 564.8C248.022 565.186 247.681 565.483 247.276 565.573C246.889 565.658 246.475 565.549 246.186 565.146L246.171 565.125L246.155 565.106C235.117 552.604 232.288 534.633 234.939 518.42C237.592 502.196 244.712 486.192 257.906 475.809C258.554 475.393 259.538 475.787 259.8 476.705ZM246.28 555.972L247.25 556.122C253.758 538.293 258.469 519.204 253.933 500.249L253.584 498.791L252.988 500.167C245.437 517.591 245.447 536.835 246.28 555.972Z" stroke="#AC966D"/>
<path d="M316.087 655.159L316.081 655.171C315.567 656.325 316.149 657.528 317.247 658.129H317.248H317.25H317.252H317.254H317.256H317.258H317.261H317.263H317.265H317.267H317.269H317.271H317.274H317.276H317.278H317.28H317.282H317.284H317.287H317.289H317.291H317.293H317.295H317.298H317.3H317.302H317.304H317.306H317.309H317.311H317.313H317.315H317.317H317.32H317.322H317.324H317.326H317.328H317.331H317.333H317.335H317.337H317.34H317.342H317.344H317.346H317.348H317.351H317.353H317.355H317.357H317.36H317.362H317.364H317.366H317.369H317.371H317.373H317.375H317.378H317.38H317.382H317.384H317.387H317.389H317.391H317.393H317.396H317.398H317.4H317.402H317.405H317.407H317.409H317.411H317.414H317.416H317.418H317.421H317.423H317.425H317.427H317.43H317.432H317.434H317.436H317.439H317.441H317.443H317.445H317.448H317.45H317.452H317.455H317.457H317.459H317.461H317.464H317.466H317.468H317.471H317.473H317.475H317.477H317.48H317.482H317.484H317.486H317.489H317.491H317.493H317.496H317.498H317.5H317.502H317.505H317.507H317.509H317.512H317.514H317.516H317.518H317.521H317.523H317.525H317.527H317.53H317.532H317.534H317.537H317.539H317.541H317.543H317.546H317.548H317.55H317.553H317.555H317.557H317.559H317.562H317.564H317.566H317.568H317.571H317.573H317.575H317.577H317.58H317.582H317.584H317.587H317.589H317.591H317.593H317.596H317.598H317.6H317.602H317.605H317.607H317.609H317.611H317.614H317.616H317.618H317.62H317.623H317.625H317.627H317.629H317.632H317.634H317.636H317.638H317.64H317.643H317.645H317.647H317.649H317.652H317.654H317.656H317.658H317.66H317.663H317.665H317.667H317.669H317.672H317.674H317.676H317.678H317.68H317.683H317.685H317.687H317.689H317.691H317.694H317.696H317.698H317.7H317.702H317.705H317.707H317.709H317.711H317.713H317.715H317.718H317.72H317.722H317.724H317.726H317.728H317.731H317.733H317.735H317.737H317.739H317.741H317.743H317.746H317.748H317.75H317.752H317.754H317.756H317.758H317.76H317.763H317.765H317.767H317.769H317.771H317.773H317.775H317.777H317.779H317.782H317.784H317.786H317.788H317.79H317.792H317.794H317.796H317.798H317.8H317.802H317.804H317.806H317.808H317.811H317.813H317.815H317.817H317.819H317.821H317.823H317.825H317.827H317.829H317.831H317.833H317.835H317.837H317.839H317.841H317.843H317.845H317.847H317.849H317.851H317.853H317.855H317.857H317.859H317.861H317.863H317.865H317.867H317.868H317.87H317.872H317.874H317.876H317.878H317.88H317.882H317.884H317.886H317.888H317.89H317.892H317.893H317.895H317.897H317.899H317.901H317.903H317.905H317.907H317.908H317.91H317.912H317.914H317.916H317.918H317.92H317.921H317.923H317.925H317.927H317.929H317.931H317.932H317.934H317.936H317.938H317.939H317.941H317.943H317.945H317.947H317.948H317.95H317.952H317.954H317.955H317.957H317.959H317.961H317.962H317.964H317.966H317.967H317.969H317.971H317.973H317.974H317.976H317.978H317.979H317.981H317.983H317.984H317.986H317.988H317.989H317.991H317.992H317.994H317.996H317.997H317.999H318.001H318.002H318.004H318.005H318.007H318.008H318.01H318.012H318.013H318.015H318.016H318.018H318.019H318.021H318.022H318.024H318.025H318.027H318.028H318.03H318.031H318.033H318.034H318.036H318.037H318.039H318.04H318.042H318.043H318.045H318.046H318.047H318.049H318.05H318.052H318.053H318.054H318.056H318.057H318.059H318.06H318.061H318.063H318.064H318.065H318.067H318.068H318.069H318.071H318.072H318.073H318.074H318.076H318.077H318.078H318.08H318.081H318.082H318.083H318.085H318.086H318.087H318.088H318.089H318.091H318.092H318.093H318.094H318.095H318.097H318.098H318.099H318.1H318.101H318.102H318.103H318.105H318.106H318.107H318.108H318.109H318.11H318.111H318.112H318.113H318.114H318.115H318.116H318.118H318.119H318.12H318.121H318.122H318.123H318.124H318.125C319.152 658.129 320.012 657.551 320.13 656.727L320.138 656.672L320.158 656.62C341.919 599.628 389.315 584.759 420.485 575.107L420.498 575.103C424.655 573.941 428.312 572.779 431.636 571.617L431.8 572.089L431.636 571.617C537.788 534.572 610.494 438.388 616.816 326.422L616.817 326.421C623.305 215.453 563.077 112.126 463.415 62.7871L463.413 62.7863C462.861 62.5107 462.295 62.4845 461.808 62.6629C461.322 62.8409 460.877 63.2365 460.593 63.8737L460.588 63.8841L460.583 63.8942C460.033 64.9939 460.455 66.3491 461.525 66.8839M316.087 655.159L461.303 67.3316M316.087 655.159L316.091 655.146C338.666 596.145 388.941 580.224 419.111 570.737C419.843 570.524 420.571 570.316 421.292 570.11C424.483 569.199 427.538 568.326 430.146 567.231C534.504 531.047 606.136 436.515 612.481 326.146M316.087 655.159L611.982 326.118M461.525 66.8839C461.525 66.8838 461.525 66.8837 461.525 66.8835L461.303 67.3316M461.525 66.8839C461.526 66.884 461.526 66.8842 461.526 66.8843L461.303 67.3316M461.525 66.8839C559.545 115.401 618.827 217.106 612.481 326.146M461.303 67.3316C559.144 115.76 618.316 217.278 611.982 326.118M612.481 326.146L611.982 326.118M612.481 326.146C612.481 326.147 612.481 326.147 612.481 326.147L611.982 326.118M463.636 62.339C563.478 111.766 623.816 215.281 617.316 326.451L463.636 62.339Z" stroke="#AC966D"/>
<path d="M386.375 55.0703L386.375 55.0703L386.374 55.0684C386.055 54.6225 386.037 54.1779 386.181 53.8187C386.329 53.4495 386.66 53.1404 387.096 53.0134C416.141 45.8906 450.647 50.8724 474.674 68.9066L474.722 68.9427L474.778 68.9664C475.653 69.3409 475.823 70.3899 475.159 70.9475C461.977 81.3092 443.811 83.3074 427.575 79.8337L427.575 79.8337L427.567 79.8321C411.654 76.6874 395.949 68.5844 386.375 55.0703ZM465.807 70.3381L465.998 69.3759C448.644 62.2121 429.865 56.5056 410.55 59.8594L409.061 60.118L410.411 60.7985C427.361 69.3443 446.637 70.3381 465.807 70.3381Z" stroke="#AC966D"/>
<path d="M489.45 78.8482L489.424 78.756L489.365 78.68C473.139 57.6857 468.485 27.2311 474.785 1.56221C475.025 0.740246 475.804 0.530484 476.364 0.855542C488.385 9.24848 495.499 23.2556 498.648 37.154C501.626 51.3659 500.124 67.4921 491.096 79.1505C490.881 79.3501 490.511 79.4701 490.156 79.4258C489.815 79.3832 489.551 79.202 489.45 78.8482ZM481.917 22.1805L481.232 20.7978L480.976 22.3192C478.118 39.2719 482.998 55.6908 489.508 71.1912L490.469 70.9976C490.469 54.0125 489.306 37.1029 481.917 22.1805Z" stroke="#AC966D"/>
<path d="M527.793 107.318L527.772 107.237L527.726 107.166C511.324 82.022 508.656 47.4128 517.941 18.9144C518.147 18.4491 518.506 18.1114 518.872 17.9799C519.214 17.8569 519.593 17.8983 519.954 18.2584L519.971 18.2761L519.991 18.2918C532.7 28.6746 539.825 44.8524 541.98 61.0738L541.981 61.0787C544.301 77.2949 541.139 95.5935 529.611 107.761L529.597 107.776L529.584 107.793C529.389 108.037 529.007 108.169 528.61 108.093C528.235 108.021 527.906 107.772 527.793 107.318ZM524.269 42.6766L523.688 41.2729L523.322 42.7475C518.619 61.696 522.825 80.7816 528.834 98.6125L529.806 98.4879C531.14 79.5138 531.486 60.103 524.269 42.6766Z" stroke="#AC966D"/>
<path d="M557.308 140.72V140.629L557.276 140.544C546.67 112.415 551.637 77.7922 567.07 52.2763L567.088 52.2466L567.102 52.2147C567.441 51.4249 568.482 51.2613 569.1 51.8505C579.157 65.0383 582.636 82.5314 581.146 98.5694L581.146 98.5694L581.145 98.5753C579.819 114.956 572.863 131.77 559.186 141.478L559.17 141.489L559.155 141.501C558.839 141.764 558.388 141.788 557.976 141.598C557.555 141.403 557.308 141.052 557.308 140.72ZM567.969 76.7299L567.714 75.2471L567.03 76.5871C558.128 94.0294 558.142 113.623 560.145 132.286L561.12 132.378C566.622 114.233 571.157 95.3281 567.969 76.7299Z" stroke="#AC966D"/>
<path d="M581.47 180.261L581.48 180.202L581.475 180.143C579.322 150.206 593.733 118.412 615.456 98.0284C615.843 97.7829 616.327 97.6895 616.761 97.7536C617.197 97.8182 617.528 98.0306 617.691 98.3396C623.788 113.663 622.146 131.326 616.346 146.382L616.346 146.382C610.378 161.941 599.131 176.105 583.154 181.368L583.144 181.371L583.135 181.375C582.65 181.556 582.209 181.437 581.895 181.184C581.565 180.916 581.423 180.544 581.47 180.261ZM609.642 121.822L609.818 120.308L608.78 121.424C595.51 135.679 589.989 154.438 586.651 173.268L587.563 173.628C598.069 157.477 607.461 140.585 609.642 121.822Z" stroke="#AC966D"/>
<path d="M509.483 98.4886L509.413 98.5121L509.352 98.5553C486.991 114.432 455.482 118.085 429.269 110.796L429.237 110.788L429.205 110.783C428.784 110.723 428.525 110.497 428.41 110.215C428.293 109.93 428.297 109.52 428.554 109.056C437.46 97.2184 451.987 90.1181 466.56 87.4726L466.564 87.4719C481.469 84.6608 497.967 86.8236 509.818 96.8484L509.818 96.8485L509.829 96.8573C510.064 97.0448 510.165 97.3749 510.089 97.7375C510.013 98.1022 509.779 98.3901 509.483 98.4886ZM450.599 103.998L449.219 104.614L450.694 104.943C468.012 108.804 485.463 104.265 501.491 97.9302L501.322 96.9654C483.981 96.4659 466.379 96.9586 450.599 103.998Z" stroke="#AC966D"/>
<path d="M547.903 133.408L547.799 133.423L547.71 133.478C522.02 149.365 487.344 151.362 459.132 141.42L459.118 141.415L459.103 141.411C458.682 141.291 458.345 140.956 458.209 140.563C458.079 140.188 458.132 139.769 458.486 139.416L458.499 139.402L458.512 139.388C469.24 126.864 485.607 120.245 502.024 118.424L502.031 118.423C518.101 116.438 536.269 120.087 548.297 131.438L548.308 131.448L548.32 131.458C548.637 131.722 548.746 132.171 548.634 132.617C548.52 133.071 548.223 133.363 547.903 133.408ZM482.953 135.601L481.55 136.148L483.001 136.549C501.812 141.747 521.095 138.05 539.122 132.383L539.02 131.408C519.85 129.578 500.575 128.73 482.953 135.601Z" stroke="#AC966D"/>
<path d="M573.398 167.205L573.299 167.222L573.215 167.274C547.532 183.322 512.7 185.157 484.488 175.221C484.033 175.022 483.73 174.671 483.613 174.322C483.5 173.982 483.557 173.646 483.826 173.378L483.841 173.363L483.854 173.347C494.582 160.658 510.949 154.04 527.198 152.219L527.203 152.218C543.597 150.234 561.42 153.712 573.78 165.377C574.066 165.735 574.123 166.175 574.019 166.544C573.911 166.932 573.656 167.162 573.398 167.205ZM508.297 169.395L506.865 169.939L508.342 170.344C527.319 175.542 546.434 171.845 564.462 166.178L564.36 165.204C545.353 163.372 525.915 162.693 508.297 169.395Z" stroke="#AC966D"/>
<path d="M600.098 226.986L600.14 226.902L600.149 226.809C602.966 196.694 622.701 167.864 647.597 151.458L647.599 151.457C648.343 150.961 649.38 151.366 649.492 152.267L649.495 152.289L649.5 152.311C652.966 168.295 648.348 185.474 640.058 199.379L640.056 199.384C631.78 213.596 618.074 225.614 601.446 228.425C601.031 228.413 600.596 228.196 600.314 227.884C600.025 227.562 599.971 227.24 600.098 226.986ZM649.989 152.205C649.822 150.874 648.322 150.375 647.322 151.04L601.485 228.926C618.319 226.097 632.154 213.948 640.488 199.635C648.822 185.656 653.489 168.348 649.989 152.205ZM637.801 173.981L638.235 172.505L637.016 173.444C621.566 185.349 612.858 202.767 606.348 220.767L607.187 221.276C620.19 207.127 632.431 192.242 637.801 173.981Z" stroke="#AC966D"/>
<path d="M594.311 212.623H594.215L594.125 212.659C566.113 223.913 531.435 220.111 505.382 205.531L505.359 205.518L505.334 205.508C504.924 205.332 504.699 204.993 504.655 204.601C504.612 204.209 504.752 203.741 505.139 203.344C517.852 193.135 535.045 189.164 551.282 189.991L551.283 189.991C567.856 190.818 584.86 197.27 594.911 210.759L594.919 210.77L594.928 210.781C595.208 211.117 595.25 211.584 595.095 211.987C594.938 212.395 594.63 212.623 594.311 212.623ZM529.875 203.813L528.398 204.108L529.758 204.755C547.397 213.141 567.023 212.457 585.71 209.958L585.774 208.979C567.266 203.985 548.333 200.127 529.875 203.813Z" stroke="#AC966D"/>
<path d="M611.233 274.97L611.277 274.904L611.299 274.827C619.419 245.87 643.801 221.014 671.186 209.249C671.633 209.058 672.094 209.097 672.431 209.287C672.757 209.471 672.989 209.807 672.989 210.287V210.295L672.989 210.302C673.484 226.782 665.89 242.641 655.275 255.061C644.502 267.472 628.965 277.018 612.16 276.689L612.16 276.689H612.151C611.792 276.689 611.441 276.454 611.236 276.077C611.032 275.701 611.025 275.281 611.233 274.97ZM657.437 229.48L658.102 228.125L656.759 228.814C639.458 237.703 627.897 253.62 618.386 269.947L619.122 270.596C634.289 258.947 649.046 246.57 657.437 229.48Z" stroke="#AC966D"/>
<path d="M607.707 259.897L607.623 259.887L607.54 259.905C578.216 266.19 544.709 256.103 521.641 237.223C521.301 236.877 521.138 236.504 521.138 236.179C521.138 235.874 521.28 235.522 521.741 235.186C536.26 226.96 553.777 226.451 569.692 230.092C585.615 234.067 601.454 243.158 608.864 258.119L608.87 258.133L608.878 258.146C609.339 258.951 608.633 260.013 607.707 259.897ZM546.131 239.923L544.613 239.95L545.85 240.83C561.64 252.067 581.097 255.067 600.122 255.9L600.357 254.949C583.018 246.792 565.091 239.588 546.131 239.923Z" stroke="#AC966D"/>
<path d="M616.702 327.775L616.738 327.729L616.763 327.676C629.691 300.371 657.891 279.823 686.931 273.03L686.974 273.02L687.014 273.003C687.413 272.832 687.79 272.916 688.066 273.165C688.348 273.418 688.554 273.874 688.488 274.48C686.341 290.791 676.266 305.163 663.663 315.594L663.663 315.594C650.911 326.176 634.067 332.754 617.428 329.638C617.033 329.518 616.734 329.198 616.594 328.811C616.45 328.413 616.502 328.023 616.702 327.775ZM670.054 290.81L670.932 289.601L669.503 290.038C650.855 295.741 636.775 309.486 624.759 324.15L625.379 324.909C642.381 315.921 658.978 306.057 670.054 290.81Z" stroke="#AC966D"/>
<path d="M612.451 315.153L612.372 315.131L612.291 315.135C582.14 316.458 550.953 300.74 531.366 278.378C531.009 277.871 530.919 277.438 530.984 277.126C531.044 276.835 531.266 276.534 531.813 276.328C547.326 270.727 564.857 273.023 579.949 279.149C595.034 285.771 608.89 297.495 613.834 313.612C613.941 313.993 613.81 314.442 613.505 314.778C613.201 315.114 612.804 315.254 612.451 315.153ZM555.051 285.017L553.541 284.787L554.622 285.865C568.395 299.617 587.016 305.8 605.541 309.799L605.933 308.901C590.258 297.912 573.675 287.865 555.051 285.017Z" stroke="#AC966D"/>
<path d="M607.095 379.789L607.173 379.736L607.227 379.659C624.625 354.843 655.803 339.594 685.508 337.435C686.04 337.439 686.421 337.637 686.642 337.913C686.862 338.187 686.972 338.599 686.842 339.131C682.054 354.778 669.498 367.499 655.406 375.61C641.159 383.715 623.32 387.489 607.503 381.737C607.097 381.558 606.823 381.171 606.747 380.758C606.67 380.344 606.799 379.985 607.095 379.789ZM666.005 352.271L667.081 351.223L665.591 351.417C646.272 353.933 630.011 365.166 615.659 377.495L616.14 378.35C634.476 372.358 652.413 365.507 666.005 352.271Z" stroke="#AC966D"/>
<path d="M607.509 368.602L607.446 368.575L607.379 368.566C577.714 364.595 549.504 344.229 533.903 318.88C533.629 318.398 533.583 317.922 533.699 317.561C533.809 317.22 534.079 316.925 534.577 316.795C550.915 314.001 567.783 319.272 581.545 327.88C595.461 336.647 607.008 350.677 609.15 367.461L609.151 367.468C609.203 367.832 609.025 368.203 608.685 368.449C608.349 368.694 607.909 368.773 607.509 368.602ZM556.131 329.311L554.709 328.842L555.564 330.072C566.653 346.008 584.105 355.206 601.626 362.204L602.163 361.383C588.491 347.899 573.919 335.176 556.131 329.311Z" stroke="#AC966D"/>
<path d="M587.533 430.923L587.606 430.887L587.663 430.829C608.876 409.649 642.385 399.535 672.088 402.68C672.554 402.749 672.909 402.977 673.085 403.247C673.246 403.494 673.297 403.833 673.049 404.265L673.044 404.275L673.038 404.286C665.445 419.119 651.064 429.369 635.808 434.999C620.394 440.625 602.06 441.427 587.564 432.874L587.549 432.865L587.533 432.857C587.261 432.721 587.06 432.358 587.06 431.89C587.06 431.422 587.261 431.059 587.533 430.923ZM650.098 413.746L651.349 412.887L649.832 412.834C630.348 412.163 612.575 420.382 596.387 430.046L596.714 430.971C615.555 428.307 634.493 424.469 650.098 413.746Z" stroke="#AC966D"/>
<path d="M591.298 419.761L591.224 419.702L591.134 419.674C562.295 410.738 537.899 385.73 526.946 357.894L526.938 357.873L526.928 357.853C526.583 357.165 527.043 356.247 527.981 356.247C544.491 356.247 560.377 364.163 572.481 375.089C584.571 386.168 593.635 402.001 592.987 418.773C592.923 419.159 592.632 419.525 592.248 419.733C591.85 419.948 591.5 419.923 591.298 419.761ZM547.053 372.282L545.696 371.55L546.365 372.939C554.763 390.38 570.367 402.591 586.394 412.259L587.056 411.536C575.886 396.223 563.829 381.327 547.053 372.282Z" stroke="#AC966D"/>
<path d="M559.046 475.9L559.168 475.883L559.268 475.811C583.797 458.105 618.471 453.788 647.179 461.907C647.619 462.033 647.953 462.343 648.102 462.714C648.245 463.072 648.228 463.515 647.913 463.959C638.006 476.978 622.134 484.915 606.059 487.727L606.059 487.727L606.05 487.729C589.984 490.871 571.814 488.379 558.792 477.682L558.773 477.666L558.752 477.652C558.464 477.46 558.325 477.065 558.404 476.641C558.483 476.215 558.741 475.944 559.046 475.9ZM623.691 469.202L625.072 468.559L623.579 468.258C604.433 464.401 585.486 469.438 567.957 476.439L568.129 477.403C587.138 477.902 606.409 477.243 623.691 469.202Z" stroke="#AC966D"/>
<path d="M567.998 464.061L567.941 464.005L567.87 463.969C541.029 450.404 521.279 421.596 514.967 392.604C514.904 392.059 515.048 391.584 515.28 391.294C515.501 391.019 515.799 390.899 516.17 391.004L516.201 391.013L516.233 391.018C532.737 393.49 546.8 403.879 556.915 416.958L556.915 416.958L556.919 416.963C567.187 429.861 573.445 446.846 569.993 463.461C569.878 463.837 569.537 464.141 569.107 464.268C568.67 464.398 568.252 464.315 567.998 464.061ZM532.445 409.764L531.262 408.862L531.66 410.295C536.867 429.08 550.128 443.64 564.488 455.809L565.261 455.209C556.924 438.063 547.381 421.158 532.445 409.764Z" stroke="#AC966D"/>
<path d="M525.375 516.164L525.452 516.153L525.521 516.12C552.703 503.046 587.547 504.694 614.431 517.452L614.44 517.456L614.449 517.46C614.901 517.654 615.151 517.989 615.218 518.309C615.282 518.616 615.192 518.974 614.825 519.279L614.811 519.291L614.797 519.305C602.917 530.837 585.889 535.64 569.636 535.805L569.632 535.806C553.065 536.136 535.731 530.842 524.689 518.179C524.502 517.937 524.437 517.471 524.593 516.987C524.749 516.503 525.055 516.21 525.375 516.164ZM590.275 520.645L591.747 520.244L590.323 519.696C572.017 512.653 552.564 514.509 534.037 518.342L534.042 519.322C552.715 522.984 571.818 525.671 590.275 520.645Z" stroke="#AC966D"/>
<path d="M535.246 504.454L535.194 504.363L535.109 504.3C510.748 486.264 496.14 454.799 494.809 424.975C494.814 424.102 495.539 423.407 496.501 423.635C512.173 429.079 524.415 441.78 532.204 456.177C539.994 470.738 543.276 488.553 537.015 504.183L537.005 504.207L536.998 504.232C536.892 504.604 536.568 504.858 536.194 504.915C535.835 504.97 535.466 504.837 535.246 504.454ZM509.178 444.951L508.157 443.837L508.312 445.341C510.328 464.797 521.076 481.202 532.921 496.027L533.792 495.575C528.457 477.265 521.931 458.857 509.178 444.951Z" stroke="#AC966D"/>
<path d="M479.642 548.461H479.713L479.782 548.441C508.784 540.002 542.801 547.611 567.535 564.351L567.539 564.353C568.267 564.838 568.387 565.908 567.529 566.523C553.832 575.913 536.141 577.908 520.06 575.26L520.06 575.26L520.048 575.258C503.65 572.943 487.306 564.514 478.737 550.2L478.731 550.19L478.724 550.179C478.517 549.868 478.523 549.448 478.727 549.073C478.932 548.695 479.283 548.461 479.642 548.461ZM542.7 563.602L544.192 563.443L542.903 562.675C526.274 552.781 506.651 551.288 487.625 551.954L487.465 552.922C505.469 559.746 523.903 565.613 542.7 563.602Z" stroke="#AC966D"/>
<path d="M490.586 537.748L490.553 537.681L490.501 537.627C469.624 515.79 460.489 482.179 464.296 452.692C464.437 452.152 464.732 451.795 465.056 451.627C465.372 451.462 465.775 451.445 466.223 451.701L466.223 451.701L466.229 451.704C480.59 459.615 490.526 474.14 495.833 489.704C501.134 505.416 501.281 523.389 492.718 537.704C492.5 538.021 492.06 538.221 491.577 538.221C491.082 538.221 490.721 538.017 490.586 537.748ZM475.059 474.794L474.231 473.508L474.139 475.034C472.963 494.489 480.692 512.402 490.038 528.899L490.969 528.591C488.635 509.616 485.293 490.708 475.059 474.794Z" stroke="#AC966D"/>
<path d="M464.301 607.377C448.633 602.218 433.632 591.234 427.464 575.424L464.301 607.377ZM464.301 607.377C479.802 612.536 497.637 613.535 512.805 606.712L464.301 607.377ZM429.161 573.742L429.258 573.769L429.358 573.757C459.354 570.117 491.71 583.193 512.953 604.071C513.354 604.473 513.492 604.942 513.435 605.328C513.38 605.7 513.135 606.054 512.629 606.243L512.614 606.249L512.6 606.256C497.58 613.012 479.881 612.036 464.459 606.903L464.457 606.902C448.889 601.776 434.042 590.882 427.939 575.266C427.832 574.863 427.948 574.415 428.207 574.096C428.466 573.777 428.813 573.642 429.161 573.742ZM488.767 599.222L490.288 599.331L489.127 598.343C474.346 585.765 455.391 581.09 436.702 578.424L436.374 579.348C452.719 589.173 469.974 597.882 488.767 599.222Z" stroke="#AC966D"/>
<path d="M441.962 564.867L441.946 564.751L441.88 564.655C424.977 540.002 421.648 505.215 430.278 476.712L430.278 476.712L430.281 476.705C430.543 475.788 431.525 475.394 432.174 475.808C445.204 486.193 452.49 502.366 455.142 518.421C457.793 534.467 454.964 552.605 443.926 565.106L443.909 565.125L443.894 565.146C443.613 565.54 443.162 565.662 442.739 565.572C442.298 565.478 442.008 565.185 441.962 564.867ZM437.092 500.167L436.496 498.791L436.147 500.249C431.611 519.204 436.323 538.293 442.831 556.122L443.8 555.972C444.634 536.835 444.643 517.591 437.092 500.167Z" stroke="#AC966D"/>
</g>
</svg>
