<svg width="60" height="77" viewBox="0 0 60 77" fill="none" xmlns="http://www.w3.org/2000/svg">
<path d="M13.5638 23.2968C13.2115 29.119 14.6902 34.6006 17.959 39.5899C20.2005 43.0113 23.2438 46.1721 27.2632 49.2533C27.8415 49.6967 29.5969 50.8102 29.6712 50.8574L29.9988 51.0651L30.3264 50.8574C30.4008 50.8102 32.1559 49.6966 32.7339 49.2533C36.7536 46.1716 39.7973 43.0106 42.0387 39.5893C45.308 34.5998 46.7867 29.1182 46.4338 23.297C46.2515 20.2897 46.5208 17.1274 47.2338 13.8981L47.3891 13.1949L46.6702 13.1553C38.848 12.7245 33.1289 8.424 30.4161 5.89901L29.9992 5.51093L29.5824 5.89901C26.8698 8.42442 21.1511 12.7254 13.3275 13.1555L12.6084 13.195L12.7637 13.8982C13.4767 17.1272 13.746 20.2893 13.5638 23.2968ZM29.9993 7.17476C32.8882 9.76103 38.4272 13.6971 45.8924 14.3274C45.2654 17.4275 45.0366 20.4665 45.2124 23.371C45.7885 32.8707 41.4632 41.0194 31.9897 48.2824C31.5964 48.5839 30.5392 49.2685 29.9988 49.615C29.4584 49.2685 28.4009 48.5839 28.0076 48.2824C18.5351 41.0208 14.2101 32.8721 14.7851 23.3707C14.9611 20.4661 14.7323 17.4273 14.1051 14.3274C21.5718 13.6979 27.1107 9.76138 29.9993 7.17476Z" fill="#2A2A61"/>
<path d="M35.0763 59.0126C35.0709 58.9506 35.0619 58.8898 35.0504 58.8299C34.7884 59.739 32.6265 60.4481 29.9983 60.4481C27.3701 60.4481 25.2082 59.739 24.9462 58.8299C24.9346 58.8898 24.9257 58.9506 24.9204 59.0126C24.6142 62.5439 23.3764 65.1526 22.5559 66.5357C22.1484 67.2226 22.2454 68.0944 22.7973 68.6717C24.3201 70.2642 27.2245 73.4527 28.8405 76.2027C28.9996 76.4737 29.413 76.3624 29.413 76.0482V66.7432C28.952 66.5239 28.6325 66.0552 28.6325 65.5106C28.6325 64.7563 29.244 64.1449 29.9983 64.1449C30.7526 64.1449 31.364 64.7563 31.364 65.5106C31.364 66.0551 31.0445 66.5238 30.5836 66.7432V76.0482C30.5836 76.3624 30.9969 76.4737 31.156 76.2027C32.7721 73.4527 35.6765 70.2642 37.1993 68.6717C37.7512 68.0944 37.848 67.2226 37.4407 66.5357C36.6201 65.1526 35.3822 62.5439 35.0763 59.0126Z" fill="#2A2A61"/>
<path d="M9.96054 23.0788C9.60348 28.9802 11.2439 34.9036 14.8364 40.6841C16.1045 42.7247 17.6955 44.4989 19.0847 46.4261C20.3065 48.1212 21.4652 49.8603 22.634 51.592C23.1616 52.3737 23.5897 53.1048 23.9838 53.9501C24.2996 54.6274 25.383 55.8996 25.383 56.6285H25.3828C25.0861 56.8577 24.9193 57.1127 24.9193 57.3815C24.9193 58.3781 27.1933 59.1859 29.9982 59.1859C32.8031 59.1859 35.077 58.3781 35.077 57.3815C35.077 57.1127 34.9102 56.8577 34.6134 56.6285C34.5976 56.2551 35.24 55.4565 35.4099 55.1408C36.7933 52.5699 38.2444 50.0281 39.9314 47.6421C41.6097 45.2683 43.621 43.1607 45.1602 40.6841C48.753 34.9035 50.3934 28.9802 50.0356 23.0788C49.6448 16.6253 51.7926 11.0452 51.8139 10.9905L52.5326 9.16141L50.5835 9.41279C45.5893 10.0566 40.7762 8.88365 36.2767 5.92604C32.8729 3.68895 30.9372 1.21462 30.918 1.18985L29.9997 0L29.0782 1.18992C29.059 1.21469 27.1236 3.68895 23.72 5.92597C19.2206 8.88358 14.4069 10.0567 9.41268 9.41272L7.46777 9.16289L8.18188 10.9896C8.20369 11.045 10.3516 16.6252 9.96054 23.0788ZM25.0697 7.82051C27.377 6.29337 29.0466 4.68948 29.9983 3.67031C30.9498 4.68933 32.6194 6.29323 34.927 7.82051C39.3146 10.7243 44.1715 12.1114 49.0731 11.8776C48.4021 14.1546 47.4247 18.4187 47.7153 23.2193C48.5536 37.0451 37.085 47.4006 33.55 50.2452C32.9129 50.7579 31.1157 51.9168 29.998 52.6231C28.8803 51.917 27.0833 50.7582 26.4458 50.2452C22.9114 47.401 11.444 37.047 12.2808 23.2191C12.5717 18.4186 11.5941 14.1545 10.9231 11.8775C15.8269 12.1114 20.6825 10.7244 25.0697 7.82051Z" fill="#2A2A61"/>
<path d="M54.4739 35.6533C54.6833 35.8787 55.0453 35.9693 55.4085 35.9857C55.7723 36.0026 56.1365 35.9442 56.3621 35.8854C56.754 35.7828 57.1317 35.6003 57.4649 35.3639C57.7948 35.1269 58.0965 34.8396 58.3741 34.5375C58.423 34.4863 58.5993 34.245 58.7708 34.0313C58.9438 33.8182 59.1016 33.6314 59.1677 33.7076C58.8703 33.358 58.4786 33.0959 58.121 33.0552C57.7073 33.0085 57.3074 33.0714 56.9141 33.2077C56.7423 33.2669 56.5716 33.3402 56.4024 33.4247C56.2315 33.5086 56.0571 33.6031 55.886 33.7061C55.5429 33.912 55.2018 34.1507 54.8714 34.4033C54.8278 34.4362 54.7817 34.4732 54.7348 34.5131L54.9311 33.5295C54.9908 33.2515 55.0343 32.9704 55.0784 32.6895C55.277 32.8954 55.6062 32.9541 55.9306 32.9392C56.2556 32.9246 56.5754 32.8354 56.7694 32.7576C57.1455 32.6076 57.4818 32.3609 57.7808 32.0602L57.7768 32.0596L56.6459 31.8847C56.5969 31.9123 56.5474 31.9386 56.4978 31.9642C56.2109 32.1118 55.9101 32.2331 55.5996 32.3354C55.4443 32.3869 55.2865 32.4317 55.1261 32.4719C55.1217 32.473 55.1169 32.4739 55.1125 32.4755L55.1866 32.0079C55.3124 32 55.4384 31.9884 55.5636 31.9727C55.8028 31.9427 56.0388 31.8932 56.2695 31.8265L56.2595 31.8249L53.7837 31.4422L53.7736 31.4407C53.9713 31.5682 54.1789 31.6843 54.3958 31.7857C54.5095 31.8388 54.6249 31.8888 54.7413 31.9357L54.6574 32.3969C54.6537 32.394 54.6496 32.3916 54.6458 32.3891C54.5076 32.2981 54.3732 32.2046 54.2433 32.1075C53.9838 31.9141 53.7374 31.7118 53.5124 31.4962C53.4734 31.4589 53.4347 31.4212 53.3976 31.3826C53.2193 31.2014 53.0471 31.0069 52.8986 30.8031C52.7207 30.5537 52.5744 30.2837 52.4784 29.9911C52.5289 30.1348 52.5996 30.2679 52.6758 30.3959C52.7559 30.5211 52.8467 30.638 52.9439 30.7499C53.0418 30.8613 53.1502 30.9632 53.2618 31.0618C53.3751 31.1583 53.496 31.2494 53.6157 31.3359C53.6674 31.3715 53.7199 31.4069 53.7736 31.4409L56.2693 31.8268C56.3317 31.8093 56.3935 31.7898 56.4547 31.7696C56.6 31.7192 56.7394 31.6618 56.874 31.5954C57.0077 31.526 57.1395 31.451 57.2637 31.3613C57.3875 31.271 57.5067 31.1718 57.6182 31.0592C57.7266 30.9425 57.8314 30.817 57.9197 30.6733C57.7465 30.9679 57.5314 31.2185 57.2928 31.4311C57.094 31.604 56.8821 31.7556 56.6457 31.8849L57.7807 32.0605C57.904 31.94 58.0133 31.8098 58.1138 31.6734C58.2155 31.5373 58.3113 31.3955 58.4018 31.2515C58.4358 31.1963 58.5636 30.9432 58.6831 30.7175C58.8033 30.4921 58.9223 30.2951 58.9834 30.3644C58.8439 30.2044 58.6821 30.0672 58.5188 29.9689C58.3561 29.8707 58.1933 29.8115 58.043 29.8063C57.6945 29.7936 57.3748 29.8894 57.0511 30.0558C56.4871 30.348 55.9257 30.8563 55.3758 31.4147C55.3391 31.4534 55.3005 31.4942 55.2613 31.5354L55.4517 29.9416C55.6266 30.1307 55.9133 30.1636 56.1915 30.1237C56.4694 30.0842 56.7416 29.9717 56.8984 29.8795C57.4527 29.5593 57.8507 28.9324 58.1145 28.2653C58.1378 28.2084 58.2041 27.9487 58.2694 27.7174C58.3328 27.4862 58.3955 27.284 58.4534 27.3483C58.1843 27.0521 57.8875 26.8521 57.6555 26.8617C57.3866 26.8732 57.1445 26.9896 56.9075 27.1779C56.7001 27.3422 56.4981 27.5613 56.2903 27.8137C56.088 28.0663 55.8634 28.351 55.642 28.6491C55.6128 28.6881 55.5817 28.7315 55.5502 28.7777L55.5894 28.2786L55.6084 28.0293L55.6186 27.7791L55.6523 26.9284C55.7963 27.1034 56.0217 27.1141 56.2327 27.0537C56.4442 26.9934 56.64 26.8614 56.7528 26.7585C56.9722 26.5598 57.1446 26.2735 57.2514 25.9421L57.2489 25.9421L56.5485 25.9214C56.524 25.9551 56.4988 25.9874 56.4729 26.0191C56.3981 26.1107 56.3185 26.1966 56.2347 26.2775C56.149 26.3585 56.0572 26.4343 55.9633 26.5062C55.8689 26.5784 55.771 26.6445 55.6695 26.7068C55.6667 26.7083 55.6636 26.71 55.6608 26.7121L55.6777 26.2399C55.7552 26.2148 55.8316 26.1861 55.9068 26.1536C56.0501 26.0915 56.1876 26.0109 56.3153 25.9145H56.3171C56.3509 25.8892 56.3843 25.8631 56.4168 25.8355C56.4941 25.7668 56.5678 25.6924 56.6361 25.6098C56.7033 25.5242 56.7668 25.4346 56.8217 25.3315C56.8768 25.2276 56.9235 25.1157 56.9616 24.9931C56.9974 24.8665 57.0261 24.7322 57.0413 24.5829C57.0141 24.8881 56.9507 25.1581 56.8499 25.395C56.7668 25.5888 56.6658 25.7639 56.5494 25.9215L57.2514 25.9421H57.2524C57.3388 25.6754 57.3982 25.3806 57.4269 25.0811C57.4329 25.0236 57.4384 24.7641 57.442 24.5337C57.4416 24.3034 57.4345 24.1023 57.4856 24.1613C57.2503 23.889 57.0264 23.7105 56.8879 23.7328C56.7275 23.7591 56.6022 23.887 56.4762 24.0869C56.3901 24.2232 56.3084 24.393 56.2144 24.5864C56.1205 24.7798 56.0224 24.997 55.918 25.2281C55.9403 24.9826 55.9554 24.6948 55.9483 24.3686C55.9396 24.0424 55.9131 23.678 55.8695 23.2798C55.8179 22.8174 55.7438 22.3882 55.6738 22.0048C55.6038 21.6214 55.538 21.2837 55.4908 21.0028C55.4087 20.5314 55.377 20.2207 55.3688 20.133C55.3719 20.1686 55.3774 20.24 55.383 20.3452C55.3905 20.4999 55.3964 20.726 55.3881 21.0104C55.3814 21.2945 55.3594 21.6369 55.3279 22.0228C55.2967 22.4088 55.2559 22.8378 55.226 23.2961C55.202 23.6778 55.183 24.0263 55.1745 24.3394C55.1648 24.6524 55.1595 24.93 55.1721 25.1696C54.989 24.7282 54.8279 24.3522 54.6577 24.1019C54.529 23.9113 54.3988 23.7934 54.2381 23.7734C54.0988 23.7563 53.8813 23.9324 53.6497 24.1863C53.6996 24.1311 53.6973 24.317 53.6936 24.53C53.689 24.7429 53.6853 24.9828 53.6891 25.0361C53.7072 25.3136 53.7559 25.5884 53.8326 25.8413H53.8336L54.1781 25.8515L53.8362 25.8415L53.8337 25.8414C53.8815 25.9984 53.9485 26.1472 54.0179 26.2822C54.088 26.4173 54.1717 26.5392 54.2696 26.6427C54.3706 26.7499 54.5509 26.8945 54.7548 26.975C54.9578 27.0552 55.1828 27.0709 55.3455 26.9126L55.2843 27.756L55.2665 28.0038L55.2398 28.2509L55.1859 28.7448C55.1635 28.694 55.141 28.6463 55.1194 28.6033C54.9549 28.2747 54.7962 27.968 54.6137 27.698C54.4352 27.4283 54.2585 27.1976 54.0701 27.0217C53.8548 26.8202 53.6267 26.6913 53.3603 26.6564C53.1306 26.6267 52.8137 26.7808 52.5151 27.0111C52.5795 26.961 52.6207 27.1448 52.6592 27.3561C52.7006 27.579 52.7418 27.8021 52.7525 27.8598C52.8957 28.4817 53.1762 29.108 53.6619 29.5194C53.801 29.6369 54.0299 29.7985 54.2916 29.8992C54.5512 29.9994 54.8374 30.0375 55.0558 29.8956L54.8268 31.4694C54.8029 31.4168 54.7748 31.3666 54.7499 31.3217C54.3644 30.6322 53.9492 30.0293 53.4741 29.6459C53.1999 29.4261 52.8937 29.276 52.5523 29.2177C52.2536 29.1666 51.8756 29.2937 51.521 29.4958C51.5969 29.452 51.6654 29.6388 51.7277 29.8529C51.7894 30.0667 51.8519 30.3088 51.8715 30.3634C51.9752 30.6484 52.1082 30.937 52.2624 31.2071C52.4532 31.543 52.6945 31.8549 53.0021 32.1058C53.1609 32.2354 53.4343 32.4194 53.7355 32.5439C54.0364 32.6678 54.3648 32.7315 54.6193 32.6082C54.5702 32.8851 54.5213 33.1622 54.4565 33.4361L54.2441 34.4049C54.2171 34.3493 54.1898 34.2968 54.1629 34.2492C53.9617 33.8858 53.7425 33.5422 53.5065 33.2367C53.3879 33.0836 53.267 32.9405 53.1363 32.8077C53.0039 32.6747 52.8667 32.553 52.7233 32.4443C52.3957 32.1955 52.0367 32.0163 51.631 31.9238C51.28 31.8443 50.8288 31.9318 50.4428 32.1021C50.5246 32.0645 50.6293 32.2613 50.7114 32.4819C50.7922 32.702 50.866 32.9496 50.8923 33.0067C51.0372 33.3381 51.2081 33.6756 51.4215 33.995C51.6344 34.314 51.8789 34.6121 52.1857 34.867C52.3604 35.0122 52.6576 35.2229 52.9871 35.3768C53.3163 35.5303 53.6769 35.626 53.9671 35.5274L53.769 36.2963L53.5434 37.0573C53.5174 36.9994 53.4906 36.9444 53.4643 36.8945C53.2637 36.513 53.0499 36.1525 52.7886 35.8216C52.531 35.4916 52.2529 35.1987 51.9432 34.9561C51.5893 34.6788 51.1961 34.4677 50.7494 34.3391C50.3635 34.2279 49.8667 34.2751 49.4474 34.411C49.5383 34.3814 49.6482 34.5856 49.7466 34.8163C49.8472 35.0471 49.9413 35.306 49.9656 35.3644C50.1042 35.672 50.2607 35.986 50.4534 36.291C50.692 36.6695 50.9826 37.0344 51.3353 37.3465C51.5162 37.507 51.8238 37.7435 52.1672 37.9259C52.5102 38.1077 52.8883 38.2348 53.2034 38.1614L52.9328 38.9594L52.7735 39.4282L52.5964 39.8906C52.5723 39.8302 52.5474 39.7726 52.5223 39.7201C52.4271 39.5195 52.3311 39.3252 52.2169 39.1332C52.1035 38.9413 51.983 38.7558 51.8548 38.5786C51.5983 38.2243 51.3104 37.9034 50.9877 37.6307C50.6197 37.3186 50.2042 37.0699 49.7302 36.8988C49.3205 36.7515 48.7902 36.7514 48.349 36.8488C48.4439 36.8271 48.5642 37.0435 48.6698 37.2856C48.7754 37.5272 48.8664 37.7944 48.8954 37.8571C48.9825 38.0408 49.0653 38.2228 49.158 38.4056C49.2524 38.589 49.3546 38.7725 49.4667 38.9531C49.691 39.3141 49.9551 39.6643 50.2778 39.9779C50.4644 40.158 50.7728 40.4234 51.1187 40.6375C51.4652 40.8513 51.8491 41.0127 52.1817 40.9682L51.87 41.6972C51.7647 41.9395 51.6657 42.1847 51.5552 42.4248C51.5345 42.3624 51.5134 42.3033 51.4891 42.2478C51.1338 41.4066 50.6538 40.6239 50.0101 40.0249C49.6364 39.6793 49.2108 39.3929 48.7261 39.1813C48.5164 39.0895 48.2769 39.0338 48.0344 39.0089C47.7906 38.9833 47.5488 38.9913 47.321 39.0213C47.4184 39.0076 47.5381 39.2348 47.6406 39.4864C47.7431 39.7375 47.8285 40.0133 47.8563 40.0785C47.9987 40.4171 48.1654 40.7703 48.3461 41.1091C48.5726 41.5317 48.8431 41.9466 49.186 42.3227C49.3638 42.5171 49.6655 42.8095 50.0056 43.0527C50.3458 43.2953 50.7248 43.4875 51.0602 43.4671C50.9443 43.7229 50.8096 43.9691 50.6799 44.2176L50.2197 45.0932C50.2028 45.0287 50.1831 44.9662 50.1635 44.9092C50.0163 44.4741 49.8345 44.0499 49.6116 43.6528C49.3873 43.2545 49.1294 42.888 48.8116 42.5546C48.4525 42.1748 48.0355 41.8504 47.5555 41.5958C47.1404 41.3764 46.5992 41.2883 46.1559 41.318C46.2533 41.3121 46.3697 41.5528 46.4625 41.8138C46.5567 42.0751 46.6311 42.3598 46.6561 42.4279C46.7292 42.6258 46.8063 42.8272 46.8898 43.0297C46.9314 43.1308 46.9753 43.2327 47.0208 43.334C47.0644 43.4342 47.1101 43.5343 47.1579 43.6341C47.3492 44.0329 47.5761 44.4267 47.8618 44.7923C48.0254 45.0015 48.3047 45.319 48.6245 45.59C48.9444 45.8606 49.3057 46.0836 49.6418 46.0913C49.5748 46.205 49.5117 46.3211 49.4413 46.4328L49.2288 46.7668L48.8037 47.4348C48.7917 47.3691 48.7781 47.306 48.7634 47.2479C48.6543 46.805 48.5075 46.3693 48.3159 45.957C48.1274 45.5469 47.8794 45.1503 47.5897 44.7957C47.2572 44.3896 46.8617 44.0334 46.4002 43.7423C46.0006 43.4906 45.472 43.3625 45.0356 43.3596C45.1302 43.3599 45.2356 43.612 45.319 43.8847C45.3995 44.1537 45.4579 44.4446 45.4788 44.5143C45.5881 44.8785 45.7076 45.2542 45.8523 45.6281C46.0277 46.089 46.2323 46.5406 46.5115 46.9669C46.656 47.1868 46.9043 47.5224 47.1951 47.8141C47.4863 48.1057 47.8211 48.3525 48.152 48.3851C47.991 48.6146 47.8344 48.8472 47.6596 49.0662L47.0581 49.8503C47.0532 49.7844 47.0463 49.721 47.0379 49.6625C46.9766 49.2166 46.8757 48.7738 46.7266 48.3503C46.5802 47.9288 46.3747 47.5172 46.1196 47.1406C45.8287 46.7098 45.4699 46.3239 45.0424 45.998C44.6718 45.7168 44.1696 45.5498 43.7521 45.5171C43.8423 45.5231 43.9312 45.7862 43.9918 46.0638C44.0522 46.3395 44.0881 46.6351 44.1032 46.7067C44.1914 47.1228 44.2909 47.5569 44.4141 47.9821C44.5342 48.4036 44.683 48.8226 44.8875 49.2206C45.0051 49.4484 45.2101 49.7974 45.4593 50.1055C45.7092 50.4133 46.0047 50.6796 46.321 50.7355L46.066 51.0382L45.7978 51.3289L45.2599 51.909C45.2628 51.8447 45.2635 51.7825 45.262 51.7249C45.2535 51.2863 45.2046 50.8468 45.1045 50.4214C45.0562 50.2103 44.9899 49.9975 44.9102 49.7897C44.8313 49.5827 44.7392 49.3812 44.6338 49.1871C44.3929 48.743 44.0807 48.3375 43.6973 47.9876C43.3652 47.6847 42.8982 47.4885 42.5053 47.4333C42.5909 47.4453 42.6542 47.7107 42.6932 47.9949C42.7316 48.2765 42.7385 48.5696 42.7474 48.6423C42.7911 49.0168 42.8373 49.4018 42.904 49.7868C42.9841 50.2614 43.0807 50.7215 43.2488 51.1661C43.3357 51.3952 43.4916 51.7469 43.6937 52.0602C43.8967 52.3736 44.1471 52.6487 44.4447 52.7225L44.1445 53.0165C44.0423 53.112 43.9354 53.2027 43.8312 53.296L43.0911 53.9502C43.1037 53.8896 43.1127 53.8295 43.1195 53.7744C43.1728 53.3534 43.1863 52.9276 43.1474 52.5105C43.128 52.3018 43.0957 52.0955 43.0494 51.8931C43.0004 51.6873 42.9362 51.4837 42.8594 51.288C42.6845 50.8398 42.435 50.4238 42.1126 50.059C41.8331 49.7439 41.4157 49.5264 41.0582 49.4578C41.0969 49.465 41.1252 49.536 41.1448 49.6411C41.1654 49.7473 41.1751 49.8846 41.1753 50.0213C41.1783 50.2977 41.1529 50.5894 41.1521 50.6603C41.1508 50.8677 41.1487 51.0772 41.1519 51.2909C41.1554 51.4951 41.1589 51.7041 41.1625 51.9189C41.1749 52.331 41.2072 52.7378 41.2932 53.1298C41.3428 53.3539 41.4386 53.6969 41.582 54.0037C41.7262 54.3108 41.9198 54.582 42.1898 54.6671L42.0346 54.7897L41.8734 54.9042L41.5509 55.1332C41.3352 55.2846 41.1233 55.4424 40.9041 55.5888C40.9269 55.5356 40.9458 55.4818 40.9604 55.4301C41.0771 55.0427 41.1529 54.643 41.1775 54.2486C41.1897 54.0512 41.1888 53.8549 41.1738 53.661C41.1579 53.4659 41.124 53.267 41.078 53.0768C40.9721 52.64 40.7893 52.2276 40.533 51.8642C40.3099 51.5486 39.9484 51.3278 39.6281 51.2589C39.6969 51.2719 39.702 51.545 39.6659 51.8085C39.633 52.0761 39.57 52.3562 39.5611 52.4264C39.5364 52.6037 39.5112 52.7846 39.4854 52.9696C39.4734 53.0592 39.4613 53.15 39.4491 53.2417C39.4364 53.3278 39.4236 53.4149 39.4106 53.5029L40.0282 54.4665C40.0286 54.1963 40.0317 53.9091 40.0422 53.6174C40.0587 53.2653 40.0927 52.9065 40.1573 52.5567C40.1292 52.7328 40.1139 52.909 40.1029 53.0845C40.0963 53.2607 40.0972 53.4347 40.1018 53.6058C40.1071 53.777 40.1212 53.9452 40.1369 54.1103C40.1556 54.2764 40.1763 54.4351 40.1988 54.5899C40.21 54.6549 40.2214 54.7199 40.2327 54.7856L40.9113 55.8447L40.2382 54.7942L40.2328 54.7856C40.2764 55.0263 40.3291 55.2611 40.3946 55.4886C40.4293 55.6076 40.466 55.7248 40.5049 55.84L40.11 56.089C40.11 56.0846 40.1093 56.0801 40.1088 56.0758C40.0938 55.9208 40.0808 55.7647 40.0707 55.6065C40.0502 55.2907 40.0344 54.9673 40.0295 54.638C40.0291 54.5806 40.0287 54.523 40.0282 54.4664L39.4128 53.5062L39.4106 53.5029C39.3508 53.9346 39.3124 54.3635 39.3319 54.7655C39.343 54.9743 39.3779 55.2925 39.4631 55.5773C39.5461 55.8567 39.6877 56.1158 39.9293 56.203C39.6895 56.3478 39.4404 56.4764 39.1961 56.614L38.7635 56.8532C38.6184 56.9311 38.467 56.9969 38.3192 57.0693C38.3509 57.0235 38.3798 56.9787 38.4047 56.9366C38.5999 56.625 38.7404 56.2614 38.8365 55.9096C38.9313 55.5552 38.974 55.1976 38.9563 54.8513C38.9369 54.455 38.8325 54.0626 38.6554 53.7224C38.5781 53.5746 38.4643 53.449 38.3353 53.3534C38.2707 53.3055 38.2022 53.2652 38.1324 53.2336C38.0616 53.2 37.9886 53.1728 37.9171 53.1567C37.9796 53.1712 37.9352 53.4156 37.8597 53.6696C37.7854 53.9239 37.6793 54.1876 37.6581 54.2513C37.6278 54.3446 37.5974 54.4389 37.5664 54.5346C37.5349 54.6274 37.5012 54.715 37.469 54.8052C37.4073 54.9778 37.3441 55.1545 37.2793 55.3363C37.1597 55.6862 37.0593 56.0313 37.0019 56.3382C36.9692 56.5129 36.9356 56.7776 36.9569 57.0147C36.9788 57.2523 37.057 57.4625 37.2711 57.5501L37.1026 57.6182C37.1503 57.7079 37.1987 57.7976 37.2237 57.8969C37.2254 57.9038 37.2254 57.9101 37.2268 57.9168L37.3948 57.8553C37.2972 58.0628 37.3804 58.2712 37.534 58.4579C37.6873 58.6443 37.9126 58.8093 38.0759 58.9085C38.3592 59.078 38.7069 59.2038 39.1054 59.3204C39.3035 59.3764 39.5134 59.4281 39.7313 59.4771C39.84 59.501 39.9522 59.5268 40.0631 59.5473C40.1758 59.5661 40.2872 59.5845 40.3972 59.6029C40.4735 59.6144 40.808 59.6425 41.1244 59.6878C41.4398 59.7328 41.7366 59.7949 41.6979 59.8635C41.7887 59.7087 41.8316 59.5265 41.8296 59.3523C41.8281 59.1786 41.7815 59.0117 41.6876 58.8742C41.4687 58.5543 41.1619 58.3027 40.7997 58.0934C40.4815 57.9077 40.1268 57.7628 39.7607 57.6547C39.3932 57.5445 39.02 57.4829 38.636 57.4189C38.586 57.4112 38.5316 57.4046 38.4748 57.3994C38.6275 57.33 38.7834 57.2674 38.9334 57.1925L39.3803 56.9615C39.6324 56.8281 39.8901 56.704 40.1379 56.5628C40.0962 56.8265 40.2344 57.0695 40.444 57.2866C40.6493 57.4977 40.9203 57.6711 41.1108 57.7698C41.4773 57.9593 41.9219 58.092 42.4124 58.1863C42.5109 58.2054 42.6116 58.223 42.7137 58.2393C42.8139 58.2529 42.9149 58.2647 43.0175 58.2758C43.2227 58.2977 43.4329 58.3153 43.6456 58.3303C43.7274 58.3373 44.0747 58.3324 44.4058 58.3472C44.7396 58.3655 45.039 58.3855 45.0206 58.4727C45.1161 58.0796 45.0345 57.6407 44.7793 57.3499C44.4865 57.0151 44.1099 56.7538 43.6966 56.5566C43.5153 56.4694 43.3292 56.3975 43.134 56.3307C42.9379 56.2626 42.737 56.205 42.5346 56.1568C42.1298 56.0608 41.7171 56.0002 41.3169 55.9719C41.2622 55.9684 41.2045 55.9647 41.146 55.9612C41.373 55.8171 41.5922 55.6614 41.8158 55.5122L42.1495 55.2853L42.3162 55.1719L42.477 55.0503C42.4837 55.3407 42.6815 55.6085 42.9371 55.8288C43.1918 56.0488 43.5062 56.2213 43.7217 56.316C44.0977 56.4821 44.5229 56.5823 44.9835 56.6451C45.0984 56.6607 45.2155 56.6737 45.3343 56.6847C45.4514 56.6941 45.568 56.6992 45.6871 56.7037C45.9255 56.713 46.1661 56.7115 46.4089 56.7065C46.4918 56.705 46.8433 56.6688 47.1808 56.6544C47.3506 56.6485 47.5124 56.6447 47.63 56.6531C47.7488 56.6625 47.8261 56.6864 47.8236 56.7333C47.8456 56.2988 47.6835 55.835 47.3757 55.5473C47.0199 55.2146 46.5935 54.9693 46.1373 54.7923C45.9377 54.7144 45.7323 54.6495 45.5229 54.5949C45.3102 54.5372 45.094 54.4904 44.8775 54.4533C44.444 54.3791 44.0086 54.3436 43.5871 54.3355C43.5315 54.3341 43.4723 54.3351 43.41 54.3369L44.176 53.6831C44.2839 53.5898 44.3944 53.4988 44.5002 53.4032L44.8107 53.1083C44.8679 53.4139 45.1222 53.6855 45.4265 53.9011C45.7301 54.1166 46.0853 54.2759 46.3236 54.359C46.7815 54.5182 47.2962 54.5949 47.8269 54.6075C48.249 54.6139 48.686 54.5822 49.1256 54.5349C49.2087 54.5255 49.5623 54.4587 49.8972 54.4109C50.2235 54.3576 50.5377 54.3281 50.5493 54.4271C50.4983 53.9704 50.2612 53.504 49.9029 53.2322C49.4894 52.9174 49.0178 52.699 48.5246 52.5515C48.3087 52.4871 48.0885 52.4364 47.8665 52.3971C47.6456 52.3588 47.4203 52.3301 47.1898 52.3067C46.7322 52.2626 46.2761 52.2569 45.8369 52.2773C45.7793 52.2797 45.7173 52.2842 45.6535 52.2908L46.209 51.706L46.486 51.4128L46.7489 51.1071C46.8488 51.4172 47.1477 51.6796 47.4891 51.8798C47.8299 52.0803 48.2146 52.2182 48.4685 52.2859C48.911 52.4041 49.383 52.4437 49.8715 52.4323C50.3534 52.4167 50.8355 52.3394 51.3222 52.2457C51.4051 52.2296 51.7466 52.1301 52.078 52.0554C52.4043 51.9782 52.7078 51.9191 52.7343 52.0209C52.6202 51.5567 52.3219 51.0997 51.9289 50.8507C51.4747 50.5627 50.9745 50.3777 50.4589 50.2664C50.0084 50.169 49.5478 50.129 49.0748 50.1158C48.6058 50.1056 48.1411 50.1335 47.6947 50.1854C47.6359 50.1919 47.5731 50.201 47.5086 50.2122L48.1275 49.4184C48.3075 49.1965 48.468 48.9606 48.6333 48.7279C48.7722 49.0335 49.1097 49.2763 49.4819 49.4524C49.8537 49.6291 50.2615 49.7379 50.527 49.7857C51.0368 49.877 51.5782 49.8723 52.1098 49.7951L52.1054 49.792L50.8229 48.9381C50.7512 48.9333 50.6798 48.9269 50.6087 48.92C50.191 48.8757 49.7802 48.8024 49.3764 48.7105C49.1744 48.6647 48.9746 48.6123 48.7758 48.555C48.7703 48.5535 48.7644 48.5517 48.7589 48.5503L49.0333 48.1621C49.1837 48.2306 49.3365 48.2958 49.4913 48.3576C49.7865 48.4751 50.0915 48.5751 50.3961 48.6538C50.4786 48.6758 50.5616 48.696 50.6447 48.715C50.8417 48.7572 51.0413 48.7934 51.2435 48.8198C51.4455 48.8432 51.6506 48.8612 51.8576 48.8627C52.0643 48.8633 52.2733 48.8546 52.4835 48.8302C52.6929 48.8007 52.9041 48.7611 53.1122 48.6987C52.6984 48.8335 52.2752 48.9098 51.8555 48.9417C51.5089 48.965 51.1636 48.9625 50.8229 48.9381L52.1099 49.7951C52.534 49.7313 52.9611 49.6256 53.3819 49.5022C53.4623 49.4789 53.7896 49.3487 54.1088 49.2441C54.4188 49.1359 54.7152 49.0511 54.7535 49.1508C54.5815 48.6917 54.2306 48.2567 53.8107 48.04C53.3259 47.789 52.8071 47.6455 52.2795 47.5762C51.8167 47.5153 51.3537 47.515 50.8761 47.5407C50.4029 47.5689 49.9362 47.6346 49.488 47.7222C49.4291 47.7333 49.3662 47.7474 49.3019 47.7637L49.7367 47.0852L49.9542 46.746C50.0261 46.6326 50.0902 46.5145 50.1587 46.399C50.3274 46.6955 50.6913 46.9139 51.0822 47.0623C51.4728 47.2111 51.891 47.2887 52.1603 47.3158C52.6299 47.3637 53.1068 47.3261 53.5831 47.2333C54.0671 47.1442 54.5132 46.983 54.9633 46.8073C55.0398 46.7772 55.3461 46.6195 55.6461 46.4884C55.9472 46.3582 56.2374 46.2534 56.2819 46.3494C56.064 45.9022 55.6745 45.4935 55.2426 45.3097C54.7428 45.0971 54.2207 44.9948 53.6947 44.9682C53.2364 44.9452 52.7565 44.9713 52.2932 45.0382C51.8278 45.104 51.3696 45.2063 50.9301 45.3288C50.8721 45.3444 50.811 45.3636 50.7473 45.3846L51.2143 44.4941C51.3458 44.2411 51.4828 43.9909 51.5997 43.7308C51.7925 44.0121 52.1735 44.2 52.574 44.3151C52.9744 44.4308 53.3945 44.4728 53.6621 44.4769C54.179 44.4853 54.6917 44.388 55.1941 44.2267L55.1892 44.2245L53.7857 43.5856C53.7139 43.592 53.6421 43.5969 53.5705 43.601C53.1574 43.6252 52.7434 43.6197 52.33 43.5936C52.1232 43.5809 51.9167 43.5611 51.7099 43.5362C51.7043 43.5356 51.698 43.5348 51.6922 43.5342L51.8945 43.1045C52.0543 43.1482 52.2158 43.1883 52.3783 43.2245C52.6886 43.2932 53.0023 43.3422 53.3187 43.3731L53.3061 43.3673L50.2342 41.9689L50.2216 41.9632C50.4537 42.1722 50.6955 42.373 50.9488 42.5623C51.0817 42.6614 51.2165 42.758 51.3525 42.8519L51.1519 43.2741L51.1393 43.2616C50.9894 43.1162 50.8428 42.9697 50.7004 42.8206C50.4158 42.5235 50.1416 42.2212 49.8859 41.9121C49.8421 41.858 49.7982 41.8039 49.755 41.7507C49.5501 41.4944 49.3544 41.2288 49.1747 40.9584C48.9618 40.6304 48.7807 40.2931 48.6498 39.9504C48.7197 40.1206 48.8095 40.2864 48.9056 40.4496C49.0066 40.6116 49.1187 40.7689 49.2367 40.9231C49.3555 41.0771 49.486 41.2255 49.6187 41.3713C49.7552 41.5165 49.8935 41.6558 50.0359 41.7926C50.0974 41.849 50.1593 41.9058 50.2216 41.9629L53.3188 43.3729C53.404 43.3817 53.4895 43.3886 53.5748 43.3944C53.776 43.4052 53.9811 43.4106 54.1794 43.4033C54.3782 43.3933 54.5785 43.3773 54.7764 43.3447C54.974 43.3112 55.1711 43.2679 55.3658 43.2089C55.5582 43.1448 55.7499 43.0705 55.9329 42.974C55.5708 43.1766 55.1847 43.3227 54.7901 43.4237C54.6266 43.4638 54.462 43.4975 54.2961 43.5249C54.1278 43.5515 53.9561 43.5711 53.7858 43.5854L55.1943 44.2265C55.6067 44.1004 55.9793 43.9199 56.3523 43.7282C56.4233 43.6915 56.7038 43.5073 56.9794 43.3503C57.2549 43.1937 57.5257 43.0645 57.5785 43.1559C57.4564 42.9444 57.2835 42.7424 57.0952 42.578C56.9056 42.4132 56.6939 42.2842 56.477 42.2114C55.9758 42.0431 55.4638 41.9869 54.952 42.0051C54.0422 42.0335 53.1246 42.2827 52.2781 42.6002C52.223 42.6212 52.1611 42.6441 52.099 42.6699C52.2104 42.4257 52.3092 42.1762 52.4149 41.9296L52.727 41.1878C52.9293 41.4505 53.3152 41.6071 53.7167 41.6909C54.1195 41.7756 54.5349 41.7852 54.7922 41.7671C55.2447 41.737 55.6849 41.6207 56.11 41.4502C56.5327 41.2794 56.9524 41.0571 57.3219 40.8067C57.386 40.7642 57.635 40.5578 57.8807 40.3789C58.1264 40.2004 58.3691 40.0499 58.4276 40.1371C58.1533 39.7341 57.735 39.3977 57.3129 39.2877C56.8243 39.1605 56.331 39.1449 55.8396 39.2034C55.409 39.2539 54.9787 39.3605 54.5569 39.502C54.1359 39.644 53.7237 39.8209 53.3092 40.0079C53.2551 40.0324 53.1978 40.0606 53.1395 40.0912L53.3147 39.6207L53.4716 39.1436L53.7375 38.3319C53.9471 38.5752 54.3269 38.6975 54.7144 38.7457C55.1023 38.7943 55.4977 38.768 55.7451 38.7291C56.2205 38.6532 56.6627 38.4719 57.0833 38.2313C57.4211 38.0375 57.7369 37.8028 58.0372 37.5551C58.0969 37.5084 58.3056 37.2811 58.5154 37.0822C58.7212 36.8827 58.9248 36.7113 58.9881 36.7926C58.6964 36.4167 58.2855 36.1198 57.8898 36.0481C57.432 35.9644 56.9793 35.9919 56.531 36.0923C56.1389 36.1802 55.7517 36.3246 55.3677 36.5018C54.9896 36.6806 54.5957 36.8875 54.223 37.1112C54.1736 37.1403 54.1213 37.1733 54.068 37.2089L54.2854 36.435L54.4739 35.6533ZM55.8271 29.1903C56.0788 29.1299 56.3228 29.0384 56.5549 28.9213C56.6704 28.8603 56.7831 28.7932 56.8913 28.7174C56.9986 28.6384 57.1025 28.555 57.198 28.4571C57.2924 28.3585 57.3847 28.2512 57.4628 28.132C57.5374 28.0086 57.6055 27.8767 57.66 27.7283C57.6081 27.8802 57.5461 28.0222 57.4756 28.1548C57.4021 28.287 57.3169 28.4097 57.2265 28.5234C57.0434 28.7488 56.8325 28.9441 56.6061 29.1114C56.3793 29.2804 56.136 29.4232 55.8799 29.5487C55.7518 29.6123 55.6204 29.6692 55.4864 29.7214L55.4749 29.7255L55.5127 29.2544C55.6179 29.2365 55.723 29.2159 55.8271 29.1903ZM55.4612 25.4576L55.5184 24.4635C55.529 24.1317 55.5345 23.7997 55.5352 23.4679L55.5326 22.9701L55.5215 22.4719L55.5458 22.9697L55.5679 23.4671L55.6035 24.4634L55.6217 25.4608L55.6319 25.8797L55.6324 25.8942L55.822 25.8999L55.4335 25.8884L55.4376 25.8277L55.4612 25.4576ZM54.9832 25.8752L54.7757 25.8691L54.771 25.8689L54.9832 25.8752ZM55.0828 26.469C54.9968 26.3909 54.9155 26.3102 54.8368 26.2255C54.756 26.141 54.6796 26.0527 54.6083 25.9601C54.5835 25.9281 54.5595 25.8955 54.5365 25.8619L54.5352 25.8619C54.4247 25.7043 54.3303 25.533 54.2543 25.3467C54.162 25.1188 54.1084 24.8639 54.0923 24.5769C54.1023 24.7172 54.1261 24.8438 54.1571 24.9639C54.1908 25.0802 54.2334 25.1872 54.2847 25.2875C54.3358 25.3871 54.3959 25.4747 54.4599 25.5595C54.5252 25.6415 54.5962 25.7164 54.6708 25.7868C54.7023 25.8152 54.7347 25.8423 54.7675 25.8688L54.7693 25.8689C54.8934 25.9695 55.0277 26.057 55.1685 26.128C55.2424 26.165 55.3178 26.1989 55.3941 26.2295L55.3607 26.6981C55.3581 26.6956 55.3553 26.6937 55.3527 26.692C55.2589 26.621 55.1688 26.5473 55.0828 26.469ZM54.72 29.4251C54.4923 29.2517 54.279 29.069 54.0868 28.87C53.8944 28.6726 53.7223 28.4571 53.582 28.2233C53.5124 28.1055 53.453 27.982 53.4003 27.8517C53.3446 27.7214 53.2984 27.5845 53.263 27.4408C53.3012 27.5816 53.3547 27.7102 53.4153 27.833C53.4781 27.9523 53.5451 28.0627 53.622 28.1673C53.6985 28.2713 53.7858 28.3645 53.8773 28.4552C53.9702 28.5431 54.0691 28.6249 54.1714 28.7023C54.3784 28.8528 54.6015 28.9853 54.8376 29.0922C54.9351 29.1371 55.0344 29.1777 55.1345 29.2163L55.0843 29.6822L55.074 29.6758C54.9521 29.5954 54.8339 29.5125 54.72 29.4251ZM54.6355 34.9819C54.7781 34.9857 54.921 34.987 55.0641 34.9831C55.4097 34.9752 55.7463 34.9335 56.0793 34.8648C56.2449 34.8278 56.4091 34.7841 56.5704 34.731C56.7306 34.6745 56.8895 34.6132 57.0423 34.5358C57.1947 34.4577 57.3437 34.3699 57.4858 34.2689C57.6264 34.1634 57.7586 34.0474 57.88 33.9127C57.645 34.1908 57.3664 34.4198 57.0687 34.6078C56.7694 34.7937 56.4509 34.945 56.1199 35.0651C55.7905 35.1872 55.4344 35.2769 55.0805 35.3495C54.9021 35.3863 54.7222 35.4158 54.5402 35.4405L54.5249 35.442L54.6355 34.9819ZM37.47 57.4693L37.4713 57.4587C37.4911 57.3256 37.511 57.1939 37.5307 57.0633C37.5739 56.7933 37.6221 56.5137 37.6812 56.2242C37.7391 55.9362 37.8095 55.6377 37.8915 55.331C37.9715 55.0156 38.0662 54.6845 38.1862 54.3587C38.1299 54.5226 38.0852 54.6862 38.0439 54.8469C38.0062 55.0068 37.9764 55.1672 37.9497 55.3224C37.9221 55.474 37.9023 55.619 37.884 55.7629C37.8682 55.906 37.8571 56.046 37.8489 56.1831C37.8366 56.4562 37.8369 56.7181 37.8591 56.9679C37.8677 57.0713 37.8798 57.1725 37.8931 57.2722C37.7518 57.3373 37.614 57.4106 37.47 57.4693ZM38.8527 58.3268C38.9709 58.4059 39.0957 58.4836 39.2295 58.558C39.3657 58.6301 39.5084 58.7038 39.6633 58.7671C39.8165 58.826 39.9798 58.8832 40.1527 58.9306C40.329 58.9748 40.5144 59.0155 40.7136 59.0428C40.3101 58.994 39.9453 58.9176 39.6107 58.8116C39.2735 58.6976 38.9688 58.5708 38.6938 58.4356C38.417 58.3001 38.1682 58.1572 37.9385 58.012C37.8226 57.9394 37.7147 57.8672 37.608 57.7862L37.5995 57.7793C37.7477 57.7241 37.8899 57.6544 38.0354 57.5926C38.1004 57.6685 38.1683 57.7441 38.2411 57.818C38.416 57.9978 38.6208 58.166 38.8527 58.3268ZM41.7645 57.0127C41.9065 57.0961 42.054 57.1758 42.2062 57.2455C42.3607 57.314 42.5215 57.3803 42.6934 57.4359C42.8655 57.4908 43.0454 57.5402 43.2357 57.5796C43.4277 57.6144 43.6266 57.6418 43.8364 57.6525C43.4145 57.6406 43.0172 57.5812 42.6511 57.495C42.3509 57.4224 42.0678 57.3337 41.7949 57.2225C41.7391 57.1994 41.6828 57.1762 41.6265 57.1529C41.3073 57.0163 41.0123 56.8646 40.7357 56.7055C40.597 56.626 40.4645 56.5433 40.3356 56.4579C40.3322 56.4556 40.3286 56.4528 40.3247 56.4507L40.7332 56.2072C40.8195 56.2934 40.9096 56.3779 41.0035 56.4605C41.1827 56.6183 41.3786 56.7653 41.5903 56.903C41.647 56.9405 41.7055 56.977 41.7645 57.0127ZM42.3576 54.5327L42.3534 54.5187C42.3083 54.3507 42.265 54.1817 42.2257 54.0106C42.1458 53.6699 42.0711 53.324 42.0087 52.9725C41.9762 52.7961 41.9501 52.6224 41.9219 52.4399C41.8937 52.2572 41.8691 52.0731 41.8481 51.888C41.8101 51.5201 41.7931 51.1476 41.8084 50.7814C41.8046 50.9648 41.8158 51.1492 41.8308 51.3322C41.8504 51.5146 41.8777 51.6959 41.9095 51.8748C41.9418 52.0537 41.9855 52.2307 42.0286 52.4047C42.0745 52.5774 42.1275 52.751 42.1777 52.9143C42.2847 53.243 42.4039 53.5624 42.5432 53.8684C42.6005 53.9954 42.6609 54.1197 42.7221 54.2425L42.3576 54.5327ZM44.2434 55.4338C44.4055 55.5147 44.5673 55.585 44.7384 55.6512C44.9103 55.7135 45.0878 55.7742 45.2732 55.82C45.4589 55.8649 45.6515 55.9026 45.8513 55.9284C46.0526 55.9493 46.2606 55.9626 46.4755 55.9558C46.0437 55.9783 45.6306 55.9504 45.242 55.8873C45.047 55.8537 44.8574 55.8129 44.6735 55.7659C44.4894 55.7187 44.3045 55.6584 44.1291 55.5966C43.7751 55.4724 43.443 55.328 43.1261 55.1715C42.9669 55.0938 42.8132 55.011 42.663 54.9248L42.6505 54.9173L43.0279 54.6287C43.1343 54.7166 43.2429 54.8032 43.3559 54.8868C43.6279 55.0894 43.9243 55.2705 44.2434 55.4338ZM44.5976 52.5723C44.596 52.5673 44.5935 52.5621 44.5914 52.5575C44.5161 52.3841 44.443 52.2102 44.3735 52.0345C44.2342 51.6838 44.1013 51.3285 43.9813 50.9689C43.9597 50.9048 43.9383 50.841 43.9171 50.7778C43.8161 50.4739 43.7272 50.1665 43.6496 49.8577C43.5591 49.4837 43.492 49.1061 43.4621 48.7345C43.4812 48.9205 43.5167 49.107 43.5568 49.292C43.6014 49.477 43.6551 49.6599 43.7132 49.841C43.7721 50.0219 43.8414 50.1998 43.9119 50.3754C43.9852 50.5503 44.0637 50.7228 44.1447 50.8926C44.1803 50.9635 44.2164 51.0348 44.2526 51.1063C44.3893 51.3709 44.5292 51.6225 44.683 51.8676C44.7637 51.9958 44.8465 52.1221 44.9311 52.2462L44.5976 52.5723ZM46.6993 53.3802C46.8755 53.4486 47.0562 53.5119 47.2421 53.5669C47.4284 53.619 47.6198 53.6668 47.8175 53.6999C48.0153 53.732 48.218 53.7561 48.4267 53.7661C48.6357 53.7712 48.8498 53.7676 49.067 53.7421C48.6322 53.8025 48.2056 53.8077 47.7963 53.7734C47.4589 53.7421 47.1314 53.6885 46.8146 53.6152C46.7487 53.5991 46.6824 53.5829 46.6161 53.5666C46.2308 53.463 45.8622 53.3356 45.5065 53.193C45.3285 53.1218 45.1546 53.0451 44.9833 52.9644C44.9787 52.9622 44.9737 52.9595 44.9686 52.9575L45.3135 52.6297C45.4381 52.7152 45.5658 52.798 45.6966 52.878C45.946 53.0299 46.2099 53.1682 46.4789 53.2864C46.5515 53.3192 46.6253 53.3502 46.6993 53.3802ZM46.4592 50.5712L46.4504 50.5568C46.3502 50.3843 46.2527 50.2111 46.1592 50.0356C45.9714 49.6864 45.7906 49.3333 45.6249 48.9751C45.4569 48.6172 45.2979 48.2456 45.1629 47.8752C45.03 47.5041 44.9231 47.1282 44.858 46.7571C44.8949 46.9425 44.9497 47.1277 45.0094 47.3115C45.0741 47.4945 45.1479 47.6759 45.2272 47.8547C45.3071 48.0336 45.398 48.2085 45.49 48.382C45.585 48.5543 45.6853 48.724 45.7885 48.8911C46.0009 49.2246 46.2166 49.54 46.4572 49.8444C46.5557 49.9702 46.6571 50.0933 46.7594 50.2148L46.4592 50.5712ZM47.6256 50.8073C47.9721 50.9815 48.3435 51.1334 48.7161 51.2509C48.9043 51.3081 49.0961 51.3593 49.2918 51.4016C49.488 51.4403 49.6875 51.4749 49.8915 51.4933C50.0953 51.5109 50.3035 51.5191 50.5141 51.5131C50.725 51.5015 50.9391 51.4806 51.1533 51.4367C50.7259 51.534 50.2978 51.5736 49.8804 51.5701C49.4614 51.5629 49.0579 51.5241 48.654 51.4462C48.2486 51.3696 47.8563 51.2657 47.4735 51.1446C47.2815 51.0849 47.0933 51.0185 46.9067 50.9474L46.8911 50.9411L47.2008 50.5809C47.34 50.659 47.4811 50.7353 47.6256 50.8073ZM47.5777 46.7763L47.5663 46.7688C47.7675 47.0154 47.973 47.251 48.192 47.4778C48.3068 47.5963 48.4235 47.7129 48.542 47.8268L48.2745 48.2095L48.2642 48.1952C48.1421 48.0289 48.0228 47.8618 47.9075 47.6928C47.6768 47.3555 47.4545 47.014 47.2481 46.6675C47.2119 46.6063 47.1757 46.5451 47.14 46.4848C46.9689 46.1938 46.8115 45.8982 46.6691 45.6008C46.5002 45.24 46.3597 44.874 46.2648 44.5096C46.3166 44.6912 46.3875 44.8716 46.4639 45.0501C46.5451 45.2279 46.6368 45.4027 46.7338 45.5753C46.8315 45.7477 46.9406 45.916 47.0515 46.0821C47.165 46.2472 47.2843 46.4094 47.4063 46.5689C47.4594 46.635 47.5127 46.7017 47.5663 46.7687L48.9812 47.7109L47.5777 46.7763ZM49.7495 45.9052L49.7375 45.8922C49.5995 45.7346 49.4645 45.5761 49.3338 45.4149C49.072 45.0944 48.8193 44.7696 48.5847 44.4385C48.3509 44.11 48.1273 43.7679 47.9292 43.4215C47.734 43.0749 47.5694 42.7209 47.4531 42.3654C47.5157 42.5424 47.598 42.7165 47.6862 42.8885C47.7793 43.0591 47.8831 43.227 47.9925 43.3918C48.1029 43.5563 48.2251 43.7157 48.3488 43.8734C48.4744 44.0293 48.6097 44.184 48.7417 44.332C49.0126 44.6272 49.2977 44.9116 49.6015 45.1778C49.7267 45.2884 49.8544 45.3959 49.9833 45.5015L49.7495 45.9052ZM50.9828 45.9596C51.3708 46.0806 51.7686 46.1703 52.1744 46.2327C52.3787 46.262 52.579 46.2819 52.7824 46.2926C52.9851 46.2996 53.1897 46.3018 53.3943 46.2868C53.5986 46.2709 53.8039 46.2447 54.008 46.2039C54.2109 46.1573 54.414 46.1006 54.6114 46.0209C54.2201 46.1898 53.8117 46.3009 53.4008 46.3658C53.1947 46.397 52.9884 46.4187 52.7816 46.4312C52.5742 46.4433 52.3604 46.4435 52.1514 46.4373C51.7314 46.4259 51.3151 46.3843 50.9025 46.3233C50.6957 46.2935 50.4904 46.2563 50.2854 46.214L50.2683 46.21L50.5064 45.7995C50.6635 45.8561 50.822 45.9102 50.9828 45.9596ZM52.2609 40.7684L52.2475 40.7575C52.0913 40.6246 51.9387 40.4903 51.7904 40.3527C51.4939 40.0794 51.2081 39.8007 50.9423 39.5128C50.6759 39.2266 50.4278 38.9289 50.2118 38.6245C49.9984 38.3192 49.803 37.9957 49.6665 37.666C49.74 37.8297 49.8333 37.9875 49.9332 38.1421C50.0369 38.2943 50.1552 38.4435 50.2728 38.5859C50.3917 38.7281 50.5223 38.8634 50.6566 38.9975C50.7933 39.1297 50.936 39.2577 51.0819 39.3825C51.3777 39.629 51.6886 39.8626 52.0163 40.0754C52.1517 40.164 52.2892 40.2489 52.4277 40.3322L52.2609 40.7684ZM53.4495 40.6204C53.8367 40.6761 54.227 40.6993 54.6177 40.6941C54.8129 40.6888 55.0085 40.677 55.2032 40.6552C55.3977 40.6301 55.5908 40.5994 55.7816 40.5519C55.9721 40.5038 56.1537 40.443 56.3346 40.3693C56.5125 40.2898 56.6882 40.2002 56.8535 40.089C56.5258 40.3197 56.1772 40.4988 55.7991 40.6283C55.4206 40.7555 55.0263 40.8437 54.6305 40.8999C54.234 40.958 53.8334 40.9853 53.4301 40.9927C53.2283 40.9972 53.026 40.994 52.8229 40.9856L52.8056 40.9845L52.9714 40.5405C53.13 40.5705 53.2892 40.598 53.4495 40.6204ZM52.2812 36.8256L52.269 36.8221C52.5038 36.9895 52.7484 37.1475 53.0031 37.292C53.1366 37.3675 53.2718 37.4405 53.4083 37.5106C53.3629 37.6596 53.3218 37.8103 53.2725 37.9583C53.2684 37.9546 53.2637 37.9513 53.2594 37.9482C53.1063 37.8309 52.9511 37.7102 52.8028 37.5872C52.5053 37.3417 52.2194 37.0893 51.9536 36.8273C51.9081 36.7813 51.8624 36.7352 51.8174 36.6898C51.6026 36.4706 51.4066 36.2433 51.2285 36.0092C51.1225 35.8666 51.0252 35.7204 50.938 35.5708C50.8463 35.4195 50.7651 35.2648 50.6962 35.1065C50.7691 35.2628 50.861 35.4115 50.9597 35.5566C51.0599 35.6987 51.1688 35.8334 51.2854 35.9649C51.4026 36.0959 51.5315 36.2194 51.6632 36.3402C51.7972 36.4592 51.9376 36.5738 52.0812 36.6849C52.1428 36.7311 52.2055 36.7772 52.269 36.822L53.7683 37.2607L52.2812 36.8256ZM55.5013 37.6786C55.6838 37.6562 55.8659 37.6271 56.0458 37.5882C56.2248 37.5465 56.4035 37.4987 56.5773 37.4349C56.7502 37.3701 56.9224 37.2965 57.086 37.2072C57.2445 37.1126 57.3995 37.0084 57.5424 36.8836C57.4021 37.0127 57.253 37.1288 57.0976 37.2334C56.9376 37.3367 56.7705 37.4285 56.5996 37.5096C56.3159 37.6406 56.0221 37.7476 55.7198 37.8318C55.6562 37.8499 55.5922 37.8665 55.5283 37.8824C55.1596 37.9741 54.7826 38.0368 54.4007 38.0794C54.2092 38.1008 54.0189 38.116 53.8214 38.1244C53.816 38.1247 53.8101 38.125 53.8048 38.1253C53.8529 37.9748 53.8925 37.8216 53.9368 37.6699C54.0888 37.6865 54.2415 37.6993 54.3944 37.7081C54.6862 37.7247 54.9777 37.7212 55.2676 37.6995C55.3457 37.6943 55.4239 37.6869 55.5013 37.6786ZM54.0207 35.319L54.0079 35.3105C53.8582 35.2058 53.712 35.0993 53.5706 34.9888C53.286 34.7694 53.0205 34.5445 52.7639 34.3042C52.5081 34.0658 52.2745 33.8133 52.0694 33.5477C51.8668 33.2809 51.6959 32.9962 51.5824 32.6945C51.6442 32.8433 51.7231 32.9827 51.8128 33.1185C51.9062 33.2515 52.0103 33.3779 52.121 33.4995C52.232 33.6207 52.3547 33.7329 52.48 33.8431C52.6075 33.9511 52.7412 34.0538 52.8783 34.1528C53.1549 34.347 53.4495 34.5265 53.755 34.6817C53.8809 34.7463 54.0088 34.8072 54.1376 34.8662L54.0207 35.319Z" fill="#2A2A61"/>
<path d="M55.3696 20.1349C55.3681 20.1169 55.3672 20.1069 55.3672 20.1069C55.3672 20.1069 55.3681 20.117 55.3696 20.1349Z" fill="#2A2A61"/>
<path d="M54.7671 25.869L54.7451 25.8684L54.7671 25.869Z" fill="#2A2A61"/>
<path d="M22.4655 58.4575C22.6193 58.2708 22.7023 58.0624 22.6049 57.8548L22.7728 57.9164C22.7742 57.9097 22.7742 57.9032 22.7758 57.8965C22.8007 57.7971 22.8492 57.7075 22.8969 57.6177L22.7285 57.5496C22.9427 57.462 23.0207 57.2519 23.0426 57.0143C23.0639 56.7772 23.0304 56.5124 22.9975 56.3377C22.9403 56.0308 22.8398 55.6857 22.7203 55.3358C22.6554 55.1541 22.5922 54.9773 22.5304 54.8048C22.4982 54.7146 22.4645 54.627 22.4331 54.5341C22.4023 54.4385 22.3716 54.3441 22.3414 54.2509C22.3201 54.1872 22.2141 53.9235 22.1397 53.6692C22.0643 53.4152 22.0198 53.1708 22.0824 53.1562C22.0108 53.1723 21.9378 53.1995 21.8671 53.2331C21.7971 53.2648 21.7288 53.3051 21.6641 53.3529C21.535 53.4485 21.4213 53.5742 21.3442 53.7219C21.167 54.0622 21.0626 54.4545 21.0431 54.8508C21.0255 55.1971 21.0682 55.5548 21.163 55.9091C21.259 56.2609 21.3996 56.6245 21.5948 56.9362C21.6197 56.9782 21.6485 57.023 21.6803 57.0688C21.5324 56.9965 21.3811 56.9306 21.2359 56.8527L20.8033 56.6135C20.5592 56.4759 20.31 56.3473 20.0702 56.2025C20.3117 56.1154 20.4536 55.8562 20.5364 55.5768C20.6215 55.292 20.6565 54.9738 20.6676 54.7651C20.6871 54.3631 20.6486 53.9341 20.5887 53.5024L20.5865 53.5058L19.9712 54.4659C19.9709 54.5226 19.9705 54.5801 19.9701 54.6375C19.965 54.9669 19.9493 55.2902 19.929 55.606C19.9188 55.7643 19.9056 55.9203 19.8906 56.0753C19.8901 56.0796 19.8894 56.084 19.8894 56.0885L19.4947 55.8396C19.5337 55.7244 19.5704 55.6072 19.6049 55.4881C19.6704 55.2607 19.7231 55.0259 19.7667 54.7851L19.7613 54.7937L19.0881 55.8443L19.7667 54.7851C19.7782 54.7194 19.7894 54.6544 19.8007 54.5895C19.8232 54.4346 19.8439 54.2759 19.8626 54.1099C19.8781 53.9447 19.8923 53.7766 19.8975 53.6053C19.9021 53.4342 19.9032 53.2603 19.8965 53.084C19.8856 52.9085 19.8702 52.7323 19.8422 52.5563C19.9068 52.9062 19.9408 53.2648 19.9572 53.6169C19.9678 53.9086 19.9709 54.1959 19.9712 54.466L20.5887 53.5025C20.5759 53.4144 20.5632 53.3273 20.5504 53.2413C20.5382 53.1495 20.5261 53.0587 20.5141 52.9691C20.4883 52.7841 20.4631 52.6033 20.4384 52.4259C20.4294 52.3558 20.3663 52.0756 20.3335 51.808C20.2974 51.5446 20.3027 51.2714 20.3712 51.2584C20.051 51.3273 19.6896 51.5481 19.4665 51.8638C19.2102 52.2271 19.0273 52.6395 18.9213 53.0763C18.8754 53.2666 18.8415 53.4653 18.8256 53.6606C18.8106 53.8544 18.8097 54.0508 18.8219 54.2481C18.8465 54.6425 18.9223 55.0422 19.039 55.4297C19.0536 55.4813 19.0725 55.5351 19.0953 55.5884C18.8761 55.442 18.6643 55.2842 18.4484 55.1328L18.126 54.9038L17.9647 54.7893L17.8095 54.6667C18.0795 54.5815 18.2731 54.3104 18.4173 54.0033C18.5608 53.6964 18.6565 53.3534 18.706 53.1293C18.7922 52.7374 18.8245 52.3306 18.8368 51.9184C18.8404 51.7036 18.844 51.4947 18.8474 51.2904C18.8506 51.0768 18.8486 50.8672 18.8472 50.6598C18.8465 50.5889 18.821 50.2972 18.8241 50.0208C18.8243 49.8842 18.8339 49.7468 18.8544 49.6406C18.8741 49.5356 18.9024 49.4644 18.941 49.4573C18.5836 49.5259 18.1662 49.7435 17.8866 50.0586C17.5642 50.4234 17.3147 50.8394 17.1398 51.2875C17.0631 51.4832 16.9989 51.6869 16.95 51.8927C16.9037 52.095 16.8713 52.3014 16.8519 52.51C16.8129 52.9272 16.8264 53.3528 16.8798 53.7739C16.8867 53.8291 16.8957 53.8892 16.9082 53.9497L16.1681 53.2956C16.0638 53.2023 15.9571 53.1116 15.8548 53.016L15.5547 52.722C15.8522 52.6482 16.1028 52.3731 16.3056 52.0598C16.5079 51.7464 16.6637 51.3948 16.7507 51.1656C16.9188 50.7211 17.0153 50.261 17.0953 49.7864C17.162 49.4013 17.2083 49.0164 17.2519 48.6418C17.2607 48.5692 17.2676 48.2761 17.3061 47.9945C17.3451 47.7102 17.4084 47.4449 17.4938 47.4328C17.101 47.488 16.634 47.6843 16.3019 47.9871C15.9186 48.3371 15.6063 48.7426 15.3654 49.1867C15.26 49.3808 15.168 49.5823 15.0891 49.7893C15.0094 49.997 14.9431 50.2098 14.8947 50.4209C14.7949 50.8463 14.7458 51.2859 14.7374 51.7245C14.7359 51.7821 14.7366 51.8442 14.7394 51.9086L14.2016 51.3284L13.9334 51.0378L13.6785 50.735C13.9948 50.6792 14.2903 50.4128 14.5401 50.105C14.7894 49.7969 14.9943 49.448 15.1117 49.2202C15.3163 48.8222 15.4652 48.4032 15.5853 47.9817C15.7084 47.5565 15.808 47.1224 15.8961 46.7062C15.9113 46.6347 15.9472 46.339 16.0075 46.0633C16.068 45.7858 16.157 45.5227 16.2472 45.5166C15.8296 45.5494 15.3275 45.7163 14.957 45.9976C14.5295 46.3234 14.1706 46.7094 13.8797 47.1402C13.6246 47.5168 13.4192 47.9284 13.2728 48.3499C13.1237 48.7735 13.0228 49.2161 12.9615 49.6621C12.9531 49.7205 12.9463 49.784 12.9414 49.8498L12.3399 49.0658C12.165 48.8468 12.0086 48.6141 11.8475 48.3847C12.1783 48.3521 12.513 48.1052 12.8043 47.8137C13.0952 47.522 13.3434 47.1864 13.4879 46.9665C13.767 46.5402 13.9717 46.0885 14.1472 45.6277C14.2917 45.2538 14.4111 44.8781 14.5206 44.5139C14.5416 44.4441 14.5999 44.1533 14.6804 43.8842C14.7639 43.6115 14.8694 43.3595 14.9639 43.3592C14.5274 43.3621 13.9988 43.4902 13.5992 43.7418C13.1377 44.033 12.7421 44.3892 12.4098 44.7953C12.12 45.1498 11.8721 45.5464 11.6835 45.9566C11.4918 46.3689 11.345 46.8046 11.2359 47.2475C11.2212 47.3055 11.2076 47.3686 11.1957 47.4344L10.7706 46.7664L10.558 46.4323C10.4876 46.3207 10.4245 46.2045 10.3574 46.0909C10.6937 46.0831 11.0549 45.8601 11.3749 45.5895C11.6947 45.3186 11.9739 45.0011 12.1377 44.7918C12.4231 44.4261 12.6501 44.0325 12.8414 43.6336C12.8892 43.5339 12.9349 43.4338 12.9784 43.3336C13.0239 43.2323 13.0679 43.1305 13.1095 43.0292C13.1931 42.8268 13.2701 42.6254 13.3431 42.4274C13.3682 42.3594 13.4427 42.0746 13.5368 41.8133C13.6296 41.5523 13.7461 41.3116 13.8434 41.3175C13.4001 41.2878 12.8591 41.3759 12.4439 41.5954C11.964 41.85 11.5468 42.1743 11.1878 42.5541C10.8699 42.8877 10.6122 43.2541 10.3876 43.6524C10.1648 44.0494 9.98303 44.4737 9.83585 44.9088C9.81636 44.9658 9.79659 45.0282 9.77971 45.0927L9.31958 44.2171C9.18956 43.9686 9.05504 43.7224 8.93903 43.4667C9.27469 43.4871 9.65342 43.2949 9.99373 43.0522C10.3338 42.8091 10.6355 42.5167 10.8133 42.3223C11.1563 41.9462 11.4267 41.5312 11.6532 41.1087C11.8339 40.7699 12.0006 40.4166 12.143 40.0781C12.1709 40.0129 12.2562 39.7371 12.3588 39.486C12.4614 39.2343 12.5811 39.0071 12.6784 39.0209C12.4505 38.9908 12.2088 38.9829 11.965 39.0084C11.7224 39.0333 11.4829 39.089 11.2732 39.1808C10.7886 39.3925 10.3628 39.6788 9.9893 40.0244C9.34554 40.6236 8.86558 41.4061 8.51028 42.2474C8.4858 42.3028 8.46476 42.3618 8.44408 42.4243C8.33369 42.1842 8.23456 41.9391 8.12938 41.6968L7.8177 40.9677C8.15027 41.0123 8.53413 40.8509 8.88056 40.6371C9.2265 40.4229 9.53494 40.1575 9.72152 39.9774C10.0442 39.6638 10.3085 39.3137 10.5327 38.9527C10.6447 38.772 10.7469 38.5885 10.8414 38.4052C10.934 38.2224 11.0169 38.0403 11.1038 37.8566C11.1329 37.794 11.224 37.5267 11.3294 37.2852C11.4352 37.0431 11.5553 36.8267 11.6502 36.8483C11.209 36.751 10.6788 36.751 10.2691 36.8983C9.79519 37.0695 9.37967 37.3183 9.01171 37.6302C8.68877 37.9029 8.40095 38.2239 8.14464 38.5782C8.01631 38.7553 7.89573 38.9409 7.78238 39.1327C7.6682 39.3248 7.57237 39.519 7.47697 39.7197C7.45192 39.7722 7.42702 39.8297 7.40296 39.8902L7.22594 39.4278L7.06659 38.9589L6.79586 38.161C7.11112 38.2343 7.48928 38.1073 7.83234 37.9254C8.1756 37.7431 8.4832 37.5066 8.66429 37.346C9.01705 37.0339 9.30755 36.6691 9.54613 36.2905C9.73876 35.9856 9.89516 35.6716 10.0338 35.364C10.0584 35.3055 10.1522 35.0466 10.2529 34.8158C10.3514 34.5852 10.4613 34.3809 10.5521 34.4105C10.1327 34.2747 9.63604 34.2275 9.25007 34.3386C8.80359 34.4672 8.41017 34.6784 8.05642 34.9556C7.74664 35.1982 7.4686 35.4911 7.21117 35.8212C6.94966 36.152 6.73592 36.5125 6.53547 36.8941C6.50902 36.944 6.48228 36.9989 6.45625 37.0569L6.23055 36.2958L6.0325 35.5269C6.32265 35.6255 6.68329 35.5298 7.01248 35.3764C7.34196 35.2224 7.63914 35.0118 7.81376 34.8665C8.12073 34.6117 8.36507 34.3136 8.5781 33.9945C8.79149 33.6752 8.96232 33.3377 9.10739 33.0062C9.13363 32.9492 9.20744 32.7015 9.28813 32.4815C9.37045 32.2608 9.47507 32.064 9.55682 32.1016C9.17085 31.9313 8.71973 31.8438 8.36866 31.9233C7.96292 32.0158 7.60396 32.195 7.27625 32.4439C7.133 32.5525 6.99567 32.6743 6.86333 32.8073C6.73275 32.94 6.61167 33.0831 6.49319 33.2362C6.25715 33.5418 6.03799 33.8855 5.83656 34.2487C5.8099 34.2963 5.78246 34.3489 5.75558 34.4045L5.54304 33.4357C5.47838 33.1617 5.42941 32.8847 5.38017 32.6077C5.63478 32.731 5.96327 32.6674 6.26411 32.5434C6.56517 32.419 6.8387 32.235 6.9975 32.1054C7.30516 31.8544 7.54648 31.5426 7.73708 31.2067C7.89129 30.9366 8.02433 30.6479 8.12797 30.363C8.14767 30.3084 8.21021 30.0663 8.27178 29.8525C8.33418 29.6383 8.40271 29.4515 8.47862 29.4954C8.12389 29.2933 7.7458 29.1662 7.44721 29.2172C7.10592 29.2756 6.79959 29.4256 6.52548 29.6454C6.05037 30.0289 5.63534 30.6318 5.24979 31.3212C5.22489 31.3662 5.19682 31.4163 5.17297 31.469L4.94396 29.8952C5.16234 30.037 5.44834 29.999 5.70816 29.8988C5.96967 29.798 6.19868 29.6364 6.33763 29.5189C6.82344 29.1076 7.10408 28.4812 7.24705 27.8594C7.25781 27.8018 7.29911 27.5786 7.34048 27.3556C7.37903 27.1444 7.42005 26.9604 7.48457 27.0107C7.18591 26.7804 6.86903 26.6263 6.63932 26.6559C6.37295 26.6908 6.14472 26.8197 5.92957 27.0213C5.74109 27.1972 5.5645 27.428 5.38586 27.6976C5.20336 27.9675 5.04485 28.2742 4.88015 28.6028C4.85855 28.6459 4.83611 28.6936 4.81366 28.7444L4.75984 28.2504L4.73318 28.0034L4.71538 27.7556L4.65403 26.9122C4.81683 27.0705 5.04182 27.0548 5.2448 26.9746C5.44869 26.894 5.62887 26.7494 5.72997 26.6423C5.82798 26.5387 5.9117 26.4169 5.98178 26.2818C6.05122 26.1467 6.1182 25.9981 6.16597 25.8409L6.16343 25.841L5.82165 25.8511L6.16597 25.8409H6.16695C6.24364 25.588 6.29246 25.3131 6.3104 25.0357C6.31427 24.9824 6.31048 24.7425 6.3059 24.5296C6.30232 24.3166 6.30007 24.1306 6.34988 24.1859C6.11827 23.932 5.90094 23.756 5.76149 23.7729C5.60066 23.793 5.47057 23.9108 5.34189 24.1014C5.17163 24.3519 5.01066 24.7278 4.82745 25.1691C4.84004 24.9295 4.83477 24.6519 4.82513 24.3389C4.81669 24.0258 4.79762 23.6774 4.77356 23.2956C4.74366 22.8375 4.70278 22.4084 4.67147 22.0224C4.64003 21.6365 4.61808 21.2941 4.61153 21.0099C4.60309 20.7255 4.60907 20.4995 4.61653 20.3448C4.62208 20.2395 4.62764 20.1682 4.6306 20.1326C4.62258 20.2202 4.59078 20.5309 4.50874 21.0023C4.46146 21.2832 4.39575 21.621 4.32568 22.0044C4.25582 22.3878 4.18159 22.8169 4.12995 23.2794C4.0864 23.6775 4.05987 24.0419 4.05115 24.3681C4.04397 24.6944 4.0591 24.9822 4.08147 25.2277C3.977 24.9965 3.87899 24.7794 3.785 24.5859C3.691 24.3925 3.60939 24.2228 3.52327 24.0865C3.39719 23.8865 3.27203 23.7586 3.11169 23.7324C2.97302 23.71 2.74901 23.8887 2.51388 24.1609C2.5651 24.1019 2.55792 24.303 2.5575 24.5333C2.56109 24.7637 2.56665 25.0231 2.57263 25.0806C2.60133 25.3802 2.66078 25.675 2.74704 25.9416H2.74803L3.45003 25.921C3.33366 25.7635 3.2327 25.5883 3.14968 25.3945C3.04879 25.1577 2.98526 24.8878 2.9581 24.5825C2.97351 24.7318 3.00208 24.866 3.03796 24.9927C3.07602 25.1152 3.12274 25.2272 3.17775 25.331C3.23249 25.4341 3.29616 25.5237 3.36335 25.6093C3.43174 25.6919 3.5054 25.7664 3.58272 25.835C3.61523 25.8627 3.64865 25.8887 3.68242 25.914H3.68417C3.81187 26.0104 3.94928 26.0911 4.09266 26.1532C4.1678 26.1857 4.24435 26.2144 4.32174 26.2394L4.33862 26.7117C4.33581 26.7096 4.33278 26.7079 4.32997 26.7063C4.22859 26.6441 4.13065 26.5779 4.0363 26.5057C3.94217 26.4339 3.85042 26.3581 3.7648 26.2771C3.68115 26.1962 3.60136 26.1103 3.52665 26.0187C3.50069 25.9869 3.47536 25.9546 3.45109 25.9209L2.75049 25.9416L2.74795 25.9417C2.85482 26.2731 3.02712 26.5593 3.24649 26.758C3.35941 26.8609 3.55514 26.9929 3.76684 27.0532C3.9777 27.1137 4.20298 27.103 4.34714 26.9279L4.38091 27.7787L4.39097 28.0289L4.40996 28.2782L4.44915 28.7772C4.41763 28.7311 4.38667 28.6877 4.35727 28.6487C4.136 28.3505 3.91128 28.0659 3.70908 27.8132C3.50125 27.5609 3.2994 27.3418 3.09185 27.1775C2.85475 26.9891 2.61287 26.8726 2.3439 26.8612C2.11194 26.8516 1.81497 27.0516 1.54593 27.3478C1.6039 27.2836 1.66666 27.4857 1.72998 27.717C1.7952 27.9482 1.86168 28.208 1.88497 28.2648C2.14874 28.9319 2.54667 29.5588 3.10114 29.8791C3.25789 29.9712 3.53002 30.0837 3.80786 30.1233C4.08604 30.1632 4.37281 30.1302 4.54765 29.9411L4.73817 31.535C4.69891 31.4937 4.66029 31.4529 4.6237 31.4142C4.0738 30.8558 3.51229 30.3476 2.9484 30.0554C2.62476 29.889 2.30492 29.7932 1.95645 29.8058C1.80617 29.8111 1.64323 29.8703 1.48078 29.9685C1.31727 30.0668 1.15567 30.204 1.01601 30.364C1.07701 30.2947 1.19612 30.4917 1.31629 30.717C1.43589 30.9427 1.56359 31.1958 1.59771 31.251C1.68826 31.3951 1.78408 31.5369 1.88575 31.673C1.98635 31.8093 2.09541 31.9396 2.21888 32.06L3.35372 31.8845C3.11739 31.7551 2.90555 31.6035 2.70672 31.4307C2.46794 31.2181 2.25307 30.9675 2.07972 30.6728C2.16808 30.8166 2.27277 30.942 2.38126 31.0588C2.4927 31.1714 2.61196 31.2706 2.73578 31.3609C2.86003 31.4505 2.9916 31.5256 3.12541 31.5949C3.26007 31.6614 3.39945 31.7187 3.54473 31.7691C3.60601 31.7894 3.66785 31.8089 3.73012 31.8264L6.22591 31.4404C6.27952 31.4064 6.33186 31.371 6.38365 31.3354C6.50339 31.249 6.62426 31.1579 6.73767 31.0613C6.84926 30.9628 6.95767 30.8608 7.0554 30.7494C7.15263 30.6376 7.24346 30.5206 7.32345 30.3955C7.39965 30.2674 7.47043 30.1344 7.52087 29.9907C7.42505 30.2833 7.27864 30.5532 7.10078 30.8026C6.95226 31.0064 6.7801 31.201 6.60182 31.3821C6.56453 31.4207 6.52597 31.4585 6.487 31.4958C6.262 31.7113 6.01569 31.9136 5.75608 32.1071C5.62606 32.2042 5.49182 32.2976 5.35378 32.3887C5.34998 32.3911 5.34569 32.3936 5.34203 32.3965L5.25803 31.9353C5.37439 31.8884 5.48992 31.8384 5.60354 31.7853C5.82052 31.6839 6.02828 31.5678 6.22591 31.4403L6.21599 31.4424L3.74032 31.8252L3.73026 31.8269C3.96095 31.8936 4.19692 31.943 4.43613 31.9731C4.56158 31.9887 4.68745 32.0003 4.81324 32.0082L4.88732 32.4758C4.88296 32.4743 4.87818 32.4734 4.87382 32.4722C4.71326 32.432 4.55546 32.3872 4.40018 32.3357C4.08977 32.2334 3.78894 32.1122 3.50196 31.9645C3.45235 31.9389 3.40289 31.9126 3.35385 31.885L2.22289 32.0599L2.21902 32.0605C2.51789 32.3611 2.85433 32.6078 3.23024 32.7579C3.42435 32.8358 3.74433 32.925 4.06909 32.9395C4.39357 32.9545 4.72283 32.8957 4.92145 32.6898C4.96549 32.9708 5.00911 33.2518 5.06863 33.5298L5.26492 34.5134C5.218 34.4736 5.17191 34.4366 5.12829 34.4036C4.79804 34.151 4.45689 33.9123 4.1137 33.7064C3.94266 33.6033 3.76832 33.5089 3.59735 33.425C3.42808 33.3406 3.2574 33.2673 3.08559 33.208C2.69237 33.0717 2.29226 33.0088 1.87871 33.0556C1.52109 33.0962 1.12942 33.3583 0.832031 33.708C0.898095 33.6318 1.05597 33.8186 1.22891 34.0317C1.40036 34.2453 1.57653 34.4866 1.62557 34.5379C1.90319 34.8399 2.20495 35.1272 2.53485 35.3642C2.86798 35.6007 3.24558 35.783 3.6376 35.8857C3.86323 35.9446 4.22739 36.003 4.59113 35.986C4.95451 35.9696 5.31649 35.8791 5.5258 35.6536L5.71442 36.435L5.93182 37.2089C5.87856 37.1733 5.82636 37.1403 5.77697 37.1112C5.4043 36.8875 5.01031 36.6806 4.63222 36.5018C4.24822 36.3246 3.86105 36.1802 3.46874 36.0924C3.02072 35.9919 2.56784 35.9645 2.11018 36.0481C1.71443 36.1199 1.30348 36.4168 1.01193 36.7926C1.07497 36.7114 1.27872 36.8828 1.48444 37.0822C1.69424 37.2811 1.90313 37.5084 1.96272 37.5551C2.26293 37.8029 2.57875 38.0375 2.91646 38.2313C3.33718 38.4719 3.77936 38.6532 4.25476 38.7291C4.50227 38.7681 4.89753 38.7944 5.2854 38.7457C5.67292 38.6976 6.05269 38.5752 6.26242 38.3319L6.52829 39.1436L6.68512 39.6207L6.86037 40.0912C6.80205 40.0606 6.74464 40.0324 6.69061 40.0079C6.27607 39.8209 5.86393 39.644 5.44285 39.502C5.02121 39.3606 4.59077 39.2539 4.1602 39.2034C3.66869 39.1449 3.17544 39.1606 2.68682 39.2877C2.26461 39.3977 1.84656 39.7342 1.57217 40.1371C1.63071 40.0499 1.87329 40.2004 2.11912 40.3789C2.3648 40.5578 2.61393 40.7643 2.67802 40.8068C3.04753 41.0572 3.46699 41.2793 3.88989 41.4502C4.31491 41.6208 4.7552 41.737 5.20758 41.7671C5.46501 41.7852 5.88032 41.7756 6.28318 41.6909C6.68477 41.6071 7.07053 41.4505 7.2728 41.1878L7.58489 41.9296C7.6905 42.1762 7.78942 42.4258 7.90072 42.6699C7.83874 42.644 7.77675 42.6212 7.72174 42.6003C6.87508 42.2827 5.95764 42.0335 5.04787 42.0051C4.53604 41.9868 4.02392 42.0431 3.52271 42.2114C3.30594 42.2842 3.09424 42.4133 2.9045 42.578C2.71622 42.7425 2.54343 42.9444 2.42129 43.1559C2.47406 43.0646 2.74479 43.1938 3.02044 43.3503C3.29603 43.5074 3.57639 43.6915 3.64738 43.7282C4.0204 43.9199 4.39315 44.1005 4.8055 44.2265L6.21388 43.5854C6.04376 43.571 5.87188 43.5515 5.7038 43.5249C5.53769 43.4975 5.37299 43.4638 5.2097 43.4237C4.81493 43.3227 4.42889 43.1766 4.06684 42.9741C4.24983 43.0706 4.44134 43.145 4.63405 43.2089C4.82844 43.2679 5.02565 43.3112 5.22327 43.3447C5.42125 43.3774 5.62141 43.3934 5.82031 43.4033C6.01843 43.4106 6.22373 43.4053 6.42487 43.3944C6.51015 43.3886 6.59563 43.3817 6.68104 43.3729L9.77795 41.963C9.84028 41.9059 9.90219 41.849 9.96376 41.7926C10.1062 41.6558 10.2443 41.5166 10.3808 41.3714C10.5136 41.2256 10.6441 41.0771 10.763 40.9231C10.881 40.7688 10.9931 40.6115 11.0939 40.4496C11.1901 40.2865 11.28 40.1207 11.3498 39.9504C11.2189 40.2931 11.0379 40.6304 10.825 40.9584C10.6453 41.2288 10.4496 41.4945 10.2447 41.7507C10.2014 41.804 10.1575 41.858 10.1138 41.9121C9.85815 42.2213 9.5837 42.5236 9.29918 42.8207C9.15678 42.9697 9.01023 43.1162 8.86037 43.2616L8.84764 43.2741L8.64712 42.8519C8.78319 42.758 8.91799 42.6614 9.05075 42.5623C9.30403 42.3731 9.54606 42.1722 9.77795 41.9632L9.76556 41.9689L6.69342 43.3673L6.68104 43.3731C6.99729 43.3422 7.31107 43.2932 7.62127 43.2245C7.78379 43.1884 7.94526 43.1482 8.10524 43.1046L8.30738 43.5342C8.30168 43.5349 8.29549 43.5356 8.28979 43.5362C8.08287 43.5611 7.87645 43.5809 7.66967 43.5937C7.25634 43.6197 6.84229 43.6253 6.4291 43.6011C6.35754 43.5969 6.28578 43.5921 6.21395 43.5857L4.81042 44.2246L4.80557 44.2267C5.30798 44.388 5.82073 44.4854 6.33749 44.4769C6.60512 44.4728 7.02529 44.4308 7.42575 44.3151C7.82615 44.2 8.20712 44.0122 8.40011 43.7309C8.51683 43.9909 8.65381 44.2412 8.78537 44.4941L9.25239 45.3847C9.18858 45.3637 9.12758 45.3445 9.06947 45.3288C8.62996 45.2064 8.17201 45.104 7.7064 45.0382C7.24318 44.9714 6.76314 44.9453 6.30492 44.9682C5.77894 44.9948 5.2569 45.0971 4.7571 45.3097C4.32511 45.4936 3.93555 45.9023 3.71766 46.3494C3.76227 46.2534 4.05227 46.3582 4.35361 46.4885C4.65346 46.6195 4.95986 46.7773 5.03641 46.8074C5.4864 46.9831 5.9326 47.1442 6.41657 47.2334C6.89288 47.3262 7.36975 47.3638 7.83944 47.3158C8.10869 47.2888 8.52689 47.2112 8.91757 47.0623C9.30839 46.914 9.67206 46.6955 9.84099 46.399C9.90937 46.5146 9.97347 46.6326 10.0454 46.746L10.2629 47.0853L10.6978 47.7637C10.6334 47.7475 10.5706 47.7333 10.5116 47.7222C10.0637 47.6346 9.59671 47.569 9.12357 47.5407C8.646 47.5152 8.18306 47.5154 7.72019 47.5762C7.19252 47.6455 6.67379 47.789 6.18897 48.04C5.76902 48.2567 5.41816 48.6917 5.24614 49.1509C5.28462 49.0512 5.58089 49.1359 5.89102 49.2441C6.21015 49.3487 6.53744 49.4789 6.61793 49.5023C7.03866 49.6256 7.46564 49.7313 7.88975 49.7951L9.17669 48.9381C8.83617 48.9626 8.49079 48.965 8.14422 48.9418C7.72462 48.9098 7.30137 48.8335 6.8876 48.6987C7.09558 48.7612 7.30671 48.8008 7.51609 48.8302C7.72638 48.8546 7.93541 48.8633 8.14211 48.8627C8.34903 48.8612 8.55418 48.8433 8.75617 48.8198C8.95823 48.7934 9.15812 48.7572 9.35504 48.715C9.43806 48.696 9.52108 48.676 9.60361 48.6539C9.90824 48.5751 10.2133 48.4752 10.5085 48.3577C10.6632 48.2958 10.816 48.2306 10.9663 48.1621L11.2409 48.5503C11.2354 48.5518 11.2293 48.5535 11.2238 48.5551C11.0251 48.6124 10.8253 48.6648 10.6231 48.7105C10.2194 48.8025 9.80855 48.8757 9.39092 48.9201C9.31986 48.927 9.24838 48.9333 9.17662 48.9381L7.89418 49.7921L7.88975 49.7951C8.42149 49.8724 8.96274 49.8771 9.47268 49.7857C9.73813 49.7379 10.1458 49.6291 10.5177 49.4525C10.89 49.2764 11.2276 49.0336 11.3664 48.7279C11.5316 48.9606 11.6922 49.1966 11.8721 49.4184L12.4911 50.2122C12.4266 50.201 12.3637 50.1919 12.305 50.1854C11.8585 50.1335 11.3937 50.1056 10.9248 50.1158C10.4518 50.129 9.9912 50.169 9.54078 50.2665C9.02515 50.3778 8.52499 50.5627 8.07084 50.8507C7.67777 51.0998 7.37939 51.5567 7.2652 52.0209C7.29172 51.9192 7.59538 51.9783 7.92169 52.0555C8.25313 52.1302 8.59464 52.2297 8.67752 52.2457C9.16417 52.3394 9.6461 52.4168 10.128 52.4324C10.6165 52.4437 11.0885 52.4041 11.5311 52.2859C11.785 52.2182 12.1698 52.0803 12.5105 51.8799C12.8519 51.6796 13.1508 51.4172 13.2507 51.1072L13.5136 51.4128L13.7907 51.706L14.3461 52.2908C14.2823 52.2842 14.2203 52.2797 14.1625 52.2773C13.7235 52.2569 13.2674 52.2627 12.8098 52.3067C12.5794 52.3302 12.3539 52.3588 12.1331 52.3971C11.9111 52.4365 11.6909 52.4872 11.475 52.5516C10.9817 52.699 10.5101 52.9174 10.0968 53.2322C9.73841 53.504 9.50124 53.9704 9.45016 54.4272C9.4617 54.3282 9.77598 54.3577 10.1023 54.4109C10.4371 54.4588 10.7909 54.5255 10.8739 54.5349C11.3134 54.5822 11.7506 54.614 12.1725 54.6075C12.7033 54.5949 13.2179 54.5181 13.6758 54.3591C13.9141 54.276 14.2694 54.1168 14.573 53.9012C14.8772 53.6856 15.1314 53.4139 15.1887 53.1083L15.4993 53.4032C15.6051 53.4988 15.7156 53.5898 15.8236 53.6832L16.5894 54.3369C16.5272 54.3352 16.468 54.3341 16.4125 54.3356C15.9909 54.3436 15.5555 54.3792 15.122 54.4533C14.9053 54.4904 14.6894 54.5372 14.4767 54.5949C14.2673 54.6494 14.0619 54.7144 13.8622 54.7923C13.406 54.9694 12.9795 55.2147 12.6239 55.5474C12.316 55.8351 12.1539 56.2989 12.176 56.7333C12.1733 56.6864 12.2507 56.6626 12.3695 56.6531C12.4871 56.6448 12.6489 56.6486 12.8187 56.6545C13.1562 56.6688 13.5077 56.705 13.5906 56.7065C13.8334 56.7115 14.0739 56.713 14.3122 56.7037C14.4312 56.6993 14.548 56.6941 14.6651 56.6847C14.7838 56.6737 14.901 56.6607 15.0159 56.6451C15.4765 56.5824 15.9018 56.4822 16.2777 56.3161C16.4932 56.2214 16.8074 56.0488 17.0623 55.8288C17.3179 55.6085 17.5156 55.3407 17.5224 55.0504L17.6832 55.1719L17.85 55.2854L18.1837 55.5122C18.4073 55.6615 18.6266 55.8172 18.8535 55.9613C18.795 55.9649 18.7374 55.9685 18.6826 55.9719C18.2826 56.0002 17.8698 56.0608 17.465 56.1569C17.2625 56.2051 17.0619 56.2627 16.8656 56.3308C16.6705 56.3975 16.4844 56.4694 16.3029 56.5566C15.8897 56.7539 15.513 57.0152 15.2203 57.3499C14.9652 57.6407 14.8834 58.0797 14.9791 58.4727C14.9607 58.3856 15.26 58.3655 15.5937 58.3472C15.9249 58.3324 16.2723 58.3372 16.3541 58.3303C16.5667 58.3152 16.7768 58.2976 16.9821 58.2758C17.0847 58.2648 17.1858 58.253 17.2858 58.2394C17.3881 58.2231 17.4887 58.2055 17.5873 58.1863C18.0776 58.0921 18.5224 57.9594 18.8888 57.7698C19.0792 57.6711 19.3504 57.4978 19.5556 57.2866C19.7651 57.0696 19.9034 56.8266 19.8617 56.5628C20.1094 56.7041 20.3672 56.8281 20.6192 56.9615L21.0661 57.1925C21.2161 57.2674 21.372 57.33 21.5246 57.3994C21.4679 57.4047 21.4134 57.4112 21.3635 57.419C20.9796 57.4828 20.6061 57.5445 20.2388 57.6547C19.8726 57.7628 19.518 57.9078 19.1998 58.0935C18.8376 58.3028 18.5308 58.5544 18.3119 58.8742C18.2179 59.0117 18.1714 59.1786 18.17 59.3523C18.168 59.5265 18.2107 59.7087 18.3017 59.8635C18.263 59.7949 18.5597 59.7329 18.8751 59.6879C19.1915 59.6425 19.5261 59.6145 19.6023 59.6029C19.7124 59.5846 19.8238 59.5661 19.9364 59.5473C20.0474 59.5268 20.1595 59.501 20.2682 59.4771C20.4861 59.4282 20.696 59.3764 20.8941 59.3204C21.2926 59.2038 21.6402 59.0781 21.9235 58.9085C22.0871 58.8089 22.3123 58.6439 22.4655 58.4575ZM5.22876 25.8692L5.22397 25.8694L5.01664 25.8755L5.22876 25.8692ZM4.51338 29.7217C4.37929 29.6694 4.24801 29.6126 4.11996 29.549C3.86372 29.4234 3.62043 29.2806 3.39375 29.1116C3.1672 28.9444 2.95635 28.7491 2.77314 28.5237C2.68295 28.41 2.5976 28.2873 2.52408 28.155C2.45365 28.0225 2.39167 27.8805 2.33989 27.7286C2.39414 27.877 2.46231 28.0089 2.53675 28.1323C2.61498 28.2515 2.70729 28.3587 2.80178 28.4573C2.89718 28.5553 3.00095 28.6386 3.10839 28.7176C3.21666 28.7934 3.32944 28.8606 3.44483 28.9216C3.677 29.0387 3.92092 29.1301 4.17258 29.1906C4.27671 29.2162 4.38182 29.2367 4.48728 29.2547L4.52485 29.7258L4.51338 29.7217ZM4.17758 25.9002L4.36747 25.8945L4.36782 25.8801L4.37795 25.4611L4.39624 24.4637L4.43163 23.4674L4.45386 22.97L4.47814 22.4722L4.46709 22.9704L4.46442 23.4682C4.46533 23.8001 4.47068 24.132 4.48123 24.4638L4.53857 25.4579L4.56207 25.8281L4.56629 25.8888L4.17758 25.9002ZM4.6389 26.6984L4.60548 26.2297C4.68168 26.1991 4.75717 26.1652 4.83111 26.1283C4.97196 26.0572 5.10627 25.9698 5.23024 25.8692L5.232 25.8691C5.26492 25.8426 5.29721 25.8155 5.32873 25.7871C5.40338 25.7167 5.4743 25.6418 5.53966 25.5597C5.60354 25.475 5.66384 25.3873 5.71499 25.2877C5.7662 25.1874 5.80877 25.0805 5.8424 24.9642C5.87357 24.8441 5.89749 24.7175 5.90727 24.5771C5.89116 24.8642 5.83747 25.1192 5.74538 25.3469C5.66947 25.5333 5.57491 25.7045 5.46452 25.8621L5.46312 25.8622C5.44025 25.8957 5.41612 25.9283 5.39135 25.9603C5.32008 26.0529 5.24368 26.1412 5.16284 26.2258C5.08411 26.3104 5.00285 26.3912 4.91674 26.4692C4.83097 26.5475 4.74077 26.6212 4.64678 26.6922C4.64425 26.694 4.64143 26.6959 4.6389 26.6984ZM4.91547 29.6824L4.8653 29.2165C4.96535 29.178 5.06476 29.1373 5.1622 29.0924C5.39824 28.9855 5.62127 28.853 5.8284 28.7025C5.93077 28.625 6.02955 28.5433 6.12242 28.4554C6.21395 28.3646 6.30133 28.2715 6.37774 28.1675C6.45471 28.0629 6.52168 27.9525 6.5843 27.8332C6.64502 27.7104 6.69863 27.5818 6.73669 27.441C6.70151 27.5847 6.65529 27.7215 6.59943 27.8519C6.54666 27.9821 6.48735 28.1057 6.41784 28.2235C6.27748 28.4573 6.10525 28.6728 5.9129 28.8702C5.72069 29.0693 5.50751 29.2519 5.27977 29.4253C5.16579 29.5127 5.04773 29.5956 4.92581 29.676L4.91547 29.6824ZM5.45953 35.4406C5.27759 35.4159 5.09762 35.3864 4.91934 35.3496C4.56545 35.277 4.20917 35.1873 3.87983 35.0652C3.54895 34.9451 3.23024 34.7939 2.93116 34.6079C2.63327 34.4198 2.35467 34.1908 2.11968 33.9128C2.24104 34.0476 2.37324 34.1635 2.51367 34.269C2.656 34.37 2.80487 34.4578 2.9574 34.5359C3.11022 34.6134 3.26908 34.6746 3.42935 34.7311C3.59053 34.7843 3.75481 34.8279 3.92043 34.865C4.25349 34.9336 4.59 34.9753 4.93573 34.9832C5.07876 34.9871 5.22158 34.9858 5.36412 34.982L5.47493 35.4421L5.45953 35.4406ZM5.86189 34.8664C5.99078 34.8074 6.11883 34.7465 6.2447 34.6819C6.54997 34.5266 6.84476 34.3471 7.12132 34.153C7.25845 34.054 7.39205 33.9512 7.51946 33.8433C7.64477 33.7331 7.76733 33.6209 7.87863 33.4997C7.98916 33.3781 8.09329 33.2516 8.18665 33.1187C8.27649 32.9829 8.35529 32.8435 8.4172 32.6947C8.30351 32.9964 8.13268 33.2811 7.93006 33.5479C7.7249 33.8136 7.49139 34.066 7.23551 34.3044C6.97899 34.5448 6.7134 34.7696 6.42888 34.989C6.2874 35.0995 6.14141 35.206 5.99177 35.3107L5.97896 35.3192L5.86189 34.8664ZM6.17828 38.1247C5.98065 38.1162 5.79048 38.101 5.59883 38.0796C5.21708 38.0371 4.84019 37.9744 4.47138 37.8826C4.4075 37.8667 4.34369 37.8501 4.28001 37.8321C3.97756 37.7478 3.68389 37.6409 3.40015 37.5098C3.22912 37.4287 3.06223 37.337 2.9021 37.2336C2.74655 37.1291 2.59767 37.0129 2.45732 36.8839C2.60021 37.0086 2.7552 37.1129 2.91371 37.2074C3.07743 37.2968 3.24952 37.3704 3.4226 37.4351C3.5963 37.4989 3.77493 37.5467 3.95385 37.5885C4.13396 37.6273 4.31604 37.6565 4.49854 37.6788C4.576 37.6872 4.6541 37.6945 4.73233 37.6998C5.02206 37.7215 5.31354 37.7249 5.60537 37.7084C5.75833 37.6995 5.911 37.6867 6.0631 37.6702C6.10729 37.8219 6.14697 37.975 6.19516 38.1256C6.1896 38.1252 6.18362 38.125 6.17828 38.1247ZM6.72726 37.9586C6.67794 37.8106 6.63693 37.6599 6.59141 37.5109C6.72783 37.4408 6.86312 37.3679 6.99672 37.2923C7.25141 37.1478 7.4959 36.9898 7.73067 36.8224L7.71857 36.8259L6.23147 37.2611L7.73067 36.8224C7.7942 36.7776 7.85689 36.7315 7.91838 36.6853C8.06212 36.5741 8.20248 36.4596 8.33643 36.3406C8.46814 36.2197 8.59703 36.0963 8.7141 35.9653C8.83103 35.8338 8.93973 35.699 9.03992 35.557C9.1387 35.412 9.23051 35.2632 9.3034 35.1069C9.23459 35.2652 9.1534 35.4199 9.06166 35.5712C8.97456 35.7208 8.87719 35.8671 8.77116 36.0096C8.59302 36.2437 8.39708 36.471 8.18235 36.6902C8.13733 36.7356 8.09173 36.7817 8.04607 36.8277C7.7802 37.0897 7.49435 37.3421 7.19689 37.5876C7.04844 37.7106 6.89337 37.8313 6.74028 37.9486C6.73605 37.9517 6.73134 37.9549 6.72726 37.9586ZM7.17691 40.9857C6.97365 40.9941 6.77151 40.9973 6.56952 40.9928C6.16639 40.9855 5.76564 40.9581 5.36905 40.9001C4.97337 40.8438 4.5791 40.7556 4.20051 40.6284C3.82263 40.4989 3.47374 40.3199 3.14624 40.0891C3.31136 40.2003 3.48697 40.2899 3.66497 40.3694C3.84599 40.4431 4.02765 40.504 4.2181 40.552C4.40869 40.5995 4.60196 40.6302 4.79643 40.6554C4.99124 40.6772 5.18683 40.689 5.38185 40.6942C5.77268 40.6994 6.16287 40.6763 6.55004 40.6205C6.71038 40.5981 6.86959 40.5706 7.02803 40.5405L7.19393 40.9845L7.17691 40.9857ZM7.73876 40.7687L7.57202 40.3324C7.71055 40.2491 7.84803 40.1642 7.98332 40.0756C8.31118 39.8628 8.62201 39.6292 8.91778 39.3827C9.0637 39.2579 9.20638 39.1298 9.34315 38.9976C9.47746 38.8635 9.60797 38.7284 9.7268 38.5861C9.8445 38.4437 9.96291 38.2944 10.0665 38.1423C10.1665 37.9877 10.2597 37.8299 10.3333 37.6662C10.1968 37.9959 10.0014 38.3193 9.78801 38.6247C9.57195 38.9291 9.32394 39.2268 9.05758 39.513C8.7917 39.8008 8.50585 40.0796 8.20937 40.3529C8.06106 40.4904 7.90839 40.6248 7.75227 40.7577L7.73876 40.7687ZM9.71427 46.2141C9.50933 46.2565 9.3041 46.2936 9.09733 46.3235C8.68455 46.3845 8.2684 46.4261 7.84831 46.4375C7.63935 46.4436 7.42568 46.4435 7.21813 46.4314C7.01129 46.4189 6.80486 46.3972 6.59893 46.366C6.18806 46.3011 5.77964 46.1901 5.38826 46.0211C5.58567 46.1008 5.78886 46.1574 5.99177 46.2041C6.1958 46.245 6.40123 46.2711 6.60555 46.287C6.81 46.3021 7.01459 46.2998 7.21736 46.2928C7.42075 46.282 7.62099 46.2622 7.82537 46.2329C8.23104 46.1705 8.62897 46.0807 9.01691 45.9598C9.1776 45.9103 9.33626 45.8562 9.49336 45.7996L9.73151 46.2101L9.71427 46.2141ZM10.2621 45.8925L10.2502 45.9055L10.0166 45.5017C10.1452 45.396 10.2731 45.2885 10.3983 45.1779C10.702 44.9118 10.9871 44.6274 11.258 44.3322C11.39 44.1842 11.5253 44.0295 11.651 43.8736C11.7748 43.7159 11.8968 43.5565 12.0072 43.392C12.1168 43.2272 12.2204 43.0593 12.3136 42.8887C12.4018 42.7167 12.484 42.5426 12.5467 42.3656C12.4304 42.7211 12.2657 43.0751 12.0706 43.4217C11.8724 43.7681 11.6488 44.1102 11.4151 44.4387C11.1805 44.7698 10.9277 45.0946 10.6659 45.415C10.5353 45.5764 10.4002 45.7349 10.2621 45.8925ZM11.7252 48.2097L11.4578 47.827C11.576 47.7131 11.693 47.5966 11.8076 47.478C12.0265 47.2513 12.2322 47.0156 12.4334 46.769L12.4221 46.7766L11.0185 47.7112L12.4334 46.769C12.4872 46.702 12.5405 46.6353 12.5934 46.5692C12.7156 46.4097 12.8348 46.2475 12.9484 46.0824C13.0592 45.9163 13.1682 45.748 13.266 45.5757C13.3631 45.403 13.4547 45.2282 13.5358 45.0504C13.6123 44.8719 13.683 44.6915 13.7351 44.5099C13.6402 44.8743 13.4995 45.2404 13.3308 45.6011C13.1882 45.8985 13.0309 46.1942 12.8599 46.4851C12.8241 46.5454 12.7878 46.6067 12.7515 46.6679C12.5453 47.0142 12.323 47.3557 12.0923 47.6931C11.9769 47.8621 11.8577 48.0291 11.7356 48.1956L11.7252 48.2097ZM13.093 50.9476C12.9065 51.0187 12.7182 51.0851 12.526 51.1448C12.1433 51.2659 11.7511 51.3697 11.3457 51.4463C10.942 51.5242 10.5384 51.5631 10.1192 51.5703C9.70182 51.5739 9.27385 51.5342 8.84637 51.4369C9.06053 51.4807 9.27477 51.5017 9.48555 51.5132C9.69626 51.5192 9.90424 51.5111 10.1083 51.4935C10.3122 51.475 10.5117 51.4404 10.7079 51.4017C10.9035 51.3595 11.0954 51.3082 11.2836 51.2511C11.6562 51.1336 12.0275 50.9817 12.3741 50.8075C12.5184 50.7355 12.6596 50.6591 12.7988 50.581L13.1085 50.9412L13.093 50.9476ZM13.5406 50.5714L13.2401 50.215C13.3425 50.0935 13.4439 49.9704 13.5424 49.8446C13.783 49.5401 13.9988 49.2248 14.2112 48.8912C14.3143 48.7241 14.4145 48.5545 14.5096 48.3821C14.6017 48.2087 14.6926 48.0337 14.7725 47.8549C14.8517 47.6761 14.9257 47.4947 14.9902 47.3117C15.05 47.1279 15.1047 46.9427 15.1416 46.7573C15.0765 47.1284 14.9696 47.5042 14.8366 47.8754C14.7018 48.2458 14.5426 48.6174 14.3748 48.9753C14.209 49.3335 14.0282 49.6866 13.8404 50.0358C13.7468 50.2112 13.6494 50.3845 13.5492 50.557L13.5406 50.5714ZM15.0165 52.9647C14.8453 53.0454 14.6712 53.1221 14.4932 53.1933C14.1376 53.3359 13.7689 53.4633 13.3837 53.5669C13.3174 53.5832 13.251 53.5994 13.1852 53.6155C12.8683 53.6889 12.5408 53.7424 12.2035 53.7737C11.7941 53.808 11.3677 53.8028 10.9328 53.7424C11.15 53.7679 11.364 53.7715 11.5729 53.7665C11.7815 53.7564 11.9844 53.7323 12.1822 53.7003C12.3799 53.6671 12.5712 53.6193 12.7577 53.5672C12.9436 53.5122 13.1243 53.4488 13.3004 53.3805C13.3744 53.3504 13.4482 53.3195 13.5209 53.2868C13.7899 53.1686 14.0537 53.0303 14.3031 52.8784C14.4339 52.7983 14.5617 52.7156 14.6864 52.6301L15.0312 52.9579C15.026 52.9598 15.0211 52.9625 15.0165 52.9647ZM15.4083 52.5578C15.4062 52.5623 15.4037 52.5675 15.402 52.5726L15.0686 52.2464C15.1533 52.1223 15.236 51.996 15.3167 51.8678C15.4706 51.6227 15.6103 51.371 15.7473 51.1065C15.7834 51.0349 15.8194 50.9636 15.8551 50.8928C15.9361 50.723 16.0145 50.5506 16.0877 50.3756C16.1584 50.2 16.2276 50.0221 16.2866 49.8412C16.3448 49.6602 16.3984 49.4772 16.4429 49.2922C16.483 49.1072 16.5185 48.9206 16.5377 48.7346C16.5079 49.1062 16.4407 49.4838 16.3501 49.8579C16.2725 50.1668 16.1837 50.4741 16.0826 50.778C16.0615 50.8411 16.04 50.905 16.0186 50.969C15.8985 51.3287 15.7657 51.6839 15.6264 52.0347C15.5567 52.2105 15.4838 52.3844 15.4083 52.5578ZM17.3368 54.9251C17.1865 55.0113 17.0327 55.0941 16.8737 55.1717C16.5566 55.3283 16.2246 55.4726 15.8707 55.5968C15.6952 55.6587 15.5103 55.719 15.3264 55.7661C15.1422 55.8132 14.9527 55.854 14.7578 55.8875C14.3691 55.9506 13.9559 55.9785 13.5242 55.9561C13.7392 55.9629 13.9471 55.9495 14.1486 55.9286C14.3482 55.9028 14.5409 55.8652 14.7265 55.8202C14.912 55.7745 15.0895 55.7137 15.2614 55.6514C15.4326 55.5853 15.5941 55.515 15.7565 55.4341C16.0754 55.2708 16.372 55.0896 16.6439 54.8871C16.7569 54.8035 16.8656 54.717 16.9719 54.629L17.3493 54.9176L17.3368 54.9251ZM17.6463 54.519L17.6421 54.533L17.2774 54.2428C17.3388 54.12 17.3991 53.9956 17.4563 53.8687C17.5958 53.5627 17.715 53.2434 17.8219 52.9147C17.8721 52.7513 17.9252 52.5777 17.9708 52.405C18.0142 52.2309 18.0578 52.054 18.0901 51.8751C18.1219 51.6962 18.1493 51.5149 18.1688 51.3325C18.184 51.1494 18.195 50.9651 18.1913 50.7818C18.2065 51.1479 18.1896 51.5204 18.1516 51.8883C18.1306 52.0734 18.1059 52.2575 18.0778 52.4403C18.0496 52.6228 18.0234 52.7965 17.9907 52.9728C17.9285 53.3243 17.8538 53.6702 17.7738 54.0109C17.7345 54.1819 17.6915 54.351 17.6463 54.519ZM19.6638 56.4581C19.5352 56.5435 19.4024 56.6262 19.2638 56.7058C18.9872 56.8649 18.6922 57.0165 18.373 57.1532C18.3168 57.1764 18.2605 57.1997 18.2045 57.2227C17.9317 57.334 17.6486 57.4227 17.3485 57.4952C16.9823 57.5816 16.5851 57.6409 16.1633 57.6528C16.3731 57.6421 16.5719 57.6146 16.7639 57.5798C16.9543 57.5405 17.1341 57.4911 17.3063 57.4361C17.4782 57.3806 17.6389 57.3143 17.7935 57.2457C17.9457 57.1761 18.0931 57.0964 18.2351 57.0129C18.2942 56.9772 18.3527 56.9408 18.4094 56.9032C18.6211 56.7654 18.8169 56.6185 18.9961 56.4607C19.0899 56.3781 19.18 56.2935 19.2665 56.2074L19.6749 56.4509C19.6709 56.453 19.6673 56.4558 19.6638 56.4581ZM22.1082 55.3312C22.1903 55.6379 22.2606 55.9364 22.3185 56.2244C22.3776 56.5139 22.4258 56.7935 22.469 57.0635C22.4886 57.194 22.5084 57.3258 22.5285 57.4589L22.5296 57.4695C22.3857 57.4108 22.2478 57.3375 22.1066 57.2723C22.1201 57.1726 22.132 57.0714 22.1406 56.968C22.1628 56.7181 22.163 56.4563 22.1509 56.1832C22.1425 56.0462 22.1315 55.9062 22.1157 55.763C22.0974 55.6191 22.0776 55.4742 22.0501 55.3225C22.0233 55.1673 21.9936 55.007 21.9559 54.847C21.9145 54.6863 21.8698 54.5227 21.8137 54.3588C21.9335 54.6847 22.028 55.0158 22.1082 55.3312ZM21.3057 58.4358C21.0307 58.571 20.726 58.6978 20.3889 58.8119C20.0545 58.9179 19.6896 58.9943 19.2859 59.043C19.4853 59.0157 19.6706 58.9751 19.847 58.9308C20.0197 58.8834 20.1832 58.8263 20.3363 58.7673C20.4912 58.7041 20.6339 58.6304 20.7701 58.5582C20.904 58.4837 21.0288 58.4062 21.1468 58.327C21.3789 58.1662 21.5836 57.9981 21.7586 57.8183C21.8313 57.7444 21.8992 57.6688 21.9643 57.5929C22.1098 57.6547 22.2518 57.7244 22.4001 57.7796L22.3916 57.7865C22.2848 57.8675 22.177 57.9397 22.0611 58.0123C21.8315 58.1575 21.5827 58.3004 21.3057 58.4358Z" fill="#2A2A61"/>
<path d="M4.63086 20.1349C4.63259 20.1169 4.63334 20.1069 4.63334 20.1069C4.63334 20.1069 4.63236 20.117 4.63086 20.1349Z" fill="#2A2A61"/>
<path d="M5.25526 25.8684L5.23242 25.869L5.25526 25.8684Z" fill="#2A2A61"/>
<path d="M39.2884 34.3419C39.2454 34.3161 39.2069 34.3033 39.1724 34.3033C39.1039 34.3033 39.0696 34.3206 39.0696 34.3547C38.7436 35.5728 38.092 36.5376 37.1141 37.2492C36.1364 37.9612 34.9789 38.317 33.641 38.317H32.7662C32.3198 38.317 31.9983 38.2827 31.8012 38.214C31.6037 38.1456 31.4709 38.0126 31.4023 37.8153C31.3337 37.6185 31.2993 37.2966 31.2993 36.8506V34.8406C31.6883 34.7272 32.0649 34.588 32.4261 34.4178C33.5089 33.9076 34.3525 33.21 34.9566 32.3245C35.5603 31.4394 35.8625 30.4552 35.8625 29.3723C35.8625 27.6441 35.1599 26.3213 33.7537 25.405C33.0333 24.9353 32.2141 24.5878 31.2993 24.359V23.3891C31.2993 22.8745 31.342 22.4927 31.4281 22.2439C31.5138 21.9956 31.6854 21.8239 31.9428 21.7294C32.2001 21.6355 32.5943 21.5881 33.1262 21.5881C33.1775 21.5881 33.2033 21.5367 33.2033 21.4337C33.2033 21.3308 33.1776 21.2794 33.1262 21.2794L31.814 21.3049C31.0248 21.3396 28.6921 21.3396 27.9031 21.3049L26.5911 21.2794C26.5567 21.2794 26.5397 21.3307 26.5397 21.4337C26.5397 21.5367 26.5567 21.5881 26.5911 21.5881C27.1227 21.5881 27.5175 21.6355 27.7746 21.7294C28.032 21.8239 28.2076 21.9913 28.3021 22.231C28.3962 22.4714 28.4436 22.8487 28.4436 23.3632V24.0308C28.4381 24.0308 28.4328 24.0303 28.4272 24.0303C27.5942 24.0303 26.7609 24.0928 25.9279 24.2178V18.2506C25.9279 17.4804 26.0478 16.9542 26.2873 16.673C26.5268 16.3918 26.9795 16.2513 27.6463 16.2513H28.9586C30.2082 16.2513 31.2544 16.6527 32.0979 17.454C32.9414 18.2558 33.5195 19.4589 33.8319 21.0622C33.8733 21.1246 33.9459 21.1562 34.0503 21.1562C34.1546 21.1562 34.2067 21.1246 34.2067 21.0622L33.9569 16.3137C33.9569 15.9601 33.9201 15.7411 33.8473 15.6579C33.774 15.5749 33.5923 15.5329 33.3006 15.5329H20.211C20.1692 15.5329 20.1487 15.5953 20.1487 15.7204C20.1487 15.8455 20.1692 15.9077 20.211 15.9077C20.8562 15.9077 21.3358 15.9654 21.648 16.0794C21.9604 16.1942 22.1685 16.3975 22.2729 16.6886C22.3767 16.9805 22.4291 17.4386 22.4291 18.0633V32.5277C22.4291 33.1526 22.3714 33.6159 22.2569 33.9178C22.1426 34.2199 21.934 34.4231 21.6322 34.527C21.3302 34.6312 20.8461 34.6831 20.1796 34.6831C20.117 34.6831 20.0859 34.7455 20.0859 34.8705C20.0859 34.9955 20.117 35.058 20.1796 35.058C20.8874 35.058 21.4499 35.0477 21.8666 35.0269L24.1473 34.9956C24.6885 34.9956 25.1831 35.0062 25.6311 35.0269C26.0786 35.0478 26.459 35.0683 26.7715 35.0892C27.4025 35.139 27.9577 35.1682 28.4434 35.1783V36.9536C28.4434 37.4683 28.396 37.8499 28.3018 38.0985C28.2074 38.3474 28.0359 38.5146 27.7872 38.6001C27.5383 38.686 27.1398 38.7287 26.5909 38.7287C26.5565 38.7287 26.5395 38.7801 26.5395 38.8831C26.5395 38.9861 26.5565 39.0375 26.5909 39.0375H38.7348C38.8718 39.0375 38.9705 39.0078 39.031 38.9473C39.0909 38.8875 39.1207 38.789 39.1207 38.6518C39.1207 37.5197 39.1982 36.1044 39.3524 34.4062C39.3527 34.3894 39.3308 34.3675 39.2884 34.3419ZM31.9343 26.1857C32.7881 27.0399 33.2153 28.3624 33.2153 30.1535C33.2153 31.5489 32.892 32.6056 32.2466 33.324C32.0446 33.5488 31.7083 33.7386 31.2993 33.893V25.7381C31.5516 25.8715 31.7688 26.0204 31.9343 26.1857ZM28.2087 34.4021C27.2921 34.4021 26.6828 34.2458 26.3811 33.9334C26.0788 33.6209 25.928 33.1526 25.928 32.5276V25.03C26.3655 24.9467 26.8343 24.905 27.334 24.905C27.6781 24.905 28.0559 24.9275 28.4437 24.9701V34.3984C28.3639 34.4006 28.285 34.4021 28.2087 34.4021Z" fill="#2A2A61"/>
</svg>
