<svg width="40" height="53" viewBox="0 0 40 53" fill="none" xmlns="http://www.w3.org/2000/svg">
<path d="M8.72934 15.9742C8.48775 19.9664 9.50168 23.725 11.743 27.1461C13.28 29.4921 15.3667 31.6594 18.1228 33.7721C18.5193 34.0761 19.7229 34.8397 19.7739 34.872L19.9985 35.0144L20.2232 34.872C20.2742 34.8397 21.4776 34.0761 21.874 33.7721C24.6302 31.6591 26.7172 29.4916 28.2541 27.1457C30.4958 23.7244 31.5097 19.9658 31.2677 15.9743C31.1427 13.9123 31.3274 11.7439 31.8163 9.52964L31.9228 9.04752L31.4298 9.02036C26.0662 8.72493 22.1448 5.77616 20.2846 4.04482L19.9988 3.77872L19.713 4.04482C17.853 5.77645 13.9318 8.72555 8.5673 9.02045L8.07422 9.04756L8.18074 9.52974C8.66962 11.7438 8.85429 13.912 8.72934 15.9742ZM19.9989 4.91958C21.9797 6.69294 25.7777 9.39186 30.8965 9.82401C30.4665 11.9497 30.3097 14.0335 30.4302 16.0251C30.8252 22.5389 27.8595 28.1262 21.3637 33.1064C21.094 33.3131 20.3691 33.7825 19.9985 34.0201C19.628 33.7825 18.9029 33.3131 18.6332 33.1064C12.1381 28.1272 9.17249 22.5398 9.56672 16.0249C9.68742 14.0332 9.53054 11.9496 9.10046 9.82401C14.2203 9.3924 18.0182 6.69318 19.9989 4.91958Z" fill="#AC966D"/>
<path d="M23.4812 40.464C23.4775 40.4214 23.4713 40.3797 23.4635 40.3386C23.2838 40.962 21.8014 41.4482 19.9993 41.4482C18.1972 41.4482 16.7148 40.962 16.5352 40.3386C16.5273 40.3797 16.5211 40.4214 16.5175 40.464C16.3075 42.8853 15.4588 44.6741 14.8962 45.6224C14.6168 46.0934 14.6833 46.6912 15.0617 47.087C16.1059 48.179 18.0974 50.3653 19.2054 52.2509C19.3146 52.4367 19.598 52.3604 19.598 52.145V45.7646C19.2819 45.6143 19.0628 45.2929 19.0628 44.9195C19.0628 44.4023 19.4821 43.983 19.9993 43.983C20.5165 43.983 20.9358 44.4023 20.9358 44.9195C20.9358 45.2928 20.7167 45.6142 20.4006 45.7646V52.145C20.4006 52.3604 20.684 52.4367 20.7932 52.2509C21.9013 50.3653 23.8927 48.179 24.9369 47.087C25.3153 46.6912 25.3818 46.0934 25.1024 45.6224C24.5397 44.6741 23.691 42.8853 23.4812 40.464Z" fill="#AC966D"/>
<path d="M6.25905 15.8247C6.01422 19.8712 7.13903 23.9328 9.60234 27.8964C10.4718 29.2956 11.5628 30.5121 12.5153 31.8336C13.3531 32.9959 14.1476 34.1884 14.949 35.3757C15.3108 35.9117 15.6043 36.4131 15.8746 36.9927C16.0911 37.4571 16.8339 38.3294 16.8339 38.8292H16.8338C16.6304 38.9864 16.516 39.1612 16.516 39.3455C16.516 40.0289 18.0752 40.5828 19.9985 40.5828C21.9218 40.5828 23.481 40.0289 23.481 39.3455C23.481 39.1612 23.3666 38.9864 23.1631 38.8292C23.1523 38.5732 23.5928 38.0255 23.7092 37.8091C24.6578 36.0463 25.6528 34.3034 26.8096 32.6674C27.9603 31.0397 29.3395 29.5946 30.3949 27.8964C32.8584 23.9327 33.9832 19.8712 33.7378 15.8247C33.4699 11.3997 34.9426 7.57349 34.9572 7.53601L35.45 6.28182L34.1135 6.45419C30.6891 6.89565 27.3888 6.09137 24.3036 4.06339C21.9696 2.52945 20.6424 0.832843 20.6292 0.815862L19.9996 0L19.3677 0.815909C19.3545 0.83289 18.0275 2.52945 15.6937 4.06334C12.6085 6.09132 9.30782 6.8957 5.88339 6.45414L4.5498 6.28284L5.03946 7.53538C5.05441 7.5734 6.52718 11.3996 6.25905 15.8247ZM16.6192 5.36239C18.2012 4.31526 19.346 3.21549 19.9986 2.51667C20.6511 3.2154 21.7958 4.31516 23.3781 5.36239C26.3866 7.35346 29.7169 8.30459 33.0778 8.14424C32.6178 9.70557 31.9476 12.6294 32.1468 15.9211C32.7216 25.4012 24.8578 32.5018 22.434 34.4522C21.9971 34.8038 20.7648 35.5985 19.9984 36.0828C19.232 35.5986 17.9998 34.804 17.5627 34.4522C15.1392 32.5021 7.27622 25.4025 7.85001 15.921C8.04949 12.6294 7.37917 9.70553 6.91904 8.14419C10.2815 8.30459 13.6109 7.35351 16.6192 5.36239Z" fill="#AC966D"/>
<path d="M36.7813 24.4469C36.9249 24.6014 37.1731 24.6635 37.4222 24.6748C37.6716 24.6863 37.9213 24.6463 38.0761 24.606C38.3448 24.5356 38.6038 24.4105 38.8322 24.2484C39.0584 24.0859 39.2653 23.8889 39.4556 23.6818C39.4891 23.6466 39.61 23.4812 39.7277 23.3347C39.8462 23.1886 39.9544 23.0605 39.9998 23.1127C39.7959 22.873 39.5273 22.6933 39.2821 22.6654C38.9984 22.6334 38.7242 22.6765 38.4546 22.7699C38.3367 22.8106 38.2197 22.8608 38.1036 22.9187C37.9865 22.9763 37.8669 23.0411 37.7496 23.1117C37.5143 23.2529 37.2805 23.4165 37.0539 23.5898C37.024 23.6123 36.9924 23.6377 36.9602 23.665L37.0948 22.9906C37.1357 22.8 37.1656 22.6073 37.1958 22.4146C37.332 22.5558 37.5577 22.5961 37.7802 22.5859C38.003 22.5758 38.2223 22.5147 38.3553 22.4613C38.6132 22.3584 38.8438 22.1893 39.0488 21.9831L39.0461 21.9827L38.2706 21.8628C38.237 21.8817 38.2031 21.8998 38.1691 21.9173C37.9723 22.0185 37.7661 22.1017 37.5532 22.1718C37.4467 22.2071 37.3385 22.2378 37.2285 22.2654C37.2255 22.2662 37.2222 22.2668 37.2192 22.2679L37.27 21.9473C37.3563 21.9418 37.4426 21.9339 37.5285 21.9232C37.6925 21.9026 37.8543 21.8686 38.0126 21.8229L38.0057 21.8218L36.308 21.5594L36.3011 21.5584C36.4367 21.6458 36.5791 21.7254 36.7278 21.7949C36.8057 21.8313 36.8849 21.8656 36.9647 21.8978L36.9072 22.214C36.9046 22.212 36.9018 22.2103 36.8992 22.2087C36.8045 22.1462 36.7123 22.0822 36.6232 22.0156C36.4452 21.8829 36.2763 21.7442 36.122 21.5964C36.0953 21.5708 36.0688 21.5449 36.0433 21.5185C35.9211 21.3943 35.803 21.2609 35.7012 21.1211C35.5792 20.9502 35.4789 20.765 35.413 20.5644C35.4477 20.6629 35.4962 20.7542 35.5484 20.842C35.6033 20.9278 35.6656 21.008 35.7322 21.0847C35.7993 21.161 35.8737 21.2309 35.9502 21.2985C36.0279 21.3647 36.1108 21.4272 36.1929 21.4865C36.2283 21.5109 36.2643 21.5352 36.3011 21.5585L38.0124 21.8231C38.0552 21.8111 38.0976 21.7977 38.1395 21.7838C38.2392 21.7493 38.3348 21.71 38.4271 21.6644C38.5187 21.6169 38.6091 21.5654 38.6942 21.5039C38.7791 21.442 38.8609 21.374 38.9373 21.2968C39.0117 21.2167 39.0835 21.1307 39.1441 21.0321C39.0253 21.2342 38.8778 21.406 38.7142 21.5518C38.5779 21.6703 38.4326 21.7742 38.2705 21.863L39.0487 21.9833C39.1333 21.9007 39.2082 21.8114 39.2771 21.7179C39.3469 21.6246 39.4125 21.5274 39.4746 21.4286C39.4979 21.3908 39.5856 21.2172 39.6675 21.0624C39.7499 20.9079 39.8315 20.7728 39.8734 20.8204C39.7777 20.7107 39.6668 20.6166 39.5549 20.5492C39.4433 20.4818 39.3316 20.4412 39.2286 20.4377C38.9897 20.429 38.7704 20.4947 38.5485 20.6088C38.1617 20.8091 37.7768 21.1577 37.3998 21.5405C37.3746 21.5671 37.3481 21.595 37.3212 21.6233L37.4518 20.5304C37.5717 20.6601 37.7683 20.6827 37.9591 20.6553C38.1496 20.6282 38.3362 20.5511 38.4438 20.4879C38.8238 20.2683 39.0967 19.8384 39.2776 19.381C39.2936 19.342 39.3391 19.1639 39.3838 19.0054C39.4273 18.8468 39.4703 18.7082 39.51 18.7522C39.3255 18.5491 39.122 18.412 38.9629 18.4186C38.7785 18.4265 38.6125 18.5063 38.45 18.6354C38.3078 18.7481 38.1693 18.8983 38.0268 19.0714C37.8881 19.2446 37.7341 19.4398 37.5823 19.6442C37.5622 19.671 37.541 19.7007 37.5193 19.7324L37.5462 19.3902L37.5592 19.2192L37.5662 19.0477L37.5893 18.4643C37.6881 18.5844 37.8427 18.5917 37.9873 18.5503C38.1324 18.5089 38.2666 18.4184 38.3439 18.3478C38.4944 18.2116 38.6126 18.0153 38.6858 17.7881L38.6841 17.788L38.2038 17.7739C38.1871 17.797 38.1697 17.8191 38.152 17.8409C38.1007 17.9037 38.0461 17.9626 37.9887 18.018C37.9299 18.0736 37.867 18.1256 37.8026 18.1748C37.7378 18.2243 37.6707 18.2697 37.6011 18.3124C37.5992 18.3134 37.5971 18.3146 37.5952 18.316L37.6068 17.9922C37.6599 17.9751 37.7123 17.9554 37.7638 17.9331C37.8621 17.8905 37.9564 17.8352 38.044 17.7691H38.0452C38.0683 17.7518 38.0912 17.7339 38.1135 17.7149C38.1666 17.6679 38.2171 17.6168 38.2639 17.5602C38.31 17.5015 38.3535 17.4401 38.3912 17.3693C38.4289 17.2981 38.461 17.2214 38.4871 17.1374C38.5116 17.0505 38.5313 16.9585 38.5418 16.8561C38.5231 17.0654 38.4796 17.2505 38.4105 17.4129C38.3535 17.5458 38.2843 17.6659 38.2045 17.7739L38.6858 17.788H38.6865C38.7457 17.6052 38.7865 17.4031 38.8061 17.1977C38.8102 17.1583 38.8141 16.9803 38.8165 16.8223C38.8162 16.6644 38.8114 16.5266 38.8464 16.567C38.6851 16.3803 38.5316 16.2579 38.4366 16.2732C38.3266 16.2912 38.2407 16.3789 38.1543 16.516C38.0952 16.6094 38.0392 16.7258 37.9748 16.8585C37.9103 16.9911 37.8431 17.14 37.7715 17.2985C37.7868 17.1301 37.7972 16.9328 37.7923 16.7091C37.7863 16.4855 37.7682 16.2356 37.7383 15.9626C37.7029 15.6455 37.6521 15.3512 37.6041 15.0883C37.5561 14.8254 37.5109 14.5939 37.4786 14.4012C37.4223 14.078 37.4006 13.865 37.395 13.8049C37.397 13.8293 37.4009 13.8782 37.4047 13.9504C37.4098 14.0564 37.4138 14.2114 37.4081 14.4064C37.4036 14.6013 37.3885 14.8361 37.3669 15.1007C37.3455 15.3653 37.3175 15.6595 37.297 15.9737C37.2806 16.2355 37.2675 16.4744 37.2617 16.6891C37.2551 16.9037 37.2514 17.0941 37.2601 17.2583C37.1345 16.9557 37.024 16.6979 36.9074 16.5262C36.8191 16.3956 36.7298 16.3147 36.6196 16.301C36.5241 16.2893 36.375 16.41 36.2162 16.5842C36.2504 16.5462 36.2489 16.6738 36.2463 16.8198C36.2431 16.9658 36.2406 17.1303 36.2432 17.1668C36.2556 17.3571 36.289 17.5455 36.3416 17.719H36.3423L36.5785 17.7259L36.344 17.719L36.3423 17.719C36.3751 17.8267 36.4211 17.9287 36.4686 18.0213C36.5167 18.1139 36.5741 18.1975 36.6413 18.2685C36.7105 18.3419 36.8341 18.4411 36.9739 18.4963C37.1131 18.5513 37.2674 18.5621 37.379 18.4535L37.337 19.0318L37.3248 19.2018L37.3065 19.3711L37.2695 19.7098C37.2542 19.675 37.2387 19.6423 37.2239 19.6128C37.1111 19.3875 37.0023 19.1771 36.8772 18.992C36.7548 18.8071 36.6336 18.6489 36.5045 18.5283C36.3568 18.3901 36.2004 18.3018 36.0178 18.2778C35.8602 18.2575 35.6429 18.3632 35.4382 18.5211C35.4824 18.4867 35.5106 18.6127 35.537 18.7576C35.5654 18.9105 35.5937 19.0634 35.601 19.103C35.6992 19.5294 35.8915 19.9589 36.2246 20.2409C36.3199 20.3215 36.4769 20.4323 36.6563 20.5014C36.8344 20.5701 37.0306 20.5962 37.1803 20.4989L37.0233 21.578C37.0069 21.542 36.9876 21.5076 36.9705 21.4767C36.7062 21.004 36.4216 20.5906 36.0958 20.3277C35.9078 20.177 35.6978 20.0741 35.4637 20.0341C35.2589 19.999 34.9997 20.0862 34.7565 20.2248C34.8086 20.1947 34.8556 20.3228 34.8983 20.4696C34.9406 20.6162 34.9835 20.7822 34.9969 20.8197C35.068 21.0151 35.1592 21.213 35.2649 21.3982C35.3958 21.6285 35.5612 21.8424 35.7721 22.0144C35.8811 22.1033 36.0685 22.2294 36.275 22.3148C36.4814 22.3997 36.7065 22.4434 36.8811 22.3589C36.8473 22.5488 36.8139 22.7388 36.7694 22.9266L36.6237 23.5909C36.6053 23.5528 36.5865 23.5167 36.5681 23.4841C36.4301 23.2349 36.2798 22.9993 36.118 22.7898C36.0367 22.6848 35.9538 22.5867 35.8642 22.4957C35.7734 22.4045 35.6793 22.321 35.5809 22.2465C35.3563 22.0759 35.1102 21.953 34.832 21.8896C34.5913 21.8351 34.2819 21.8951 34.0173 22.0118C34.0734 21.9861 34.1451 22.121 34.2015 22.2723C34.2569 22.4232 34.3075 22.593 34.3255 22.6321C34.4248 22.8594 34.542 23.0908 34.6883 23.3098C34.8344 23.5285 35.002 23.7329 35.2124 23.9077C35.3321 24.0073 35.5359 24.1517 35.7619 24.2573C35.9876 24.3625 36.2348 24.4282 36.4339 24.3605L36.298 24.8877L36.1433 25.4096C36.1255 25.3698 36.1071 25.3321 36.089 25.2979C35.9515 25.0363 35.8049 24.7891 35.6257 24.5623C35.4491 24.336 35.2585 24.1351 35.046 23.9688C34.8034 23.7787 34.5338 23.6339 34.2275 23.5457C33.9629 23.4695 33.6222 23.5019 33.3348 23.595C33.397 23.5747 33.4724 23.7148 33.5399 23.8729C33.6089 24.0312 33.6734 24.2087 33.6901 24.2488C33.7851 24.4597 33.8924 24.675 34.0246 24.8841C34.1881 25.1437 34.3874 25.3939 34.6292 25.6079C34.7533 25.7179 34.9642 25.8801 35.1996 26.0051C35.4348 26.1298 35.6941 26.2169 35.9102 26.1666L35.7246 26.7138L35.6154 27.0353L35.494 27.3523C35.4775 27.3109 35.4604 27.2714 35.4432 27.2354C35.3778 27.0978 35.312 26.9646 35.2338 26.8329C35.156 26.7014 35.0734 26.5742 34.9854 26.4527C34.8096 26.2098 34.6122 25.9897 34.3909 25.8027C34.1386 25.5887 33.8537 25.4182 33.5286 25.3008C33.2477 25.1999 32.8841 25.1998 32.5816 25.2666C32.6466 25.2517 32.7291 25.4001 32.8016 25.5661C32.874 25.7317 32.9364 25.915 32.9563 25.9579C33.0159 26.0839 33.0728 26.2087 33.1363 26.3341C33.201 26.4598 33.2711 26.5856 33.348 26.7095C33.5018 26.957 33.6829 27.1971 33.9042 27.4121C34.0321 27.5356 34.2435 27.7176 34.4807 27.8644C34.7183 28.0111 34.9815 28.1217 35.2096 28.0912L34.9959 28.5911C34.9237 28.7572 34.8558 28.9253 34.78 29.0899C34.7658 29.0471 34.7513 29.0066 34.7347 28.9686C34.4911 28.3918 34.1619 27.8551 33.7206 27.4444C33.4643 27.2074 33.1725 27.0111 32.8401 26.8659C32.6964 26.803 32.5322 26.7648 32.3659 26.7477C32.1987 26.7302 32.0329 26.7356 31.8767 26.7562C31.9435 26.7468 32.0255 26.9026 32.0959 27.0752C32.1661 27.2473 32.2247 27.4364 32.2437 27.4812C32.3414 27.7133 32.4557 27.9555 32.5796 28.1878C32.7349 28.4775 32.9204 28.7621 33.1555 29.02C33.2774 29.1533 33.4843 29.3538 33.7175 29.5205C33.9508 29.6869 34.2106 29.8187 34.4406 29.8047C34.3612 29.98 34.2688 30.1488 34.1798 30.3192L33.8643 30.9196C33.8527 30.8754 33.8392 30.8326 33.8258 30.7935C33.7248 30.4952 33.6001 30.2043 33.4474 29.932C33.2935 29.6589 33.1167 29.4076 32.8988 29.1789C32.6525 28.9185 32.3667 28.6961 32.0375 28.5215C31.7529 28.3711 31.3818 28.3107 31.0778 28.331C31.1446 28.327 31.2244 28.492 31.2881 28.671C31.3526 28.8502 31.4037 29.0454 31.4208 29.0921C31.471 29.2278 31.5238 29.3659 31.581 29.5047C31.6096 29.5741 31.6397 29.6439 31.6709 29.7134C31.7008 29.7821 31.7321 29.8507 31.7649 29.9192C31.896 30.1926 32.0516 30.4626 32.2475 30.7133C32.3597 30.8568 32.5512 31.0745 32.7705 31.2603C32.9898 31.4458 33.2376 31.5987 33.4681 31.604C33.4221 31.6819 33.3789 31.7616 33.3306 31.8382L33.1848 32.0672L32.8934 32.5253C32.8852 32.4802 32.8758 32.4369 32.8658 32.3971C32.7909 32.0934 32.6903 31.7946 32.5589 31.5119C32.4296 31.2307 32.2596 30.9588 32.0609 30.7157C31.833 30.4372 31.5618 30.193 31.2453 29.9933C30.9714 29.8208 30.6089 29.7329 30.3096 29.731C30.3745 29.7312 30.4468 29.904 30.504 30.091C30.5592 30.2755 30.5992 30.4749 30.6136 30.5227C30.6885 30.7724 30.7704 31.03 30.8696 31.2864C30.9899 31.6024 31.1302 31.9121 31.3216 32.2044C31.4207 32.3552 31.591 32.5853 31.7904 32.7853C31.9901 32.9852 32.2196 33.1545 32.4465 33.1769C32.3361 33.3342 32.2287 33.4937 32.1089 33.6439L31.6964 34.1815C31.6931 34.1363 31.6884 34.0928 31.6826 34.0527C31.6406 33.747 31.5713 33.4434 31.4691 33.153C31.3688 32.864 31.2279 32.5818 31.0529 32.3235C30.8535 32.0281 30.6074 31.7635 30.3143 31.5401C30.0602 31.3472 29.7158 31.2327 29.4296 31.2103C29.4914 31.2144 29.5524 31.3948 29.5939 31.5851C29.6354 31.7742 29.66 31.9769 29.6703 32.026C29.7308 32.3113 29.799 32.609 29.8835 32.9005C29.9658 33.1895 30.0679 33.4768 30.2081 33.7497C30.2887 33.9059 30.4293 34.1452 30.6002 34.3565C30.7715 34.5675 30.9742 34.7502 31.191 34.7885L31.0162 34.9961L30.8323 35.1953L30.4634 35.5931C30.4654 35.549 30.4659 35.5064 30.4649 35.4669C30.4591 35.1661 30.4255 34.8648 30.3569 34.5731C30.3238 34.4283 30.2783 34.2825 30.2237 34.14C30.1696 33.998 30.1064 33.8599 30.0341 33.7268C29.869 33.4223 29.6549 33.1442 29.392 32.9042C29.1643 32.6966 28.8441 32.562 28.5747 32.5242C28.6334 32.5324 28.6767 32.7144 28.7035 32.9093C28.7299 33.1024 28.7346 33.3033 28.7407 33.3532C28.7706 33.61 28.8023 33.8739 28.8481 34.138C28.903 34.4634 28.9692 34.7789 29.0845 35.0837C29.1441 35.2408 29.251 35.4819 29.3895 35.6968C29.5287 35.9117 29.7004 36.1003 29.9044 36.1509L29.6987 36.3525C29.6286 36.418 29.5553 36.4802 29.4838 36.5442L28.9763 36.9927C28.985 36.9512 28.9911 36.91 28.9958 36.8722C29.0324 36.5835 29.0416 36.2916 29.0149 36.0056C29.0017 35.8624 28.9795 35.721 28.9477 35.5822C28.9141 35.4411 28.8701 35.3015 28.8175 35.1673C28.6975 34.86 28.5265 34.5748 28.3054 34.3246C28.1138 34.1085 27.8276 33.9594 27.5824 33.9123C27.6089 33.9173 27.6284 33.966 27.6418 34.038C27.6559 34.1109 27.6626 34.205 27.6627 34.2987C27.6647 34.4883 27.6473 34.6883 27.6468 34.7369C27.6459 34.8791 27.6445 35.0228 27.6467 35.1693C27.6491 35.3093 27.6515 35.4526 27.6539 35.5999C27.6624 35.8825 27.6846 36.1614 27.7436 36.4302C27.7776 36.5838 27.8432 36.819 27.9415 37.0294C28.0404 37.24 28.1732 37.4259 28.3584 37.4843L28.2519 37.5684L28.1414 37.6469L27.9202 37.8039C27.7723 37.9077 27.6271 38.0159 27.4767 38.1163C27.4924 38.0798 27.5053 38.0429 27.5154 38.0075C27.5954 37.7418 27.6474 37.4678 27.6642 37.1973C27.6726 37.062 27.672 36.9274 27.6617 36.7944C27.6507 36.6606 27.6275 36.5243 27.596 36.3939C27.5233 36.0943 27.398 35.8116 27.2223 35.5624C27.0693 35.346 26.8215 35.1946 26.6018 35.1473C26.649 35.1563 26.6525 35.3435 26.6277 35.5242C26.6052 35.7077 26.562 35.8998 26.5559 35.9479C26.5389 36.0695 26.5217 36.1935 26.504 36.3203C26.4957 36.3818 26.4874 36.444 26.4791 36.5069C26.4704 36.5659 26.4616 36.6257 26.4527 36.6861L26.8762 37.3467C26.8764 37.1615 26.8785 36.9645 26.8858 36.7645C26.8971 36.5231 26.9204 36.2771 26.9647 36.0373C26.9454 36.158 26.9349 36.2788 26.9274 36.3991C26.9228 36.52 26.9235 36.6393 26.9266 36.7566C26.9303 36.874 26.94 36.9893 26.9507 37.1025C26.9635 37.2164 26.9777 37.3252 26.9932 37.4314C27.0008 37.4759 27.0086 37.5205 27.0164 37.5655L27.4817 38.2918L27.0202 37.5714L27.0164 37.5655C27.0464 37.7306 27.0825 37.8916 27.1274 38.0476C27.1512 38.1292 27.1763 38.2096 27.203 38.2885L26.9322 38.4593C26.9322 38.4562 26.9318 38.4531 26.9314 38.4502C26.9211 38.3439 26.9122 38.2369 26.9053 38.1284C26.8912 37.9119 26.8804 37.6901 26.877 37.4643C26.8768 37.425 26.8765 37.3855 26.8762 37.3467L26.4542 36.6883L26.4527 36.686C26.4117 36.9821 26.3853 37.2761 26.3987 37.5518C26.4063 37.6949 26.4302 37.9131 26.4887 38.1084C26.5456 38.3 26.6427 38.4776 26.8084 38.5374C26.6439 38.6367 26.4731 38.7249 26.3056 38.8192L26.009 38.9833C25.9095 39.0367 25.8057 39.0818 25.7043 39.1314C25.7261 39.1001 25.7459 39.0693 25.763 39.0405C25.8968 38.8268 25.9931 38.5775 26.059 38.3362C26.124 38.0933 26.1533 37.848 26.1412 37.6106C26.1279 37.3389 26.0563 37.0698 25.9348 36.8365C25.8819 36.7352 25.8038 36.649 25.7154 36.5835C25.6711 36.5507 25.6241 36.523 25.5762 36.5013C25.5277 36.4783 25.4776 36.4597 25.4286 36.4486C25.4715 36.4586 25.441 36.6262 25.3893 36.8003C25.3383 36.9747 25.2656 37.1555 25.251 37.1992C25.2303 37.2632 25.2094 37.3279 25.1882 37.3934C25.1665 37.4571 25.1434 37.5172 25.1213 37.579C25.079 37.6973 25.0357 37.8185 24.9913 37.9431C24.9093 38.1831 24.8404 38.4197 24.8011 38.6301C24.7786 38.7499 24.7556 38.9315 24.7702 39.094C24.7852 39.2569 24.8388 39.401 24.9856 39.4611L24.8701 39.5078C24.9029 39.5694 24.936 39.6308 24.9532 39.6989C24.9543 39.7036 24.9543 39.708 24.9553 39.7126L25.0705 39.6704C25.0036 39.8127 25.0606 39.9556 25.166 40.0836C25.271 40.2114 25.4255 40.3245 25.5375 40.3925C25.7317 40.5088 25.9702 40.595 26.2434 40.6749C26.3792 40.7134 26.5231 40.7489 26.6726 40.7824C26.7471 40.7988 26.8241 40.8165 26.9001 40.8305C26.9773 40.8435 27.0538 40.8561 27.1292 40.8687C27.1815 40.8766 27.4108 40.8958 27.6278 40.9269C27.844 40.9578 28.0476 41.0003 28.021 41.0474C28.0833 40.9412 28.1127 40.8163 28.1114 40.6969C28.1103 40.5777 28.0784 40.4633 28.014 40.369C27.8639 40.1497 27.6535 39.9772 27.4051 39.8337C27.187 39.7063 26.9438 39.6069 26.6928 39.5328C26.4408 39.4573 26.1848 39.415 25.9215 39.3712C25.8873 39.3659 25.8499 39.3614 25.811 39.3578C25.9157 39.3102 26.0226 39.2673 26.1255 39.2159L26.4319 39.0575C26.6048 38.966 26.7815 38.881 26.9514 38.7841C26.9228 38.965 27.0176 39.1316 27.1612 39.2804C27.3021 39.4252 27.4879 39.5441 27.6185 39.6118C27.8698 39.7417 28.1746 39.8327 28.5109 39.8973C28.5785 39.9104 28.6476 39.9225 28.7176 39.9337C28.7863 39.943 28.8555 39.9511 28.9259 39.9587C29.0665 39.9737 29.2107 39.9858 29.3565 39.9961C29.4126 40.0009 29.6507 39.9975 29.8778 40.0077C30.1067 40.0202 30.3119 40.034 30.2994 40.0937C30.3648 39.8242 30.3089 39.5232 30.1339 39.3239C29.9332 39.0943 29.6749 38.9151 29.3915 38.7799C29.2672 38.7201 29.1396 38.6708 29.0058 38.625C28.8713 38.5783 28.7335 38.5388 28.5947 38.5058C28.3172 38.4399 28.0342 38.3984 27.7598 38.3789C27.7223 38.3766 27.6827 38.3741 27.6426 38.3717C27.7983 38.2729 27.9486 38.1661 28.1019 38.0637L28.3307 37.9082L28.445 37.8304L28.5552 37.7471C28.5599 37.9462 28.6955 38.1298 28.8707 38.2808C29.0454 38.4317 29.261 38.55 29.4087 38.6149C29.6665 38.7288 29.9581 38.7975 30.2739 38.8406C30.3527 38.8513 30.433 38.8602 30.5145 38.8677C30.5947 38.8741 30.6747 38.8777 30.7564 38.8808C30.9198 38.8871 31.0848 38.8861 31.2513 38.8827C31.3081 38.8816 31.5492 38.8568 31.7806 38.847C31.897 38.8429 32.008 38.8403 32.0886 38.8461C32.17 38.8525 32.223 38.8689 32.2213 38.9011C32.2364 38.6031 32.1253 38.2851 31.9142 38.0879C31.6702 37.8597 31.3779 37.6915 31.0651 37.5701C30.9282 37.5167 30.7874 37.4722 30.6438 37.4348C30.4979 37.3953 30.3497 37.3632 30.2012 37.3377C29.904 37.2868 29.6054 37.2625 29.3164 37.2569C29.2783 37.2559 29.2377 37.2566 29.195 37.2579L29.7202 36.8096C29.7942 36.7456 29.87 36.6832 29.9426 36.6176L30.1555 36.4155C30.1947 36.625 30.369 36.8112 30.5777 36.9591C30.7858 37.1069 31.0294 37.2161 31.1928 37.2731C31.5067 37.3822 31.8597 37.4348 32.2236 37.4434C32.513 37.4478 32.8127 37.4261 33.1141 37.3937C33.171 37.3872 33.4135 37.3414 33.6432 37.3086C33.8669 37.2721 34.0824 37.2519 34.0903 37.3198C34.0554 37.0066 33.8927 36.6868 33.647 36.5004C33.3636 36.2845 33.0402 36.1348 32.702 36.0337C32.554 35.9895 32.403 35.9547 32.2507 35.9278C32.0992 35.9015 31.9448 35.8819 31.7867 35.8658C31.473 35.8356 31.1602 35.8316 30.8591 35.8456C30.8196 35.8473 30.7771 35.8504 30.7333 35.8549L31.1142 35.4539L31.3042 35.2528L31.4844 35.0433C31.5529 35.2559 31.7578 35.4358 31.992 35.5731C32.2256 35.7106 32.4894 35.8052 32.6635 35.8515C32.967 35.9326 33.2906 35.9597 33.6255 35.952C33.956 35.9412 34.2865 35.8882 34.6203 35.824C34.6771 35.813 34.9113 35.7447 35.1385 35.6935C35.3622 35.6406 35.5703 35.6 35.5885 35.6698C35.5103 35.3515 35.3057 35.0382 35.0363 34.8674C34.7248 34.67 34.3819 34.5432 34.0283 34.4668C33.7194 34.4 33.4036 34.3726 33.0793 34.3636C32.7577 34.3566 32.4391 34.3757 32.133 34.4113C32.0926 34.4157 32.0496 34.422 32.0053 34.4296L32.4297 33.8853C32.5532 33.7332 32.6632 33.5714 32.7765 33.4119C32.8717 33.6215 33.1032 33.7879 33.3584 33.9087C33.6134 34.0298 33.8929 34.1044 34.075 34.1372C34.4245 34.1998 34.7958 34.1966 35.1603 34.1436L35.1573 34.1415L34.2779 33.556C34.2287 33.5527 34.1798 33.5484 34.131 33.5436C33.8446 33.5132 33.563 33.463 33.2861 33.3999C33.1475 33.3686 33.0105 33.3326 32.8743 33.2934C32.8705 33.2923 32.8664 33.2911 32.8626 33.2901L33.0508 33.0239C33.154 33.0709 33.2587 33.1156 33.3648 33.158C33.5673 33.2386 33.7764 33.3071 33.9853 33.3611C34.0418 33.3762 34.0987 33.39 34.1557 33.403C34.2908 33.432 34.4277 33.4568 34.5663 33.4749C34.7048 33.491 34.8455 33.5033 34.9874 33.5043C35.1291 33.5047 35.2724 33.4987 35.4165 33.482C35.5602 33.4618 35.705 33.4347 35.8476 33.3919C35.5639 33.4843 35.2737 33.5366 34.9859 33.5585C34.7483 33.5745 34.5115 33.5727 34.2779 33.556L35.1604 34.1436C35.4512 34.0999 35.744 34.0274 36.0325 33.9428C36.0877 33.9268 36.3121 33.8375 36.531 33.7658C36.7435 33.6916 36.9468 33.6335 36.9731 33.7019C36.8551 33.3871 36.6145 33.0888 36.3266 32.9402C35.9941 32.7681 35.6384 32.6697 35.2766 32.6222C34.9593 32.5804 34.6418 32.5803 34.3144 32.5978C33.9899 32.6172 33.6699 32.6622 33.3626 32.7223C33.3222 32.7299 33.2791 32.7396 33.235 32.7507L33.5331 32.2855L33.6823 32.0529C33.7316 31.9752 33.7755 31.8942 33.8224 31.815C33.9382 32.0183 34.1877 32.1681 34.4557 32.2698C34.7235 32.3719 35.0103 32.4251 35.1949 32.4436C35.5169 32.4765 35.8439 32.4507 36.1705 32.3871C36.5024 32.326 36.8083 32.2154 37.1169 32.095C37.1694 32.0743 37.3793 31.9662 37.5851 31.8763C37.7916 31.787 37.9905 31.7151 38.021 31.781C37.8716 31.4744 37.6046 31.1941 37.3084 31.0681C36.9657 30.9223 36.6077 30.8521 36.2471 30.8339C35.9328 30.8181 35.6037 30.8361 35.286 30.8819C34.9669 30.927 34.6528 30.9972 34.3514 31.0811C34.3116 31.0919 34.2697 31.1051 34.2261 31.1195L34.5463 30.5088C34.6364 30.3354 34.7304 30.1638 34.8105 29.9855C34.9427 30.1784 35.204 30.3072 35.4786 30.3861C35.7531 30.4654 36.0412 30.4942 36.2247 30.497C36.5791 30.5028 36.9306 30.4361 37.2751 30.3255L37.2718 30.324L36.3094 29.8859C36.2602 29.8903 36.211 29.8936 36.1619 29.8965C35.8786 29.9131 35.5947 29.9093 35.3113 29.8914C35.1695 29.8827 35.0279 29.8691 34.8861 29.852C34.8823 29.8516 34.8779 29.851 34.874 29.8506L35.0127 29.556C35.1222 29.5859 35.233 29.6135 35.3444 29.6383C35.5572 29.6854 35.7723 29.719 35.9892 29.7402L35.9806 29.7362L33.8742 28.7773L33.8656 28.7734C34.0247 28.9167 34.1906 29.0545 34.3642 29.1842C34.4553 29.2522 34.5478 29.3184 34.641 29.3828L34.5035 29.6723L34.4948 29.6637C34.3921 29.564 34.2915 29.4636 34.1939 29.3614C33.9988 29.1577 33.8107 28.9504 33.6354 28.7384C33.6054 28.7013 33.5753 28.6642 33.5457 28.6277C33.4052 28.452 33.271 28.2699 33.1477 28.0845C33.0018 27.8596 32.8776 27.6283 32.7879 27.3933C32.8358 27.51 32.8974 27.6237 32.9633 27.7356C33.0325 27.8466 33.1094 27.9545 33.1903 28.0603C33.2717 28.1659 33.3612 28.2676 33.4522 28.3676C33.5458 28.4672 33.6406 28.5626 33.7383 28.6565C33.7804 28.6951 33.8229 28.7341 33.8656 28.7733L35.9893 29.74C36.0477 29.7461 36.1063 29.7508 36.1648 29.7548C36.3028 29.7622 36.4435 29.7659 36.5794 29.7609C36.7157 29.7541 36.853 29.7431 36.9887 29.7207C37.1242 29.6977 37.2594 29.6681 37.3929 29.6276C37.5248 29.5837 37.6563 29.5327 37.7817 29.4666C37.5335 29.6054 37.2687 29.7056 36.9981 29.7749C36.886 29.8024 36.7732 29.8255 36.6594 29.8443C36.544 29.8625 36.4263 29.8759 36.3095 29.8858L37.2753 30.3253C37.5581 30.2389 37.8136 30.1151 38.0693 29.9837C38.118 29.9585 38.3104 29.8322 38.4993 29.7245C38.6882 29.6172 38.8739 29.5286 38.9101 29.5913C38.8264 29.4462 38.7078 29.3077 38.5787 29.195C38.4487 29.082 38.3036 28.9935 38.1548 28.9436C37.8112 28.8282 37.4601 28.7897 37.1091 28.8022C36.4853 28.8217 35.8562 28.9925 35.2757 29.2102C35.2379 29.2246 35.1955 29.2403 35.1529 29.258C35.2293 29.0906 35.297 28.9195 35.3695 28.7504L35.5835 28.2417C35.7222 28.4219 35.9868 28.5293 36.2621 28.5867C36.5383 28.6448 36.8232 28.6514 36.9996 28.639C37.3098 28.6183 37.6117 28.5386 37.9032 28.4217C38.193 28.3046 38.4808 28.1522 38.7342 27.9805C38.7781 27.9513 38.9488 27.8098 39.1173 27.6871C39.2858 27.5647 39.4522 27.4615 39.4923 27.5213C39.3042 27.245 39.0174 27.0143 38.728 26.9389C38.393 26.8517 38.0547 26.841 37.7178 26.8811C37.4225 26.9157 37.1274 26.9888 36.8383 27.0858C36.5495 27.1832 36.2669 27.3045 35.9827 27.4327C35.9456 27.4495 35.9063 27.4689 35.8663 27.4899L35.9865 27.1672L36.094 26.8401L36.2764 26.2835C36.4201 26.4503 36.6805 26.5342 36.9462 26.5672C37.2122 26.6006 37.4833 26.5826 37.653 26.5558C37.9789 26.5038 38.2821 26.3795 38.5706 26.2145C38.8022 26.0816 39.0187 25.9207 39.2246 25.7509C39.2655 25.7189 39.4086 25.563 39.5525 25.4266C39.6936 25.2898 39.8333 25.1723 39.8766 25.228C39.6766 24.9703 39.3949 24.7668 39.1235 24.7176C38.8097 24.6602 38.4992 24.679 38.1919 24.7479C37.923 24.8081 37.6575 24.9071 37.3942 25.0287C37.135 25.1513 36.8648 25.2931 36.6093 25.4465C36.5754 25.4665 36.5396 25.4891 36.503 25.5135L36.6521 24.9828L36.7813 24.4469ZM37.7092 20.0153C37.8818 19.9739 38.0491 19.9111 38.2082 19.8309C38.2874 19.789 38.3647 19.743 38.4389 19.691C38.5125 19.6368 38.5837 19.5797 38.6492 19.5125C38.7139 19.4449 38.7772 19.3714 38.8308 19.2896C38.8819 19.205 38.9286 19.1146 38.966 19.0128C38.9304 19.117 38.8879 19.2143 38.8395 19.3052C38.7892 19.3959 38.7307 19.4801 38.6687 19.558C38.5432 19.7126 38.3985 19.8465 38.2433 19.9612C38.0878 20.077 37.921 20.175 37.7454 20.261C37.6576 20.3047 37.5675 20.3436 37.4756 20.3795L37.4677 20.3823L37.4936 20.0592C37.5658 20.0469 37.6378 20.0329 37.7092 20.0153ZM37.4583 17.4558L37.4975 16.7742C37.5048 16.5467 37.5085 16.3191 37.5091 16.0915L37.5073 15.7502L37.4997 15.4086L37.5163 15.7499L37.5314 16.091L37.5559 16.7741L37.5684 17.458L37.5754 17.7453L37.5757 17.7552L37.7057 17.7591L37.4393 17.7512L37.4421 17.7096L37.4583 17.4558ZM37.1305 17.7422L36.9883 17.738L36.985 17.7379L37.1305 17.7422ZM37.1988 18.1493C37.1399 18.0958 37.0842 18.0404 37.0302 17.9824C36.9748 17.9244 36.9224 17.8639 36.8735 17.8004C36.8565 17.7784 36.84 17.7561 36.8243 17.7331L36.8234 17.733C36.7476 17.625 36.6828 17.5076 36.6307 17.3798C36.5674 17.2236 36.5307 17.0488 36.5197 16.852C36.5265 16.9482 36.5428 17.035 36.5641 17.1173C36.5872 17.1971 36.6165 17.2704 36.6516 17.3392C36.6866 17.4075 36.7278 17.4676 36.7717 17.5257C36.8165 17.5819 36.8652 17.6333 36.9164 17.6816C36.9379 17.7011 36.9602 17.7196 36.9827 17.7378L36.9839 17.7379C37.069 17.8068 37.161 17.8668 37.2576 17.9155C37.3083 17.9409 37.36 17.9641 37.4123 17.9851L37.3894 18.3064C37.3876 18.3047 37.3857 18.3034 37.3839 18.3022C37.3196 18.2536 37.2578 18.2031 37.1988 18.1493ZM36.9501 20.1763C36.7939 20.0574 36.6477 19.9321 36.5159 19.7957C36.384 19.6603 36.266 19.5126 36.1698 19.3522C36.1221 19.2715 36.0813 19.1867 36.0452 19.0975C36.007 19.0081 35.9753 18.9142 35.9511 18.8157C35.9772 18.9123 36.0139 19.0004 36.0555 19.0846C36.0985 19.1664 36.1445 19.2421 36.1972 19.3139C36.2496 19.3852 36.3095 19.449 36.3723 19.5112C36.4359 19.5715 36.5038 19.6276 36.5739 19.6807C36.7158 19.7839 36.8688 19.8747 37.0307 19.9481C37.0976 19.9788 37.1657 20.0067 37.2343 20.0331L37.1999 20.3526L37.1928 20.3482C37.1092 20.2931 37.0282 20.2362 36.9501 20.1763ZM36.8922 23.9865C36.9899 23.9891 37.0879 23.99 37.186 23.9873C37.423 23.9819 37.6538 23.9533 37.8821 23.9062C37.9957 23.8808 38.1083 23.8509 38.2188 23.8144C38.3287 23.7757 38.4377 23.7337 38.5424 23.6806C38.6469 23.6271 38.7491 23.5668 38.8466 23.4976C38.943 23.4253 39.0336 23.3457 39.1168 23.2533C38.9557 23.444 38.7647 23.601 38.5605 23.7299C38.3553 23.8575 38.1369 23.9612 37.91 24.0435C37.6841 24.1273 37.4399 24.1888 37.1973 24.2385C37.0749 24.2638 36.9516 24.284 36.8268 24.3009L36.8163 24.302L36.8922 23.9865ZM25.1221 39.4057L25.1229 39.3985C25.1365 39.3072 25.1501 39.2169 25.1637 39.1273C25.1933 38.9422 25.2263 38.7505 25.2669 38.552C25.3065 38.3545 25.3548 38.1498 25.4111 37.9395C25.4659 37.7232 25.5309 37.4962 25.6131 37.2728C25.5745 37.3852 25.5439 37.4974 25.5155 37.6076C25.4897 37.7172 25.4693 37.8272 25.451 37.9336C25.432 38.0376 25.4185 38.137 25.4059 38.2357C25.3951 38.3338 25.3875 38.4298 25.3818 38.5238C25.3734 38.711 25.3736 38.8906 25.3888 39.0619C25.3948 39.1328 25.403 39.2022 25.4122 39.2705C25.3153 39.3152 25.2208 39.3655 25.1221 39.4057ZM26.0702 39.9937C26.1512 40.048 26.2368 40.1012 26.3285 40.1522C26.4219 40.2017 26.5198 40.2522 26.626 40.2956C26.731 40.336 26.843 40.3752 26.9615 40.4077C27.0824 40.438 27.2095 40.4659 27.3461 40.4846C27.0695 40.4512 26.8193 40.3988 26.5899 40.3261C26.3587 40.2479 26.1498 40.161 25.9612 40.0683C25.7714 39.9754 25.6008 39.8774 25.4433 39.7779C25.3638 39.728 25.2898 39.6785 25.2167 39.623L25.2108 39.6183C25.3125 39.5804 25.41 39.5326 25.5097 39.4902C25.5543 39.5423 25.6009 39.5941 25.6508 39.6448C25.7707 39.7681 25.9111 39.8834 26.0702 39.9937ZM28.0667 39.0926C28.1641 39.1498 28.2652 39.2045 28.3695 39.2523C28.4755 39.2992 28.5858 39.3447 28.7036 39.3828C28.8216 39.4205 28.945 39.4543 29.0755 39.4813C29.2071 39.5052 29.3435 39.524 29.4874 39.5313C29.1981 39.5232 28.9257 39.4825 28.6746 39.4233C28.4688 39.3736 28.2747 39.3128 28.0876 39.2365C28.0493 39.2207 28.0107 39.2047 27.9721 39.1888C27.7532 39.0951 27.5509 38.9911 27.3612 38.882C27.2662 38.8274 27.1753 38.7708 27.0869 38.7122C27.0846 38.7107 27.0822 38.7087 27.0795 38.7073L27.3596 38.5403C27.4188 38.5994 27.4805 38.6573 27.5449 38.714C27.6678 38.8222 27.8021 38.923 27.9472 39.0174C27.9862 39.0431 28.0263 39.0681 28.0667 39.0926ZM28.4734 37.3922L28.4705 37.3826C28.4396 37.2674 28.4099 37.1514 28.383 37.0342C28.3282 36.8005 28.277 36.5633 28.2342 36.3224C28.2118 36.2014 28.194 36.0823 28.1746 35.9572C28.1553 35.8319 28.1384 35.7056 28.124 35.5787C28.098 35.3265 28.0863 35.0711 28.0968 34.82C28.0942 34.9457 28.1019 35.0721 28.1122 35.1976C28.1256 35.3227 28.1443 35.447 28.1661 35.5696C28.1883 35.6923 28.2182 35.8137 28.2478 35.933C28.2792 36.0514 28.3156 36.1704 28.3501 36.2825C28.4234 36.5078 28.5051 36.7268 28.6007 36.9367C28.6399 37.0237 28.6813 37.1089 28.7234 37.1932L28.4734 37.3922ZM29.7664 38.01C29.8776 38.0655 29.9885 38.1137 30.1059 38.1591C30.2238 38.2018 30.3455 38.2434 30.4726 38.2748C30.5999 38.3056 30.732 38.3314 30.869 38.3491C31.007 38.3635 31.1496 38.3726 31.2969 38.3679C31.0009 38.3833 30.7176 38.3642 30.4512 38.321C30.3175 38.2979 30.1875 38.27 30.0613 38.2377C29.9351 38.2054 29.8084 38.164 29.6881 38.1216C29.4453 38.0365 29.2176 37.9375 29.0004 37.8301C28.8912 37.7769 28.7858 37.7201 28.6828 37.661L28.6742 37.6558L28.933 37.458C29.006 37.5183 29.0804 37.5776 29.1579 37.6349C29.3444 37.7738 29.5477 37.8981 29.7664 38.01ZM30.0093 36.048C30.0082 36.0445 30.0065 36.0409 30.005 36.0378C29.9534 35.9189 29.9033 35.7997 29.8556 35.6791C29.7601 35.4387 29.669 35.1951 29.5867 34.9485C29.5719 34.9046 29.5573 34.8608 29.5427 34.8175C29.4735 34.6091 29.4125 34.3983 29.3593 34.1866C29.2972 33.9301 29.2512 33.6712 29.2308 33.4164C29.2438 33.5439 29.2681 33.6718 29.2956 33.7987C29.3262 33.9255 29.363 34.0509 29.4029 34.1751C29.4433 34.2992 29.4908 34.4212 29.5392 34.5416C29.5894 34.6615 29.6432 34.7798 29.6988 34.8962C29.7232 34.9448 29.7479 34.9937 29.7728 35.0427C29.8665 35.2241 29.9624 35.3967 30.0679 35.5647C30.1232 35.6526 30.18 35.7393 30.238 35.8243L30.0093 36.048ZM31.4504 36.6019C31.5712 36.6488 31.6951 36.6922 31.8226 36.7299C31.9504 36.7656 32.0816 36.7984 32.2172 36.8211C32.3528 36.8431 32.4918 36.8597 32.6349 36.8665C32.7782 36.87 32.925 36.8675 33.0739 36.85C32.7757 36.8915 32.4833 36.895 32.2026 36.8715C31.9713 36.85 31.7467 36.8133 31.5295 36.763C31.4843 36.752 31.4388 36.7408 31.3934 36.7297C31.1292 36.6586 30.8764 36.5713 30.6326 36.4735C30.5105 36.4247 30.3913 36.3721 30.2738 36.3168C30.2706 36.3153 30.2672 36.3134 30.2637 36.3121L30.5002 36.0873C30.5856 36.1459 30.6732 36.2027 30.7629 36.2575C30.9339 36.3617 31.1148 36.4565 31.2993 36.5376C31.3491 36.56 31.3997 36.5813 31.4504 36.6019ZM31.2858 34.6758L31.2797 34.6659C31.211 34.5476 31.1442 34.4289 31.0801 34.3086C30.9513 34.0691 30.8274 33.827 30.7137 33.5814C30.5986 33.336 30.4895 33.0812 30.3969 32.8272C30.3058 32.5727 30.2325 32.315 30.1879 32.0605C30.2132 32.1877 30.2507 32.3147 30.2917 32.4407C30.336 32.5662 30.3867 32.6905 30.441 32.8132C30.4958 32.9358 30.5582 33.0558 30.6212 33.1747C30.6864 33.2929 30.7551 33.4092 30.8259 33.5238C30.9715 33.7525 31.1195 33.9687 31.2844 34.1775C31.3519 34.2637 31.4215 34.3481 31.4916 34.4314L31.2858 34.6758ZM32.0856 34.8377C32.3231 34.9572 32.5778 35.0613 32.8333 35.1419C32.9623 35.1811 33.0939 35.2162 33.2281 35.2452C33.3626 35.2717 33.4994 35.2954 33.6393 35.3081C33.779 35.3201 33.9217 35.3257 34.0662 35.3216C34.2107 35.3137 34.3576 35.2993 34.5044 35.2693C34.2114 35.336 33.9179 35.3632 33.6316 35.3608C33.3443 35.3558 33.0677 35.3292 32.7907 35.2758C32.5128 35.2232 32.2438 35.152 31.9813 35.069C31.8496 35.028 31.7206 34.9825 31.5926 34.9338L31.582 34.9294L31.7943 34.6824C31.8897 34.736 31.9865 34.7883 32.0856 34.8377ZM32.0527 32.0737L32.0449 32.0686C32.1829 32.2376 32.3238 32.3992 32.4739 32.5547C32.5527 32.636 32.6327 32.7159 32.7139 32.794L32.5305 33.0564L32.5234 33.0467C32.4397 32.9326 32.3579 32.818 32.2789 32.7021C32.1207 32.4708 31.9682 32.2367 31.8267 31.9991C31.8019 31.9572 31.777 31.9151 31.7526 31.8738C31.6353 31.6743 31.5273 31.4716 31.4297 31.2677C31.3139 31.0203 31.2176 30.7693 31.1525 30.5195C31.188 30.644 31.2366 30.7677 31.289 30.8901C31.3447 31.012 31.4076 31.1319 31.4741 31.2502C31.5411 31.3684 31.6159 31.4838 31.6919 31.5977C31.7697 31.7109 31.8515 31.8221 31.9352 31.9315C31.9716 31.9768 32.0081 32.0225 32.0449 32.0685L33.0151 32.7146L32.0527 32.0737ZM33.5419 31.4764L33.5337 31.4675C33.439 31.3594 33.3464 31.2507 33.2569 31.1402C33.0774 30.9205 32.9041 30.6978 32.7432 30.4707C32.5829 30.2455 32.4296 30.0109 32.2937 29.7734C32.1599 29.5357 32.047 29.293 31.9673 29.0492C32.0102 29.1706 32.0666 29.29 32.1271 29.4079C32.191 29.5249 32.2621 29.64 32.3372 29.753C32.4129 29.8658 32.4966 29.9751 32.5814 30.0833C32.6676 30.1901 32.7604 30.2962 32.8509 30.3977C33.0366 30.6001 33.2321 30.7951 33.4404 30.9776C33.5262 31.0535 33.6138 31.1272 33.7022 31.1996L33.5419 31.4764ZM34.3875 31.5137C34.6536 31.5967 34.9264 31.6582 35.2046 31.701C35.3447 31.7211 35.4821 31.7347 35.6215 31.7421C35.7605 31.7468 35.9008 31.7484 36.0411 31.7381C36.1811 31.7272 36.3219 31.7092 36.4619 31.6812C36.601 31.6492 36.7403 31.6104 36.8756 31.5557C36.6073 31.6716 36.3272 31.7477 36.0455 31.7922C35.9042 31.8136 35.7628 31.8285 35.6209 31.8371C35.4787 31.8454 35.3321 31.8455 35.1888 31.8412C34.9008 31.8335 34.6154 31.8049 34.3325 31.7631C34.1907 31.7426 34.0499 31.7172 33.9094 31.6881L33.8976 31.6854L34.0609 31.4039C34.1686 31.4427 34.2773 31.4798 34.3875 31.5137ZM35.2639 27.9542L35.2547 27.9467C35.1476 27.8556 35.043 27.7635 34.9413 27.6692C34.738 27.4817 34.542 27.2907 34.3598 27.0933C34.1771 26.897 34.007 26.6929 33.8589 26.4842C33.7126 26.2748 33.5786 26.053 33.485 25.8269C33.5354 25.9392 33.5993 26.0474 33.6678 26.1534C33.7389 26.2577 33.8201 26.36 33.9007 26.4577C33.9823 26.5552 34.0718 26.6479 34.1639 26.7399C34.2576 26.8305 34.3555 26.9183 34.4555 27.0039C34.6583 27.173 34.8715 27.3331 35.0962 27.479C35.189 27.5398 35.2833 27.598 35.3783 27.6551L35.2639 27.9542ZM36.0789 27.8527C36.3444 27.8909 36.612 27.9068 36.8799 27.9032C37.0138 27.8996 37.1479 27.8915 37.2814 27.8766C37.4148 27.8594 37.5472 27.8383 37.678 27.8057C37.8086 27.7727 37.9331 27.7311 38.0572 27.6805C38.1792 27.626 38.2997 27.5646 38.413 27.4883C38.1883 27.6465 37.9492 27.7693 37.69 27.8581C37.4305 27.9453 37.1601 28.0058 36.8887 28.0444C36.6168 28.0842 36.3422 28.1029 36.0656 28.108C35.9272 28.1111 35.7885 28.1089 35.6493 28.1031L35.6374 28.1024L35.7511 27.7979C35.8598 27.8185 35.969 27.8373 36.0789 27.8527ZM35.2778 25.2507L35.2695 25.2483C35.4305 25.3631 35.5982 25.4714 35.7728 25.5705C35.8644 25.6223 35.9571 25.6723 36.0507 25.7203C36.0195 25.8226 35.9914 25.9259 35.9575 26.0274C35.9548 26.0249 35.9515 26.0226 35.9486 26.0205C35.8436 25.94 35.7372 25.8573 35.6355 25.7729C35.4315 25.6046 35.2355 25.4315 35.0532 25.2518C35.022 25.2203 34.9907 25.1887 34.9598 25.1576C34.8126 25.0073 34.6782 24.8514 34.556 24.6909C34.4833 24.5931 34.4166 24.4929 34.3568 24.3903C34.2939 24.2866 34.2382 24.1805 34.1911 24.0719C34.241 24.1791 34.304 24.2811 34.3717 24.3806C34.4404 24.478 34.515 24.5704 34.595 24.6605C34.6754 24.7504 34.7638 24.835 34.8541 24.9178C34.9459 24.9995 35.0422 25.078 35.1407 25.1542C35.183 25.1859 35.2259 25.2175 35.2695 25.2482L36.2975 25.549L35.2778 25.2507ZM37.4858 25.8355C37.611 25.8202 37.7358 25.8002 37.8592 25.7736C37.9819 25.745 38.1044 25.7122 38.2236 25.6684C38.3422 25.6241 38.4602 25.5736 38.5724 25.5123C38.681 25.4475 38.7874 25.376 38.8854 25.2905C38.7891 25.3789 38.6869 25.4586 38.5804 25.5303C38.4706 25.6011 38.3561 25.6641 38.2389 25.7197C38.0444 25.8095 37.8429 25.8829 37.6356 25.9406C37.592 25.953 37.5481 25.9644 37.5043 25.9753C37.2515 26.0382 36.993 26.0812 36.7312 26.1104C36.5998 26.125 36.4694 26.1355 36.3339 26.1413C36.3302 26.1415 36.3262 26.1416 36.3225 26.1419C36.3555 26.0386 36.3827 25.9336 36.4131 25.8296C36.5173 25.841 36.622 25.8497 36.7268 25.8558C36.9269 25.8672 37.1268 25.8648 37.3256 25.8499C37.3791 25.8463 37.4327 25.8412 37.4858 25.8355ZM36.4706 24.2176L36.4618 24.2118C36.3591 24.14 36.2589 24.067 36.162 23.9912C35.9668 23.8408 35.7848 23.6866 35.6088 23.5218C35.4334 23.3583 35.2733 23.1852 35.1326 23.0031C34.9937 22.8202 34.8765 22.6249 34.7987 22.4181C34.8411 22.5201 34.8951 22.6157 34.9567 22.7088C35.0207 22.7999 35.0921 22.8866 35.168 22.97C35.2441 23.0531 35.3283 23.1301 35.4141 23.2057C35.5015 23.2797 35.5933 23.3501 35.6872 23.418C35.8769 23.5511 36.0789 23.6742 36.2884 23.7807C36.3747 23.8249 36.4624 23.8667 36.5507 23.9071L36.4706 24.2176Z" fill="#AC966D"/>
<path d="M37.3953 13.8067C37.3942 13.794 37.3936 13.7869 37.3936 13.7869C37.3936 13.7869 37.3942 13.7941 37.3953 13.8067Z" fill="#AC966D"/>
<path d="M36.9832 17.7379L36.9678 17.7375L36.9832 17.7379Z" fill="#AC966D"/>
<path d="M14.8337 40.0833C14.9392 39.9552 14.996 39.8123 14.9293 39.67L15.0444 39.7122C15.0453 39.7076 15.0453 39.7032 15.0465 39.6986C15.0635 39.6305 15.0968 39.569 15.1295 39.5074L15.014 39.4607C15.1609 39.4007 15.2144 39.2566 15.2294 39.0937C15.244 38.9311 15.221 38.7496 15.1985 38.6298C15.1592 38.4194 15.0904 38.1827 15.0084 37.9428C14.9639 37.8182 14.9206 37.697 14.8782 37.5787C14.8561 37.5169 14.833 37.4568 14.8115 37.3931C14.7903 37.3275 14.7693 37.2628 14.7486 37.1988C14.734 37.1552 14.6613 36.9744 14.6103 36.8C14.5586 36.6258 14.5281 36.4582 14.571 36.4483C14.5219 36.4593 14.4719 36.478 14.4234 36.501C14.3754 36.5227 14.3285 36.5503 14.2842 36.5831C14.1957 36.6487 14.1177 36.7349 14.0648 36.8362C13.9433 37.0695 13.8718 37.3385 13.8584 37.6102C13.8463 37.8477 13.8756 38.0929 13.9406 38.3359C14.0064 38.5771 14.1028 38.8264 14.2367 39.0401C14.2537 39.069 14.2735 39.0997 14.2953 39.1311C14.1939 39.0815 14.0902 39.0363 13.9906 38.9829L13.6939 38.8189C13.5266 38.7245 13.3557 38.6363 13.1913 38.5371C13.3569 38.4773 13.4541 38.2996 13.511 38.1081C13.5693 37.9128 13.5933 37.6946 13.6009 37.5514C13.6143 37.2758 13.5879 36.9817 13.5468 36.6857L13.5453 36.688L13.1234 37.3463C13.1232 37.3852 13.1229 37.4246 13.1226 37.464C13.1192 37.6898 13.1084 37.9115 13.0945 38.1281C13.0875 38.2366 13.0784 38.3436 13.0682 38.4498C13.0678 38.4528 13.0673 38.4558 13.0673 38.4589L12.7967 38.2882C12.8234 38.2092 12.8486 38.1288 12.8722 38.0472C12.9171 37.8913 12.9532 37.7303 12.9832 37.5652L12.9794 37.5711L12.5179 38.2914L12.9832 37.5652C12.9911 37.5201 12.9987 37.4756 13.0065 37.431C13.0219 37.3249 13.0361 37.216 13.0489 37.1022C13.0596 36.9889 13.0693 36.8736 13.0729 36.7562C13.076 36.6389 13.0767 36.5196 13.0722 36.3988C13.0647 36.2784 13.0542 36.1576 13.035 36.0369C13.0792 36.2768 13.1026 36.5227 13.1138 36.7642C13.1211 36.9642 13.1232 37.1612 13.1234 37.3464L13.5468 36.6857C13.538 36.6253 13.5293 36.5656 13.5206 36.5066C13.5122 36.4437 13.5039 36.3814 13.4957 36.32C13.478 36.1932 13.4607 36.0691 13.4437 35.9475C13.4376 35.8994 13.3943 35.7073 13.3718 35.5239C13.3471 35.3432 13.3507 35.1559 13.3977 35.147C13.1781 35.1942 12.9303 35.3456 12.7773 35.5621C12.6016 35.8112 12.4762 36.094 12.4035 36.3935C12.372 36.5239 12.3488 36.6602 12.3379 36.7941C12.3276 36.927 12.327 37.0616 12.3354 37.197C12.3522 37.4674 12.4042 37.7415 12.4842 38.0071C12.4942 38.0425 12.5072 38.0794 12.5228 38.116C12.3725 38.0156 12.2273 37.9074 12.0793 37.8036L11.8582 37.6465L11.7476 37.568L11.6411 37.484C11.8263 37.4256 11.959 37.2397 12.0579 37.0291C12.1563 36.8187 12.2219 36.5835 12.2559 36.4298C12.315 36.1611 12.3371 35.8821 12.3455 35.5995C12.3481 35.4523 12.3505 35.309 12.3528 35.1689C12.355 35.0224 12.3537 34.8788 12.3527 34.7365C12.3522 34.6879 12.3347 34.4879 12.3368 34.2984C12.337 34.2047 12.3436 34.1105 12.3577 34.0377C12.3712 33.9656 12.3906 33.9169 12.417 33.912C12.1719 33.959 11.8858 34.1082 11.694 34.3243C11.473 34.5744 11.3019 34.8597 11.182 35.167C11.1294 35.3011 11.0853 35.4408 11.0518 35.5819C11.0201 35.7206 10.9978 35.8621 10.9846 36.0052C10.9578 36.2912 10.9671 36.5831 11.0037 36.8718C11.0084 36.9096 11.0146 36.9508 11.0232 36.9924L10.5157 36.5438C10.4442 36.4799 10.371 36.4177 10.3008 36.3522L10.0951 36.1506C10.2991 36.1 10.4709 35.9113 10.61 35.6965C10.7487 35.4816 10.8555 35.2405 10.9151 35.0834C11.0304 34.7786 11.0966 34.4631 11.1515 34.1376C11.1972 33.8736 11.2289 33.6097 11.2588 33.3528C11.2648 33.303 11.2696 33.102 11.296 32.909C11.3227 32.714 11.3661 32.5321 11.4247 32.5239C11.1554 32.5617 10.8352 32.6963 10.6074 32.9039C10.3446 33.1439 10.1305 33.4219 9.96526 33.7264C9.893 33.8595 9.8299 33.9977 9.77582 34.1396C9.72121 34.2821 9.67572 34.428 9.64253 34.5727C9.57412 34.8644 9.54045 35.1658 9.53466 35.4665C9.53365 35.5061 9.53413 35.5486 9.53606 35.5928L9.1673 35.195L8.98335 34.9957L8.80862 34.7881C9.02547 34.7498 9.22808 34.5672 9.39939 34.3561C9.57031 34.1449 9.71084 33.9056 9.79135 33.7494C9.93164 33.4765 10.0337 33.1892 10.1161 32.9002C10.2005 32.6087 10.2688 32.311 10.3292 32.0256C10.3396 31.9766 10.3642 31.7738 10.4056 31.5848C10.4471 31.3945 10.5081 31.2141 10.5699 31.2099C10.2836 31.2324 9.93926 31.3469 9.68522 31.5397C9.3921 31.7631 9.14603 32.0278 8.9466 32.3232C8.77167 32.5814 8.63081 32.8636 8.53041 33.1526C8.42819 33.4431 8.35901 33.7466 8.31699 34.0524C8.3112 34.0925 8.30657 34.136 8.30319 34.1811L7.89073 33.6435C7.77085 33.4934 7.66356 33.3338 7.55314 33.1765C7.77992 33.1542 8.00945 32.9849 8.20917 32.785C8.40865 32.585 8.5788 32.3549 8.67789 32.2041C8.86931 31.9118 9.00964 31.6021 9.12996 31.2861C9.2291 31.0297 9.31096 30.7721 9.38602 30.5224C9.4004 30.4745 9.4404 30.2751 9.49558 30.0906C9.55285 29.9037 9.62516 29.7308 9.68995 29.7306C9.39071 29.7326 9.02822 29.8204 8.75426 29.993C8.43779 30.1926 8.16653 30.4369 7.93868 30.7153C7.73998 30.9584 7.56997 31.2304 7.44064 31.5116C7.30923 31.7943 7.2086 32.0931 7.13377 32.3967C7.12369 32.4365 7.11433 32.4798 7.10618 32.5249L6.8147 32.0669L6.66891 31.8378C6.62067 31.7613 6.5774 31.6816 6.53138 31.6037C6.76198 31.5984 7.00965 31.4455 7.22905 31.2599C7.44836 31.0741 7.63978 30.8564 7.75208 30.713C7.9478 30.4622 8.10348 30.1923 8.23465 29.9188C8.2674 29.8504 8.29871 29.7818 8.32852 29.7131C8.35978 29.6436 8.38994 29.5738 8.41845 29.5044C8.47576 29.3656 8.52858 29.2275 8.57866 29.0917C8.59583 29.0451 8.64692 28.8498 8.71142 28.6707C8.77505 28.4917 8.85493 28.3266 8.9217 28.3307C8.61773 28.3103 8.24675 28.3707 7.96208 28.5212C7.63298 28.6958 7.34695 28.9182 7.10077 29.1786C6.88282 29.4073 6.70606 29.6585 6.55207 29.9316C6.39934 30.2039 6.27469 30.4948 6.17376 30.7931C6.1604 30.8322 6.14685 30.8751 6.13527 30.9193L5.81977 30.3189C5.73062 30.1485 5.63838 29.9797 5.55883 29.8043C5.78899 29.8183 6.04868 29.6865 6.28202 29.5201C6.51522 29.3535 6.72208 29.153 6.84398 29.0196C7.07916 28.7617 7.2646 28.4772 7.41989 28.1875C7.54378 27.9552 7.65811 27.713 7.75575 27.4808C7.77486 27.4361 7.83337 27.247 7.90371 27.0748C7.97404 26.9023 8.0561 26.7465 8.12282 26.7559C7.96661 26.7353 7.80086 26.7298 7.6337 26.7474C7.46736 26.7644 7.30315 26.8026 7.15934 26.8656C6.82705 27.0107 6.5351 27.2071 6.27898 27.444C5.83757 27.8548 5.50846 28.3914 5.26484 28.9683C5.24806 29.0063 5.23363 29.0467 5.21945 29.0896C5.14376 28.925 5.07579 28.7569 5.00366 28.5907L4.78996 28.0908C5.01799 28.1214 5.2812 28.0107 5.51874 27.8641C5.75594 27.7173 5.96744 27.5353 6.09537 27.4118C6.31666 27.1968 6.49785 26.9567 6.6516 26.7092C6.7284 26.5853 6.79844 26.4595 6.86323 26.3337C6.92672 26.2084 6.98359 26.0836 7.04317 25.9576C7.06314 25.9147 7.12557 25.7314 7.19789 25.5658C7.27039 25.3998 7.35279 25.2514 7.41787 25.2662C7.11534 25.1995 6.75175 25.1995 6.47084 25.3005C6.14588 25.4179 5.86097 25.5885 5.60866 25.8024C5.38723 25.9893 5.18988 26.2094 5.01413 26.4524C4.92614 26.5738 4.84345 26.701 4.76574 26.8326C4.68744 26.9643 4.62174 27.0975 4.55632 27.2351C4.53915 27.2711 4.52207 27.3105 4.50557 27.352L4.38419 27.0349L4.27493 26.7134L4.08929 26.1663C4.30547 26.2166 4.56476 26.1295 4.79999 26.0048C5.03536 25.8797 5.24627 25.7176 5.37045 25.6075C5.61233 25.3935 5.81152 25.1433 5.97511 24.8837C6.10719 24.6747 6.21443 24.4594 6.30952 24.2484C6.32635 24.2084 6.39071 24.0308 6.45974 23.8726C6.52728 23.7144 6.60263 23.5744 6.66486 23.5947C6.37734 23.5015 6.03676 23.4692 5.77211 23.5454C5.46596 23.6336 5.1962 23.7783 4.95364 23.9685C4.74123 24.1348 4.55058 24.3356 4.37407 24.5619C4.19475 24.7888 4.04819 25.036 3.91075 25.2976C3.89261 25.3318 3.87428 25.3695 3.85643 25.4092L3.70167 24.8874L3.56587 24.3602C3.76482 24.4278 4.01211 24.3622 4.23783 24.2569C4.46375 24.1514 4.66752 24.007 4.78725 23.9073C4.99773 23.7326 5.16527 23.5282 5.31135 23.3094C5.45767 23.0905 5.5748 22.8591 5.67427 22.6318C5.69227 22.5927 5.74287 22.4228 5.7982 22.2719C5.85465 22.1207 5.92638 21.9857 5.98244 22.0115C5.71778 21.8947 5.40846 21.8347 5.16773 21.8892C4.88953 21.9527 4.6434 22.0756 4.41869 22.2462C4.32047 22.3207 4.2263 22.4042 4.13556 22.4953C4.04602 22.5864 3.963 22.6845 3.88176 22.7895C3.71991 22.999 3.56964 23.2347 3.43152 23.4837C3.41324 23.5164 3.39442 23.5524 3.37599 23.5905L3.23026 22.9262C3.18592 22.7384 3.15235 22.5484 3.11858 22.3585C3.29316 22.4431 3.5184 22.3994 3.72469 22.3144C3.93111 22.2291 4.11867 22.103 4.22755 22.0141C4.43851 21.842 4.60398 21.6282 4.73467 21.3979C4.84042 21.2127 4.93164 21.0147 5.0027 20.8193C5.01621 20.782 5.05909 20.6159 5.10131 20.4693C5.1441 20.3225 5.19108 20.1944 5.24314 20.2244C4.9999 20.0859 4.74065 19.9987 4.53592 20.0337C4.3019 20.0737 4.09185 20.1766 3.9039 20.3273C3.57813 20.5902 3.29355 21.0037 3.02918 21.4764C3.01211 21.5072 2.99286 21.5416 2.97651 21.5777L2.81948 20.4986C2.96922 20.5958 3.16532 20.5697 3.34348 20.501C3.52279 20.4319 3.67982 20.3211 3.7751 20.2406C4.10821 19.9585 4.30064 19.5291 4.39867 19.1027C4.40605 19.0632 4.43437 18.9101 4.46273 18.7573C4.48917 18.6124 4.51729 18.4863 4.56153 18.5207C4.35675 18.3628 4.13946 18.2571 3.98196 18.2775C3.79931 18.3014 3.64282 18.3898 3.4953 18.528C3.36606 18.6486 3.24497 18.8068 3.12248 18.9917C2.99735 19.1768 2.88866 19.3871 2.77572 19.6124C2.76091 19.642 2.74553 19.6747 2.73014 19.7095L2.69323 19.3708L2.67495 19.2014L2.66274 19.0315L2.62068 18.4532C2.73231 18.5617 2.88658 18.551 3.02576 18.496C3.16556 18.4407 3.28911 18.3416 3.35843 18.2681C3.42563 18.1971 3.48304 18.1136 3.53109 18.0209C3.57871 17.9283 3.62463 17.8264 3.65739 17.7187L3.65565 17.7187L3.42129 17.7256L3.65739 17.7186H3.65806C3.71065 17.5452 3.74413 17.3568 3.75643 17.1665C3.75908 17.13 3.75648 16.9655 3.75334 16.8195C3.75088 16.6734 3.74934 16.5459 3.78349 16.5838C3.62468 16.4097 3.47566 16.289 3.38005 16.3007C3.26977 16.3144 3.18057 16.3952 3.09233 16.5259C2.97559 16.6976 2.86521 16.9554 2.73959 17.258C2.74823 17.0937 2.74461 16.9033 2.738 16.6888C2.73221 16.4741 2.71914 16.2351 2.70264 15.9734C2.68214 15.6592 2.65411 15.365 2.63264 15.1003C2.61108 14.8357 2.59603 14.601 2.59154 14.4061C2.58575 14.2111 2.58985 14.0561 2.59496 13.95C2.59877 13.8779 2.60259 13.8289 2.60461 13.8045C2.59911 13.8646 2.57731 14.0777 2.52106 14.4009C2.48864 14.5935 2.44358 14.8251 2.39553 15.088C2.34763 15.3509 2.29673 15.6451 2.26132 15.9622C2.23146 16.2352 2.21328 16.4851 2.20729 16.7088C2.20237 16.9325 2.21275 17.1298 2.22809 17.2981C2.15645 17.1397 2.08925 16.9907 2.0248 16.8581C1.96035 16.7255 1.90439 16.6091 1.84534 16.5157C1.75889 16.3786 1.67307 16.2909 1.56313 16.2729C1.46804 16.2575 1.31444 16.38 1.15322 16.5667C1.18834 16.5262 1.18342 16.6641 1.18313 16.822C1.18559 16.98 1.1894 17.1579 1.1935 17.1973C1.21318 17.4027 1.25394 17.6049 1.31309 17.7877H1.31376L1.79512 17.7736C1.71533 17.6655 1.6461 17.5454 1.58917 17.4126C1.52 17.2502 1.47643 17.0651 1.45781 16.8558C1.46838 16.9581 1.48796 17.0502 1.51257 17.137C1.53867 17.221 1.5707 17.2978 1.60842 17.369C1.64595 17.4397 1.68961 17.5011 1.73568 17.5599C1.78257 17.6165 1.83309 17.6675 1.8861 17.7146C1.90839 17.7336 1.93131 17.7514 1.95446 17.7688H1.95567C2.04322 17.8349 2.13744 17.8902 2.23576 17.9328C2.28728 17.955 2.33977 17.9747 2.39283 17.9919L2.40441 18.3157C2.40248 18.3143 2.40041 18.3131 2.39848 18.312C2.32896 18.2693 2.26181 18.224 2.19711 18.1745C2.13257 18.1252 2.06966 18.0732 2.01095 18.0177C1.95359 17.9622 1.89888 17.9033 1.84765 17.8405C1.82985 17.8188 1.81248 17.7966 1.79584 17.7735L1.31545 17.7877L1.31371 17.7877C1.38699 18.015 1.50514 18.2113 1.65555 18.3475C1.73298 18.418 1.86719 18.5085 2.01235 18.5499C2.15693 18.5914 2.3114 18.584 2.41025 18.464L2.4334 19.0473L2.4403 19.2189L2.45333 19.3898L2.4802 19.732C2.45858 19.7004 2.43736 19.6706 2.41719 19.6439C2.26547 19.4394 2.11139 19.2443 1.97274 19.071C1.83024 18.898 1.69183 18.7478 1.54952 18.6351C1.38695 18.506 1.22109 18.4261 1.03666 18.4183C0.877611 18.4117 0.673985 18.5488 0.489509 18.7519C0.52926 18.7079 0.57229 18.8465 0.615707 19.005C0.660427 19.1635 0.706016 19.3417 0.721984 19.3807C0.902841 19.8381 1.1757 20.2679 1.55589 20.4875C1.66337 20.5507 1.84997 20.6279 2.04047 20.655C2.23122 20.6823 2.42785 20.6598 2.54773 20.5301L2.67837 21.6229C2.65145 21.5947 2.62497 21.5667 2.59988 21.5402C2.22283 21.1573 1.83781 20.8088 1.45115 20.6084C1.22924 20.4943 1.00994 20.4286 0.770997 20.4373C0.667953 20.4409 0.556226 20.4816 0.444836 20.5488C0.332723 20.6162 0.221911 20.7103 0.126151 20.82C0.167977 20.7725 0.24965 20.9076 0.332047 21.0621C0.414057 21.2169 0.501616 21.3904 0.525013 21.4282C0.5871 21.527 0.652804 21.6242 0.722514 21.7176C0.791499 21.8111 0.866276 21.9004 0.95094 21.983L1.72908 21.8626C1.56703 21.7739 1.42178 21.6699 1.28544 21.5515C1.12171 21.4057 0.974384 21.2338 0.855516 21.0318C0.916108 21.1304 0.987892 21.2164 1.06228 21.2964C1.1387 21.3737 1.22046 21.4417 1.30537 21.5036C1.39056 21.5651 1.48078 21.6165 1.57253 21.664C1.66487 21.7096 1.76043 21.749 1.86005 21.7835C1.90207 21.7974 1.94447 21.8108 1.98717 21.8228L3.69849 21.5581C3.73525 21.5348 3.77114 21.5105 3.80665 21.4861C3.88875 21.4268 3.97163 21.3644 4.0494 21.2982C4.12591 21.2306 4.20025 21.1607 4.26726 21.0843C4.33393 21.0077 4.39621 20.9275 4.45106 20.8416C4.5033 20.7538 4.55183 20.6626 4.58642 20.564C4.52072 20.7647 4.42033 20.9498 4.29837 21.1208C4.19654 21.2606 4.07849 21.3939 3.95624 21.5182C3.93068 21.5446 3.90424 21.5705 3.87751 21.5961C3.72324 21.7439 3.55434 21.8826 3.37633 22.0152C3.28718 22.0818 3.19514 22.1459 3.10049 22.2083C3.09788 22.21 3.09494 22.2117 3.09243 22.2137L3.03483 21.8974C3.11462 21.8653 3.19383 21.831 3.27174 21.7946C3.42052 21.7251 3.56298 21.6455 3.69849 21.558L3.69169 21.5595L1.99416 21.822L1.98726 21.8231C2.14545 21.8688 2.30725 21.9027 2.47127 21.9233C2.55729 21.9341 2.64359 21.942 2.72985 21.9475L2.78065 22.2681C2.77765 22.267 2.77437 22.2664 2.77138 22.2656C2.66129 22.238 2.55309 22.2073 2.44662 22.172C2.23378 22.1018 2.0275 22.0187 1.83072 21.9175C1.79671 21.9 1.7628 21.8819 1.72917 21.8629L0.95369 21.9829L0.951034 21.9833C1.15596 22.1894 1.38666 22.3586 1.64441 22.4615C1.77751 22.5149 1.99691 22.5761 2.2196 22.586C2.44209 22.5963 2.66786 22.556 2.80404 22.4148C2.83424 22.6075 2.86415 22.8002 2.90496 22.9908L3.03956 23.6652C3.00738 23.6379 2.97578 23.6125 2.94587 23.5899C2.71943 23.4167 2.4855 23.2531 2.25018 23.1119C2.13291 23.0412 2.01336 22.9765 1.89613 22.9189C1.78007 22.861 1.66303 22.8108 1.54523 22.7701C1.2756 22.6767 1.00125 22.6336 0.717691 22.6656C0.472479 22.6935 0.203917 22.8732 0 23.1129C0.0452988 23.0607 0.153553 23.1888 0.27213 23.3349C0.389695 23.4814 0.510492 23.6468 0.544116 23.682C0.734478 23.8891 0.941386 24.0861 1.16759 24.2486C1.39601 24.4107 1.65493 24.5358 1.92373 24.6062C2.07844 24.6465 2.32814 24.6866 2.57755 24.675C2.82671 24.6637 3.07492 24.6016 3.21844 24.4471L3.34777 24.9828L3.49684 25.5135C3.46032 25.4891 3.42453 25.4664 3.39066 25.4465C3.13513 25.2931 2.86497 25.1512 2.60572 25.0287C2.34242 24.9071 2.07694 24.8081 1.80795 24.7479C1.50075 24.679 1.19022 24.6602 0.876404 24.7175C0.605045 24.7668 0.323267 24.9703 0.123354 25.228C0.166578 25.1724 0.306286 25.2898 0.447345 25.4266C0.591201 25.563 0.734432 25.7188 0.775293 25.7509C0.981139 25.9207 1.19769 26.0816 1.42925 26.2145C1.71774 26.3795 2.02094 26.5038 2.3469 26.5558C2.51662 26.5826 2.78764 26.6006 3.0536 26.5672C3.31931 26.5342 3.57972 26.4503 3.72353 26.2835L3.90583 26.8401L4.01336 27.1672L4.13353 27.4898C4.09354 27.4689 4.05417 27.4495 4.01712 27.4327C3.73288 27.3045 3.45029 27.1832 3.16156 27.0858C2.87245 26.9889 2.57731 26.9157 2.28207 26.8811C1.94505 26.8409 1.60683 26.8517 1.27179 26.9389C0.982297 27.0143 0.695644 27.245 0.507502 27.5213C0.547639 27.4615 0.713976 27.5647 0.882532 27.6871C1.05099 27.8098 1.22182 27.9513 1.26576 27.9805C1.51913 28.1522 1.80674 28.3045 2.09672 28.4217C2.38815 28.5386 2.69005 28.6183 3.00024 28.639C3.17676 28.6514 3.46153 28.6447 3.73776 28.5867C4.01312 28.5293 4.27763 28.4219 4.41632 28.2417L4.63032 28.7504C4.70273 28.9195 4.77056 29.0906 4.84688 29.258C4.80438 29.2402 4.76188 29.2246 4.72415 29.2102C4.14361 28.9925 3.51454 28.8217 2.89073 28.8022C2.53977 28.7896 2.18862 28.8282 1.84495 28.9436C1.69632 28.9935 1.55116 29.082 1.42105 29.195C1.29196 29.3077 1.17348 29.4462 1.08973 29.5912C1.12591 29.5286 1.31155 29.6172 1.50056 29.7245C1.68952 29.8322 1.88176 29.9585 1.93043 29.9836C2.18621 30.1151 2.4418 30.2389 2.72454 30.3253L3.69024 29.8858C3.57359 29.8759 3.45574 29.8625 3.34049 29.8443C3.22659 29.8255 3.11366 29.8024 3.00169 29.7749C2.73101 29.7056 2.4663 29.6054 2.21805 29.4665C2.34353 29.5327 2.47484 29.5837 2.60698 29.6276C2.74027 29.668 2.87549 29.6977 3.011 29.7207C3.14675 29.7431 3.284 29.7541 3.42038 29.7609C3.55622 29.7659 3.69699 29.7622 3.83492 29.7548C3.89339 29.7508 3.952 29.7461 4.01056 29.74L6.13406 28.7733C6.1768 28.7341 6.21926 28.6951 6.26147 28.6565C6.35911 28.5626 6.45386 28.4672 6.54745 28.3676C6.63848 28.2676 6.72796 28.1659 6.80949 28.0603C6.89039 27.9545 6.96729 27.8466 7.03637 27.7356C7.10232 27.6237 7.16397 27.51 7.21187 27.3933C7.1221 27.6283 6.99797 27.8596 6.85204 28.0845C6.72878 28.2698 6.59457 28.452 6.45409 28.6277C6.42443 28.6642 6.39433 28.7013 6.36432 28.7384C6.18906 28.9504 6.00087 29.1577 5.80578 29.3614C5.70814 29.4636 5.60765 29.564 5.5049 29.6637L5.49616 29.6723L5.35868 29.3828C5.45197 29.3184 5.5444 29.2522 5.63544 29.1842C5.80911 29.0545 5.97506 28.9167 6.13406 28.7734L6.12557 28.7773L4.01906 29.7362L4.01056 29.7402C4.22741 29.719 4.44257 29.6854 4.65526 29.6383C4.7667 29.6135 4.87742 29.5859 4.98712 29.556L5.12572 29.8506C5.12181 29.8511 5.11756 29.8516 5.11366 29.852C4.97178 29.8691 4.83024 29.8827 4.68845 29.8914C4.40504 29.9093 4.12113 29.9131 3.83781 29.8965C3.78875 29.8936 3.73954 29.8903 3.69029 29.8859L2.72792 30.324L2.72459 30.3255C3.06908 30.4361 3.42067 30.5028 3.775 30.497C3.95851 30.4942 4.24661 30.4654 4.5212 30.3861C4.79574 30.3072 5.05697 30.1783 5.1893 29.9855C5.26933 30.1638 5.36326 30.3354 5.45347 30.5088L5.7737 31.1194C5.72994 31.1051 5.68812 31.0919 5.64827 31.0811C5.3469 30.9972 5.0329 30.927 4.71364 30.8819C4.39602 30.8361 4.06686 30.8182 3.75266 30.8339C3.39201 30.8521 3.03406 30.9223 2.69135 31.0681C2.39515 31.1941 2.12803 31.4744 1.97863 31.781C2.00921 31.7151 2.20807 31.787 2.41468 31.8763C2.62029 31.9662 2.83038 32.0743 2.88287 32.095C3.19142 32.2154 3.49737 32.326 3.82923 32.3871C4.15582 32.4507 4.4828 32.4765 4.80486 32.4436C4.98948 32.4251 5.27623 32.3719 5.54412 32.2698C5.8121 32.1681 6.06146 32.0183 6.17729 31.815C6.22418 31.8942 6.26813 31.9752 6.31748 32.0529L6.46659 32.2855L6.76482 32.7507C6.72063 32.7396 6.6776 32.7298 6.63712 32.7223C6.32997 32.6622 6.00979 32.6172 5.68537 32.5978C5.3579 32.5803 5.04047 32.5804 4.72309 32.6222C4.36128 32.6697 4.00559 32.7681 3.67316 32.9402C3.38521 33.0888 3.14463 33.387 3.02668 33.7019C3.05306 33.6335 3.25621 33.6916 3.46886 33.7658C3.68768 33.8375 3.9121 33.9268 3.96729 33.9428C4.25578 34.0274 4.54855 34.0999 4.83935 34.1436L5.72179 33.556C5.4883 33.5728 5.25148 33.5745 5.01384 33.5585C4.72613 33.5366 4.43591 33.4842 4.1522 33.3919C4.2948 33.4347 4.43958 33.4618 4.58314 33.482C4.72734 33.4987 4.87066 33.5047 5.0124 33.5043C5.15428 33.5033 5.29495 33.491 5.43345 33.4749C5.572 33.4568 5.70905 33.432 5.84408 33.403C5.90101 33.39 5.95793 33.3762 6.01452 33.3611C6.2234 33.3071 6.43258 33.2386 6.635 33.158C6.74104 33.1156 6.84587 33.0709 6.94891 33.0239L7.13715 33.2901C7.13339 33.2911 7.12924 33.2922 7.12548 33.2934C6.98924 33.3327 6.85219 33.3686 6.71354 33.3999C6.43678 33.463 6.15505 33.5132 5.86869 33.5436C5.81996 33.5484 5.77095 33.5527 5.72174 33.556L4.84239 34.1415L4.83935 34.1436C5.20396 34.1966 5.57509 34.1998 5.92474 34.1372C6.10676 34.1044 6.38627 34.0298 6.64127 33.9087C6.89657 33.7879 7.12808 33.6214 7.22321 33.4119C7.33653 33.5714 7.44662 33.7332 7.57002 33.8853L7.9944 34.4296C7.95021 34.422 7.90709 34.4157 7.8668 34.4113C7.56066 34.3757 7.24198 34.3565 6.92045 34.3635C6.59612 34.3726 6.28028 34.4 5.97144 34.4668C5.61788 34.5431 5.27493 34.67 4.96353 34.8674C4.694 35.0382 4.48941 35.3515 4.41111 35.6698C4.4293 35.6001 4.63751 35.6406 4.86126 35.6935C5.08852 35.7447 5.32269 35.813 5.37952 35.824C5.7132 35.8882 6.04366 35.9413 6.37411 35.9519C6.70905 35.9597 7.03266 35.9326 7.33619 35.8515C7.51025 35.8051 7.77408 35.7105 8.00772 35.5731C8.24183 35.4358 8.44676 35.2559 8.51527 35.0433L8.69554 35.2528L8.88552 35.4539L9.26634 35.8549C9.22263 35.8503 9.18013 35.8473 9.14048 35.8456C8.83945 35.8316 8.5267 35.8356 8.21294 35.8658C8.05495 35.8819 7.90038 35.9015 7.74895 35.9278C7.5967 35.9547 7.44575 35.9895 7.2977 36.0337C6.95947 36.1348 6.63606 36.2845 6.35269 36.5004C6.10695 36.6868 5.94433 37.0066 5.9093 37.3197C5.91722 37.2519 6.13271 37.2721 6.35645 37.3086C6.58604 37.3414 6.8286 37.3872 6.88552 37.3936C7.18689 37.4261 7.48666 37.4478 7.77596 37.4434C8.1399 37.4347 8.49278 37.3821 8.80674 37.273C8.97018 37.2161 9.21375 37.1069 9.42192 36.9591C9.63051 36.8113 9.80481 36.625 9.84413 36.4155L10.0571 36.6176C10.1297 36.6832 10.2054 36.7456 10.2795 36.8096L10.8046 37.2578C10.7619 37.2567 10.7213 37.2559 10.6833 37.2569C10.3942 37.2625 10.0956 37.2868 9.7984 37.3377C9.64981 37.3631 9.50176 37.3952 9.35592 37.4347C9.21231 37.4721 9.07149 37.5167 8.93453 37.5701C8.62178 37.6915 8.32934 37.8598 8.08548 38.0878C7.87438 38.2851 7.76318 38.6032 7.77838 38.9011C7.77654 38.8689 7.82956 38.8525 7.91104 38.8461C7.9917 38.8403 8.10261 38.8429 8.21906 38.847C8.45048 38.8568 8.69149 38.8816 8.74832 38.8827C8.9148 38.8861 9.07974 38.8871 9.24313 38.8807C9.32471 38.8777 9.40479 38.8741 9.48507 38.8677C9.5665 38.8601 9.64682 38.8512 9.72565 38.8406C10.0414 38.7975 10.3331 38.7289 10.5909 38.6149C10.7386 38.55 10.9541 38.4317 11.1288 38.2808C11.3041 38.1298 11.4397 37.9461 11.4443 37.7471L11.5546 37.8304L11.669 37.9082L11.8978 38.0637C12.051 38.1661 12.2015 38.2729 12.357 38.3716C12.3169 38.3741 12.2774 38.3766 12.2399 38.3789C11.9656 38.3984 11.6825 38.4399 11.4049 38.5058C11.2661 38.5388 11.1285 38.5783 10.994 38.625C10.8601 38.6708 10.7326 38.7201 10.6081 38.7799C10.3248 38.9151 10.0665 39.0943 9.86579 39.3238C9.69086 39.5232 9.63481 39.8242 9.70037 40.0937C9.68778 40.034 9.89304 40.0202 10.1218 40.0077C10.3489 39.9975 10.5871 40.0008 10.6433 39.9961C10.789 39.9857 10.9331 39.9737 11.0738 39.9587C11.1441 39.9511 11.2135 39.9431 11.2821 39.9337C11.3522 39.9226 11.4212 39.9105 11.4888 39.8973C11.825 39.8327 12.13 39.7417 12.3812 39.6117C12.5118 39.5441 12.6977 39.4252 12.8384 39.2804C12.9821 39.1316 13.0769 38.965 13.0483 38.7841C13.2182 38.881 13.3949 38.966 13.5677 39.0575L13.8741 39.2159C13.977 39.2673 14.0839 39.3102 14.1886 39.3577C14.1496 39.3614 14.1123 39.3659 14.0781 39.3712C13.8148 39.415 13.5587 39.4572 13.3069 39.5328C13.0558 39.6069 12.8127 39.7063 12.5945 39.8337C12.3461 39.9772 12.1357 40.1497 11.9856 40.369C11.9212 40.4633 11.8893 40.5777 11.8883 40.6968C11.887 40.8163 11.9162 40.9412 11.9787 41.0474C11.9521 41.0003 12.1556 40.9578 12.3718 40.9269C12.5888 40.8958 12.8182 40.8766 12.8705 40.8687C12.9459 40.8561 13.0223 40.8434 13.0995 40.8305C13.1756 40.8165 13.2525 40.7988 13.327 40.7824C13.4765 40.7489 13.6204 40.7133 13.7562 40.6749C14.0295 40.595 14.2678 40.5088 14.4621 40.3925C14.5743 40.3242 14.7287 40.2111 14.8337 40.0833ZM3.01476 17.738L3.01148 17.7382L2.86931 17.7423L3.01476 17.738ZM2.52424 20.3796C2.43229 20.3438 2.34227 20.3048 2.25448 20.2612C2.07878 20.1751 1.91196 20.0772 1.75652 19.9613C1.60119 19.8466 1.45661 19.7127 1.33099 19.5582C1.26914 19.4802 1.21062 19.3961 1.16021 19.3054C1.11192 19.2145 1.06942 19.1171 1.03391 19.013C1.07111 19.1147 1.11786 19.2052 1.1689 19.2898C1.22254 19.3715 1.28583 19.445 1.35062 19.5127C1.41604 19.5798 1.48719 19.637 1.56086 19.6912C1.6351 19.7431 1.71243 19.7892 1.79155 19.831C1.95075 19.9113 2.118 19.974 2.29056 20.0154C2.36196 20.033 2.43403 20.0471 2.50634 20.0594L2.53211 20.3824L2.52424 20.3796ZM2.29398 17.7593L2.42419 17.7554L2.42443 17.7455L2.43138 17.4582L2.44392 16.7743L2.46818 16.0912L2.48343 15.7501L2.50007 15.4088L2.4925 15.7504L2.49067 16.0917C2.49129 16.3193 2.49496 16.5469 2.5022 16.7744L2.54151 17.456L2.55762 17.7099L2.56052 17.7515L2.29398 17.7593ZM2.6103 18.3066L2.58739 17.9852C2.63964 17.9643 2.6914 17.941 2.7421 17.9157C2.83868 17.867 2.93077 17.807 3.01578 17.738L3.01698 17.738C3.03956 17.7198 3.0617 17.7012 3.08331 17.6817C3.1345 17.6335 3.18312 17.5821 3.22794 17.5258C3.27174 17.4677 3.31309 17.4076 3.34816 17.3393C3.38328 17.2705 3.41247 17.1972 3.43552 17.1175C3.4569 17.0351 3.4733 16.9483 3.48 16.8521C3.46896 17.0489 3.43215 17.2238 3.369 17.3799C3.31695 17.5077 3.25211 17.6251 3.17642 17.7332L3.17546 17.7332C3.15978 17.7562 3.14323 17.7785 3.12625 17.8005C3.07738 17.864 3.02499 17.9246 2.96956 17.9825C2.91558 18.0406 2.85986 18.096 2.80081 18.1495C2.742 18.2032 2.68016 18.2537 2.61571 18.3023C2.61397 18.3036 2.61204 18.3049 2.6103 18.3066ZM2.79994 20.3526L2.76555 20.0332C2.83415 20.0068 2.90231 19.9789 2.96912 19.9481C3.13097 19.8748 3.2839 19.784 3.42592 19.6808C3.49611 19.6276 3.56385 19.5716 3.62753 19.5113C3.69029 19.4491 3.75021 19.3853 3.8026 19.314C3.85537 19.2422 3.9013 19.1665 3.94423 19.0847C3.98586 19.0005 4.02262 18.9124 4.04872 18.8158C4.0246 18.9143 3.99291 19.0082 3.9546 19.0976C3.91842 19.1868 3.87776 19.2716 3.83009 19.3523C3.73385 19.5127 3.61576 19.6604 3.48386 19.7958C3.35207 19.9323 3.20589 20.0575 3.04974 20.1764C2.97159 20.2363 2.89064 20.2932 2.80703 20.3483L2.79994 20.3526ZM3.17299 24.301C3.04824 24.284 2.92484 24.2638 2.8026 24.2386C2.55994 24.1888 2.31564 24.1273 2.08983 24.0436C1.86295 23.9612 1.64441 23.8575 1.43934 23.73C1.23508 23.601 1.04404 23.444 0.882917 23.2534C0.966134 23.3458 1.05678 23.4253 1.15307 23.4977C1.25066 23.5669 1.35274 23.6271 1.45733 23.6806C1.56211 23.7338 1.67104 23.7758 1.78093 23.8145C1.89146 23.8509 2.0041 23.8808 2.11766 23.9063C2.34604 23.9534 2.57678 23.9819 2.81383 23.9874C2.91191 23.99 3.00984 23.9891 3.10758 23.9865L3.18356 24.302L3.17299 24.301ZM3.44889 23.9072C3.53727 23.8668 3.62507 23.825 3.71137 23.7807C3.92069 23.6743 4.12282 23.5512 4.31246 23.4181C4.40648 23.3502 4.49809 23.2798 4.58546 23.2058C4.67138 23.1302 4.75542 23.0532 4.83173 22.9701C4.90752 22.8867 4.97892 22.8 5.04293 22.7089C5.10454 22.6158 5.15857 22.5202 5.20102 22.4182C5.12306 22.625 5.00593 22.8203 4.867 23.0032C4.72632 23.1853 4.56621 23.3584 4.39075 23.5219C4.21487 23.6867 4.03276 23.8409 3.83767 23.9913C3.74065 24.0671 3.64055 24.1401 3.53794 24.2119L3.52916 24.2177L3.44889 23.9072ZM3.66583 26.1414C3.53032 26.1356 3.39992 26.1252 3.26851 26.1105C3.00675 26.0814 2.74832 26.0384 2.49544 25.9754C2.45164 25.9645 2.40788 25.9532 2.36422 25.9408C2.15683 25.883 1.95547 25.8097 1.76091 25.7198C1.64364 25.6642 1.52921 25.6013 1.41941 25.5304C1.31275 25.4587 1.21067 25.3791 1.11443 25.2906C1.21241 25.3761 1.31868 25.4476 1.42737 25.5125C1.53963 25.5737 1.65763 25.6242 1.77631 25.6686C1.89541 25.7123 2.0179 25.7451 2.14058 25.7737C2.26407 25.8004 2.38892 25.8203 2.51406 25.8357C2.56718 25.8414 2.62072 25.8464 2.67437 25.8501C2.87303 25.8649 3.07289 25.8673 3.273 25.856C3.37788 25.8499 3.48256 25.8411 3.58686 25.8298C3.61715 25.9338 3.64436 26.0388 3.67741 26.142C3.6736 26.1418 3.6695 26.1416 3.66583 26.1414ZM4.04226 26.0275C4.00844 25.926 3.98032 25.8227 3.9491 25.7205C4.04264 25.6725 4.13541 25.6225 4.22702 25.5707C4.40166 25.4716 4.5693 25.3633 4.73028 25.2484L4.72198 25.2509L3.7023 25.5493L4.73028 25.2484C4.77384 25.2177 4.81683 25.1861 4.85899 25.1544C4.95755 25.0782 5.05379 24.9997 5.14564 24.9181C5.23595 24.8352 5.32433 24.7506 5.4046 24.6608C5.48478 24.5706 5.55931 24.4782 5.62801 24.3808C5.69574 24.2813 5.75869 24.1794 5.80867 24.0722C5.76149 24.1807 5.70582 24.2868 5.64292 24.3905C5.58319 24.4931 5.51642 24.5934 5.44372 24.6911C5.32158 24.8517 5.18722 25.0075 5.03999 25.1578C5.00912 25.189 4.97785 25.2205 4.94655 25.2521C4.76424 25.4318 4.56824 25.6048 4.36427 25.7731C4.26248 25.8575 4.15616 25.9402 4.05118 26.0207C4.04829 26.0228 4.04506 26.025 4.04226 26.0275ZM4.35057 28.1032C4.2112 28.1089 4.0726 28.1111 3.9341 28.108C3.65768 28.103 3.38289 28.0842 3.11095 28.0444C2.83964 28.0059 2.5693 27.9454 2.30971 27.8582C2.0506 27.7694 1.81137 27.6466 1.58681 27.4883C1.70003 27.5646 1.82044 27.6261 1.94249 27.6806C2.06662 27.7311 2.19118 27.7728 2.32177 27.8058C2.45246 27.8383 2.58498 27.8594 2.71832 27.8766C2.8519 27.8916 2.98601 27.8997 3.11973 27.9033C3.38772 27.9068 3.65526 27.891 3.92074 27.8528C4.03068 27.8374 4.13985 27.8185 4.24849 27.7979L4.36224 28.1024L4.35057 28.1032ZM4.73583 27.9544L4.6215 27.6552C4.71648 27.5981 4.81075 27.5399 4.90352 27.4791C5.12832 27.3332 5.34145 27.173 5.54426 27.004C5.64431 26.9184 5.74215 26.8306 5.83593 26.74C5.92802 26.648 6.01751 26.5554 6.09899 26.4578C6.1797 26.3602 6.26089 26.2578 6.33195 26.1535C6.40045 26.0475 6.46437 25.9393 6.51483 25.827C6.42124 26.0531 6.28728 26.2749 6.14096 26.4843C5.99281 26.693 5.82276 26.8971 5.64012 27.0933C5.45781 27.2907 5.26181 27.4818 5.05852 27.6693C4.95682 27.7636 4.85214 27.8557 4.74509 27.9468L4.73583 27.9544ZM6.0904 31.6882C5.94987 31.7173 5.80915 31.7427 5.66737 31.7632C5.38434 31.805 5.09899 31.8336 4.81094 31.8413C4.66766 31.8456 4.52115 31.8455 4.37884 31.8372C4.23701 31.8286 4.09547 31.8137 3.95427 31.7923C3.67254 31.7478 3.39249 31.6717 3.12412 31.5558C3.25949 31.6105 3.39881 31.6493 3.53794 31.6813C3.67784 31.7093 3.81871 31.7272 3.9588 31.7381C4.09899 31.7485 4.23928 31.7469 4.37831 31.7421C4.51778 31.7348 4.65507 31.7212 4.79521 31.7011C5.07337 31.6583 5.34623 31.5967 5.61223 31.5138C5.72242 31.4799 5.8312 31.4428 5.93893 31.404L6.10222 31.6854L6.0904 31.6882ZM6.46606 31.4677L6.45791 31.4766L6.2977 31.1997C6.38588 31.1273 6.47359 31.0535 6.55941 30.9777C6.76767 30.7952 6.96319 30.6002 7.14892 30.3978C7.23942 30.2963 7.33219 30.1902 7.4184 30.0834C7.50325 29.9752 7.58695 29.8659 7.66264 29.7531C7.73775 29.6401 7.80882 29.525 7.87269 29.408C7.93318 29.2901 7.98958 29.1707 8.03256 29.0493C7.95282 29.2931 7.83988 29.5358 7.70611 29.7735C7.57021 30.011 7.41685 30.2456 7.25664 30.4708C7.09576 30.6979 6.92242 30.9205 6.74292 31.1403C6.65333 31.2509 6.56071 31.3596 6.46606 31.4677ZM7.46929 33.0565L7.28588 32.7941C7.36697 32.716 7.44715 32.6361 7.52578 32.5548C7.67586 32.3993 7.81687 32.2378 7.95489 32.0687L7.94712 32.0739L6.9847 32.7147L7.95489 32.0686C7.99175 32.0227 8.02827 31.977 8.06459 31.9317C8.14834 31.8223 8.23006 31.7111 8.30797 31.5979C8.38395 31.484 8.45873 31.3686 8.52574 31.2504C8.59231 31.132 8.65517 31.0122 8.71074 30.8902C8.76318 30.7679 8.81166 30.6442 8.84741 30.5197C8.78233 30.7695 8.6859 31.0205 8.57016 31.2679C8.47243 31.4718 8.36456 31.6746 8.24728 31.874C8.22273 31.9153 8.19789 31.9574 8.17299 31.9993C8.0316 32.2368 7.87915 32.471 7.72097 32.7023C7.64185 32.8182 7.56013 32.9327 7.47638 33.0468L7.46929 33.0565ZM8.40711 34.9339C8.27927 34.9826 8.15013 35.0281 8.01838 35.0691C7.75594 35.1521 7.487 35.2233 7.20903 35.2758C6.93222 35.3292 6.6555 35.3559 6.36803 35.3608C6.08186 35.3633 5.78841 35.3361 5.49529 35.2694C5.64214 35.2994 5.78904 35.3138 5.93357 35.3217C6.07805 35.3258 6.22066 35.3202 6.36056 35.3082C6.50041 35.2955 6.63717 35.2718 6.77172 35.2453C6.90583 35.2163 7.03743 35.1811 7.16643 35.142C7.42192 35.0614 7.67654 34.9573 7.91418 34.8378C8.01312 34.7884 8.10999 34.7361 8.20541 34.6825L8.41777 34.9295L8.40711 34.9339ZM8.71402 34.6759L8.50803 34.4315C8.57822 34.3482 8.64774 34.2638 8.71527 34.1776C8.88026 33.9688 9.02822 33.7526 9.17386 33.5239C9.24453 33.4093 9.31328 33.293 9.37845 33.1748C9.4416 33.0559 9.50393 32.9358 9.55873 32.8133C9.61305 32.6906 9.66375 32.5663 9.70804 32.4408C9.749 32.3148 9.78653 32.1878 9.81181 32.0606C9.76718 32.3151 9.69385 32.5728 9.60273 32.8273C9.51025 33.0813 9.40112 33.3361 9.28602 33.5815C9.17236 33.8271 9.04838 34.0692 8.91963 34.3086C8.85542 34.429 8.78865 34.5477 8.71996 34.666L8.71402 34.6759ZM9.72608 36.317C9.60866 36.3723 9.48931 36.4249 9.36726 36.4737C9.1234 36.5715 8.87056 36.6588 8.60649 36.7299C8.561 36.741 8.51546 36.7522 8.47035 36.7632C8.25307 36.8135 8.02851 36.8502 7.79719 36.8717C7.51647 36.8952 7.22413 36.8916 6.9259 36.8502C7.07487 36.8677 7.22157 36.8702 7.36485 36.8667C7.50788 36.8598 7.64701 36.8433 7.78262 36.8213C7.91818 36.7986 8.04935 36.7658 8.17724 36.7301C8.30469 36.6924 8.42857 36.6489 8.54932 36.6021C8.60007 36.5815 8.65068 36.5602 8.70056 36.5378C8.88499 36.4567 9.0659 36.362 9.23691 36.2578C9.32655 36.2029 9.4142 36.1461 9.49968 36.0875L9.73611 36.3123C9.73259 36.3136 9.72922 36.3154 9.72608 36.317ZM9.99469 36.0379C9.99324 36.0411 9.99155 36.0446 9.9904 36.0481L9.76178 35.8244C9.81986 35.7393 9.87654 35.6527 9.93188 35.5648C10.0374 35.3968 10.1332 35.2242 10.2271 35.0428C10.2519 34.9937 10.2766 34.9449 10.3011 34.8963C10.3566 34.7799 10.4104 34.6616 10.4606 34.5417C10.509 34.4212 10.5565 34.2993 10.5969 34.1752C10.6368 34.0511 10.6736 33.9256 10.7041 33.7988C10.7316 33.6719 10.7559 33.544 10.7691 33.4165C10.7487 33.6713 10.7026 33.9302 10.6405 34.1867C10.5872 34.3985 10.5264 34.6092 10.4571 34.8175C10.4426 34.8608 10.4279 34.9047 10.4131 34.9486C10.3308 35.1952 10.2398 35.4388 10.1442 35.6792C10.0964 35.7998 10.0465 35.919 9.99469 36.0379ZM11.317 37.6611C11.214 37.7202 11.1085 37.777 10.9995 37.8303C10.7821 37.9376 10.5544 38.0366 10.3118 38.1218C10.1914 38.1642 10.0646 38.2055 9.93854 38.2378C9.81224 38.2701 9.68228 38.2981 9.54865 38.3211C9.28216 38.3643 8.99884 38.3835 8.70283 38.3681C8.85026 38.3728 8.99276 38.3636 9.13093 38.3493C9.26783 38.3316 9.39992 38.3057 9.52723 38.2749C9.65439 38.2436 9.77611 38.2019 9.89396 38.1592C10.0113 38.1138 10.1221 38.0656 10.2334 38.0102C10.4521 37.8982 10.6555 37.774 10.842 37.6351C10.9194 37.5778 10.994 37.5184 11.0669 37.4581L11.3256 37.656L11.317 37.6611ZM11.5293 37.3827L11.5264 37.3923L11.2763 37.1933C11.3184 37.1091 11.3597 37.0238 11.399 36.9368C11.4946 36.727 11.5763 36.508 11.6497 36.2826C11.6841 36.1706 11.7205 36.0516 11.7518 35.9332C11.7815 35.8138 11.8114 35.6925 11.8336 35.5698C11.8554 35.4472 11.8741 35.3229 11.8875 35.1978C11.8979 35.0723 11.9055 34.9459 11.9029 34.8202C11.9134 35.0712 11.9018 35.3266 11.8757 35.5789C11.8613 35.7058 11.8444 35.8321 11.8251 35.9573C11.8058 36.0825 11.7878 36.2016 11.7654 36.3225C11.7228 36.5635 11.6716 36.8007 11.6167 37.0343C11.5897 37.1516 11.5602 37.2675 11.5293 37.3827ZM12.9126 38.7123C12.8244 38.7709 12.7334 38.8276 12.6384 38.8821C12.4487 38.9913 12.2464 39.0952 12.0275 39.1889C11.989 39.2049 11.9504 39.2208 11.912 39.2366C11.725 39.3129 11.5308 39.3737 11.325 39.4235C11.074 39.4827 10.8016 39.5233 10.5124 39.5315C10.6562 39.5241 10.7926 39.5053 10.9242 39.4814C11.0547 39.4545 11.1781 39.4206 11.2961 39.3829C11.414 39.3448 11.5242 39.2994 11.6302 39.2524C11.7345 39.2046 11.8356 39.15 11.933 39.0928C11.9735 39.0683 12.0136 39.0433 12.0525 39.0175C12.1976 38.923 12.3319 38.8223 12.4548 38.7141C12.5191 38.6574 12.5809 38.5995 12.6402 38.5404L12.9203 38.7074C12.9175 38.7088 12.915 38.7107 12.9126 38.7123ZM14.5887 37.9396C14.645 38.1499 14.6932 38.3546 14.7329 38.5521C14.7735 38.7506 14.8065 38.9423 14.8361 39.1274C14.8495 39.2169 14.8631 39.3073 14.8769 39.3986L14.8777 39.4058C14.779 39.3656 14.6844 39.3153 14.5876 39.2706C14.5968 39.2022 14.605 39.1329 14.6109 39.0619C14.6261 38.8906 14.6263 38.7111 14.618 38.5239C14.6122 38.4299 14.6047 38.3339 14.5938 38.2357C14.5813 38.137 14.5678 38.0377 14.5489 37.9337C14.5305 37.8272 14.5101 37.7173 14.4843 37.6076C14.4559 37.4974 14.4252 37.3853 14.3868 37.2729C14.4689 37.4963 14.5337 37.7233 14.5887 37.9396ZM14.0384 40.0684C13.8499 40.1611 13.641 40.2481 13.4098 40.3263C13.1805 40.399 12.9303 40.4513 12.6535 40.4848C12.7902 40.4661 12.9173 40.4382 13.0383 40.4078C13.1567 40.3753 13.2688 40.3361 13.3738 40.2957C13.48 40.2523 13.5778 40.2018 13.6712 40.1523C13.763 40.1013 13.8486 40.0481 13.9295 39.9938C14.0887 39.8835 14.229 39.7682 14.349 39.645C14.3989 39.5943 14.4454 39.5425 14.49 39.4904C14.5898 39.5328 14.6872 39.5806 14.7888 39.6185L14.783 39.6232C14.7098 39.6787 14.6359 39.7282 14.5564 39.778C14.399 39.8776 14.2284 39.9755 14.0384 40.0684Z" fill="#AC966D"/>
<path d="M2.60449 13.8067C2.60571 13.794 2.60624 13.7869 2.60624 13.7869C2.60624 13.7869 2.60555 13.7941 2.60449 13.8067Z" fill="#AC966D"/>
<path d="M3.03268 17.7375L3.0166 17.7379L3.03268 17.7375Z" fill="#AC966D"/>
<path d="M26.3689 23.5476C26.3395 23.53 26.313 23.5212 26.2894 23.5212C26.2424 23.5212 26.2189 23.5331 26.2189 23.5564C25.9954 24.3917 25.5486 25.0532 24.8781 25.5411C24.2077 26.0293 23.414 26.2733 22.4966 26.2733H21.8968C21.5907 26.2733 21.3703 26.2498 21.2351 26.2027C21.0997 26.1558 21.0086 26.0646 20.9616 25.9293C20.9146 25.7944 20.891 25.5736 20.891 25.2678V23.8896C21.1577 23.8119 21.4159 23.7164 21.6636 23.5997C22.406 23.2499 22.9845 22.7715 23.3987 22.1644C23.8126 21.5575 24.0198 20.8826 24.0198 20.1401C24.0198 18.9551 23.5381 18.0481 22.5739 17.4198C22.0799 17.0978 21.5182 16.8595 20.891 16.7026V16.0375C20.891 15.6847 20.9203 15.4229 20.9793 15.2523C21.038 15.082 21.1557 14.9643 21.3322 14.8995C21.5086 14.8351 21.7789 14.8026 22.1436 14.8026C22.1788 14.8026 22.1965 14.7674 22.1965 14.6968C22.1965 14.6262 22.1789 14.5909 22.1436 14.5909L21.2439 14.6084C20.7027 14.6322 19.1032 14.6322 18.5623 14.6084L17.6626 14.5909C17.639 14.5909 17.6274 14.6261 17.6274 14.6968C17.6274 14.7674 17.6391 14.8026 17.6626 14.8026C18.0271 14.8026 18.2978 14.8351 18.4741 14.8995C18.6506 14.9643 18.771 15.0791 18.8358 15.2434C18.9003 15.4083 18.9329 15.667 18.9329 16.0197V16.4775C18.929 16.4775 18.9254 16.4772 18.9216 16.4772C18.3504 16.4772 17.7791 16.52 17.2079 16.6057V12.5142C17.2079 11.986 17.2901 11.6252 17.4543 11.4324C17.6185 11.2396 17.929 11.1432 18.3862 11.1432H19.286C20.1428 11.1432 20.8602 11.4185 21.4386 11.9679C22.0169 12.5177 22.4133 13.3426 22.6275 14.442C22.6559 14.4848 22.7057 14.5065 22.7773 14.5065C22.8488 14.5065 22.8845 14.4848 22.8845 14.442L22.7133 11.186C22.7133 10.9436 22.688 10.7934 22.6381 10.7364C22.5878 10.6795 22.4632 10.6507 22.2632 10.6507H13.2879C13.2592 10.6507 13.2452 10.6934 13.2452 10.7792C13.2452 10.865 13.2592 10.9077 13.2879 10.9077C13.7303 10.9077 14.0592 10.9472 14.2733 11.0254C14.4874 11.1041 14.6301 11.2435 14.7017 11.4431C14.7729 11.6433 14.8088 11.9574 14.8088 12.3857V22.3037C14.8088 22.7322 14.7693 23.0498 14.6907 23.2569C14.6123 23.464 14.4693 23.6033 14.2624 23.6746C14.0554 23.7461 13.7234 23.7816 13.2664 23.7816C13.2235 23.7816 13.2021 23.8244 13.2021 23.9101C13.2021 23.9959 13.2235 24.0387 13.2664 24.0387C13.7517 24.0387 14.1374 24.0317 14.4231 24.0174L15.9869 23.9959C16.358 23.9959 16.6972 24.0031 17.0044 24.0174C17.3112 24.0317 17.5721 24.0457 17.7863 24.0601C18.219 24.0942 18.5997 24.1142 18.9327 24.1212V25.3385C18.9327 25.6914 18.9002 25.953 18.8357 26.1235C18.7709 26.2942 18.6533 26.4088 18.4828 26.4675C18.3121 26.5264 18.0388 26.5557 17.6625 26.5557C17.6389 26.5557 17.6273 26.5909 17.6273 26.6615C17.6273 26.7321 17.6389 26.7673 17.6625 26.7673H25.9893C26.0833 26.7673 26.151 26.747 26.1924 26.7055C26.2335 26.6645 26.254 26.597 26.254 26.5029C26.254 25.7266 26.3071 24.7562 26.4129 23.5918C26.4131 23.5803 26.3981 23.5653 26.3689 23.5476ZM21.3264 17.9551C21.9118 18.5408 22.2047 19.4476 22.2047 20.6757C22.2047 21.6326 21.9831 22.3571 21.5405 22.8497C21.402 23.0039 21.1714 23.134 20.891 23.2399V17.6482C21.064 17.7397 21.2129 17.8417 21.3264 17.9551ZM18.7718 23.5889C18.1433 23.5889 17.7255 23.4817 17.5186 23.2676C17.3114 23.0533 17.2079 22.7322 17.2079 22.3036V17.1627C17.5079 17.1055 17.8294 17.077 18.172 17.077C18.4079 17.077 18.667 17.0924 18.9329 17.1216V23.5864C18.8782 23.5879 18.8241 23.5889 18.7718 23.5889Z" fill="#AC966D"/>
</svg>
