<svg width="67" height="88" viewBox="0 0 67 88" fill="none" xmlns="http://www.w3.org/2000/svg">
<path d="M1.84049 34.2619C1.16176 45.4775 4.01032 56.037 10.3072 65.6483C14.625 72.2389 20.4876 78.3279 28.2304 84.2633C29.3443 85.1174 32.7258 87.2625 32.869 87.3535L33.5001 87.7534L34.1312 87.3535C34.2745 87.2625 37.6554 85.1172 38.7689 84.2633C46.5123 78.3269 52.3755 72.2377 56.6933 65.647C62.991 56.0354 65.8395 45.476 65.1596 34.2623C64.8086 28.4692 65.3273 22.3774 66.7009 16.1566L67 14.8021L65.615 14.7258C50.5467 13.8959 39.5298 5.6116 34.3039 0.74758L33.5009 0L32.6979 0.74758C27.4725 5.61242 16.4563 13.8976 1.38525 14.7261L0 14.8023L0.29925 16.1569C1.67271 22.377 2.19152 28.4684 1.84049 34.2619ZM33.501 3.20514C39.066 8.18721 49.7361 15.7696 64.1167 16.9836C62.9089 22.9555 62.4682 28.8097 62.8069 34.4049C63.9166 52.7046 55.5846 68.4018 37.3353 82.3931C36.5777 82.9738 34.5411 84.2925 33.5001 84.96C32.4591 84.2925 30.4219 82.9738 29.6643 82.3931C11.417 68.4045 3.08547 52.7073 4.19301 34.4043C4.53211 28.809 4.09137 22.9552 2.88312 16.9836C17.2667 15.771 27.9366 8.18789 33.501 3.20514Z" fill="#AC966D"/>
<path d="M18.781 25C18.5739 25 18.3752 25.083 18.2288 25.2306C18.0823 25.3782 18 25.5784 18 25.7872V61.212C17.9999 61.3155 18.02 61.4179 18.0592 61.5135C18.0985 61.6091 18.156 61.696 18.2285 61.7691C18.301 61.8423 18.3871 61.9004 18.4819 61.94C18.5767 61.9796 18.6784 62 18.781 62H46.1134C46.216 62 46.3176 61.9796 46.4124 61.94C46.5072 61.9004 46.5933 61.8423 46.6659 61.7691C46.7384 61.696 46.7959 61.6091 46.8351 61.5135C46.8743 61.4179 46.8945 61.3155 46.8944 61.212V50.5154L49.4668 53.1084C49.9588 53.604 50.7997 53.253 50.8 52.5518V45.0825C52.0047 43.8701 52.7516 42.195 52.7516 40.35C52.7516 36.9305 50.1848 34.1015 46.8944 33.7094V25.7872C46.8943 25.5784 46.8121 25.3782 46.6656 25.2306C46.5191 25.083 46.3205 25 46.1134 25H18.781ZM19.5627 26.5752H45.3317V33.7094C42.0415 34.1018 39.4744 36.9307 39.4744 40.35C39.4744 42.1956 40.2229 43.8708 41.4283 45.0833V52.5518C41.4286 53.253 42.2695 53.604 42.7615 53.1084L45.3317 50.5177V60.4248H19.5627V26.5752ZM46.1134 35.2338C48.9262 35.2338 51.1889 37.5147 51.1889 40.35C51.1889 43.1853 48.9262 45.4669 46.1134 45.4669C43.3006 45.4669 41.0371 43.1853 41.0371 40.35C41.0371 37.5147 43.3006 35.2338 46.1134 35.2338ZM49.238 46.2495V50.6515L46.6663 48.0592C46.3613 47.7519 45.867 47.7519 45.562 48.0592L42.9903 50.6515V46.251C43.9221 46.7547 44.9854 47.0421 46.1134 47.0421C47.2424 47.0421 48.3057 46.754 49.238 46.2495Z" fill="white"/>
<path d="M29.3222 28.9343C29.115 28.9343 28.9163 29.0173 28.7698 29.165C28.6233 29.3126 28.541 29.5129 28.541 29.7217C28.541 29.9306 28.6233 30.1309 28.7698 30.2785C28.9163 30.4262 29.115 30.5091 29.3222 30.5091H35.5715C35.7786 30.5091 35.9773 30.4262 36.1238 30.2785C36.2703 30.1309 36.3526 29.9306 36.3526 29.7217C36.3526 29.5129 36.2703 29.3126 36.1238 29.165C35.9773 29.0173 35.7786 28.9343 35.5715 28.9343H29.3222Z" fill="white"/>
<path d="M28.5409 34.8384C28.4383 34.8384 28.3368 34.8587 28.242 34.8983C28.1472 34.9379 28.0611 34.9959 27.9886 35.069C27.916 35.1421 27.8585 35.2289 27.8192 35.3245C27.78 35.42 27.7598 35.5224 27.7598 35.6258C27.7598 35.7292 27.78 35.8316 27.8192 35.9271C27.8585 36.0226 27.916 36.1095 27.9886 36.1826C28.0611 36.2557 28.1472 36.3137 28.242 36.3533C28.3368 36.3928 28.4383 36.4132 28.5409 36.4132H37.5228C37.6254 36.4132 37.727 36.3928 37.8218 36.3533C37.9166 36.3137 38.0027 36.2557 38.0752 36.1826C38.1478 36.1095 38.2053 36.0226 38.2445 35.9271C38.2838 35.8316 38.304 35.7292 38.304 35.6258C38.304 35.5224 38.2838 35.42 38.2445 35.3245C38.2053 35.2289 38.1478 35.1421 38.0752 35.069C38.0027 34.9959 37.9166 34.9379 37.8218 34.8983C37.727 34.8587 37.6254 34.8384 37.5228 34.8384H28.5409Z" fill="white"/>
<path d="M23.4657 38.7751C23.2586 38.7751 23.0599 38.8581 22.9134 39.0058C22.7669 39.1534 22.6846 39.3537 22.6846 39.5626C22.6846 39.7714 22.7669 39.9717 22.9134 40.1193C23.0599 40.267 23.2586 40.35 23.4657 40.35H37.5238C37.731 40.35 37.9296 40.267 38.0761 40.1193C38.2226 39.9717 38.3049 39.7714 38.3049 39.5626C38.3049 39.3537 38.2226 39.1534 38.0761 39.0058C37.9296 38.8581 37.731 38.7751 37.5238 38.7751H23.4657Z" fill="white"/>
<path d="M23.4657 42.7124C23.2586 42.7124 23.0599 42.7954 22.9134 42.943C22.7669 43.0907 22.6846 43.291 22.6846 43.4998C22.6846 43.7086 22.7669 43.9089 22.9134 44.0566C23.0599 44.2043 23.2586 44.2872 23.4657 44.2872H37.5238C37.7309 44.2872 37.9296 44.2043 38.0761 44.0566C38.2226 43.9089 38.3049 43.7086 38.3049 43.4998C38.3049 43.291 38.2226 43.0907 38.0761 42.943C37.9296 42.7954 37.7309 42.7124 37.5238 42.7124H23.4657Z" fill="white"/>
<path d="M23.4657 46.6467C23.3631 46.6467 23.2616 46.6671 23.1668 46.7067C23.072 46.7462 22.9859 46.8042 22.9134 46.8774C22.8408 46.9505 22.7833 47.0373 22.744 47.1328C22.7048 47.2284 22.6846 47.3307 22.6846 47.4341C22.6846 47.5375 22.7048 47.6399 22.744 47.7355C22.7833 47.831 22.8408 47.9178 22.9134 47.9909C22.9859 48.064 23.072 48.1221 23.1668 48.1616C23.2616 48.2012 23.3631 48.2216 23.4657 48.2216H37.5238C37.6263 48.2216 37.7279 48.2012 37.8227 48.1616C37.9175 48.1221 38.0036 48.064 38.0761 47.9909C38.1487 47.9178 38.2062 47.831 38.2455 47.7355C38.2847 47.6399 38.3049 47.5375 38.3049 47.4341C38.3049 47.3307 38.2847 47.2284 38.2455 47.1328C38.2062 47.0373 38.1487 46.9505 38.0761 46.8774C38.0036 46.8042 37.9175 46.7462 37.8227 46.7067C37.7279 46.6671 37.6263 46.6467 37.5238 46.6467H23.4657Z" fill="white"/>
<path d="M23.4657 50.5835C23.2586 50.5835 23.0599 50.6665 22.9134 50.8141C22.7669 50.9618 22.6846 51.1621 22.6846 51.3709C22.6846 51.5797 22.7669 51.78 22.9134 51.9277C23.0599 52.0754 23.2586 52.1583 23.4657 52.1583H30.4962C30.7034 52.1583 30.9021 52.0754 31.0486 51.9277C31.1951 51.78 31.2774 51.5797 31.2774 51.3709C31.2774 51.1621 31.1951 50.9618 31.0486 50.8141C30.9021 50.6665 30.7034 50.5835 30.4962 50.5835H23.4657Z" fill="white"/>
<path d="M37.1337 56.4878C36.9265 56.4878 36.7278 56.5708 36.5813 56.7184C36.4348 56.8661 36.3525 57.0664 36.3525 57.2752C36.3525 57.484 36.4348 57.6843 36.5813 57.832C36.7278 57.9797 36.9265 58.0626 37.1337 58.0626H41.4287C41.6358 58.0626 41.8345 57.9797 41.981 57.832C42.1275 57.6843 42.2098 57.484 42.2098 57.2752C42.2098 57.0664 42.1275 56.8661 41.981 56.7184C41.8345 56.5708 41.6358 56.4878 41.4287 56.4878H37.1337Z" fill="white"/>
</svg>
