<svg width="67" height="88" viewBox="0 0 67 88" fill="none" xmlns="http://www.w3.org/2000/svg">
<path d="M1.84049 34.2619C1.16176 45.4775 4.01032 56.037 10.3072 65.6483C14.625 72.2389 20.4876 78.3279 28.2304 84.2633C29.3443 85.1174 32.7258 87.2625 32.869 87.3535L33.5001 87.7534L34.1312 87.3535C34.2745 87.2625 37.6554 85.1172 38.7689 84.2633C46.5123 78.3269 52.3755 72.2377 56.6933 65.647C62.991 56.0354 65.8395 45.476 65.1596 34.2623C64.8086 28.4692 65.3273 22.3774 66.7009 16.1566L67 14.8021L65.615 14.7258C50.5467 13.8959 39.5298 5.6116 34.3039 0.74758L33.5009 0L32.6979 0.74758C27.4725 5.61242 16.4563 13.8976 1.38525 14.7261L0 14.8023L0.29925 16.1569C1.67271 22.377 2.19152 28.4684 1.84049 34.2619ZM33.501 3.20514C39.066 8.18721 49.7361 15.7696 64.1167 16.9836C62.9089 22.9555 62.4682 28.8097 62.8069 34.4049C63.9166 52.7046 55.5846 68.4018 37.3353 82.3931C36.5777 82.9738 34.5411 84.2925 33.5001 84.96C32.4591 84.2925 30.4219 82.9738 29.6643 82.3931C11.417 68.4045 3.08547 52.7073 4.19301 34.4043C4.53211 28.809 4.09137 22.9552 2.88312 16.9836C17.2667 15.771 27.9366 8.18789 33.501 3.20514Z" fill="#AC966D"/>
<path d="M46.265 37.1672C45.2396 37.1672 44.2348 37.2227 43.2653 37.3299V28.5949C43.2653 26.235 38.368 25 33.5304 25C28.6928 25 23.7949 26.235 23.7949 28.5949V31.8535C22.9561 31.7755 22.103 31.7233 21.235 31.7233C16.3974 31.7233 11.5005 32.9583 11.5 35.3178V53.4527C11.5 55.8127 16.3974 57.0472 21.235 57.0472C22.103 57.0472 22.9561 56.995 23.7949 56.917V57.6104C23.7949 59.9703 28.6923 61.2053 33.5304 61.2053C38.3684 61.2053 43.2653 59.9703 43.2653 57.6104V55.0743C44.2343 55.1815 45.2387 55.237 46.265 55.237C51.1026 55.237 56 54.002 56 51.6421V40.7611C56 38.4017 51.1026 37.1672 46.265 37.1672ZM33.5304 56.1428C28.1602 56.1428 25.2304 54.7164 25.2304 53.9834V52.3273C27.0367 53.3987 30.2957 53.9513 33.5304 53.9513C36.765 53.9513 40.0235 53.3987 41.8299 52.3273V53.9834C41.8299 54.7164 38.9005 56.1428 33.5304 56.1428ZM25.2304 41.4468C27.0367 42.5182 30.2957 43.0708 33.5304 43.0708C36.765 43.0708 40.0235 42.5182 41.8299 41.4468V42.5512V43.1029C41.8299 43.8355 38.9005 45.2619 33.5304 45.2619C28.1602 45.2619 25.2304 43.8355 25.2304 43.1029V41.4468ZM25.2304 45.0733C27.0367 46.1447 30.2957 46.6973 33.5304 46.6973C36.765 46.6973 40.0235 46.1447 41.8299 45.0733V46.7299C41.8299 47.4625 38.9005 48.8888 33.5304 48.8888C28.1602 48.8888 25.2304 47.4625 25.2304 46.7299V45.0733ZM25.2304 48.7003C27.0367 49.7717 30.2957 50.3243 33.5304 50.3243C36.765 50.3243 40.0235 49.7717 41.8299 48.7003V50.3569C41.8299 51.0894 38.9005 52.5158 33.5304 52.5158C28.1602 52.5158 25.2304 51.0894 25.2304 50.3569V48.7003ZM33.5304 41.6353C28.1602 41.6353 25.2304 40.209 25.2304 39.4759V38.6299V37.8198C27.0367 38.8912 30.2957 39.4438 33.5304 39.4438C36.765 39.4438 40.0235 38.8912 41.8299 37.8198V39.4759C41.8299 40.209 38.9005 41.6353 33.5304 41.6353ZM33.5304 38.0084C28.1602 38.0084 25.2304 36.582 25.2304 35.8489V34.1928C27.0367 35.2642 30.2957 35.8168 33.5304 35.8168C36.765 35.8168 40.0235 35.2642 41.8299 34.1928V35.8489C41.8299 36.582 38.9005 38.0084 33.5304 38.0084ZM33.5304 34.3809C28.1602 34.3809 25.2304 32.9545 25.2304 32.2219V32.0066V30.5682C25.2438 30.5764 25.2591 30.5836 25.2725 30.5912C25.3634 30.6443 25.4577 30.696 25.5558 30.7462C25.5682 30.7525 25.5792 30.7592 25.5917 30.7654C25.7051 30.8228 25.8242 30.8783 25.9467 30.9324C25.9716 30.9434 25.9974 30.9539 26.0228 30.9649C26.1324 31.0123 26.2453 31.0582 26.3616 31.1027C26.3769 31.1085 26.3917 31.1147 26.4075 31.1204C28.2751 31.8272 30.9106 32.1899 33.5304 32.1899C36.1511 32.1899 38.7881 31.8267 40.6556 31.1195C40.669 31.1147 40.6815 31.1094 40.6949 31.1046C40.8135 31.0592 40.9289 31.0123 41.0408 30.964C41.0643 30.9539 41.0882 30.9439 41.1116 30.9338C41.2351 30.8793 41.3547 30.8238 41.4696 30.7659C41.4801 30.7606 41.4896 30.7549 41.5002 30.7496C41.6002 30.6984 41.6959 30.6458 41.7887 30.5917C41.8021 30.584 41.8169 30.5769 41.8303 30.5692V32.2234C41.8299 32.955 38.9005 34.3809 33.5304 34.3809ZM33.5304 26.4355C38.9005 26.4355 41.8299 27.8619 41.8299 28.5949C41.8299 29.3275 38.9005 30.7539 33.5304 30.7539C28.1602 30.7539 25.2304 29.3275 25.2304 28.5949C25.2304 27.8619 28.1602 26.4355 33.5304 26.4355ZM21.235 33.1588C22.102 33.1588 22.9604 33.2 23.7949 33.2823V37.3418C23.5834 37.3624 23.3729 37.3849 23.159 37.4002C23.0102 37.4112 22.8633 37.4246 22.7135 37.4327C22.225 37.46 21.7321 37.4772 21.2355 37.4772C19.8928 37.4772 18.7028 37.3882 17.6731 37.2428C14.5839 36.8073 12.936 35.8676 12.936 35.3178C12.936 34.5852 15.8653 33.1588 21.235 33.1588ZM12.9355 37.2911C12.9451 37.2968 12.9565 37.3021 12.9666 37.3078C13.0929 37.3815 13.2259 37.4533 13.3661 37.5222C13.3901 37.5337 13.4145 37.5452 13.4384 37.5567C13.5853 37.627 13.737 37.6959 13.8973 37.7605C13.8977 37.7605 13.8977 37.7605 13.8982 37.761C14.0571 37.8256 14.2241 37.8863 14.3954 37.9457C14.426 37.9562 14.4557 37.9667 14.4868 37.9773C14.6528 38.0332 14.8241 38.0868 15.0002 38.1375C15.0337 38.1471 15.0672 38.1567 15.1012 38.1663C15.2854 38.2179 15.4734 38.2682 15.6667 38.3146C15.6739 38.3165 15.6811 38.3179 15.6878 38.3194C15.8873 38.3672 16.0921 38.4117 16.3003 38.4538C16.3175 38.4572 16.3342 38.461 16.3515 38.4644C16.5634 38.5065 16.7802 38.5457 17.0003 38.5816C17.0175 38.5845 17.0343 38.5873 17.0515 38.5897C18.3659 38.8036 19.8028 38.9127 21.2359 38.9127C21.2709 38.9127 21.3053 38.9098 21.3407 38.9094C21.8527 38.9079 22.3633 38.8926 22.8681 38.8634C22.904 38.8615 22.9403 38.8601 22.9762 38.8582C23.2518 38.8414 23.5255 38.8208 23.7964 38.796V40.9702C22.9676 41.053 22.1154 41.1066 21.2388 41.1066C15.8672 41.1066 12.9369 39.6778 12.9369 38.9438V37.2911H12.9355ZM12.9355 40.9162C14.7423 41.9885 18.0018 42.5421 21.2374 42.5421C22.1116 42.5421 22.9628 42.4895 23.7949 42.4115V44.5977C22.9662 44.6805 22.114 44.7341 21.2374 44.7341C15.8658 44.7341 12.9355 43.3053 12.9355 42.5713V40.9162ZM12.9355 44.5432C14.7423 45.6155 18.0018 46.1691 21.2374 46.1691C22.1116 46.1691 22.9628 46.1164 23.7949 46.0385V48.2247C22.9662 48.3075 22.114 48.3611 21.2374 48.3611C15.8658 48.3611 12.9355 46.9323 12.9355 46.1983V44.5432ZM12.9355 48.1701C14.7423 49.2425 18.0018 49.7961 21.2374 49.7961C22.1116 49.7961 22.9628 49.7434 23.7949 49.6654V51.8517C22.9662 51.9345 22.114 51.9881 21.2374 51.9881C15.8658 51.9881 12.9355 50.5593 12.9355 49.8253V48.1701ZM21.235 55.6122C15.8648 55.6122 12.9355 54.1858 12.9355 53.4532V51.7971C14.7423 52.8694 18.0018 53.4231 21.2374 53.4231C22.1116 53.4231 22.9628 53.3704 23.7949 53.2924V55.4892C22.9609 55.571 22.1025 55.6122 21.235 55.6122ZM33.5304 59.7703C28.1602 59.7703 25.2304 58.3439 25.2304 57.6108V56.7649V55.9548C27.0367 57.0261 30.2957 57.5788 33.5304 57.5788C36.765 57.5788 40.0235 57.0261 41.8299 55.9548V57.6108C41.8299 58.3439 38.9005 59.7703 33.5304 59.7703ZM46.265 53.8015C45.2358 53.8015 44.23 53.7441 43.2653 53.6317V51.4497C44.2286 51.5545 45.232 51.6096 46.2626 51.6096C49.4982 51.6096 52.7577 51.0569 54.5645 49.986V51.6431C54.5645 52.3752 51.6352 53.8015 46.265 53.8015ZM46.2626 50.1736C45.2276 50.1736 44.2242 50.1143 43.2653 50.0033V47.8228C44.2286 47.9275 45.2324 47.9821 46.2626 47.9821C49.4982 47.9821 52.7577 47.4294 54.5645 46.3586V48.0156C54.5645 48.7482 51.6342 50.1736 46.2626 50.1736ZM46.2626 46.5466C45.2281 46.5466 44.2242 46.4873 43.2653 46.3763V44.1953C43.2854 44.1977 43.3065 44.1991 43.3266 44.201C43.4046 44.2096 43.4845 44.2159 43.563 44.2235C43.762 44.2431 43.9616 44.2613 44.164 44.2762C44.307 44.2872 44.4511 44.2953 44.5951 44.3039C44.7219 44.3111 44.8482 44.3178 44.9755 44.3235C45.1635 44.3321 45.3521 44.3388 45.542 44.3436C45.598 44.3451 45.654 44.3455 45.71 44.3465C45.8947 44.3498 46.0784 44.3561 46.2645 44.3561C48.9609 44.3561 51.6739 43.9723 53.5491 43.2239C53.5539 43.222 53.5592 43.2201 53.5645 43.2182C53.7324 43.1507 53.8922 43.0799 54.0463 43.0067C54.0702 42.9952 54.0942 42.9842 54.1181 42.9727C54.2626 42.9019 54.4004 42.8282 54.531 42.7521C54.5415 42.7459 54.554 42.7407 54.5645 42.7344V44.3891C54.5645 45.1212 51.6342 46.5466 46.2626 46.5466ZM46.265 42.9206C45.8028 42.9206 45.3473 42.9053 44.8961 42.8823C44.8094 42.878 44.7224 42.8742 44.6362 42.8689C44.2027 42.8426 43.7749 42.8057 43.3553 42.7584C43.3252 42.755 43.2955 42.7507 43.2658 42.7474V38.7725C44.2305 38.6596 45.2367 38.6026 46.2655 38.6026C51.6356 38.6026 54.565 40.029 54.565 40.7616C54.565 41.4942 51.6352 42.9206 46.265 42.9206Z" fill="white"/>
</svg>
