<svg width="67" height="88" viewBox="0 0 67 88" fill="none" xmlns="http://www.w3.org/2000/svg">
<path d="M1.84049 34.2619C1.16176 45.4775 4.01032 56.037 10.3072 65.6483C14.625 72.2389 20.4876 78.3279 28.2304 84.2633C29.3443 85.1174 32.7258 87.2625 32.869 87.3535L33.5001 87.7534L34.1312 87.3535C34.2745 87.2625 37.6554 85.1172 38.7689 84.2633C46.5123 78.3269 52.3755 72.2377 56.6933 65.647C62.991 56.0354 65.8395 45.476 65.1596 34.2623C64.8086 28.4692 65.3273 22.3774 66.7009 16.1566L67 14.8021L65.615 14.7258C50.5467 13.8959 39.5298 5.6116 34.3039 0.74758L33.5009 0L32.6979 0.74758C27.4725 5.61242 16.4563 13.8976 1.38525 14.7261L0 14.8023L0.29925 16.1569C1.67271 22.377 2.19152 28.4684 1.84049 34.2619ZM33.501 3.20514C39.066 8.18721 49.7361 15.7696 64.1167 16.9836C62.9089 22.9555 62.4682 28.8097 62.8069 34.4049C63.9166 52.7046 55.5846 68.4018 37.3353 82.3931C36.5777 82.9738 34.5411 84.2925 33.5001 84.96C32.4591 84.2925 30.4219 82.9738 29.6643 82.3931C11.417 68.4045 3.08547 52.7073 4.19301 34.4043C4.53211 28.809 4.09137 22.9552 2.88312 16.9836C17.2667 15.771 27.9366 8.18789 33.501 3.20514Z" fill="#AC966D"/>
<path d="M38.4146 25.8089V25H27.0894V25.8089C27.0894 28.8053 23.0172 31.4715 19.8089 31.4715H19V48.4593C19 54.1186 30.9772 61.2988 32.3427 62.1012L32.752 62.3375L33.1613 62.1012C34.5268 61.2988 46.504 54.1186 46.504 48.4593V31.4715H45.695C42.4868 31.4715 38.4146 28.8036 38.4146 25.8089ZM28.641 26.6179H36.8614C37.4099 30.009 41.3203 32.6849 44.8845 33.0457V37.943H20.6163V33.0457C24.1837 32.6849 28.0925 30.009 28.641 26.6179ZM20.6179 48.4593V39.5609H31.943V59.9576C27.9291 57.4272 20.6179 52.0704 20.6179 48.4593ZM33.5609 59.9576V39.5609H44.8861V48.4593C44.8861 52.0671 37.5733 57.4272 33.5609 59.9576Z" fill="white"/>
</svg>
